<?xml version="1.0" standalone="no"?>
<!DOCTYPE svg PUBLIC "-//W3C//DTD SVG 1.1//EN" "http://www.w3.org/Graphics/SVG/1.1/DTD/svg11.dtd" >
<svg>
<metadata>
Created by FontForge 20090622 at Fri Apr 10 10:04:06 2020
 By deploy user
Copyright (c) Christian Schwartz, 2007. All rights reserved.
</metadata>
<defs>
<font id="StagSansVU-Semibold" horiz-adv-x="398" >
  <font-face 
    font-family="StagSansVU Semibold"
    font-weight="600"
    font-stretch="normal"
    units-per-em="1000"
    panose-1="2 11 7 3 4 0 0 2 0 4"
    ascent="800"
    descent="-200"
    x-height="527"
    cap-height="700"
    bbox="-371 -228 1256 1039"
    underline-thickness="50"
    underline-position="-50"
    unicode-range="U+001D-U+FB02"
  />
<missing-glyph horiz-adv-x="386" 
 />
    <glyph glyph-name="uniFB00" unicode="ff" horiz-adv-x="673" 
d="M12 411v116h57v26q0 153 178 153q52 0 92 -14v-101h-29q-32 0 -46.5 -9t-14.5 -34v-21h136v32q0 153 179 153q53 0 96 -15v-100h-34q-33 0 -47.5 -9.5t-14.5 -35.5v-25h91v-116h-91v-411h-179v411h-136v-411h-180v411h-57z" />
    <glyph glyph-name=".notdef" horiz-adv-x="386" 
 />
    <glyph glyph-name=".null" horiz-adv-x="0" 
 />
    <glyph glyph-name="nonmarkingreturn" horiz-adv-x="188" 
 />
    <glyph glyph-name="null" horiz-adv-x="0" 
 />
    <glyph glyph-name="null" horiz-adv-x="0" 
 />
    <glyph glyph-name="space" unicode=" " horiz-adv-x="188" 
 />
    <glyph glyph-name="exclam" unicode="!" horiz-adv-x="301" 
d="M91 218l-36 377v105h191v-105l-37 -377h-118zM150 -7q-39 0 -66.5 26.5t-27.5 64.5t27.5 64.5t66.5 26.5t66.5 -26.5t27.5 -64.5t-27.5 -64.5t-66.5 -26.5z" />
    <glyph glyph-name="quotedbl" unicode="&#x22;" horiz-adv-x="405" 
d="M49 458l-25 157v85h158v-85l-25 -157h-108zM248 458l-25 157v85h158v-85l-25 -157h-108z" />
    <glyph glyph-name="numbersign" unicode="#" horiz-adv-x="552" 
d="M54 409v124h88l25 167h117l-25 -167h83l25 167h117l-24 -167h70v-124h-89l-13 -94h70v-124h-88l-28 -191h-117l28 191h-84l-27 -191h-117l27 191h-70v124h88l14 94h-70zM241 409l-13 -94h83l13 94h-83z" />
    <glyph glyph-name="dollar" unicode="$" horiz-adv-x="554" 
d="M320 767v-62q95 -7 170 -49v-125h-71q-43 39 -99 49v-154q118 -31 164.5 -76t46.5 -137q0 -93 -56.5 -148.5t-163.5 -66.5v-100h-91v97q-116 6 -195 55v132h72q49 -53 123 -62v162q-104 31 -153 76t-49 137q0 91 56.5 144.5t154.5 63.5v64h91zM363 191q0 26 -12.5 41
t-39.5 24v-129q52 18 52 64zM175 513q0 -22 12.5 -35t41.5 -25v122q-54 -15 -54 -62z" />
    <glyph glyph-name="percent" unicode="%" horiz-adv-x="865" 
d="M204 422q54 0 54 96q0 97 -54 97t-54 -97q0 -96 54 -96zM204 329q-78 0 -132.5 49.5t-54.5 141.5t54 140.5t133 48.5t133 -48.5t54 -140.5t-54.5 -141.5t-132.5 -49.5zM125 -34l493 763h119l-493 -763h-119zM662 84q54 0 54 97t-54 97q-55 0 -55 -97t55 -97zM662 -9
q-78 0 -132.5 50.5t-54.5 141.5t54 139.5t133 48.5q78 0 132 -48.5t54 -139.5t-54.5 -141.5t-131.5 -50.5z" />
    <glyph glyph-name="ampersand" unicode="&#x26;" horiz-adv-x="712" 
d="M517 0l-45 49q-80 -57 -191 -57q-127 0 -194 55.5t-67 152.5q0 128 144 197q-32 56 -32 119q0 86 63.5 139.5t178.5 53.5q107 0 166 -44v-121h-71q-32 32 -86 32q-31 0 -49.5 -16t-18.5 -45q0 -23 11 -42.5t39 -48.5l127 -144q32 73 38 143h142v-49q-22 -103 -83 -205
l109 -124v-45h-181zM310 118q40 0 77 26l-149 166q-39 -36 -39 -89q0 -47 28 -75t83 -28z" />
    <glyph glyph-name="quotesingle" unicode="'" horiz-adv-x="206" 
d="M49 458l-25 157v85h158v-85l-25 -157h-108z" />
    <glyph glyph-name="parenleft" unicode="(" horiz-adv-x="352" 
d="M332 741v-111q-135 -48 -135 -280q0 -242 135 -290v-109h-51q-40 11 -74.5 30t-68 52t-57.5 76t-38.5 105t-14.5 136q0 90 21.5 161.5t59 116.5t80 72.5t92.5 40.5h51z" />
    <glyph glyph-name="parenright" unicode=")" horiz-adv-x="352" 
d="M19 630v111h52q49 -13 91.5 -40.5t80 -73t59.5 -117t22 -160.5q0 -74 -14.5 -136t-38.5 -105t-57.5 -76t-68 -52t-74.5 -30h-52v109q135 48 135 290q0 232 -135 280z" />
    <glyph glyph-name="asterisk" unicode="*" horiz-adv-x="402" 
d="M265 651l-28 -77l63 48l47 15l39 -121l-46 -16l-75 3l65 -44l28 -39l-104 -74l-29 40l-24 78l-25 -78l-29 -40l-104 74l29 39l65 44l-75 -3l-47 16l40 121l47 -15l61 -48l-26 77v49h128v-49z" />
    <glyph glyph-name="plus" unicode="+" horiz-adv-x="534" 
d="M510 276h-168v-180h-149v180h-169v139h169v180h149v-180h168v-139z" />
    <glyph glyph-name="comma" unicode="," horiz-adv-x="235" 
d="M23 -41q67 9 67 40q0 9 -4 13.5t-15.5 10t-16.5 9.5q-31 21 -31 64q0 35 26 57t65 22q42 0 70.5 -28t28.5 -82q0 -162 -190 -180v74z" />
    <glyph glyph-name="hyphen" unicode="-" horiz-adv-x="306" 
d="M30 224v137h246v-137h-246z" />
    <glyph glyph-name="period" unicode="." horiz-adv-x="235" 
d="M117 -7q-39 0 -66.5 26.5t-27.5 64.5t27.5 64.5t66.5 26.5t66.5 -26.5t27.5 -64.5t-27.5 -64.5t-66.5 -26.5z" />
    <glyph glyph-name="slash" unicode="/" horiz-adv-x="368" 
d="M363 741v-35l-231 -755h-130v35l231 755h130z" />
    <glyph glyph-name="zero" unicode="0" horiz-adv-x="682" 
d="M341 -9q-136 0 -225 93t-89 266q0 172 90 265.5t224 93.5t224 -93.5t90 -265.5t-89 -265.5t-225 -93.5zM341 121q60 0 90.5 53t30.5 172q0 121 -30.5 174t-90.5 53t-90.5 -53t-30.5 -174q0 -120 30 -172.5t91 -52.5z" />
    <glyph glyph-name="one" unicode="1" 
d="M327 0h-192v512l-77 -41h-40v133l173 96h136v-700z" />
    <glyph glyph-name="two" unicode="2" horiz-adv-x="549" 
d="M519 144v-144h-499v146l193 182q62 57 87 94t25 72q0 72 -87 72q-72 0 -129 -47h-69v128q102 62 222 62q257 0 257 -205q0 -68 -40 -125.5t-127 -133.5l-115 -101h282z" />
    <glyph glyph-name="three" unicode="3" horiz-adv-x="539" 
d="M226 -9q-134 0 -211 50v125h71q42 -42 123 -42q51 0 82.5 22.5t31.5 63.5q0 42 -26 61.5t-83 19.5h-57v125h50q113 0 113 79q0 76 -88 76q-71 0 -126 -39h-67v119q93 58 217 58q116 0 181.5 -46.5t65.5 -141.5q0 -122 -131 -160v-4q143 -23 143 -158q0 -99 -78 -153.5
t-211 -54.5z" />
    <glyph glyph-name="four" unicode="4" horiz-adv-x="605" 
d="M511 0h-188v146h-303v146l312 408h179v-429h76v-125h-76v-146zM155 275v-4h171v226h-4z" />
    <glyph glyph-name="five" unicode="5" horiz-adv-x="550" 
d="M526 229q0 -111 -80.5 -174.5t-219.5 -63.5q-120 0 -204 48v129h70q45 -43 124 -43q55 0 87 26.5t32 75.5q0 48 -24 71.5t-64 23.5q-60 0 -96 -40h-109v418h445v-144h-310v-144h3q46 37 128 37q98 0 158 -55.5t60 -164.5z" />
    <glyph glyph-name="six" unicode="6" horiz-adv-x="622" 
d="M323 -9q-136 0 -216 86.5t-80 257.5q0 179 94.5 276.5t265.5 97.5q98 0 170 -34v-134h-69q-39 29 -104 29q-75 0 -114 -42.5t-49 -130.5q60 48 159 48q100 0 159.5 -55.5t59.5 -157.5q0 -109 -74.5 -175t-201.5 -66zM319 325q-56 0 -101 -28q2 -101 27 -143t74 -42
q93 0 93 112q0 101 -93 101z" />
    <glyph glyph-name="seven" unicode="7" horiz-adv-x="533" 
d="M93 0v60l263 488v4h-337v148h488v-158l-224 -542h-190z" />
    <glyph glyph-name="eight" unicode="8" horiz-adv-x="614" 
d="M307 -9q-139 0 -212.5 55t-73.5 153q0 130 134 173v4q-106 36 -106 146q0 86 71.5 136.5t186.5 50.5t186.5 -50.5t71.5 -136.5q0 -112 -105 -146v-4q133 -42 133 -173q0 -98 -73.5 -153t-212.5 -55zM307 112q50 0 76 28t26 73q0 44 -26 72.5t-76 28.5q-51 0 -77 -28
t-26 -73t26 -73t77 -28zM307 427q39 0 60.5 20.5t21.5 58.5t-22 59t-60 21q-39 0 -60.5 -21t-21.5 -59t21.5 -58.5t60.5 -20.5z" />
    <glyph glyph-name="nine" unicode="9" horiz-adv-x="622" 
d="M233 -9q-100 0 -175 31v134h70q36 -29 107 -29q84 0 120.5 41.5t45.5 129.5q-62 -45 -155 -45q-102 0 -162.5 55t-60.5 158q0 109 75.5 176t200.5 67q136 0 216.5 -86.5t80.5 -259.5q0 -179 -92.5 -275.5t-270.5 -96.5zM303 374q56 0 101 27q-4 102 -28 143.5t-73 41.5
q-93 0 -93 -114q0 -98 93 -98z" />
    <glyph glyph-name="colon" unicode=":" horiz-adv-x="236" 
d="M118 277q-40 0 -67 26t-27 64q0 39 27 65.5t67 26.5q39 0 66.5 -26.5t27.5 -65.5q0 -38 -27.5 -64t-66.5 -26zM118 -7q-40 0 -67 26.5t-27 64.5t27 64.5t67 26.5q39 0 66.5 -26.5t27.5 -64.5t-27.5 -64.5t-66.5 -26.5z" />
    <glyph glyph-name="semicolon" unicode=";" horiz-adv-x="236" 
d="M22 -115v74q67 9 67 40q0 9 -4 13.5t-15.5 10t-16.5 9.5q-31 21 -31 64q0 35 26 57t65 22q43 0 71 -28t28 -82q0 -162 -190 -180zM118 277q-40 0 -67 26t-27 64q0 39 27 65.5t67 26.5q39 0 66.5 -26.5t27.5 -65.5q0 -38 -27.5 -64t-66.5 -26z" />
    <glyph glyph-name="less" unicode="&#x3c;" horiz-adv-x="471" 
d="M25 269v121l381 185h38v-135l-236 -108v-3l236 -109v-136h-38z" />
    <glyph glyph-name="equal" unicode="=" horiz-adv-x="504" 
d="M477 350h-450v133h450v-133zM477 140h-450v133h450v-133z" />
    <glyph glyph-name="greater" unicode="&#x3e;" horiz-adv-x="471" 
d="M447 390v-121l-382 -185h-38v135l236 108v3l-236 108v137h38z" />
    <glyph glyph-name="question" unicode="?" horiz-adv-x="464" 
d="M245 218h-130q-10 60 3 98.5t58 81.5q26 24 40.5 39t26 36.5t11.5 42.5q0 27 -18 42t-49 15q-63 0 -103 -40h-68v123q80 53 193 53t172 -47.5t59 -138.5q0 -57 -27.5 -97.5t-82.5 -79.5q-50 -37 -69 -62.5t-16 -65.5zM184 -7q-39 0 -66.5 26.5t-27.5 64.5t27.5 64.5
t66.5 26.5t66.5 -26.5t27.5 -64.5t-27.5 -64.5t-66.5 -26.5z" />
    <glyph glyph-name="at" unicode="@" horiz-adv-x="882" 
d="M442 -134q-66 0 -126.5 13.5t-114.5 43t-94 72.5t-63 106t-23 139q0 99 40 182.5t104.5 135.5t142 80.5t156.5 28.5q170 0 283.5 -88.5t113.5 -242.5q0 -132 -74.5 -201t-184.5 -69q-108 0 -132 63q-56 -62 -131 -62q-58 0 -90.5 36.5t-32.5 106.5q0 96 61 171.5
t159 75.5q61 0 101 -42q29 36 72 36h68l-54 -238q-12 -54 25 -54q46 0 76.5 45t30.5 132q0 113 -78 176.5t-213 63.5q-65 0 -123 -21t-105 -61t-75 -106t-28 -148q0 -143 85 -213t224 -70q152 0 252 66h36v-86q-48 -33 -124.5 -52t-163.5 -19zM404 169q36 0 61 28l35 151
q-18 6 -38 6q-42 0 -69 -41t-27 -96q0 -48 38 -48z" />
    <glyph glyph-name="A" unicode="A" horiz-adv-x="694" 
d="M19 0v45l223 655h208l226 -655v-45h-186l-49 158h-223l-47 -158h-152zM328 524l-71 -236h145l-72 236h-2z" />
    <glyph glyph-name="B" unicode="B" horiz-adv-x="627" 
d="M56 0v700h262q132 0 196 -45t64 -138q0 -116 -126 -147v-4q152 -28 152 -163q0 -99 -72.5 -151t-208.5 -52h-267zM244 124h71q96 0 96 90q0 89 -96 89h-71v-179zM244 420h65q86 0 86 78q0 77 -85 77h-66v-155z" />
    <glyph glyph-name="C" unicode="C" horiz-adv-x="635" 
d="M371 -9q-160 0 -252 93t-92 262q0 170 98 266.5t262 96.5q126 0 210 -50v-133h-74q-52 46 -131 46q-169 0 -169 -219q0 -118 40 -173t120 -55q87 0 152 61h68v-127q-92 -68 -232 -68z" />
    <glyph glyph-name="D" unicode="D" horiz-adv-x="701" 
d="M56 0v700h248q182 0 276.5 -86.5t94.5 -259.5q0 -354 -377 -354h-242zM248 129h47q95 0 139.5 51t44.5 169t-43.5 168t-140.5 50h-47v-438z" />
    <glyph glyph-name="E" unicode="E" horiz-adv-x="581" 
d="M56 0v700h482v-134h-291v-149h205v-126h-205v-161h301v-130h-492z" />
    <glyph glyph-name="F" unicode="F" horiz-adv-x="571" 
d="M248 0h-192v700h485v-134h-293v-167h225v-128h-225v-271z" />
    <glyph glyph-name="G" unicode="G" horiz-adv-x="681" 
d="M371 -9q-170 0 -257.5 91.5t-87.5 263.5q0 174 96.5 268.5t270.5 94.5q117 0 210 -44v-138h-71q-57 44 -137 44q-85 0 -128 -52t-43 -170q0 -121 35.5 -175.5t110.5 -54.5q51 0 80 10v128h-83v116h265v-329q-107 -53 -261 -53z" />
    <glyph glyph-name="H" unicode="H" horiz-adv-x="711" 
d="M248 0h-192v700h192v-276h215v276h192v-700h-192v289h-215v-289z" />
    <glyph glyph-name="I" unicode="I" horiz-adv-x="311" 
d="M252 0h-193v700h193v-700z" />
    <glyph glyph-name="J" unicode="J" horiz-adv-x="490" 
d="M187 -9q-104 0 -171 42v129h66q37 -33 90 -33q74 0 74 72v499h192v-499q0 -210 -251 -210z" />
    <glyph glyph-name="K" unicode="K" horiz-adv-x="693" 
d="M56 0v700h192v-285l237 285h165v-43l-203 -234l224 -380v-43h-187l-172 291l-64 -70v-221h-192z" />
    <glyph glyph-name="L" unicode="L" horiz-adv-x="552" 
d="M523 0h-467v700h192v-568h275v-132z" />
    <glyph glyph-name="M" unicode="M" horiz-adv-x="881" 
d="M56 0v700h251l133 -416h3l133 416h249v-700h-188v483h-3l-157 -483h-110l-155 483h-3v-483h-153z" />
    <glyph glyph-name="N" unicode="N" horiz-adv-x="707" 
d="M56 0v700h205l229 -405h3v405h158v-700h-174l-261 459h-3v-459h-157z" />
    <glyph glyph-name="O" unicode="O" horiz-adv-x="742" 
d="M371 -9q-149 0 -247 95.5t-98 262.5t99 263.5t246 96.5t246.5 -96.5t99.5 -263.5t-99 -262.5t-247 -95.5zM371 122q69 0 109.5 56t40.5 169q0 114 -40.5 170.5t-109.5 56.5t-109.5 -56.5t-40.5 -170.5q0 -113 40.5 -169t109.5 -56z" />
    <glyph glyph-name="P" unicode="P" horiz-adv-x="619" 
d="M56 0v700h257q144 0 215 -55.5t71 -172.5q0 -226 -293 -226h-58v-246h-192zM247 571v-205h58q57 0 80.5 26.5t23.5 78.5t-22.5 76t-81.5 24h-58z" />
    <glyph glyph-name="Q" unicode="Q" horiz-adv-x="742" 
d="M678 -119l-326 88q-163 44 -244.5 133t-81.5 250q0 165 99 261t246 96q148 0 247 -96.5t99 -262.5q0 -110 -49 -183.5t-135 -106.5v-3l207 -31v-145h-62zM371 119q69 0 109.5 56t40.5 172q0 114 -40.5 170.5t-109.5 56.5t-109.5 -56.5t-40.5 -170.5q0 -116 40.5 -172
t109.5 -56z" />
    <glyph glyph-name="R" unicode="R" horiz-adv-x="658" 
d="M456 0l-135 257h-73v-257h-192v700h263q280 0 280 -214q0 -128 -104 -187l139 -254v-45h-178zM246 570v-188h61q53 0 77.5 23t24.5 71t-24.5 71t-77.5 23h-61z" />
    <glyph glyph-name="S" unicode="S" horiz-adv-x="554" 
d="M251 -9q-138 0 -229 56v133h71q51 -56 151 -56q109 0 109 69q0 13 -3 22.5t-11 17.5t-14 13t-21.5 10l-23.5 7.5t-30 8t-31 8.5q-101 25 -148.5 73.5t-47.5 142.5q0 105 71.5 159t191.5 54q125 0 208 -47v-129h-69q-57 43 -132 43q-102 0 -102 -65q0 -32 25.5 -47
t89.5 -30q124 -28 174 -76.5t50 -145.5q0 -107 -71 -164t-208 -57z" />
    <glyph glyph-name="T" unicode="T" horiz-adv-x="603" 
d="M397 0h-192v567h-180v133h553v-133h-181v-567z" />
    <glyph glyph-name="U" unicode="U" horiz-adv-x="693" 
d="M366 131q59 0 86.5 30t27.5 106v433h159v-434q0 -137 -69 -205.5t-216 -68.5q-148 0 -224.5 70t-76.5 204v434h192v-433q0 -76 29.5 -106t91.5 -30z" />
    <glyph glyph-name="V" unicode="V" horiz-adv-x="685" 
d="M239 0l-222 655v45h187l149 -480h2l151 480h161v-45l-222 -655h-206z" />
    <glyph glyph-name="W" unicode="W" horiz-adv-x="944" 
d="M175 0l-156 655v45h186l94 -461h2l107 461h152l110 -461h2l91 461h162v-45l-157 -655h-202l-95 411h-2l-95 -411h-199z" />
    <glyph glyph-name="X" unicode="X" horiz-adv-x="681" 
d="M25 0v47l186 315l-181 291v47h190l137 -229l123 229h157v-47l-171 -293l190 -313v-47h-189l-148 251l-136 -251h-158z" />
    <glyph glyph-name="Y" unicode="Y" horiz-adv-x="637" 
d="M420 0h-192v260l-214 393v47h180l140 -273h2l135 273h152v-47l-203 -388v-265z" />
    <glyph glyph-name="Z" unicode="Z" horiz-adv-x="572" 
d="M26 0v139l311 424v4h-289v133h495v-144l-311 -421v-4h311v-131h-517z" />
    <glyph glyph-name="bracketleft" unicode="[" horiz-adv-x="343" 
d="M61 -49v790h256v-115h-93v-560h93v-115h-256z" />
    <glyph glyph-name="backslash" unicode="\" horiz-adv-x="368" 
d="M5 706v35h129l232 -755v-35h-130z" />
    <glyph glyph-name="bracketright" unicode="]" horiz-adv-x="343" 
d="M282 741v-790h-255v115h92v560h-92v115h255z" />
    <glyph glyph-name="asciicircum" unicode="^" horiz-adv-x="442" 
d="M15 451v38l140 211h131l141 -211v-38h-128l-77 110h-3l-76 -110h-128z" />
    <glyph glyph-name="underscore" unicode="_" horiz-adv-x="380" 
d="M383 -162h-386v110h386v-110z" />
    <glyph glyph-name="grave" unicode="`" 
d="M257 561h-105l-102 99v43h173l34 -109v-33z" />
    <glyph glyph-name="a" unicode="a" horiz-adv-x="553" 
d="M508 0h-98q-32 0 -48 11.5t-24 38.5q-51 -57 -151 -57q-73 0 -120 41t-47 116q0 81 56 122.5t151 41.5q57 0 101 -10v36q0 36 -20.5 51.5t-68.5 15.5q-71 0 -125 -35h-54v121q98 42 214 42q120 0 177 -42.5t57 -139.5v-353zM258 98q36 0 70 29v93q-32 5 -59 5
q-78 0 -78 -63q0 -64 67 -64z" />
    <glyph glyph-name="b" unicode="b" horiz-adv-x="607" 
d="M228 606v-132q68 61 157 61q85 0 142 -62t57 -199q0 -142 -63 -212t-160 -70q-102 0 -157 60q-28 -52 -63 -52h-93v700h114q42 0 54 -17t12 -77zM303 401q-38 0 -75 -17v-252q29 -22 73 -22q46 0 73.5 32t27.5 116q0 83 -25.5 113t-73.5 30z" />
    <glyph glyph-name="c" unicode="c" horiz-adv-x="508" 
d="M301 -8q-134 0 -207.5 70t-73.5 200q0 126 80.5 199.5t211.5 73.5q99 0 167 -37v-123h-65q-37 33 -94 33q-54 0 -85.5 -37.5t-31.5 -110.5q0 -144 113 -144q60 0 105 37h60v-113q-73 -48 -180 -48z" />
    <glyph glyph-name="d" unicode="d" horiz-adv-x="607" 
d="M559 0h-127q-19 0 -30 12t-17 43q-59 -64 -152 -64q-94 0 -152 67.5t-58 197.5q0 75 19 131t51.5 87t69.5 46t79 15q85 0 137 -50v215h114q42 0 54 -17.5t12 -76.5v-606zM296 110q45 0 83 32v241q-29 18 -71 18q-103 0 -103 -141q0 -81 22.5 -115.5t68.5 -34.5z" />
    <glyph glyph-name="e" unicode="e" horiz-adv-x="557" 
d="M535 224h-333q6 -63 36 -87.5t88 -24.5q81 0 134 39h56v-107q-90 -52 -218 -52q-136 0 -207 70.5t-71 197.5q0 126 74 200.5t195 74.5q248 0 248 -265q0 -12 -1 -28t-1 -18zM289 425q-34 0 -56 -23.5t-30 -83.5h164q-2 59 -21 83t-57 24z" />
    <glyph glyph-name="f" unicode="f" horiz-adv-x="358" 
d="M12 411v116h57v32q0 153 180 153q53 0 96 -15v-100h-35q-32 0 -46.5 -9.5t-14.5 -35.5v-25h90v-116h-90v-411h-180v411h-57z" />
    <glyph glyph-name="g" unicode="g" horiz-adv-x="607" 
d="M559 527v-487q0 -104 -76 -157t-215 -53q-133 0 -218 40v122h56q56 -37 139 -37q70 0 102 21t32 69v26q-55 -45 -141 -45q-96 0 -155.5 59t-59.5 185q0 137 65.5 201t160.5 64q89 0 145 -59q18 51 68 51h97zM300 140q40 0 79 27v214q-31 20 -73 20q-46 0 -73.5 -27
t-27.5 -99q0 -78 22.5 -106.5t72.5 -28.5z" />
    <glyph glyph-name="h" unicode="h" horiz-adv-x="602" 
d="M228 606v-140q83 69 186 69q143 0 143 -149v-386h-180v339q0 34 -14 46t-48 12t-87 -17v-380h-180v700h114q42 0 54 -17t12 -77z" />
    <glyph glyph-name="i" unicode="i" horiz-adv-x="278" 
d="M228 0h-179v527h116q39 0 51 -19t12 -82v-426zM139 559q-40 0 -66.5 23.5t-26.5 60.5t26.5 61t66.5 24q41 0 67 -24t26 -61t-26 -60.5t-67 -23.5z" />
    <glyph glyph-name="j" unicode="j" horiz-adv-x="278" 
d="M-39 -156v98h28q33 0 46.5 13.5t13.5 46.5v525h116q39 0 51 -19.5t12 -81.5v-433q0 -85 -43.5 -123.5t-131.5 -38.5q-51 0 -92 13zM139 559q-40 0 -66.5 23.5t-26.5 60.5t26.5 61t66.5 24q41 0 67 -24t26 -61t-26 -60.5t-67 -23.5z" />
    <glyph glyph-name="k" unicode="k" horiz-adv-x="578" 
d="M228 606v-275l164 196h150v-43l-145 -165l165 -276v-43h-169l-122 205l-43 -47v-158h-180v700h114q42 0 54 -17t12 -77z" />
    <glyph glyph-name="l" unicode="l" horiz-adv-x="280" 
d="M230 0h-180v700h114q42 0 54 -17t12 -77v-606z" />
    <glyph glyph-name="m" unicode="m" horiz-adv-x="909" 
d="M173 527q22 0 34 -13.5t17 -51.5q84 73 182 73q101 0 129 -75q85 75 189 75q140 0 140 -149v-386h-180v339q0 33 -13 45.5t-46 12.5t-79 -16v-381h-180v339q0 33 -13 45.5t-46 12.5q-30 0 -79 -15v-382h-180v527h125z" />
    <glyph glyph-name="n" unicode="n" horiz-adv-x="602" 
d="M173 527q23 0 34.5 -13t16.5 -51q87 72 190 72q143 0 143 -149v-386h-180v339q0 34 -14 46t-48 12t-87 -17v-380h-180v527h125z" />
    <glyph glyph-name="o" unicode="o" horiz-adv-x="601" 
d="M301 -8q-122 0 -201.5 73t-79.5 196q0 124 79.5 199t201.5 75q121 0 200.5 -75t79.5 -199q0 -123 -79 -196t-201 -73zM301 110q98 0 98 149q0 76 -26 114.5t-72 38.5q-47 0 -73 -38t-26 -115q0 -149 99 -149z" />
    <glyph glyph-name="p" unicode="p" horiz-adv-x="607" 
d="M357 5q-81 0 -129 37v-204h-180v689h125q22 0 33.5 -12t16.5 -45q69 65 162 65q40 0 74 -13.5t63 -42.5t45.5 -80.5t16.5 -120.5q0 -73 -18.5 -127t-51.5 -85t-72 -46t-85 -15zM304 401q-39 0 -76 -17v-242q30 -21 73 -21q47 0 74 30.5t27 110.5q0 78 -26 108.5t-72 30.5
z" />
    <glyph glyph-name="q" unicode="q" horiz-adv-x="607" 
d="M379 -162v213q-54 -46 -141 -46q-94 0 -154.5 64t-60.5 192q0 142 65.5 208t160.5 66q88 0 145 -62q21 54 68 54h97v-689h-180zM300 122q40 0 79 27v232q-31 20 -73 20q-101 0 -101 -134q0 -82 21.5 -113.5t73.5 -31.5z" />
    <glyph glyph-name="r" unicode="r" horiz-adv-x="415" 
d="M377 383q-89 0 -149 -25v-358h-180v527h125q23 0 34.5 -14.5t16.5 -57.5q60 76 145 76q17 0 32 -4v-144h-24z" />
    <glyph glyph-name="s" unicode="s" horiz-adv-x="469" 
d="M215 -7q-111 0 -190 42v118h61q43 -39 122 -39q78 0 78 38q0 21 -17.5 30t-73.5 17q-89 10 -132 47t-43 116q0 85 60 128.5t162 43.5q103 0 178 -35v-116h-57q-48 32 -116 32q-69 0 -69 -38q0 -17 19.5 -26t70.5 -15q98 -13 140 -48t42 -116q0 -179 -235 -179z" />
    <glyph glyph-name="t" unicode="t" horiz-adv-x="368" 
d="M12 411v116h57v134h180v-134h98v-116h-98v-240q0 -35 14.5 -48.5t50.5 -13.5h35v-104q-48 -14 -103 -14q-86 0 -131.5 35t-45.5 118v267h-57z" />
    <glyph glyph-name="u" unicode="u" horiz-adv-x="610" 
d="M297 124q31 0 82 17v386h179v-527h-125q-23 0 -34 11.5t-16 47.5q-87 -67 -180 -67q-154 0 -154 151v384h180v-343q0 -36 16.5 -48t51.5 -12z" />
    <glyph glyph-name="v" unicode="v" horiz-adv-x="574" 
d="M201 0l-186 486v41h172l113 -329h2l104 329h153v-41l-180 -486h-178z" />
    <glyph glyph-name="w" unicode="w" horiz-adv-x="818" 
d="M160 0l-143 485v42h173l76 -304h2l89 304h132l84 -304h2l81 304h145v-42l-147 -485h-160l-85 290h-2l-89 -290h-158z" />
    <glyph glyph-name="x" unicode="x" horiz-adv-x="571" 
d="M19 0v42l147 227l-137 216v42h176l95 -162l88 162h147v-42l-126 -206l143 -237v-42h-175l-102 178l-102 -178h-154z" />
    <glyph glyph-name="y" unicode="y" horiz-adv-x="569" 
d="M136 -162v41l69 146l-190 461v41h171l110 -299h3l102 299h154v-41l-256 -648h-163z" />
    <glyph glyph-name="z" unicode="z" horiz-adv-x="508" 
d="M25 0v121l247 282h-234v124h441v-124l-248 -281h243v-122h-449z" />
    <glyph glyph-name="braceleft" unicode="{" horiz-adv-x="376" 
d="M97 88v150q0 23 -14 39t-42 16h-22v116h22q28 0 42 16t14 39v141q0 65 39 100.5t116 35.5h97v-115h-61q-11 0 -19.5 -9.5t-8.5 -20.5v-134q0 -44 -21 -70.5t-72 -38.5v-3q51 -14 72 -40.5t21 -68.5v-145q0 -11 8.5 -20.5t19.5 -9.5h61v-115h-99q-76 0 -114.5 35.5
t-38.5 101.5z" />
    <glyph glyph-name="bar" unicode="|" horiz-adv-x="198" 
d="M166 741v-790h-134v790h134z" />
    <glyph glyph-name="braceright" unicode="}" horiz-adv-x="376" 
d="M278 238v-150q0 -66 -38.5 -101.5t-114.5 -35.5h-98v115h60q12 0 20.5 9t8.5 21v145q0 43 20.5 69t71.5 40v3q-51 14 -71.5 40t-20.5 69v134q0 12 -8.5 21t-20.5 9h-60v115h97q77 0 115.5 -35.5t38.5 -100.5v-141q0 -23 14 -39t42 -16h23v-116h-23q-28 0 -42 -16t-14 -39
z" />
    <glyph glyph-name="asciitilde" unicode="~" horiz-adv-x="406" 
d="M16 206v53q10 53 41.5 85t80.5 32q30 0 70.5 -12.5t48.5 -12.5q26 0 35 28h97v-53q-9 -53 -40.5 -85t-80.5 -32q-26 0 -67.5 12.5t-51.5 12.5q-26 0 -35 -28h-98z" />
    <glyph glyph-name="exclamdown" unicode="&#xa1;" horiz-adv-x="301" 
d="M209 413l37 -376v-105h-191v105l36 376h118zM150 638q40 0 67 -26t27 -64q0 -39 -27 -65.5t-67 -26.5q-39 0 -66.5 26.5t-27.5 65.5q0 38 27.5 64t66.5 26z" />
    <glyph glyph-name="cent" unicode="&#xa2;" horiz-adv-x="520" 
d="M488 153v-113q-56 -35 -128 -44v-99h-91v97q-118 9 -183.5 78t-65.5 190q0 115 69 186.5t182 83.5v63h91v-63q73 -7 124 -34v-123h-65q-22 19 -59 29v-286q38 9 66 35h60zM202 260q0 -112 69 -138v277q-69 -30 -69 -139z" />
    <glyph glyph-name="sterling" unicode="&#xa3;" horiz-adv-x="540" 
d="M19 0v120q77 29 77 119q0 28 -4 49h-68v118h41q-12 50 -12 91q0 102 72 157t190 55q114 0 196 -50v-133h-69q-47 40 -110 40q-40 0 -66 -20t-26 -60t6 -80h162v-118h-147q2 -30 2 -41q0 -61 -38 -103h295v-144h-501z" />
    <glyph glyph-name="yen" unicode="&#xa5;" horiz-adv-x="606" 
d="M49 292v95h115l-145 266v47h176l122 -250h3l116 250h151v-47l-139 -266h120v-95h-165v-47h165v-94h-165v-151h-189v151h-165v94h165v47h-165z" />
    <glyph glyph-name="brokenbar" unicode="&#xa6;" horiz-adv-x="198" 
d="M32 -49v357h135l-1 -357h-134zM32 390v351h134l1 -351h-135z" />
    <glyph glyph-name="section" unicode="&#xa7;" horiz-adv-x="550" 
d="M19 274q0 97 93 135q-49 39 -49 123q0 81 60 129t162 48q107 0 183 -36v-116h-57q-46 34 -120 34q-77 0 -77 -43q0 -19 21.5 -33t77.5 -28q114 -28 164.5 -67t50.5 -120q0 -94 -92 -135q52 -40 52 -116q0 -84 -60 -133.5t-178 -49.5q-110 0 -196 41v118h58
q16 -16 55.5 -28t78.5 -12q79 0 79 44q0 21 -21 32.5t-88 30.5q-106 30 -151.5 69.5t-45.5 112.5zM257 239l80 -24q40 16 40 53q0 26 -21.5 41.5t-76.5 30.5q-45 12 -70 20q-44 -13 -44 -50q0 -25 19.5 -40.5t72.5 -30.5z" />
    <glyph glyph-name="dieresis" unicode="&#xa8;" 
d="M97 560q-37 0 -61 22t-24 57t24 57.5t61 22.5t60.5 -22.5t23.5 -57.5t-23.5 -57t-60.5 -22zM301 560q-37 0 -60.5 22t-23.5 57t23.5 57.5t60.5 22.5t61 -22.5t24 -57.5t-24 -57t-61 -22z" />
    <glyph glyph-name="copyright" unicode="&#xa9;" horiz-adv-x="781" 
d="M391 -8q-151 0 -257 96t-106 262t106 262t257 96q152 0 257 -96t105 -262t-105 -262t-257 -96zM391 48q125 0 209.5 81.5t84.5 220.5t-84.5 220.5t-209.5 81.5q-126 0 -210.5 -81.5t-84.5 -220.5t84.5 -220.5t210.5 -81.5zM402 151q-98 0 -152 51.5t-54 147.5
q0 93 59 147.5t155 54.5q69 0 125 -27v-95h-52q-30 24 -67 24q-38 0 -59.5 -26.5t-21.5 -78.5q0 -102 79 -102q44 0 74 26h48v-86q-56 -36 -134 -36z" />
    <glyph glyph-name="ordfeminine" unicode="&#xaa;" horiz-adv-x="466" 
d="M435 258h-91q-47 0 -60 43q-43 -49 -125 -49q-61 0 -100.5 34t-39.5 98q0 68 46.5 103t126.5 35q57 0 84 -8v27q0 27 -17 40t-56 13q-57 0 -102 -28h-49v105q88 37 183 37q104 0 152 -36.5t48 -120.5v-293zM222 345q26 0 54 22v74q-20 4 -46 4q-61 0 -61 -51
q0 -49 53 -49z" />
    <glyph glyph-name="guillemotleft" unicode="&#xab;" horiz-adv-x="532" 
d="M144 40l-113 188v63l113 189h134v-36l-105 -182v-2l105 -184v-36h-134zM367 40l-113 188v63l113 189h134v-36l-105 -182v-2l105 -184v-36h-134z" />
    <glyph glyph-name="registered" unicode="&#xae;" horiz-adv-x="384" 
d="M192 350q-76 0 -130.5 49t-54.5 130q0 82 54.5 130.5t130.5 48.5t130.5 -48.5t54.5 -130.5q0 -81 -54.5 -130t-130.5 -49zM192 389q60 0 99.5 36.5t39.5 103.5t-39.5 103.5t-99.5 36.5t-99.5 -36.5t-39.5 -103.5t39.5 -103.5t99.5 -36.5zM221 441l-29 60h-14v-60h-62v183
h82q77 0 77 -62q0 -30 -26 -47l30 -55v-19h-58zM177 540h15q22 0 22 23q0 21 -22 21h-15v-44z" />
    <glyph glyph-name="overscore" unicode="&#xaf;" 
d="M334 687v-108h-270v108h270z" />
    <glyph glyph-name="degree" unicode="&#xb0;" horiz-adv-x="350" 
d="M175 417q-64 0 -107.5 40.5t-43.5 104.5t43.5 104t107.5 40t108 -40t44 -104t-44 -104.5t-108 -40.5zM175 493q29 0 46.5 19t17.5 50t-17.5 49.5t-46.5 18.5q-28 0 -45 -18.5t-17 -49.5t17 -50t45 -19z" />
    <glyph glyph-name="uni00B2" unicode="&#xb2;" horiz-adv-x="348" 
d="M317 406v-98h-295v98l109 96q52 46 52 72q0 32 -40 32q-38 0 -62 -22h-52v88q57 35 137 35q156 0 156 -118q0 -40 -21 -68.5t-70 -68.5l-56 -46h142z" />
    <glyph glyph-name="uni00B3" unicode="&#xb3;" horiz-adv-x="343" 
d="M147 301q-72 0 -128 30v82h48q28 -21 65 -21q55 0 55 37q0 36 -51 36h-40v79h36q54 0 54 35q0 33 -45 33q-34 0 -63 -18h-48v80q50 33 134 33q68 0 108.5 -27t40.5 -80q0 -70 -80 -89v-3q87 -12 87 -90q0 -57 -45.5 -87t-127.5 -30z" />
    <glyph glyph-name="acute" unicode="&#xb4;" 
d="M247 561h-105v33l33 109h173v-43z" />
    <glyph glyph-name="paragraph" unicode="&#xb6;" horiz-adv-x="590" 
d="M242 -91v391h-3q-101 0 -159.5 49t-58.5 150q0 201 254 201h259v-791h-114v677h-64v-677h-114z" />
    <glyph glyph-name="middot" unicode="&#xb7;" horiz-adv-x="235" 
d="M117 204q-39 0 -66.5 26t-27.5 64t27.5 64.5t66.5 26.5t66.5 -26.5t27.5 -64.5t-27.5 -64t-66.5 -26z" />
    <glyph glyph-name="cedilla" unicode="&#xb8;" 
d="M153 0h76v-24q81 -4 81 -73q0 -36 -28.5 -57t-83.5 -21q-49 0 -82 16v62h31q11 -11 33 -11q26 0 26 16t-31 16h-22v76z" />
    <glyph glyph-name="uni00B9" unicode="&#xb9;" horiz-adv-x="275" 
d="M230 308h-139v266l-49 -25h-24v97l109 54h103v-392z" />
    <glyph glyph-name="ordmasculine" unicode="&#xba;" horiz-adv-x="522" 
d="M261 251q-105 0 -171.5 61t-66.5 165q0 105 67 168t171 63t171 -63t67 -168q0 -104 -66.5 -165t-171.5 -61zM261 355q77 0 77 121q0 124 -77 124t-77 -124q0 -121 77 -121z" />
    <glyph glyph-name="guillemotright" unicode="&#xbb;" horiz-adv-x="532" 
d="M254 40v36l105 184v2l-105 182v36h134l113 -189v-63l-113 -188h-134zM31 40v36l105 184v2l-105 182v36h134l113 -189v-63l-113 -188h-134z" />
    <glyph glyph-name="onequarter" unicode="&#xbc;" horiz-adv-x="773" 
d="M721 0h-132v79h-171v94l176 219h127v-231h39v-82h-39v-79zM510 162v-2h83v104h-2zM237 308h-139v266l-49 -25h-23v97l109 54h102v-392zM680 729l-493 -763h-116l493 763h116z" />
    <glyph glyph-name="onehalf" unicode="&#xbd;" horiz-adv-x="814" 
d="M789 98v-98h-295v98l109 96q52 46 52 72q0 32 -40 32q-38 0 -62 -22h-52v88q57 35 137 35q156 0 156 -118q0 -40 -21 -68.5t-70 -68.5l-56 -46h142zM237 308h-139v266l-49 -25h-23v97l109 54h102v-392zM679 729l-493 -763h-116l493 763h116z" />
    <glyph glyph-name="threequarters" unicode="&#xbe;" horiz-adv-x="811" 
d="M157 301q-72 0 -128 30v82h48q28 -21 65 -21q55 0 55 37q0 36 -51 36h-40v79h36q54 0 54 35q0 33 -45 33q-34 0 -63 -18h-48v80q50 33 134 33q68 0 108.5 -27t40.5 -80q0 -70 -80 -89v-3q87 -12 87 -90q0 -57 -45.5 -87t-127.5 -30zM759 0h-132v79h-171v94l176 219h127
v-231h39v-82h-39v-79zM548 162v-2h83v104h-2zM728 729l-493 -763h-116l493 763h116z" />
    <glyph glyph-name="questiondown" unicode="&#xbf;" horiz-adv-x="464" 
d="M219 413h130q10 -58 -3 -97.5t-58 -81.5l-40.5 -39.5t-25.5 -35.5t-12 -43q0 -57 67 -57q63 0 103 40h68v-124q-86 -53 -193 -53q-112 0 -171.5 48t-59.5 139q0 56 28 96.5t82 80.5q36 28 50 40t25.5 35t9.5 52zM280 638q40 0 67 -26t27 -64q0 -39 -27 -65.5t-67 -26.5
q-39 0 -66.5 26.5t-27.5 65.5q0 38 27.5 64t66.5 26z" />
    <glyph glyph-name="Agrave" unicode="&#xc0;" horiz-adv-x="694" 
d="M19 0v45l223 655h208l226 -655v-45h-186l-49 158h-223l-47 -158h-152zM404 723h-105l-102 93v42h173l34 -102v-33zM328 524l-71 -236h145l-72 236h-2z" />
    <glyph glyph-name="Aacute" unicode="&#xc1;" horiz-adv-x="694" 
d="M19 0v45l223 655h208l226 -655v-45h-186l-49 158h-223l-47 -158h-152zM284 723v33l33 102h173v-42l-101 -93h-105zM328 524l-71 -236h145l-72 236h-2z" />
    <glyph glyph-name="Acircumflex" unicode="&#xc2;" horiz-adv-x="694" 
d="M27 0v45l223 655h208l226 -655v-45h-186l-49 158h-223l-47 -158h-152zM201 723v38l91 100h121l89 -100v-38h-97l-56 38l-55 -38h-93zM336 524l-71 -236h145l-72 236h-2z" />
    <glyph glyph-name="Atilde" unicode="&#xc3;" horiz-adv-x="694" 
d="M19 0v45l223 655h208l226 -655v-45h-186l-49 158h-223l-47 -158h-152zM172 723v40q17 103 106 103q27 0 64 -12t46 -12q24 0 31 24h90v-40q-8 -50 -35.5 -76.5t-69.5 -26.5q-28 0 -64.5 13t-45.5 13q-26 0 -32 -26h-90zM328 524l-71 -236h145l-72 236h-2z" />
    <glyph glyph-name="Adieresis" unicode="&#xc4;" horiz-adv-x="694" 
d="M19 0v45l223 655h208l226 -655v-45h-186l-49 158h-223l-47 -158h-152zM242 723q-37 0 -61 22t-24 57t24 57t61 22t60.5 -22t23.5 -57t-23.5 -57t-60.5 -22zM446 723q-37 0 -60.5 22t-23.5 57t23.5 57t60.5 22t61 -22t24 -57t-24 -57t-61 -22zM328 524l-71 -236h145
l-72 236h-2z" />
    <glyph glyph-name="Aring" unicode="&#xc5;" horiz-adv-x="694" 
d="M19 0v45l223 655h208l226 -655v-45h-186l-49 158h-223l-47 -158h-152zM343 723q-46 0 -76.5 27.5t-30.5 74.5q0 46 30.5 74t76.5 28t76.5 -28t30.5 -74q0 -47 -30.5 -74.5t-76.5 -27.5zM328 524l-71 -236h145l-72 236h-2zM343 789q15 0 24.5 9.5t9.5 26.5t-9.5 26.5
t-24.5 9.5q-33 0 -33 -36t33 -36z" />
    <glyph glyph-name="AE" unicode="&#xc6;" horiz-adv-x="963" 
d="M438 0v165h-204l-76 -165h-149v45l318 655h593v-134h-291v-149h204v-126h-204v-161h301v-130h-492zM418 566l-125 -272h145v272h-20z" />
    <glyph glyph-name="Ccedilla" unicode="&#xc7;" horiz-adv-x="631" 
d="M603 59q-88 -64 -218 -68v-15q81 -4 81 -73q0 -36 -28.5 -57t-83.5 -21q-49 0 -82 16v62h31q11 -11 33 -11q26 0 26 16t-31 16h-22v71q-133 18 -207.5 108.5t-74.5 242.5q0 170 98 266.5t262 96.5q126 0 210 -50v-133h-74q-52 46 -131 46q-169 0 -169 -219
q0 -118 40 -173t120 -55q87 0 152 61h68v-127z" />
    <glyph glyph-name="Egrave" unicode="&#xc8;" horiz-adv-x="581" 
d="M369 723h-105l-102 93v42h173l34 -102v-33zM56 0v700h482v-134h-291v-149h205v-126h-205v-161h301v-130h-492z" />
    <glyph glyph-name="Eacute" unicode="&#xc9;" horiz-adv-x="581" 
d="M252 723v33l33 102h173v-42l-101 -93h-105zM56 0v700h482v-134h-291v-149h205v-126h-205v-161h301v-130h-492z" />
    <glyph glyph-name="Ecircumflex" unicode="&#xca;" horiz-adv-x="581" 
d="M56 0v700h482v-134h-291v-149h205v-126h-205v-161h301v-130h-492zM158 723v38l91 100h121l89 -100v-38h-97l-56 38l-55 -38h-93z" />
    <glyph glyph-name="Edieresis" unicode="&#xcb;" horiz-adv-x="581" 
d="M207 723q-37 0 -61 22t-24 57t24 57t61 22t60.5 -22t23.5 -57t-23.5 -57t-60.5 -22zM411 723q-37 0 -60.5 22t-23.5 57t23.5 57t60.5 22t61 -22t24 -57t-24 -57t-61 -22zM56 0v700h482v-134h-291v-149h205v-126h-205v-161h301v-130h-492z" />
    <glyph glyph-name="Igrave" unicode="&#xcc;" horiz-adv-x="311" 
d="M252 0h-193v700h193v-700zM216 723h-105l-102 93v42h173l34 -102v-33z" />
    <glyph glyph-name="Iacute" unicode="&#xcd;" horiz-adv-x="311" 
d="M252 0h-193v700h193v-700zM99 723v33l33 102h173v-42l-101 -93h-105z" />
    <glyph glyph-name="Icircumflex" unicode="&#xce;" horiz-adv-x="311" 
d="M252 0h-193v700h193v-700zM5 723v38l91 100h121l89 -100v-38h-97l-56 38l-55 -38h-93z" />
    <glyph glyph-name="Idieresis" unicode="&#xcf;" horiz-adv-x="311" 
d="M252 0h-193v700h193v-700zM53 723q-37 0 -61 22t-24 57t24 57t61 22t60.5 -22t23.5 -57t-23.5 -57t-60.5 -22zM257 723q-37 0 -60.5 22t-23.5 57t23.5 57t60.5 22t61 -22t24 -57t-24 -57t-61 -22z" />
    <glyph glyph-name="Eth" unicode="&#xd0;" horiz-adv-x="705" 
d="M5 287v124h55v289h248q182 0 276.5 -86.5t94.5 -259.5q0 -354 -377 -354h-242v287h-55zM252 129h47q95 0 139.5 51t44.5 169t-43.5 168t-140.5 50h-47v-156h126v-124h-126v-158z" />
    <glyph glyph-name="Ntilde" unicode="&#xd1;" horiz-adv-x="707" 
d="M201 723v40q17 103 106 103q27 0 64 -12t46 -12q23 0 31 24h90v-40q-8 -50 -35.5 -76.5t-69.5 -26.5q-28 0 -64.5 13t-45.5 13q-26 0 -32 -26h-90zM56 0v700h205l229 -405h3v405h158v-700h-174l-261 459h-3v-459h-157z" />
    <glyph glyph-name="Ograve" unicode="&#xd2;" horiz-adv-x="742" 
d="M431 723h-105l-102 93v42h173l34 -102v-33zM371 -9q-149 0 -247 95.5t-98 262.5t99 263.5t246 96.5t246.5 -96.5t99.5 -263.5t-99 -262.5t-247 -95.5zM371 122q69 0 109.5 56t40.5 169q0 114 -40.5 170.5t-109.5 56.5t-109.5 -56.5t-40.5 -170.5q0 -113 40.5 -169
t109.5 -56z" />
    <glyph glyph-name="Oacute" unicode="&#xd3;" horiz-adv-x="742" 
d="M314 723v33l33 102h173v-42l-101 -93h-105zM371 -9q-149 0 -247 95.5t-98 262.5t99 263.5t246 96.5t246.5 -96.5t99.5 -263.5t-99 -262.5t-247 -95.5zM371 122q69 0 109.5 56t40.5 169q0 114 -40.5 170.5t-109.5 56.5t-109.5 -56.5t-40.5 -170.5q0 -113 40.5 -169
t109.5 -56z" />
    <glyph glyph-name="Ocircumflex" unicode="&#xd4;" horiz-adv-x="742" 
d="M371 -9q-149 0 -247 95.5t-98 262.5t99 263.5t246 96.5t246.5 -96.5t99.5 -263.5t-99 -262.5t-247 -95.5zM371 122q69 0 109.5 56t40.5 169q0 114 -40.5 170.5t-109.5 56.5t-109.5 -56.5t-40.5 -170.5q0 -113 40.5 -169t109.5 -56zM220 723v38l91 100h121l89 -100v-38
h-97l-56 38l-55 -38h-93z" />
    <glyph glyph-name="Otilde" unicode="&#xd5;" horiz-adv-x="742" 
d="M202 723v40q17 103 106 103q27 0 64 -12t46 -12q24 0 31 24h90v-40q-8 -50 -35.5 -76.5t-69.5 -26.5q-28 0 -64.5 13t-45.5 13q-26 0 -32 -26h-90zM371 -9q-149 0 -247 95.5t-98 262.5t99 263.5t246 96.5t246.5 -96.5t99.5 -263.5t-99 -262.5t-247 -95.5zM371 122
q69 0 109.5 56t40.5 169q0 114 -40.5 170.5t-109.5 56.5t-109.5 -56.5t-40.5 -170.5q0 -113 40.5 -169t109.5 -56z" />
    <glyph glyph-name="Odieresis" unicode="&#xd6;" horiz-adv-x="742" 
d="M269 723q-37 0 -61 22t-24 57t24 57t61 22t60.5 -22t23.5 -57t-23.5 -57t-60.5 -22zM473 723q-37 0 -60.5 22t-23.5 57t23.5 57t60.5 22t61 -22t24 -57t-24 -57t-61 -22zM371 -9q-149 0 -247 95.5t-98 262.5t99 263.5t246 96.5t246.5 -96.5t99.5 -263.5t-99 -262.5
t-247 -95.5zM371 122q69 0 109.5 56t40.5 169q0 114 -40.5 170.5t-109.5 56.5t-109.5 -56.5t-40.5 -170.5q0 -113 40.5 -169t109.5 -56z" />
    <glyph glyph-name="multiply" unicode="&#xd7;" horiz-adv-x="525" 
d="M403 107l-140 139l-139 -139l-95 95l139 138l-139 138l95 95l139 -139l140 139l94 -95l-139 -138l139 -138z" />
    <glyph glyph-name="Oslash" unicode="&#xd8;" horiz-adv-x="742" 
d="M371 -9q-103 0 -186 48l-49 -61h-97v28l74 91q-87 95 -87 252q0 167 99 263.5t246 96.5q109 0 194 -54l48 59h96v-28l-75 -92q83 -98 83 -245q0 -167 -99 -262.5t-247 -95.5zM218 347q0 -60 11 -106l240 296q-37 39 -98 39q-71 0 -112 -57t-41 -172zM371 120
q70 0 112 56.5t42 170.5q0 59 -10 99l-238 -293q36 -33 94 -33z" />
    <glyph glyph-name="Ugrave" unicode="&#xd9;" horiz-adv-x="693" 
d="M422 723h-105l-102 93v42h173l34 -102v-33zM366 131q59 0 86.5 30t27.5 106v433h159v-434q0 -137 -69 -205.5t-216 -68.5q-148 0 -224.5 70t-76.5 204v434h192v-433q0 -76 29.5 -106t91.5 -30z" />
    <glyph glyph-name="Uacute" unicode="&#xda;" horiz-adv-x="693" 
d="M305 723v33l33 102h173v-42l-101 -93h-105zM366 131q59 0 86.5 30t27.5 106v433h159v-434q0 -137 -69 -205.5t-216 -68.5q-148 0 -224.5 70t-76.5 204v434h192v-433q0 -76 29.5 -106t91.5 -30z" />
    <glyph glyph-name="Ucircumflex" unicode="&#xdb;" horiz-adv-x="693" 
d="M366 131q59 0 86.5 30t27.5 106v433h159v-434q0 -137 -69 -205.5t-216 -68.5q-148 0 -224.5 70t-76.5 204v434h192v-433q0 -76 29.5 -106t91.5 -30zM211 723v38l91 100h121l89 -100v-38h-97l-56 38l-55 -38h-93z" />
    <glyph glyph-name="Udieresis" unicode="&#xdc;" horiz-adv-x="693" 
d="M259 723q-37 0 -61 22t-24 57t24 57t61 22t60.5 -22t23.5 -57t-23.5 -57t-60.5 -22zM463 723q-37 0 -60.5 22t-23.5 57t23.5 57t60.5 22t61 -22t24 -57t-24 -57t-61 -22zM366 131q59 0 86.5 30t27.5 106v433h159v-434q0 -137 -69 -205.5t-216 -68.5q-148 0 -224.5 70
t-76.5 204v434h192v-433q0 -76 29.5 -106t91.5 -30z" />
    <glyph glyph-name="Yacute" unicode="&#xdd;" horiz-adv-x="637" 
d="M420 0h-192v260l-214 393v47h180l140 -273h2l135 273h152v-47l-203 -388v-265zM271 723v33l33 102h173v-42l-101 -93h-105z" />
    <glyph glyph-name="Thorn" unicode="&#xde;" horiz-adv-x="619" 
d="M56 0v700h192v-122h65q144 0 215 -54.5t71 -168.5q0 -222 -293 -222h-58v-133h-192zM247 448v-194h58q57 0 80.5 25t23.5 75t-22.5 72t-81.5 22h-58z" />
    <glyph glyph-name="germandbls" unicode="&#xdf;" horiz-adv-x="652" 
d="M48 0v498q0 102 71 157.5t210 55.5q117 0 180 -39t63 -116q0 -63 -80 -123q-32 -24 -42.5 -36t-10.5 -25q0 -12 12 -21t48 -24q72 -30 103.5 -65.5t31.5 -103.5q0 -76 -54.5 -121t-159.5 -45q-91 0 -143 34v117h57q33 -31 80 -31q26 0 41.5 9t15.5 23q0 15 -15.5 25
t-63.5 28q-56 21 -84 53.5t-28 84.5q0 39 16.5 67t50.5 62q3 3 11.5 12.5t11 12t8 9.5t7.5 10.5t4.5 9t3.5 10.5t1 11q0 22 -18 35.5t-52 13.5q-96 0 -96 -94v-494h-180z" />
    <glyph glyph-name="agrave" unicode="&#xe0;" horiz-adv-x="553" 
d="M508 0h-98q-32 0 -48 11.5t-24 38.5q-51 -57 -151 -57q-73 0 -120 41t-47 116q0 81 56 122.5t151 41.5q57 0 101 -10v36q0 36 -20.5 51.5t-68.5 15.5q-71 0 -125 -35h-54v121q98 42 214 42q120 0 177 -42.5t57 -139.5v-353zM326 561h-105l-102 99v43h173l34 -109v-33z
M328 127v93q-32 5 -59 5q-78 0 -78 -63q0 -64 67 -64q36 0 70 29z" />
    <glyph glyph-name="aacute" unicode="&#xe1;" horiz-adv-x="553" 
d="M508 0h-98q-32 0 -48 11.5t-24 38.5q-51 -57 -151 -57q-73 0 -120 41t-47 116q0 81 56 122.5t151 41.5q57 0 101 -10v36q0 36 -20.5 51.5t-68.5 15.5q-71 0 -125 -35h-54v121q98 42 214 42q120 0 177 -42.5t57 -139.5v-353zM326 561h-105v33l33 109h173v-43zM328 127v93
q-32 5 -59 5q-78 0 -78 -63q0 -64 67 -64q36 0 70 29z" />
    <glyph glyph-name="acircumflex" unicode="&#xe2;" horiz-adv-x="553" 
d="M508 0h-98q-32 0 -48 11.5t-24 38.5q-51 -57 -151 -57q-73 0 -120 41t-47 116q0 81 56 122.5t151 41.5q57 0 101 -10v36q0 36 -20.5 51.5t-68.5 15.5q-71 0 -125 -35h-54v121q98 42 214 42q120 0 177 -42.5t57 -139.5v-353zM122 561v38l91 104h121l89 -104v-38h-97
l-56 42l-55 -42h-93zM258 98q36 0 70 29v93q-32 5 -59 5q-78 0 -78 -63q0 -64 67 -64z" />
    <glyph glyph-name="atilde" unicode="&#xe3;" horiz-adv-x="553" 
d="M508 0h-98q-32 0 -48 11.5t-24 38.5q-51 -57 -151 -57q-73 0 -120 41t-47 116q0 81 56 122.5t151 41.5q57 0 101 -10v36q0 36 -20.5 51.5t-68.5 15.5q-71 0 -125 -35h-54v121q98 42 214 42q120 0 177 -42.5t57 -139.5v-353zM104 562v40q8 50 35.5 77t70.5 27q27 0 64 -12
t46 -12q24 0 31 24h90v-40q-8 -50 -35.5 -77t-69.5 -27q-28 0 -64.5 13t-45.5 13q-26 0 -32 -26h-90zM328 127v93q-32 5 -59 5q-78 0 -78 -63q0 -64 67 -64q36 0 70 29z" />
    <glyph glyph-name="adieresis" unicode="&#xe4;" horiz-adv-x="553" 
d="M508 0h-98q-32 0 -48 11.5t-24 38.5q-51 -57 -151 -57q-73 0 -120 41t-47 116q0 81 56 122.5t151 41.5q57 0 101 -10v36q0 36 -20.5 51.5t-68.5 15.5q-71 0 -125 -35h-54v121q98 42 214 42q120 0 177 -42.5t57 -139.5v-353zM170 560q-37 0 -61 22t-24 57t24 57.5t61 22.5
t60.5 -22.5t23.5 -57.5t-23.5 -57t-60.5 -22zM374 560q-37 0 -60.5 22t-23.5 57t23.5 57.5t60.5 22.5t61 -22.5t24 -57.5t-24 -57t-61 -22zM328 127v93q-32 5 -59 5q-78 0 -78 -63q0 -64 67 -64q36 0 70 29z" />
    <glyph glyph-name="aring" unicode="&#xe5;" horiz-adv-x="553" 
d="M508 0h-98q-32 0 -48 11.5t-24 38.5q-51 -57 -151 -57q-73 0 -120 41t-47 116q0 81 56 122.5t151 41.5q57 0 101 -10v36q0 36 -20.5 51.5t-68.5 15.5q-71 0 -125 -35h-54v121q98 42 214 42q120 0 177 -42.5t57 -139.5v-353zM272 562q-46 0 -76.5 27.5t-30.5 74.5
q0 46 30.5 74t76.5 28t76.5 -28t30.5 -74q0 -47 -30.5 -74.5t-76.5 -27.5zM328 127v93q-32 5 -59 5q-78 0 -78 -63q0 -64 67 -64q36 0 70 29zM272 628q15 0 24.5 9.5t9.5 26.5t-9.5 26.5t-24.5 9.5q-33 0 -33 -36t33 -36z" />
    <glyph glyph-name="ae" unicode="&#xe6;" horiz-adv-x="863" 
d="M202 -7q-84 0 -133 40t-49 119q0 80 57 122t160 42h91v25q0 34 -20.5 50t-68.5 16q-71 0 -125 -35h-54v121q98 42 211 42q118 0 163 -49q71 49 162 49q247 0 247 -265q0 -12 -1 -28t-1 -18h-333q6 -64 35.5 -88t87.5 -24q81 0 135 39h56v-107q-90 -52 -218 -52
q-142 0 -216 80q-71 -79 -186 -79zM255 98q54 0 91 42q-15 40 -19 84h-60q-76 0 -76 -62q0 -32 17.5 -48t46.5 -16zM595 425q-36 0 -58 -23.5t-28 -84.5h164q-2 60 -21 84t-57 24z" />
    <glyph glyph-name="ccedilla" unicode="&#xe7;" horiz-adv-x="508" 
d="M481 40q-73 -48 -179 -48v-16q81 -4 81 -73q0 -36 -28.5 -57t-83.5 -21q-49 0 -82 16v62h31q11 -11 33 -11q26 0 26 16t-31 16h-22v75q-100 18 -153 85t-53 178q0 126 80.5 199.5t211.5 73.5q99 0 167 -37v-123h-65q-37 33 -94 33q-54 0 -85.5 -37.5t-31.5 -110.5
q0 -144 113 -144q60 0 105 37h60v-113z" />
    <glyph glyph-name="egrave" unicode="&#xe8;" horiz-adv-x="557" 
d="M535 224h-333q6 -63 36 -87.5t88 -24.5q81 0 134 39h56v-107q-90 -52 -218 -52q-136 0 -207 70.5t-71 197.5q0 126 74 200.5t195 74.5q248 0 248 -265q0 -12 -1 -28t-1 -18zM338 561h-105l-102 99v43h173l34 -109v-33zM289 425q-34 0 -56 -23.5t-30 -83.5h164
q-2 59 -21 83t-57 24z" />
    <glyph glyph-name="eacute" unicode="&#xe9;" horiz-adv-x="557" 
d="M535 224h-333q6 -63 36 -87.5t88 -24.5q81 0 134 39h56v-107q-90 -52 -218 -52q-136 0 -207 70.5t-71 197.5q0 126 74 200.5t195 74.5q248 0 248 -265q0 -12 -1 -28t-1 -18zM338 561h-105v33l33 109h173v-43zM289 425q-34 0 -56 -23.5t-30 -83.5h164q-2 59 -21 83t-57 24
z" />
    <glyph glyph-name="ecircumflex" unicode="&#xea;" horiz-adv-x="557" 
d="M535 224h-333q6 -63 36 -87.5t88 -24.5q81 0 134 39h56v-107q-90 -52 -218 -52q-136 0 -207 70.5t-71 197.5q0 126 74 200.5t195 74.5q248 0 248 -265q0 -12 -1 -28t-1 -18zM134 561v38l91 104h121l89 -104v-38h-97l-56 42l-55 -42h-93zM289 425q-34 0 -56 -23.5
t-30 -83.5h164q-2 59 -21 83t-57 24z" />
    <glyph glyph-name="edieresis" unicode="&#xeb;" horiz-adv-x="557" 
d="M535 224h-333q6 -63 36 -87.5t88 -24.5q81 0 134 39h56v-107q-90 -52 -218 -52q-136 0 -207 70.5t-71 197.5q0 126 74 200.5t195 74.5q248 0 248 -265q0 -12 -1 -28t-1 -18zM386 560q-37 0 -60.5 22t-23.5 57t23.5 57.5t60.5 22.5t61 -22.5t24 -57.5t-24 -57t-61 -22z
M182 560q-37 0 -61 22t-24 57t24 57.5t61 22.5t60.5 -22.5t23.5 -57.5t-23.5 -57t-60.5 -22zM289 425q-34 0 -56 -23.5t-30 -83.5h164q-2 59 -21 83t-57 24z" />
    <glyph glyph-name="igrave" unicode="&#xec;" horiz-adv-x="278" 
d="M228 0h-179v527h116q39 0 51 -19t12 -82v-426zM200 561h-105l-102 99v43h173l34 -109v-33z" />
    <glyph glyph-name="iacute" unicode="&#xed;" horiz-adv-x="278" 
d="M181 561h-105v33l33 109h173v-43zM228 0h-179v527h116q39 0 51 -19t12 -82v-426z" />
    <glyph glyph-name="icircumflex" unicode="&#xee;" horiz-adv-x="278" 
d="M-11 561v38l91 104h121l89 -104v-38h-97l-56 42l-55 -42h-93zM228 0h-179v527h116q39 0 51 -19t12 -82v-426z" />
    <glyph glyph-name="idieresis" unicode="&#xef;" horiz-adv-x="278" 
d="M37 560q-37 0 -61 22t-24 57t24 57.5t61 22.5t60.5 -22.5t23.5 -57.5t-23.5 -57t-60.5 -22zM241 560q-37 0 -60.5 22t-23.5 57t23.5 57.5t60.5 22.5t61 -22.5t24 -57.5t-24 -57t-61 -22zM228 0h-179v527h116q39 0 51 -19t12 -82v-426z" />
    <glyph glyph-name="eth" unicode="&#xf0;" horiz-adv-x="601" 
d="M163 522v28l40 34q-27 7 -55 13v103h70q56 -9 97 -23l26 22h101v-27l-40 -34q179 -106 179 -351q0 -147 -78 -221t-207 -74q-123 0 -199.5 69.5t-76.5 189.5q0 117 66 184t163 67q46 0 73.5 -12t52.5 -37q-22 57 -82 94l-29 -25h-101zM304 110q95 0 95 139q0 141 -95 141
q-47 0 -74.5 -35.5t-27.5 -105.5q0 -69 27.5 -104t74.5 -35z" />
    <glyph glyph-name="ntilde" unicode="&#xf1;" horiz-adv-x="602" 
d="M48 527h125q23 0 34.5 -13t16.5 -51q87 72 190 72q143 0 143 -149v-386h-180v339q0 34 -14 46t-48 12t-87 -17v-380h-180v527zM136 562v40q8 50 35.5 77t70.5 27q27 0 64 -12t46 -12q24 0 31 24h90v-40q-8 -50 -35.5 -77t-69.5 -27q-28 0 -64.5 13t-45.5 13
q-26 0 -32 -26h-90z" />
    <glyph glyph-name="ograve" unicode="&#xf2;" horiz-adv-x="601" 
d="M301 -8q-122 0 -201.5 73t-79.5 196q0 124 79.5 199t201.5 75q121 0 200.5 -75t79.5 -199q0 -123 -79 -196t-201 -73zM301 110q98 0 98 149q0 76 -26 114.5t-72 38.5q-47 0 -73 -38t-26 -115q0 -149 99 -149zM354 561h-105l-102 99v43h173l34 -109v-33z" />
    <glyph glyph-name="oacute" unicode="&#xf3;" horiz-adv-x="601" 
d="M354 561h-105v33l33 109h173v-43zM301 -8q-122 0 -201.5 73t-79.5 196q0 124 79.5 199t201.5 75q121 0 200.5 -75t79.5 -199q0 -123 -79 -196t-201 -73zM301 110q98 0 98 149q0 76 -26 114.5t-72 38.5q-47 0 -73 -38t-26 -115q0 -149 99 -149z" />
    <glyph glyph-name="ocircumflex" unicode="&#xf4;" horiz-adv-x="601" 
d="M150 561v38l91 104h121l89 -104v-38h-97l-56 42l-55 -42h-93zM301 -8q-122 0 -201.5 73t-79.5 196q0 124 79.5 199t201.5 75q121 0 200.5 -75t79.5 -199q0 -123 -79 -196t-201 -73zM301 110q98 0 98 149q0 76 -26 114.5t-72 38.5q-47 0 -73 -38t-26 -115q0 -149 99 -149z
" />
    <glyph glyph-name="otilde" unicode="&#xf5;" horiz-adv-x="601" 
d="M301 -8q-122 0 -201.5 73t-79.5 196q0 124 79.5 199t201.5 75q121 0 200.5 -75t79.5 -199q0 -123 -79 -196t-201 -73zM301 110q98 0 98 149q0 76 -26 114.5t-72 38.5q-47 0 -73 -38t-26 -115q0 -149 99 -149zM132 562v40q8 50 35.5 77t70.5 27q27 0 64 -12t46 -12
q24 0 31 24h90v-40q-8 -50 -35.5 -77t-69.5 -27q-28 0 -64.5 13t-45.5 13q-26 0 -32 -26h-90z" />
    <glyph glyph-name="odieresis" unicode="&#xf6;" horiz-adv-x="601" 
d="M198 560q-37 0 -61 22t-24 57t24 57.5t61 22.5t60.5 -22.5t23.5 -57.5t-23.5 -57t-60.5 -22zM402 560q-37 0 -60.5 22t-23.5 57t23.5 57.5t60.5 22.5t61 -22.5t24 -57.5t-24 -57t-61 -22zM301 -8q-122 0 -201.5 73t-79.5 196q0 124 79.5 199t201.5 75q121 0 200.5 -75
t79.5 -199q0 -123 -79 -196t-201 -73zM301 110q98 0 98 149q0 76 -26 114.5t-72 38.5q-47 0 -73 -38t-26 -115q0 -149 99 -149z" />
    <glyph glyph-name="divide" unicode="&#xf7;" horiz-adv-x="534" 
d="M510 276h-486v139h486v-139zM268 243q39 0 65.5 -26.5t26.5 -64.5t-26.5 -63.5t-65.5 -25.5q-40 0 -67 25.5t-27 63.5t27 64.5t67 26.5zM268 628q39 0 65.5 -26t26.5 -64t-27 -64t-65 -26q-40 0 -67 26t-27 64t27 64t67 26z" />
    <glyph glyph-name="oslash" unicode="&#xf8;" horiz-adv-x="601" 
d="M301 -8q-79 0 -142 31l-40 -49h-82v26l57 70q-74 74 -74 191q0 124 79.5 199t201.5 75q79 0 144 -35l36 45h82v-26l-54 -67q72 -75 72 -191q0 -123 -79 -196t-201 -73zM197 259q0 -36 4 -57l159 194q-21 20 -59 20q-48 0 -76 -39.5t-28 -117.5zM301 104q47 0 74.5 39.5
t27.5 115.5q0 38 -4 58l-159 -194q22 -19 61 -19z" />
    <glyph glyph-name="ugrave" unicode="&#xf9;" horiz-adv-x="610" 
d="M297 124q31 0 82 17v386h179v-527h-125q-23 0 -34 11.5t-16 47.5q-87 -67 -180 -67q-154 0 -154 151v384h180v-343q0 -36 16.5 -48t51.5 -12zM359 561h-105l-102 99v43h173l34 -109v-33z" />
    <glyph glyph-name="uacute" unicode="&#xfa;" horiz-adv-x="610" 
d="M297 124q31 0 82 17v386h179v-527h-125q-23 0 -34 11.5t-16 47.5q-87 -67 -180 -67q-154 0 -154 151v384h180v-343q0 -36 16.5 -48t51.5 -12zM359 561h-105v33l33 109h173v-43z" />
    <glyph glyph-name="ucircumflex" unicode="&#xfb;" horiz-adv-x="610" 
d="M297 124q31 0 82 17v386h179v-527h-125q-23 0 -34 11.5t-16 47.5q-87 -67 -180 -67q-154 0 -154 151v384h180v-343q0 -36 16.5 -48t51.5 -12zM154 561v38l91 104h121l89 -104v-38h-97l-56 42l-55 -42h-93z" />
    <glyph glyph-name="udieresis" unicode="&#xfc;" horiz-adv-x="610" 
d="M297 124q31 0 82 17v386h179v-527h-125q-23 0 -34 11.5t-16 47.5q-87 -67 -180 -67q-154 0 -154 151v384h180v-343q0 -36 16.5 -48t51.5 -12zM407 560q-37 0 -60.5 22t-23.5 57t23.5 57.5t60.5 22.5t61 -22.5t24 -57.5t-24 -57t-61 -22zM203 560q-37 0 -61 22t-24 57
t24 57.5t61 22.5t60.5 -22.5t23.5 -57.5t-23.5 -57t-60.5 -22z" />
    <glyph glyph-name="yacute" unicode="&#xfd;" horiz-adv-x="569" 
d="M136 -162v41l69 146l-190 461v41h171l110 -299h3l102 299h154v-41l-256 -648h-163zM350 561h-105v33l33 109h173v-43z" />
    <glyph glyph-name="thorn" unicode="&#xfe;" horiz-adv-x="605" 
d="M228 606v-131q67 60 157 60q84 0 141.5 -63t57.5 -195q0 -140 -62 -208t-162 -68q-81 0 -132 39v-202h-180v862h114q42 0 54 -17t12 -77zM304 401q-39 0 -76 -17v-244q30 -21 73 -21q47 0 74 31t27 112q0 78 -26 108.5t-72 30.5z" />
    <glyph glyph-name="ydieresis" unicode="&#xff;" horiz-adv-x="569" 
d="M136 -162v41l69 146l-190 461v41h171l110 -299h3l102 299h154v-41l-256 -648h-163zM194 560q-37 0 -61 22t-24 57t24 57.5t61 22.5t60.5 -22.5t23.5 -57.5t-23.5 -57t-60.5 -22zM398 560q-37 0 -60.5 22t-23.5 57t23.5 57.5t60.5 22.5t61 -22.5t24 -57.5t-24 -57t-61 -22
z" />
    <glyph glyph-name="Amacron" unicode="&#x100;" horiz-adv-x="694" 
d="M19 0v45l223 655h208l226 -655v-45h-186l-49 158h-223l-47 -158h-152zM480 842v-109h-276v109h276zM328 524l-71 -236h145l-72 236h-2z" />
    <glyph glyph-name="amacron" unicode="&#x101;" horiz-adv-x="553" 
d="M508 0h-98q-32 0 -48 11.5t-24 38.5q-51 -57 -151 -57q-73 0 -120 41t-47 116q0 81 56 122.5t151 41.5q57 0 101 -10v36q0 36 -20.5 51.5t-68.5 15.5q-71 0 -125 -35h-54v121q98 42 214 42q120 0 177 -42.5t57 -139.5v-353zM407 687v-108h-270v108h270zM258 98
q36 0 70 29v93q-32 5 -59 5q-78 0 -78 -63q0 -64 67 -64z" />
    <glyph glyph-name="Abreve" unicode="&#x102;" horiz-adv-x="694" 
d="M19 0v45l223 655h208l226 -655v-45h-186l-49 158h-223l-47 -158h-152zM343 723q-61 0 -98.5 27.5t-46.5 71.5v39h103q6 -31 42 -31t42 31h103v-39q-10 -43 -47.5 -71t-97.5 -28zM328 524l-71 -236h145l-72 236h-2z" />
    <glyph glyph-name="abreve" unicode="&#x103;" horiz-adv-x="553" 
d="M508 0h-98q-32 0 -48 11.5t-24 38.5q-51 -57 -151 -57q-73 0 -120 41t-47 116q0 81 56 122.5t151 41.5q57 0 101 -10v36q0 36 -20.5 51.5t-68.5 15.5q-71 0 -125 -35h-54v121q98 42 214 42q120 0 177 -42.5t57 -139.5v-353zM272 561q-60 0 -97.5 29.5t-47.5 76.5v40h103
q5 -38 42 -38t42 38h103v-40q-10 -47 -47.5 -76.5t-97.5 -29.5zM328 127v93q-32 5 -59 5q-78 0 -78 -63q0 -64 67 -64q36 0 70 29z" />
    <glyph glyph-name="Aogonek" unicode="&#x104;" horiz-adv-x="694" 
d="M595 -167q-54 0 -82.5 20.5t-28.5 56.5q0 54 68 90h-62l-49 158h-223l-47 -158h-152v45l223 655h208l226 -655v-45h-22q-13 -12 -19 -18t-10.5 -14.5t-4.5 -17.5q0 -24 37 -24h18v-76q-29 -17 -80 -17zM328 524l-71 -236h145l-72 236h-2z" />
    <glyph glyph-name="aogonek" unicode="&#x105;" horiz-adv-x="553" 
d="M428 -167q-54 0 -82.5 20.5t-28.5 56.5q0 59 71 92q-40 8 -50 48q-51 -57 -151 -57q-73 0 -120 41t-47 116q0 81 56 122.5t151 41.5q57 0 101 -10v36q0 36 -20.5 51.5t-68.5 15.5q-71 0 -125 -35h-54v121q98 42 214 42q120 0 177 -42.5t57 -139.5v-353h-21
q-13 -12 -19 -18t-10.5 -14.5t-4.5 -17.5q0 -24 37 -24h18v-76q-29 -17 -80 -17zM258 98q36 0 70 29v93q-32 5 -59 5q-78 0 -78 -63q0 -64 67 -64z" />
    <glyph glyph-name="Cacute" unicode="&#x106;" horiz-adv-x="635" 
d="M371 -9q-160 0 -252 93t-92 262q0 170 98 266.5t262 96.5q126 0 210 -50v-133h-74q-52 46 -131 46q-169 0 -169 -219q0 -118 40 -173t120 -55q87 0 152 61h68v-127q-92 -68 -232 -68zM304 723v33l33 102h173v-42l-101 -93h-105z" />
    <glyph glyph-name="cacute" unicode="&#x107;" horiz-adv-x="508" 
d="M339 561h-105v33l33 109h173v-43zM301 -8q-134 0 -207.5 70t-73.5 200q0 126 80.5 199.5t211.5 73.5q99 0 167 -37v-123h-65q-37 33 -94 33q-54 0 -85.5 -37.5t-31.5 -110.5q0 -144 113 -144q60 0 105 37h60v-113q-73 -48 -180 -48z" />
    <glyph glyph-name="Ccircumflex" unicode="&#x108;" horiz-adv-x="635" 
d="M371 -9q-160 0 -252 93t-92 262q0 170 98 266.5t262 96.5q126 0 210 -50v-133h-74q-52 46 -131 46q-169 0 -169 -219q0 -118 40 -173t120 -55q87 0 152 61h68v-127q-92 -68 -232 -68zM211 723v38l91 100h121l89 -100v-38h-97l-56 38l-55 -38h-93z" />
    <glyph glyph-name="ccircumflex" unicode="&#x109;" horiz-adv-x="508" 
d="M134 561v38l91 104h121l89 -104v-38h-97l-56 42l-55 -42h-93zM301 -8q-134 0 -207.5 70t-73.5 200q0 126 80.5 199.5t211.5 73.5q99 0 167 -37v-123h-65q-37 33 -94 33q-54 0 -85.5 -37.5t-31.5 -110.5q0 -144 113 -144q60 0 105 37h60v-113q-73 -48 -180 -48z" />
    <glyph glyph-name="Cdotaccent" unicode="&#x10a;" horiz-adv-x="635" 
d="M361 723q-40 0 -66.5 23.5t-26.5 60.5t26.5 61t66.5 24t66.5 -24t26.5 -61t-26.5 -60.5t-66.5 -23.5zM371 -9q-160 0 -252 93t-92 262q0 170 98 266.5t262 96.5q126 0 210 -50v-133h-74q-52 46 -131 46q-169 0 -169 -219q0 -118 40 -173t120 -55q87 0 152 61h68v-127
q-92 -68 -232 -68z" />
    <glyph glyph-name="cdotaccent" unicode="&#x10b;" horiz-adv-x="508" 
d="M301 -8q-134 0 -207.5 70t-73.5 200q0 126 80.5 199.5t211.5 73.5q99 0 167 -37v-123h-65q-37 33 -94 33q-54 0 -85.5 -37.5t-31.5 -110.5q0 -144 113 -144q60 0 105 37h60v-113q-73 -48 -180 -48zM285 559q-40 0 -66.5 23.5t-26.5 60.5t26.5 61t66.5 24t66.5 -24
t26.5 -61t-26.5 -60.5t-66.5 -23.5z" />
    <glyph glyph-name="Ccaron" unicode="&#x10c;" horiz-adv-x="635" 
d="M371 -9q-160 0 -252 93t-92 262q0 170 98 266.5t262 96.5q126 0 210 -50v-133h-74q-52 46 -131 46q-169 0 -169 -219q0 -118 40 -173t120 -55q87 0 152 61h68v-127q-92 -68 -232 -68zM512 861v-38l-92 -100h-121l-88 100v38h97l56 -38l55 38h93z" />
    <glyph glyph-name="ccaron" unicode="&#x10d;" horiz-adv-x="508" 
d="M435 703v-38l-92 -104h-121l-88 104v38h97l56 -42l55 42h93zM301 -8q-134 0 -207.5 70t-73.5 200q0 126 80.5 199.5t211.5 73.5q99 0 167 -37v-123h-65q-37 33 -94 33q-54 0 -85.5 -37.5t-31.5 -110.5q0 -144 113 -144q60 0 105 37h60v-113q-73 -48 -180 -48z" />
    <glyph glyph-name="Dcaron" unicode="&#x10e;" horiz-adv-x="701" 
d="M470 861v-38l-92 -100h-121l-88 100v38h97l56 -38l55 38h93zM56 0v700h248q182 0 276.5 -86.5t94.5 -259.5q0 -354 -377 -354h-242zM248 129h47q95 0 139.5 51t44.5 169t-43.5 168t-140.5 50h-47v-438z" />
    <glyph glyph-name="dcaron" unicode="&#x10f;" horiz-adv-x="607" 
d="M559 606v-606h-127q-19 0 -30 11.5t-17 43.5q-59 -64 -152 -64q-94 0 -152 67.5t-58 197.5q0 75 19 131t51.5 87t69.5 46t79 15q85 0 137 -50v215h114q42 0 54 -17.5t12 -76.5zM296 110q45 0 83 32v241q-29 18 -71 18q-103 0 -103 -141q0 -81 22.5 -115.5t68.5 -34.5z
M590 561v139h139v-43l-58 -96h-81z" />
    <glyph glyph-name="Dcroat" unicode="&#x110;" horiz-adv-x="705" 
d="M5 287v124h55v289h248q182 0 276.5 -86.5t94.5 -259.5q0 -354 -377 -354h-242v287h-55zM252 129h47q95 0 139.5 51t44.5 169t-43.5 168t-140.5 50h-47v-156h126v-124h-126v-158z" />
    <glyph glyph-name="dslash" unicode="&#x111;" horiz-adv-x="607" 
d="M253 559v90h126v51h114q39 0 52 -11t14 -40h49v-90h-49v-559h-127q-19 0 -30 11.5t-17 43.5q-59 -64 -152 -64q-94 0 -152 67.5t-58 197.5q0 75 19 131t51.5 87t69.5 46t79 15q85 0 137 -50v74h-126zM296 110q45 0 83 32v241q-29 18 -71 18q-103 0 -103 -141
q0 -81 22.5 -115.5t68.5 -34.5z" />
    <glyph glyph-name="Emacron" unicode="&#x112;" horiz-adv-x="581" 
d="M447 842v-109h-276v109h276zM56 0v700h482v-134h-291v-149h205v-126h-205v-161h301v-130h-492z" />
    <glyph glyph-name="emacron" unicode="&#x113;" horiz-adv-x="557" 
d="M535 224h-333q6 -63 36 -87.5t88 -24.5q81 0 134 39h56v-107q-90 -52 -218 -52q-136 0 -207 70.5t-71 197.5q0 126 74 200.5t195 74.5q248 0 248 -265q0 -12 -1 -28t-1 -18zM419 687v-108h-270v108h270zM289 425q-34 0 -56 -23.5t-30 -83.5h164q-2 59 -21 83t-57 24z" />
    <glyph glyph-name="Ebreve" unicode="&#x114;" horiz-adv-x="581" 
d="M309 723q-61 0 -98.5 27.5t-46.5 71.5v39h103q6 -31 42 -31t42 31h103v-39q-10 -43 -47.5 -71t-97.5 -28zM56 0v700h482v-134h-291v-149h205v-126h-205v-161h301v-130h-492z" />
    <glyph glyph-name="ebreve" unicode="&#x115;" horiz-adv-x="557" 
d="M535 224h-333q6 -63 36 -87.5t88 -24.5q81 0 134 39h56v-107q-90 -52 -218 -52q-136 0 -207 70.5t-71 197.5q0 126 74 200.5t195 74.5q248 0 248 -265q0 -12 -1 -28t-1 -18zM284 561q-60 0 -97.5 29.5t-47.5 76.5v40h103q5 -38 42 -38t42 38h103v-40q-10 -47 -47.5 -76.5
t-97.5 -29.5zM289 425q-34 0 -56 -23.5t-30 -83.5h164q-2 59 -21 83t-57 24z" />
    <glyph glyph-name="Edotaccent" unicode="&#x116;" horiz-adv-x="581" 
d="M309 723q-40 0 -66.5 23.5t-26.5 60.5t26.5 61t66.5 24t66.5 -24t26.5 -61t-26.5 -60.5t-66.5 -23.5zM56 0v700h482v-134h-291v-149h205v-126h-205v-161h301v-130h-492z" />
    <glyph glyph-name="edotaccent" unicode="&#x117;" horiz-adv-x="557" 
d="M535 224h-333q6 -63 36 -87.5t88 -24.5q81 0 134 39h56v-107q-90 -52 -218 -52q-136 0 -207 70.5t-71 197.5q0 126 74 200.5t195 74.5q248 0 248 -265q0 -12 -1 -28t-1 -18zM284 559q-40 0 -66.5 23.5t-26.5 60.5t26.5 61t66.5 24t66.5 -24t26.5 -61t-26.5 -60.5
t-66.5 -23.5zM289 425q-34 0 -56 -23.5t-30 -83.5h164q-2 59 -21 83t-57 24z" />
    <glyph glyph-name="Eogonek" unicode="&#x118;" horiz-adv-x="581" 
d="M56 0v700h482v-134h-291v-149h205v-126h-205v-161h301v-130h-43q-13 -12 -19 -18t-10.5 -14.5t-4.5 -17.5q0 -24 37 -24h18v-76q-29 -17 -80 -17q-54 0 -82.5 20.5t-28.5 56.5q0 54 68 90h-347z" />
    <glyph glyph-name="eogonek" unicode="&#x119;" horiz-adv-x="557" 
d="M454 1q-32 -27 -32 -51t37 -24h18v-76q-29 -17 -80 -17q-54 0 -83 20.5t-29 57.5q0 48 60 84q-13 -3 -47 -3q-136 0 -207 70.5t-71 197.5q0 126 74 200.5t195 74.5q248 0 248 -265q0 -12 -1 -28t-1 -18h-332q6 -63 36 -87.5t87 -24.5q81 0 134 39h56v-107l-32 -21.5
t-30 -21.5zM289 425q-35 0 -56.5 -23t-29.5 -84h164q-2 59 -21 83t-57 24z" />
    <glyph glyph-name="Ecaron" unicode="&#x11a;" horiz-adv-x="581" 
d="M459 861v-38l-92 -100h-121l-88 100v38h97l56 -38l55 38h93zM56 0v700h482v-134h-291v-149h205v-126h-205v-161h301v-130h-492z" />
    <glyph glyph-name="ecaron" unicode="&#x11b;" horiz-adv-x="557" 
d="M535 224h-333q6 -63 36 -87.5t88 -24.5q81 0 134 39h56v-107q-90 -52 -218 -52q-136 0 -207 70.5t-71 197.5q0 126 74 200.5t195 74.5q248 0 248 -265q0 -12 -1 -28t-1 -18zM435 703v-38l-92 -104h-121l-88 104v38h97l56 -42l55 42h93zM289 425q-34 0 -56 -23.5
t-30 -83.5h164q-2 59 -21 83t-57 24z" />
    <glyph glyph-name="Gcircumflex" unicode="&#x11c;" horiz-adv-x="681" 
d="M371 -9q-170 0 -257.5 91.5t-87.5 263.5q0 174 96.5 268.5t270.5 94.5q117 0 210 -44v-138h-71q-57 44 -137 44q-85 0 -128 -52t-43 -170q0 -121 35.5 -175.5t110.5 -54.5q51 0 80 10v128h-83v116h265v-329q-107 -53 -261 -53zM211 723v38l91 100h121l89 -100v-38h-97
l-56 38l-55 -38h-93z" />
    <glyph glyph-name="gcircumflex" unicode="&#x11d;" horiz-adv-x="607" 
d="M559 527v-487q0 -104 -76 -157t-215 -53q-133 0 -218 40v122h56q56 -37 139 -37q70 0 102 21t32 69v26q-55 -45 -141 -45q-96 0 -155.5 59t-59.5 185q0 137 65.5 201t160.5 64q89 0 145 -59q18 51 68 51h97zM300 140q40 0 79 27v214q-31 20 -73 20q-46 0 -73.5 -27
t-27.5 -99q0 -78 22.5 -106.5t72.5 -28.5zM148 561v38l91 104h121l89 -104v-38h-97l-56 42l-55 -42h-93z" />
    <glyph glyph-name="Gbreve" unicode="&#x11e;" horiz-adv-x="681" 
d="M362 723q-61 0 -98.5 27.5t-46.5 71.5v39h103q6 -31 42 -31t42 31h103v-39q-10 -43 -47.5 -71t-97.5 -28zM371 -9q-170 0 -257.5 91.5t-87.5 263.5q0 174 96.5 268.5t270.5 94.5q117 0 210 -44v-138h-71q-57 44 -137 44q-85 0 -128 -52t-43 -170q0 -121 35.5 -175.5
t110.5 -54.5q51 0 80 10v128h-83v116h265v-329q-107 -53 -261 -53z" />
    <glyph glyph-name="gbreve" unicode="&#x11f;" horiz-adv-x="607" 
d="M559 527v-487q0 -104 -76 -157t-215 -53q-133 0 -218 40v122h56q56 -37 139 -37q70 0 102 21t32 69v26q-55 -45 -141 -45q-96 0 -155.5 59t-59.5 185q0 137 65.5 201t160.5 64q89 0 145 -59q18 51 68 51h97zM300 140q40 0 79 27v214q-31 20 -73 20q-46 0 -73.5 -27
t-27.5 -99q0 -78 22.5 -106.5t72.5 -28.5zM298 561q-60 0 -97.5 29.5t-47.5 76.5v40h103q5 -38 42 -38t42 38h103v-40q-10 -47 -47.5 -76.5t-97.5 -29.5z" />
    <glyph glyph-name="Gdotaccent" unicode="&#x120;" horiz-adv-x="681" 
d="M362 723q-40 0 -66.5 23.5t-26.5 60.5t26.5 61t66.5 24t66.5 -24t26.5 -61t-26.5 -60.5t-66.5 -23.5zM371 -9q-170 0 -257.5 91.5t-87.5 263.5q0 174 96.5 268.5t270.5 94.5q117 0 210 -44v-138h-71q-57 44 -137 44q-85 0 -128 -52t-43 -170q0 -121 35.5 -175.5
t110.5 -54.5q51 0 80 10v128h-83v116h265v-329q-107 -53 -261 -53z" />
    <glyph glyph-name="gdotaccent" unicode="&#x121;" horiz-adv-x="607" 
d="M559 527v-487q0 -104 -76 -157t-215 -53q-133 0 -218 40v122h56q56 -37 139 -37q70 0 102 21t32 69v26q-55 -45 -141 -45q-96 0 -155.5 59t-59.5 185q0 137 65.5 201t160.5 64q89 0 145 -59q18 51 68 51h97zM300 140q40 0 79 27v214q-31 20 -73 20q-46 0 -73.5 -27
t-27.5 -99q0 -78 22.5 -106.5t72.5 -28.5zM298 559q-40 0 -66.5 23.5t-26.5 60.5t26.5 61t66.5 24t66.5 -24t26.5 -61t-26.5 -60.5t-66.5 -23.5z" />
    <glyph glyph-name="uni0122" unicode="&#x122;" horiz-adv-x="681" 
d="M289 -228v62q46 4 46 24q0 5 -2.5 8t-10 7t-9.5 5q-25 16 -25 47q0 25 20 41t51 16q34 0 55.5 -20.5t21.5 -59.5q0 -120 -147 -130zM371 -9q-170 0 -257.5 91.5t-87.5 263.5q0 174 96.5 268.5t270.5 94.5q117 0 210 -44v-138h-71q-57 44 -137 44q-85 0 -128 -52t-43 -170
q0 -121 35.5 -175.5t110.5 -54.5q51 0 80 10v128h-83v116h265v-329q-107 -53 -261 -53z" />
    <glyph glyph-name="uni0123" unicode="&#x123;" horiz-adv-x="607" 
d="M559 527v-487q0 -104 -76 -157t-215 -53q-133 0 -218 40v122h56q56 -37 139 -37q70 0 102 21t32 69v26q-55 -45 -141 -45q-96 0 -155.5 59t-59.5 185q0 137 65.5 201t160.5 64q89 0 145 -59q18 51 68 51h97zM300 140q40 0 79 27v214q-31 20 -73 20q-46 0 -73.5 -27
t-27.5 -99q0 -78 22.5 -106.5t72.5 -28.5zM370 774v-62q-46 -4 -46 -24q0 -5 2.5 -8t10 -7t9.5 -5q25 -16 25 -47q0 -25 -20 -41t-51 -16q-34 0 -55.5 20.5t-21.5 59.5q0 120 147 130z" />
    <glyph glyph-name="Hcircumflex" unicode="&#x124;" horiz-adv-x="711" 
d="M248 0h-192v700h192v-276h215v276h192v-700h-192v289h-215v-289zM204 723v38l91 100h121l89 -100v-38h-97l-56 38l-55 -38h-93z" />
    <glyph glyph-name="hcircumflex" unicode="&#x125;" horiz-adv-x="602" 
d="M228 606v-140q83 69 186 69q143 0 143 -149v-386h-180v339q0 34 -14 46t-48 12t-87 -17v-380h-180v700h114q42 0 54 -17t12 -77zM150 721v38l91 104h121l89 -104v-38h-97l-56 42l-55 -42h-93z" />
    <glyph glyph-name="Hbar" unicode="&#x126;" horiz-adv-x="711" 
d="M1 500v108h55v92h192v-92h215v92h192v-92h55v-108h-55v-500h-192v289h-215v-289h-192v500h-55zM248 422h215v78h-215v-78z" />
    <glyph glyph-name="hbar" unicode="&#x127;" horiz-adv-x="602" 
d="M-1 559v90h49v51h114q39 0 52 -11t14 -40h126v-90h-126v-93q83 69 186 69q143 0 143 -149v-386h-180v339q0 34 -14 46t-48 12t-87 -17v-380h-180v559h-49z" />
    <glyph glyph-name="Itilde" unicode="&#x128;" horiz-adv-x="311" 
d="M252 0h-193v700h193v-700zM-13 762v40q8 50 35.5 77t70.5 27q27 0 64 -12t46 -12q23 0 31 24h90v-40q-8 -50 -35.5 -77t-69.5 -27q-28 0 -64.5 13t-45.5 13q-26 0 -32 -26h-90z" />
    <glyph glyph-name="itilde" unicode="&#x129;" horiz-adv-x="278" 
d="M228 0h-179v527h116q39 0 51 -19t12 -82v-426zM-30 562v40q8 50 35.5 77t70.5 27q27 0 64 -12t46 -12q24 0 31 24h90v-40q-8 -50 -35.5 -77t-69.5 -27q-28 0 -64.5 13t-45.5 13q-26 0 -32 -26h-90z" />
    <glyph glyph-name="Imacron" unicode="&#x12a;" horiz-adv-x="311" 
d="M252 0h-193v700h193v-700zM293 842v-109h-276v109h276z" />
    <glyph glyph-name="imacron" unicode="&#x12b;" horiz-adv-x="278" 
d="M228 0h-179v527h116q39 0 51 -19t12 -82v-426zM267 687v-108h-257v108h257z" />
    <glyph glyph-name="Iogonek" unicode="&#x12e;" horiz-adv-x="311" 
d="M174 -167q-54 0 -82.5 20.5t-28.5 56.5q0 54 68 90h-72v700h193v-700h-19q-13 -12 -19 -18t-10.5 -14.5t-4.5 -17.5q0 -24 37 -24h18v-76q-29 -17 -80 -17z" />
    <glyph glyph-name="iogonek" unicode="&#x12f;" horiz-adv-x="278" 
d="M154 -167q-54 0 -82.5 20.5t-28.5 56.5q0 54 68 90h-62v527h116q39 0 51 -19t12 -82v-426h-15q-13 -12 -19 -18t-10.5 -14.5t-4.5 -17.5q0 -24 37 -24h18v-76q-29 -17 -80 -17zM139 559q-40 0 -66.5 23.5t-26.5 60.5t26.5 61t66.5 24q41 0 67 -24t26 -61t-26 -60.5
t-67 -23.5z" />
    <glyph glyph-name="Idotaccent" unicode="&#x130;" horiz-adv-x="311" 
d="M252 0h-193v700h193v-700zM155 723q-40 0 -66.5 23.5t-26.5 60.5t26.5 61t66.5 24t66.5 -24t26.5 -61t-26.5 -60.5t-66.5 -23.5z" />
    <glyph glyph-name="dotlessi" unicode="&#x131;" horiz-adv-x="278" 
d="M228 0h-179v527h116q39 0 51 -19t12 -82v-426z" />
    <glyph glyph-name="Jcircumflex" unicode="&#x134;" horiz-adv-x="490" 
d="M187 -9q-104 0 -171 42v129h66q37 -33 90 -33q74 0 74 72v499h192v-499q0 -210 -251 -210zM188 723v38l91 100h121l89 -100v-38h-97l-56 38l-55 -38h-93z" />
    <glyph glyph-name="jcircumflex" unicode="&#x135;" horiz-adv-x="278" 
d="M-39 -156v98h28q33 0 46.5 13.5t13.5 46.5v525h116q39 0 51 -19.5t12 -81.5v-433q0 -85 -43.5 -123.5t-131.5 -38.5q-51 0 -92 13zM-12 561v38l91 104h121l89 -104v-38h-97l-56 42l-55 -42h-93z" />
    <glyph glyph-name="uni0136" unicode="&#x136;" horiz-adv-x="693" 
d="M56 0v700h192v-285l237 285h165v-43l-203 -234l224 -380v-43h-187l-172 291l-64 -70v-221h-192zM282 -228v62q46 4 46 24q0 5 -2.5 8t-10 7t-9.5 5q-25 16 -25 47q0 25 20 41t51 16q34 0 55.5 -20.5t21.5 -59.5q0 -120 -147 -130z" />
    <glyph glyph-name="uni0137" unicode="&#x137;" horiz-adv-x="578" 
d="M228 606v-275l164 196h150v-43l-145 -165l165 -276v-43h-169l-122 205l-43 -47v-158h-180v700h114q42 0 54 -17t12 -77zM231 -228v62q46 4 46 24q0 5 -2.5 8t-10 7t-9.5 5q-25 16 -25 47q0 25 20 41t51 16q34 0 55.5 -20.5t21.5 -59.5q0 -120 -147 -130z" />
    <glyph glyph-name="Lacute" unicode="&#x139;" horiz-adv-x="552" 
d="M96 723v33l33 102h173v-42l-101 -93h-105zM523 0h-467v700h192v-568h275v-132z" />
    <glyph glyph-name="lacute" unicode="&#x13a;" horiz-adv-x="280" 
d="M185 721h-105v33l33 109h173v-43zM230 0h-180v700h114q42 0 54 -17t12 -77v-606z" />
    <glyph glyph-name="uni013B" unicode="&#x13b;" horiz-adv-x="552" 
d="M221 -228v62q46 4 46 24q0 5 -2.5 8t-10 7t-9.5 5q-25 16 -25 47q0 25 20 41t51 16q34 0 55.5 -20.5t21.5 -59.5q0 -120 -147 -130zM523 0h-467v700h192v-568h275v-132z" />
    <glyph glyph-name="uni013C" unicode="&#x13c;" horiz-adv-x="280" 
d="M68 -228v62q46 4 46 24q0 5 -2.5 8t-10 7t-9.5 5q-25 16 -25 47q0 25 20 41t51 16q34 0 55.5 -20.5t21.5 -59.5q0 -120 -147 -130zM230 0h-180v700h114q42 0 54 -17t12 -77v-606z" />
    <glyph glyph-name="Lcaron" unicode="&#x13d;" horiz-adv-x="552" 
d="M313 561v139h138v-43l-57 -96h-81zM523 0h-467v700h192v-568h275v-132z" />
    <glyph glyph-name="lcaron" unicode="&#x13e;" horiz-adv-x="280" 
d="M261 561v139h139v-43l-58 -96h-81zM230 0h-180v700h114q42 0 54 -17t12 -77v-606z" />
    <glyph glyph-name="Lslash" unicode="&#x141;" horiz-adv-x="564" 
d="M534 0h-467v222l-61 -22v123l61 22v355h192v-283l178 66v-123l-178 -66v-162h275v-132z" />
    <glyph glyph-name="lslash" unicode="&#x142;" horiz-adv-x="297" 
d="M238 0h-179v278l-56 -29v118l56 29v304h114q41 0 53 -17t12 -77v-115l59 31v-118l-59 -31v-373z" />
    <glyph glyph-name="Nacute" unicode="&#x143;" horiz-adv-x="707" 
d="M313 723v33l33 102h173v-42l-101 -93h-105zM56 0v700h205l229 -405h3v405h158v-700h-174l-261 459h-3v-459h-157z" />
    <glyph glyph-name="nacute" unicode="&#x144;" horiz-adv-x="602" 
d="M48 527h125q23 0 34.5 -13t16.5 -51q87 72 190 72q143 0 143 -149v-386h-180v339q0 34 -14 46t-48 12t-87 -17v-380h-180v527zM359 561h-105v33l33 109h173v-43z" />
    <glyph glyph-name="uni0145" unicode="&#x145;" horiz-adv-x="707" 
d="M273 -228v62q46 4 46 24q0 5 -2.5 8t-10 7t-9.5 5q-25 16 -25 47q0 25 20 41t51 16q34 0 55.5 -20.5t21.5 -59.5q0 -120 -147 -130zM56 0v700h205l229 -405h3v405h158v-700h-174l-261 459h-3v-459h-157z" />
    <glyph glyph-name="uni0146" unicode="&#x146;" horiz-adv-x="602" 
d="M48 527h125q23 0 34.5 -13t16.5 -51q87 72 190 72q143 0 143 -149v-386h-180v339q0 34 -14 46t-48 12t-87 -17v-380h-180v527zM232 -228v62q46 4 46 24q0 5 -2.5 8t-10 7t-9.5 5q-25 16 -25 47q0 25 20 41t51 16q34 0 55.5 -20.5t21.5 -59.5q0 -120 -147 -130z" />
    <glyph glyph-name="Ncaron" unicode="&#x147;" horiz-adv-x="707" 
d="M520 861v-38l-92 -100h-121l-88 100v38h97l56 -38l55 38h93zM56 0v700h205l229 -405h3v405h158v-700h-174l-261 459h-3v-459h-157z" />
    <glyph glyph-name="ncaron" unicode="&#x148;" horiz-adv-x="602" 
d="M48 527h125q23 0 34.5 -13t16.5 -51q87 72 190 72q143 0 143 -149v-386h-180v339q0 34 -14 46t-48 12t-87 -17v-380h-180v527zM455 703v-38l-92 -104h-121l-88 104v38h97l56 -42l55 42h93z" />
    <glyph glyph-name="Omacron" unicode="&#x14c;" horiz-adv-x="742" 
d="M509 842v-109h-276v109h276zM371 -9q-149 0 -247 95.5t-98 262.5t99 263.5t246 96.5t246.5 -96.5t99.5 -263.5t-99 -262.5t-247 -95.5zM371 122q69 0 109.5 56t40.5 169q0 114 -40.5 170.5t-109.5 56.5t-109.5 -56.5t-40.5 -170.5q0 -113 40.5 -169t109.5 -56z" />
    <glyph glyph-name="omacron" unicode="&#x14d;" horiz-adv-x="601" 
d="M435 687v-108h-270v108h270zM301 -8q-122 0 -201.5 73t-79.5 196q0 124 79.5 199t201.5 75q121 0 200.5 -75t79.5 -199q0 -123 -79 -196t-201 -73zM301 110q98 0 98 149q0 76 -26 114.5t-72 38.5q-47 0 -73 -38t-26 -115q0 -149 99 -149z" />
    <glyph glyph-name="Ohungarumlaut" unicode="&#x150;" horiz-adv-x="742" 
d="M371 -9q-149 0 -247 95.5t-98 262.5t99 263.5t246 96.5t246.5 -96.5t99.5 -263.5t-99 -262.5t-247 -95.5zM371 122q69 0 109.5 56t40.5 169q0 114 -40.5 170.5t-109.5 56.5t-109.5 -56.5t-40.5 -170.5q0 -113 40.5 -169t109.5 -56zM230 723v29l31 106h141v-42l-76 -93
h-96zM409 723v29l31 106h141v-42l-75 -93h-97z" />
    <glyph glyph-name="ohungarumlaut" unicode="&#x151;" horiz-adv-x="601" 
d="M162 561v28l32 114h138v-42l-77 -100h-93zM338 561v28l32 114h138v-42l-76 -100h-94zM301 -8q-122 0 -201.5 73t-79.5 196q0 124 79.5 199t201.5 75q121 0 200.5 -75t79.5 -199q0 -123 -79 -196t-201 -73zM301 110q98 0 98 149q0 76 -26 114.5t-72 38.5q-47 0 -73 -38
t-26 -115q0 -149 99 -149z" />
    <glyph glyph-name="OE" unicode="&#x152;" horiz-adv-x="968" 
d="M935 0h-538q-371 0 -371 346q0 354 376 354h523v-134h-285v-149h199v-126h-199v-161h295v-130zM449 569h-44q-96 0 -140 -50t-44 -168t43.5 -169t140.5 -51h44v438z" />
    <glyph glyph-name="oe" unicode="&#x153;" horiz-adv-x="934" 
d="M298 -8q-120 0 -199 73t-79 196q0 124 78.5 199t198.5 75q115 0 189 -77q68 77 184 77q244 0 244 -265q0 -12 -1 -28t-1 -18h-333q6 -63 36 -87.5t88 -24.5q80 0 134 39h56v-107q-87 -52 -214 -52q-129 0 -195 72q-70 -72 -186 -72zM301 109q46 0 72 37t26 113t-26 114
t-72 38q-47 0 -73 -38t-26 -114q0 -150 99 -150zM666 425q-34 0 -56 -23.5t-30 -83.5h164q-2 59 -21 83t-57 24z" />
    <glyph glyph-name="Racute" unicode="&#x154;" horiz-adv-x="658" 
d="M456 0l-135 257h-73v-257h-192v700h263q280 0 280 -214q0 -128 -104 -187l139 -254v-45h-178zM246 570v-188h61q53 0 77.5 23t24.5 71t-24.5 71t-77.5 23h-61zM256 723v33l33 102h173v-42l-101 -93h-105z" />
    <glyph glyph-name="racute" unicode="&#x155;" horiz-adv-x="415" 
d="M401 383h-24q-89 0 -149 -25v-358h-180v527h125q23 0 34.5 -14.5t16.5 -57.5q60 76 145 76q17 0 32 -4v-144zM290 561h-105v33l33 109h173v-43z" />
    <glyph glyph-name="uni0156" unicode="&#x156;" horiz-adv-x="658" 
d="M456 0l-135 257h-73v-257h-192v700h263q280 0 280 -214q0 -128 -104 -187l139 -254v-45h-178zM246 570v-188h61q53 0 77.5 23t24.5 71t-24.5 71t-77.5 23h-61zM265 -228v62q46 4 46 24q0 5 -2.5 8t-10 7t-9.5 5q-25 16 -25 47q0 25 20 41t51 16q34 0 55.5 -20.5
t21.5 -59.5q0 -120 -147 -130z" />
    <glyph glyph-name="uni0157" unicode="&#x157;" horiz-adv-x="411" 
d="M401 383h-24q-89 0 -149 -25v-358h-180v527h125q23 0 34.5 -14.5t16.5 -57.5q60 76 145 76q17 0 32 -4v-144zM62 -228v62q46 4 46 24q0 5 -2.5 8t-10 7t-9.5 5q-25 16 -25 47q0 25 20 41t51 16q34 0 55.5 -20.5t21.5 -59.5q0 -120 -147 -130z" />
    <glyph glyph-name="Rcaron" unicode="&#x158;" horiz-adv-x="658" 
d="M456 0l-135 257h-73v-257h-192v700h263q280 0 280 -214q0 -128 -104 -187l139 -254v-45h-178zM464 861v-38l-92 -100h-121l-88 100v38h97l56 -38l55 38h93zM246 570v-188h61q53 0 77.5 23t24.5 71t-24.5 71t-77.5 23h-61z" />
    <glyph glyph-name="rcaron" unicode="&#x159;" horiz-adv-x="411" 
d="M401 383h-24q-89 0 -149 -25v-358h-180v527h125q23 0 34.5 -14.5t16.5 -57.5q60 76 145 76q17 0 32 -4v-144zM387 703v-38l-92 -104h-121l-88 104v38h97l56 -42l55 42h93z" />
    <glyph glyph-name="Sacute" unicode="&#x15a;" horiz-adv-x="554" 
d="M253 -9q-138 0 -229 56v133h71q51 -56 151 -56q109 0 109 69q0 13 -3 22.5t-11 17.5t-14 13t-21.5 10l-23.5 7.5t-30 8t-31 8.5q-101 25 -148.5 73.5t-47.5 142.5q0 105 71.5 159t191.5 54q125 0 208 -47v-129h-69q-57 43 -132 43q-102 0 -102 -65q0 -32 25.5 -47
t89.5 -30q124 -28 174 -76.5t50 -145.5q0 -107 -71 -164t-208 -57zM224 723v33l33 102h173v-42l-101 -93h-105z" />
    <glyph glyph-name="sacute" unicode="&#x15b;" horiz-adv-x="469" 
d="M292 561h-105v33l33 109h173v-43zM215 -7q-111 0 -190 42v118h61q43 -39 122 -39q78 0 78 38q0 21 -17.5 30t-73.5 17q-89 10 -132 47t-43 116q0 85 60 128.5t162 43.5q103 0 178 -35v-116h-57q-48 32 -116 32q-69 0 -69 -38q0 -17 19.5 -26t70.5 -15q98 -13 140 -48
t42 -116q0 -179 -235 -179z" />
    <glyph glyph-name="Scircumflex" unicode="&#x15c;" horiz-adv-x="554" 
d="M253 -9q-138 0 -229 56v133h71q51 -56 151 -56q109 0 109 69q0 13 -3 22.5t-11 17.5t-14 13t-21.5 10l-23.5 7.5t-30 8t-31 8.5q-101 25 -148.5 73.5t-47.5 142.5q0 105 71.5 159t191.5 54q125 0 208 -47v-129h-69q-57 43 -132 43q-102 0 -102 -65q0 -32 25.5 -47
t89.5 -30q124 -28 174 -76.5t50 -145.5q0 -107 -71 -164t-208 -57zM131 723v38l91 100h121l89 -100v-38h-97l-56 38l-55 -38h-93z" />
    <glyph glyph-name="scircumflex" unicode="&#x15d;" horiz-adv-x="469" 
d="M88 561v38l91 104h121l89 -104v-38h-97l-56 42l-55 -42h-93zM215 -7q-111 0 -190 42v118h61q43 -39 122 -39q78 0 78 38q0 21 -17.5 30t-73.5 17q-89 10 -132 47t-43 116q0 85 60 128.5t162 43.5q103 0 178 -35v-116h-57q-48 32 -116 32q-69 0 -69 -38q0 -17 19.5 -26
t70.5 -15q98 -13 140 -48t42 -116q0 -179 -235 -179z" />
    <glyph glyph-name="Scedilla" unicode="&#x15e;" horiz-adv-x="556" 
d="M532 212q0 -97 -59.5 -153.5t-173.5 -65.5v-17q81 -4 81 -73q0 -36 -28.5 -57t-83.5 -21q-49 0 -82 16v62h31q11 -11 33 -11q26 0 26 16t-31 16h-22v68q-117 5 -199 55v133h71q51 -56 151 -56q109 0 109 69q0 13 -3 22.5t-11 17.5t-14 13t-21.5 10l-23.5 7.5t-30 8
t-31 8.5q-101 25 -148.5 73.5t-47.5 142.5q0 105 71.5 159t191.5 54q125 0 208 -47v-129h-69q-57 43 -132 43q-102 0 -102 -65q0 -32 25.5 -47t89.5 -30q124 -28 174 -76.5t50 -145.5z" />
    <glyph glyph-name="scedilla" unicode="&#x15f;" horiz-adv-x="469" 
d="M450 172q0 -160 -187 -177v-19q81 -4 81 -73q0 -36 -28.5 -57t-83.5 -21q-49 0 -82 16v62h31q11 -11 33 -11q26 0 26 16t-31 16h-22v70q-89 4 -162 41v118h61q43 -39 122 -39q78 0 78 38q0 21 -17.5 30t-73.5 17q-89 10 -132 47t-43 116q0 85 60 128.5t162 43.5
q103 0 178 -35v-116h-57q-48 32 -116 32q-69 0 -69 -38q0 -17 19.5 -26t70.5 -15q98 -13 140 -48t42 -116z" />
    <glyph glyph-name="Scaron" unicode="&#x160;" horiz-adv-x="547" 
d="M251 -9q-138 0 -229 56v133h71q51 -56 151 -56q109 0 109 69q0 13 -3 22.5t-11 17.5t-14 13t-21.5 10l-23.5 7.5t-30 8t-31 8.5q-101 25 -148.5 73.5t-47.5 142.5q0 105 71.5 159t191.5 54q125 0 208 -47v-129h-69q-57 43 -132 43q-102 0 -102 -65q0 -32 25.5 -47
t89.5 -30q124 -28 174 -76.5t50 -145.5q0 -107 -71 -164t-208 -57zM427 861v-38l-92 -100h-121l-88 100v38h97l56 -38l55 38h93z" />
    <glyph glyph-name="scaron" unicode="&#x161;" horiz-adv-x="469" 
d="M389 703v-38l-92 -104h-121l-88 104v38h97l56 -42l55 42h93zM215 -7q-111 0 -190 42v118h61q43 -39 122 -39q78 0 78 38q0 21 -17.5 30t-73.5 17q-89 10 -132 47t-43 116q0 85 60 128.5t162 43.5q103 0 178 -35v-116h-57q-48 32 -116 32q-69 0 -69 -38q0 -17 19.5 -26
t70.5 -15q98 -13 140 -48t42 -116q0 -179 -235 -179z" />
    <glyph glyph-name="uni0162" unicode="&#x162;" horiz-adv-x="603" 
d="M228 -228v62q46 4 46 24q0 5 -2.5 8t-10 7t-9.5 5q-25 16 -25 47q0 25 20 41t51 16q34 0 55.5 -20.5t21.5 -59.5q0 -120 -147 -130zM397 0h-192v567h-180v133h553v-133h-181v-567z" />
    <glyph glyph-name="uni0163" unicode="&#x163;" horiz-adv-x="368" 
d="M132 -228v62q46 4 46 24q0 5 -2.5 8t-10 7t-9.5 5q-25 16 -25 47q0 25 20 41t51 16q34 0 55.5 -20.5t21.5 -59.5q0 -120 -147 -130zM12 411v116h57v134h180v-134h98v-116h-98v-240q0 -35 14.5 -48.5t50.5 -13.5h35v-104q-48 -14 -103 -14q-86 0 -131.5 35t-45.5 118v267
h-57z" />
    <glyph glyph-name="Tcaron" unicode="&#x164;" horiz-adv-x="603" 
d="M452 861v-38l-92 -100h-121l-88 100v38h97l56 -38l55 38h93zM397 0h-192v567h-180v133h553v-133h-181v-567z" />
    <glyph glyph-name="tcaron" unicode="&#x165;" horiz-adv-x="368" 
d="M366 561h-81v139h139v-43zM12 411v116h57v134h180v-134h98v-116h-98v-240q0 -35 14.5 -48.5t50.5 -13.5h35v-104q-48 -14 -103 -14q-86 0 -131.5 35t-45.5 118v267h-57z" />
    <glyph glyph-name="Utilde" unicode="&#x168;" horiz-adv-x="693" 
d="M366 131q59 0 86.5 30t27.5 106v433h159v-434q0 -137 -69 -205.5t-216 -68.5q-148 0 -224.5 70t-76.5 204v434h192v-433q0 -76 29.5 -106t91.5 -30zM178 762v40q8 50 35.5 77t70.5 27q27 0 64 -12t46 -12q24 0 31 24h90v-40q-8 -50 -35.5 -77t-69.5 -27q-28 0 -64.5 13
t-45.5 13q-26 0 -32 -26h-90z" />
    <glyph glyph-name="utilde" unicode="&#x169;" horiz-adv-x="610" 
d="M297 124q31 0 82 17v386h179v-527h-125q-23 0 -34 11.5t-16 47.5q-87 -67 -180 -67q-154 0 -154 151v384h180v-343q0 -36 16.5 -48t51.5 -12zM135 562v40q8 50 35.5 77t70.5 27q27 0 64 -12t46 -12q23 0 31 24h90v-40q-8 -50 -35.5 -77t-69.5 -27q-28 0 -64.5 13
t-45.5 13q-26 0 -32 -26h-90z" />
    <glyph glyph-name="Umacron" unicode="&#x16a;" horiz-adv-x="693" 
d="M499 842v-109h-276v109h276zM366 131q59 0 86.5 30t27.5 106v433h159v-434q0 -137 -69 -205.5t-216 -68.5q-148 0 -224.5 70t-76.5 204v434h192v-433q0 -76 29.5 -106t91.5 -30z" />
    <glyph glyph-name="umacron" unicode="&#x16b;" horiz-adv-x="610" 
d="M297 124q31 0 82 17v386h179v-527h-125q-23 0 -34 11.5t-16 47.5q-87 -67 -180 -67q-154 0 -154 151v384h180v-343q0 -36 16.5 -48t51.5 -12zM440 687v-108h-270v108h270z" />
    <glyph glyph-name="Ubreve" unicode="&#x16c;" horiz-adv-x="693" 
d="M361 723q-61 0 -98.5 27.5t-46.5 71.5v39h103q6 -31 42 -31t42 31h103v-39q-10 -43 -47.5 -71t-97.5 -28zM366 131q59 0 86.5 30t27.5 106v433h159v-434q0 -137 -69 -205.5t-216 -68.5q-148 0 -224.5 70t-76.5 204v434h192v-433q0 -76 29.5 -106t91.5 -30z" />
    <glyph glyph-name="ubreve" unicode="&#x16d;" horiz-adv-x="610" 
d="M297 124q31 0 82 17v386h179v-527h-125q-23 0 -34 11.5t-16 47.5q-87 -67 -180 -67q-154 0 -154 151v384h180v-343q0 -36 16.5 -48t51.5 -12zM305 561q-60 0 -97.5 29.5t-47.5 76.5v40h103q5 -38 42 -38t42 38h103v-40q-10 -47 -47.5 -76.5t-97.5 -29.5z" />
    <glyph glyph-name="Uring" unicode="&#x16e;" horiz-adv-x="693" 
d="M369 131q59 0 86.5 30t27.5 106v433h159v-434q0 -137 -69 -205.5t-216 -68.5q-148 0 -224.5 70t-76.5 204v434h192v-433q0 -76 29.5 -106t91.5 -30zM366 696q-46 0 -76.5 27.5t-30.5 74.5q0 46 30.5 74t76.5 28t76.5 -28t30.5 -74q0 -47 -30.5 -74.5t-76.5 -27.5z
M366 762q15 0 24.5 9.5t9.5 26.5t-9.5 26.5t-24.5 9.5q-33 0 -33 -36t33 -36z" />
    <glyph glyph-name="uring" unicode="&#x16f;" horiz-adv-x="610" 
d="M297 124q31 0 82 17v386h179v-527h-125q-23 0 -34 11.5t-16 47.5q-87 -67 -180 -67q-154 0 -154 151v384h180v-343q0 -36 16.5 -48t51.5 -12zM305 562q-46 0 -76.5 27.5t-30.5 74.5q0 46 30.5 74t76.5 28t76.5 -28t30.5 -74q0 -47 -30.5 -74.5t-76.5 -27.5zM305 628
q15 0 24.5 9.5t9.5 26.5t-9.5 26.5t-24.5 9.5q-33 0 -33 -36t33 -36z" />
    <glyph glyph-name="Uhungarumlaut" unicode="&#x170;" horiz-adv-x="693" 
d="M366 131q59 0 86.5 30t27.5 106v433h159v-434q0 -137 -69 -205.5t-216 -68.5q-148 0 -224.5 70t-76.5 204v434h192v-433q0 -76 29.5 -106t91.5 -30zM220 723v29l31 106h141v-42l-76 -93h-96zM399 723v29l31 106h141v-42l-75 -93h-97z" />
    <glyph glyph-name="uhungarumlaut" unicode="&#x171;" horiz-adv-x="610" 
d="M297 124q31 0 82 17v386h179v-527h-125q-23 0 -34 11.5t-16 47.5q-87 -67 -180 -67q-154 0 -154 151v384h180v-343q0 -36 16.5 -48t51.5 -12zM343 561v28l32 114h138v-42l-76 -100h-94zM167 561v28l32 114h138v-42l-77 -100h-93z" />
    <glyph glyph-name="Uogonek" unicode="&#x172;" horiz-adv-x="693" 
d="M395 -167q-54 0 -82.5 20.5t-28.5 57.5q0 48 55 82h-1q-137 0 -211 71.5t-74 201.5v434h192v-433q0 -76 29.5 -106t91.5 -30q59 0 86.5 30t27.5 106v433h159v-434q0 -180 -123 -242q-10 -6 -37.5 -17t-38.5 -20q-20 -18 -20 -37q0 -24 37 -24h18v-76q-29 -17 -80 -17z
" />
    <glyph glyph-name="uogonek" unicode="&#x173;" horiz-adv-x="610" 
d="M479 -167q-54 0 -82.5 20.5t-28.5 56.5q0 54 68 90h-3q-23 0 -34 11.5t-16 47.5q-87 -67 -180 -67q-154 0 -154 151v384h180v-343q0 -36 16.5 -48t51.5 -12q31 0 82 17v386h179v-527h-20q-13 -12 -19 -18t-10.5 -14.5t-4.5 -17.5q0 -24 37 -24h18v-76q-29 -17 -80 -17z
" />
    <glyph glyph-name="Ydieresis" unicode="&#x178;" horiz-adv-x="637" 
d="M420 0h-192v260l-214 393v47h180l140 -273h2l135 273h152v-47l-203 -388v-265zM230 723q-37 0 -61 22t-24 57t24 57t61 22t60.5 -22t23.5 -57t-23.5 -57t-60.5 -22zM434 723q-37 0 -60.5 22t-23.5 57t23.5 57t60.5 22t61 -22t24 -57t-24 -57t-61 -22z" />
    <glyph glyph-name="Zacute" unicode="&#x179;" horiz-adv-x="572" 
d="M18 0v139l311 424v4h-289v133h495v-144l-311 -421v-4h311v-131h-517zM236 723v33l33 102h173v-42l-101 -93h-105z" />
    <glyph glyph-name="zacute" unicode="&#x17a;" horiz-adv-x="508" 
d="M312 561h-105v33l33 109h173v-43zM25 0v121l247 282h-234v124h441v-124l-248 -281h243v-122h-449z" />
    <glyph glyph-name="Zdotaccent" unicode="&#x17b;" horiz-adv-x="572" 
d="M298 723q-40 0 -66.5 23.5t-26.5 60.5t26.5 61t66.5 24t66.5 -24t26.5 -61t-26.5 -60.5t-66.5 -23.5zM18 0v139l311 424v4h-289v133h495v-144l-311 -421v-4h311v-131h-517z" />
    <glyph glyph-name="zdotaccent" unicode="&#x17c;" horiz-adv-x="508" 
d="M25 0v121l247 282h-234v124h441v-124l-248 -281h243v-122h-449zM258 559q-40 0 -66.5 23.5t-26.5 60.5t26.5 61t66.5 24t66.5 -24t26.5 -61t-26.5 -60.5t-66.5 -23.5z" />
    <glyph glyph-name="Zcaron" unicode="&#x17d;" horiz-adv-x="572" 
d="M448 861v-38l-92 -100h-121l-88 100v38h97l56 -38l55 38h93zM18 0v139l311 424v4h-289v133h495v-144l-311 -421v-4h311v-131h-517z" />
    <glyph glyph-name="zcaron" unicode="&#x17e;" horiz-adv-x="508" 
d="M408 703v-38l-92 -104h-121l-88 104v38h97l56 -42l55 42h93zM25 0v121l247 282h-234v124h441v-124l-248 -281h243v-122h-449z" />
    <glyph glyph-name="florin" unicode="&#x192;" horiz-adv-x="401" 
d="M30 444h69l13 111q18 157 186 157q54 0 92 -15v-103h-33q-31 0 -45.5 -10.5t-18.5 -38.5l-12 -101h83v-116h-97l-52 -428h-180l50 428h-55v116z" />
    <glyph glyph-name="Ohorn" unicode="&#x1a0;" horiz-adv-x="742" 
d="M371 122q69 0 109.5 56t40.5 169q0 114 -40.5 170.5t-109.5 56.5t-109.5 -56.5t-40.5 -170.5q0 -113 40.5 -169t109.5 -56zM571 651q30 -22 44 -35q102 -99 102 -267q0 -167 -99 -262.5t-247 -95.5q-149 0 -247 95.5t-98 262.5t99 263.5t246 96.5q41 0 82 -9q31 2 50 24
q21 22 21 61h108q0 -80 -55 -129q-4 -4 -6 -5z" />
    <glyph glyph-name="ohorn" unicode="&#x1a1;" horiz-adv-x="601" 
d="M301 110q98 0 98 149q0 76 -26 114.5t-72 38.5q-47 0 -73 -38t-26 -115q0 -149 99 -149zM495 467q4 -4 6 -5q80 -78 80 -201t-79 -196t-201 -73t-201.5 73t-79.5 196q0 124 79.5 199t201.5 75q43 0 85 -11q33 2 52 24q21 22 21 60h108q0 -79 -55 -128q-5 -5 -17 -13z" />
    <glyph glyph-name="Uhorn" unicode="&#x1af;" horiz-adv-x="693" 
d="M639 619v-353q0 -137 -69 -205.5t-216 -68.5q-148 0 -224.5 70t-76.5 204v434h192v-433q0 -76 29.5 -106t91.5 -30q59 0 86.5 30t27.5 106v433h90q35 0 56.5 23.5t21.5 61.5h108q0 -59 -31 -102t-83 -63q-2 0 -3 -1z" />
    <glyph glyph-name="uhorn" unicode="&#x1b0;" horiz-adv-x="610" 
d="M558 454v-454h-125q-23 0 -34 11.5t-16 47.5q-87 -67 -180 -67q-154 0 -154 151v384h180v-343q0 -36 16.5 -48t51.5 -12q31 0 82 17v386h103q26 5 43 23q21 22 21 60h108q0 -76 -55 -128q-20 -17 -41 -28z" />
    <glyph glyph-name="uni0218" unicode="&#x218;" horiz-adv-x="556" 
d="M201 -228v62q46 4 46 24q0 5 -2.5 8t-10 7t-9.5 5q-25 16 -25 47q0 25 20 41t51 16q34 0 55.5 -20.5t21.5 -59.5q0 -120 -147 -130zM253 -9q-138 0 -229 56v133h71q51 -56 151 -56q109 0 109 69q0 13 -3 22.5t-11 17.5t-14 13t-21.5 10l-23.5 7.5t-30 8t-31 8.5
q-101 25 -148.5 73.5t-47.5 142.5q0 105 71.5 159t191.5 54q125 0 208 -47v-129h-69q-57 43 -132 43q-102 0 -102 -65q0 -32 25.5 -47t89.5 -30q124 -28 174 -76.5t50 -145.5q0 -107 -71 -164t-208 -57z" />
    <glyph glyph-name="uni0219" unicode="&#x219;" horiz-adv-x="469" 
d="M165 -228v62q46 4 46 24q0 5 -2.5 8t-10 7t-9.5 5q-25 16 -25 47q0 25 20 41t51 16q34 0 55.5 -20.5t21.5 -59.5q0 -120 -147 -130zM215 -7q-111 0 -190 42v118h61q43 -39 122 -39q78 0 78 38q0 21 -17.5 30t-73.5 17q-89 10 -132 47t-43 116q0 85 60 128.5t162 43.5
q103 0 178 -35v-116h-57q-48 32 -116 32q-69 0 -69 -38q0 -17 19.5 -26t70.5 -15q98 -13 140 -48t42 -116q0 -179 -235 -179z" />
    <glyph glyph-name="uni0237" unicode="&#x237;" horiz-adv-x="278" 
d="M-39 -156v98h28q33 0 46.5 13.5t13.5 46.5v525h116q39 0 51 -19.5t12 -81.5v-433q0 -85 -43.5 -123.5t-131.5 -38.5q-51 0 -92 13z" />
    <glyph glyph-name="circumflex" unicode="&#x2c6;" 
d="M48 561v38l91 104h121l89 -104v-38h-97l-56 42l-55 -42h-93z" />
    <glyph glyph-name="caron" unicode="&#x2c7;" 
d="M349 703v-38l-92 -104h-121l-88 104v38h97l56 -42l55 42h93z" />
    <glyph glyph-name="breve" unicode="&#x2d8;" 
d="M199 561q-60 0 -97.5 29.5t-47.5 76.5v40h103q5 -38 42 -38t42 38h103v-40q-10 -47 -47.5 -76.5t-97.5 -29.5z" />
    <glyph glyph-name="dotaccent" unicode="&#x2d9;" 
d="M199 559q-40 0 -66.5 23.5t-26.5 60.5t26.5 61t66.5 24t66.5 -24t26.5 -61t-26.5 -60.5t-66.5 -23.5z" />
    <glyph glyph-name="ring" unicode="&#x2da;" 
d="M199 562q-46 0 -76.5 27.5t-30.5 74.5q0 46 30.5 74t76.5 28t76.5 -28t30.5 -74q0 -47 -30.5 -74.5t-76.5 -27.5zM199 628q15 0 24.5 9.5t9.5 26.5t-9.5 26.5t-24.5 9.5q-33 0 -33 -36t33 -36z" />
    <glyph glyph-name="ogonek" unicode="&#x2db;" 
d="M217 -167q-54 0 -82.5 20.5t-28.5 56.5q0 54 68 90h102q-13 -12 -19 -18t-10.5 -14.5t-4.5 -17.5q0 -24 37 -24h18v-76q-29 -17 -80 -17z" />
    <glyph glyph-name="tilde" unicode="&#x2dc;" 
d="M25 562v40q8 50 35.5 77t70.5 27q27 0 64 -12t46 -12q23 0 31 24h90v-40q-8 -50 -35.5 -77t-69.5 -27q-28 0 -64.5 13t-45.5 13q-26 0 -32 -26h-90z" />
    <glyph glyph-name="hungarumlaut" unicode="&#x2dd;" 
d="M62 561v28l32 114h138v-42l-77 -100h-93zM238 561v28l32 114h138v-42l-76 -100h-94z" />
    <glyph glyph-name="gravecomb" unicode="&#x300;" horiz-adv-x="0" 
d="M-135 561h-105l-102 99v43h173l34 -109v-33z" />
    <glyph glyph-name="acutecomb" unicode="&#x301;" horiz-adv-x="0" 
d="M-222 561h-105v33l33 109h173v-43z" />
    <glyph glyph-name="tildecomb" unicode="&#x303;" horiz-adv-x="0" 
d="M-371 562v40q8 50 35.5 77t70.5 27q27 0 64 -12t46 -12q23 0 31 24h90v-40q-8 -50 -35.5 -77t-69.5 -27q-28 0 -64.5 13t-45.5 13q-26 0 -32 -26h-90z" />
    <glyph glyph-name="hookabovecomb" unicode="&#x309;" horiz-adv-x="464" 
d="M254 554h-74q3 14 5.5 23t4.5 15t4.5 10.5t4.5 7t7 8t8 9.5q25 22 25 36q0 10 -14 10q-18 0 -33 -15h-40v62q38 24 81 24q46 0 71 -20t25 -59t-45 -73q-2 -2 -8.5 -6t-7.5 -5t-4.5 -5.5t-5 -9t-4.5 -12.5z" />
    <glyph glyph-name="uni031B" unicode="&#x31b;" horiz-adv-x="350" 
d="M175 417v93q35 0 56.5 23.5t21.5 60.5h108q0 -78 -54 -127.5t-132 -49.5z" />
    <glyph glyph-name="dotbelowcomb" unicode="&#x323;" horiz-adv-x="278" 
d="M139 -201q-40 0 -66.5 23.5t-26.5 60.5t26.5 61t66.5 24q41 0 67 -24t26 -61t-26 -60.5t-67 -23.5z" />
    <glyph glyph-name="uni1EA0" unicode="&#x1ea0;" horiz-adv-x="694" 
d="M19 0v45l223 655h208l226 -655v-45h-186l-49 158h-223l-47 -158h-152zM328 524l-71 -236h145l-72 236h-2zM348 -201q-40 0 -66.5 23.5t-26.5 60.5t26.5 61t66.5 24q41 0 67 -24t26 -61t-26 -60.5t-67 -23.5z" />
    <glyph glyph-name="uni1EA1" unicode="&#x1ea1;" horiz-adv-x="553" 
d="M508 0h-98q-32 0 -48 11.5t-24 38.5q-51 -57 -151 -57q-73 0 -120 41t-47 116q0 81 56 122.5t151 41.5q57 0 101 -10v36q0 36 -20.5 51.5t-68.5 15.5q-71 0 -125 -35h-54v121q98 42 214 42q120 0 177 -42.5t57 -139.5v-353zM258 98q36 0 70 29v93q-32 5 -59 5
q-78 0 -78 -63q0 -64 67 -64zM264 -201q-40 0 -66.5 23.5t-26.5 60.5t26.5 61t66.5 24q41 0 67 -24t26 -61t-26 -60.5t-67 -23.5z" />
    <glyph glyph-name="uni1EA2" unicode="&#x1ea2;" horiz-adv-x="694" 
d="M19 0v45l223 655h208l226 -655v-45h-186l-49 158h-223l-47 -158h-152zM328 524l-71 -236h145l-72 236h-2zM366 754h-74q3 14 5.5 23t4.5 15t4.5 10.5t4.5 7t7 8t8 9.5q25 22 25 36q0 10 -14 10q-18 0 -33 -15h-40v62q37 24 81 24q46 0 71 -20t25 -59t-45 -73
q-2 -2 -8.5 -6t-7.5 -5t-4.5 -5.5t-5 -9t-4.5 -12.5z" />
    <glyph glyph-name="uni1EA3" unicode="&#x1ea3;" horiz-adv-x="553" 
d="M508 0h-98q-32 0 -48 11.5t-24 38.5q-51 -57 -151 -57q-73 0 -120 41t-47 116q0 81 56 122.5t151 41.5q57 0 101 -10v36q0 36 -20.5 51.5t-68.5 15.5q-71 0 -125 -35h-54v121q98 42 214 42q120 0 177 -42.5t57 -139.5v-353zM258 98q36 0 70 29v93q-32 5 -59 5
q-78 0 -78 -63q0 -64 67 -64zM282 554h-74q3 14 5.5 23t4.5 15t4.5 10.5t4.5 7t7 8t8 9.5q25 22 25 36q0 10 -14 10q-18 0 -33 -15h-40v62q38 24 81 24q46 0 71 -20t25 -59t-45 -73q-2 -2 -8.5 -6t-7.5 -5t-4.5 -5.5t-5 -9t-4.5 -12.5z" />
    <glyph glyph-name="uni1EA4" unicode="&#x1ea4;" horiz-adv-x="694" 
d="M19 0v45l223 655h208l226 -655v-45h-186l-49 158h-223l-47 -158h-152zM328 524l-71 -236h145l-72 236h-2zM197 723v38l91 104h121l89 -104v-38h-97l-56 42l-55 -42h-93zM570 828h-105v33l33 109h173v-43z" />
    <glyph glyph-name="uni1EA5" unicode="&#x1ea5;" horiz-adv-x="553" 
d="M508 0h-98q-32 0 -48 11.5t-24 38.5q-51 -57 -151 -57q-73 0 -120 41t-47 116q0 81 56 122.5t151 41.5q57 0 101 -10v36q0 36 -20.5 51.5t-68.5 15.5q-71 0 -125 -35h-54v121q98 42 214 42q120 0 177 -42.5t57 -139.5v-353zM258 98q36 0 70 29v93q-32 5 -59 5
q-78 0 -78 -63q0 -64 67 -64zM114 561v38l91 104h121l89 -104v-38h-97l-56 42l-55 -42h-93zM491 632h-105v33l33 109h173v-43z" />
    <glyph glyph-name="uni1EA6" unicode="&#x1ea6;" horiz-adv-x="694" 
d="M19 0v45l223 655h208l226 -655v-45h-186l-49 158h-223l-47 -158h-152zM328 524l-71 -236h145l-72 236h-2zM197 723v38l91 104h121l89 -104v-38h-97l-56 42l-55 -42h-93zM234 836h-105l-102 99v43h173l34 -109v-33z" />
    <glyph glyph-name="uni1EA7" unicode="&#x1ea7;" horiz-adv-x="553" 
d="M508 0h-98q-32 0 -48 11.5t-24 38.5q-51 -57 -151 -57q-73 0 -120 41t-47 116q0 81 56 122.5t151 41.5q57 0 101 -10v36q0 36 -20.5 51.5t-68.5 15.5q-71 0 -125 -35h-54v121q98 42 214 42q120 0 177 -42.5t57 -139.5v-353zM258 98q36 0 70 29v93q-32 5 -59 5
q-78 0 -78 -63q0 -64 67 -64zM114 561v38l91 104h121l89 -104v-38h-97l-56 42l-55 -42h-93zM524 676h-105l-102 99v43h173l34 -109v-33z" />
    <glyph glyph-name="uni1EA8" unicode="&#x1ea8;" horiz-adv-x="694" 
d="M19 0v45l223 655h208l226 -655v-45h-186l-49 158h-223l-47 -158h-152zM328 524l-71 -236h145l-72 236h-2zM197 722v38l91 104h121l89 -104v-38h-97l-56 42l-55 -42h-93zM550 823h-74q3 14 5.5 23t4.5 15t4.5 10.5t4.5 7t7 8t8 9.5q25 22 25 36q0 10 -14 10q-18 0 -33 -15
h-40v62q37 24 81 24q46 0 71 -20t25 -59t-45 -73q-2 -2 -8.5 -6t-7.5 -5t-4.5 -5.5t-5 -9t-4.5 -12.5z" />
    <glyph glyph-name="uni1EA9" unicode="&#x1ea9;" horiz-adv-x="553" 
d="M508 0h-98q-32 0 -48 11.5t-24 38.5q-51 -57 -151 -57q-73 0 -120 41t-47 116q0 81 56 122.5t151 41.5q57 0 101 -10v36q0 36 -20.5 51.5t-68.5 15.5q-71 0 -125 -35h-54v121q98 42 214 42q120 0 177 -42.5t57 -139.5v-353zM258 98q36 0 70 29v93q-32 5 -59 5
q-78 0 -78 -63q0 -64 67 -64zM114 561v38l91 104h121l89 -104v-38h-97l-56 42l-55 -42h-93zM465 671h-74q3 14 5.5 23t4.5 15t4.5 10.5t4.5 7t7 8t8 9.5q25 22 25 36q0 10 -14 10q-18 0 -33 -15h-40v62q38 24 81 24q46 0 71 -20t25 -59t-45 -73q-2 -2 -8.5 -6t-7.5 -5
t-4.5 -5.5t-5 -9t-4.5 -12.5z" />
    <glyph glyph-name="uni1EAA" unicode="&#x1eaa;" horiz-adv-x="694" 
d="M19 0v45l223 655h208l226 -655v-45h-186l-49 158h-223l-47 -158h-152zM328 524l-71 -236h145l-72 236h-2zM202 722v38l91 104h121l89 -104v-38h-97l-56 42l-55 -42h-93zM199 887v40q8 50 35.5 77t70.5 27q27 0 64 -12t46 -12q24 0 31 24h90v-40q-8 -50 -35.5 -77
t-69.5 -27q-28 0 -64.5 13t-45.5 13q-26 0 -32 -26h-90z" />
    <glyph glyph-name="uni1EAB" unicode="&#x1eab;" horiz-adv-x="553" 
d="M508 0h-98q-32 0 -48 11.5t-24 38.5q-51 -57 -151 -57q-73 0 -120 41t-47 116q0 81 56 122.5t151 41.5q57 0 101 -10v36q0 36 -20.5 51.5t-68.5 15.5q-71 0 -125 -35h-54v121q98 42 214 42q120 0 177 -42.5t57 -139.5v-353zM258 98q36 0 70 29v93q-32 5 -59 5
q-78 0 -78 -63q0 -64 67 -64zM114 561v38l91 104h121l89 -104v-38h-97l-56 42l-55 -42h-93zM96 739v40q8 50 35.5 77t70.5 27q27 0 64 -12t46 -12q24 0 31 24h90v-40q-8 -50 -35.5 -77t-69.5 -27q-28 0 -64.5 13t-45.5 13q-26 0 -32 -26h-90z" />
    <glyph glyph-name="uni1EAC" unicode="&#x1eac;" horiz-adv-x="694" 
d="M19 0v45l223 655h208l226 -655v-45h-186l-49 158h-223l-47 -158h-152zM328 524l-71 -236h145l-72 236h-2zM202 723v38l91 104h121l89 -104v-38h-97l-56 42l-55 -42h-93zM348 -201q-40 0 -66.5 23.5t-26.5 60.5t26.5 61t66.5 24q41 0 67 -24t26 -61t-26 -60.5t-67 -23.5z
" />
    <glyph glyph-name="uni1EAD" unicode="&#x1ead;" horiz-adv-x="553" 
d="M508 0h-98q-32 0 -48 11.5t-24 38.5q-51 -57 -151 -57q-73 0 -120 41t-47 116q0 81 56 122.5t151 41.5q57 0 101 -10v36q0 36 -20.5 51.5t-68.5 15.5q-71 0 -125 -35h-54v121q98 42 214 42q120 0 177 -42.5t57 -139.5v-353zM258 98q36 0 70 29v93q-32 5 -59 5
q-78 0 -78 -63q0 -64 67 -64zM114 561v38l91 104h121l89 -104v-38h-97l-56 42l-55 -42h-93zM264 -201q-40 0 -66.5 23.5t-26.5 60.5t26.5 61t66.5 24q41 0 67 -24t26 -61t-26 -60.5t-67 -23.5z" />
    <glyph glyph-name="uni1EAE" unicode="&#x1eae;" horiz-adv-x="694" 
d="M19 0v45l223 655h208l226 -655v-45h-186l-49 158h-223l-47 -158h-152zM328 524l-71 -236h145l-72 236h-2zM346 723q-60 0 -97.5 29.5t-47.5 76.5v40h103q5 -38 42 -38t42 38h103v-40q-10 -47 -47.5 -76.5t-97.5 -29.5zM399 885h-105v33l33 109h173v-43z" />
    <glyph glyph-name="uni1EAF" unicode="&#x1eaf;" horiz-adv-x="553" 
d="M508 0h-98q-32 0 -48 11.5t-24 38.5q-51 -57 -151 -57q-73 0 -120 41t-47 116q0 81 56 122.5t151 41.5q57 0 101 -10v36q0 36 -20.5 51.5t-68.5 15.5q-71 0 -125 -35h-54v121q98 42 214 42q120 0 177 -42.5t57 -139.5v-353zM258 98q36 0 70 29v93q-32 5 -59 5
q-78 0 -78 -63q0 -64 67 -64zM264 561q-60 0 -97.5 29.5t-47.5 76.5v40h103q5 -38 42 -38t42 38h103v-40q-10 -47 -47.5 -76.5t-97.5 -29.5zM301 743h-105v33l33 109h173v-43z" />
    <glyph glyph-name="uni1EB0" unicode="&#x1eb0;" horiz-adv-x="694" 
d="M19 0v45l223 655h208l226 -655v-45h-186l-49 158h-223l-47 -158h-152zM328 524l-71 -236h145l-72 236h-2zM350 723q-60 0 -97.5 29.5t-47.5 76.5v40h103q5 -38 42 -38t42 38h103v-40q-10 -47 -47.5 -76.5t-97.5 -29.5zM398 897h-105l-102 99v43h173l34 -109v-33z" />
    <glyph glyph-name="uni1EB1" unicode="&#x1eb1;" horiz-adv-x="553" 
d="M508 0h-98q-32 0 -48 11.5t-24 38.5q-51 -57 -151 -57q-73 0 -120 41t-47 116q0 81 56 122.5t151 41.5q57 0 101 -10v36q0 36 -20.5 51.5t-68.5 15.5q-71 0 -125 -35h-54v121q98 42 214 42q120 0 177 -42.5t57 -139.5v-353zM258 98q36 0 70 29v93q-32 5 -59 5
q-78 0 -78 -63q0 -64 67 -64zM264 561q-60 0 -97.5 29.5t-47.5 76.5v40h103q5 -38 42 -38t42 38h103v-40q-10 -47 -47.5 -76.5t-97.5 -29.5zM332 743h-105l-102 99v43h173l34 -109v-33z" />
    <glyph glyph-name="uni1EB2" unicode="&#x1eb2;" horiz-adv-x="694" 
d="M19 0v45l223 655h208l226 -655v-45h-186l-49 158h-223l-47 -158h-152zM328 524l-71 -236h145l-72 236h-2zM348 722q-60 0 -97.5 29.5t-47.5 76.5v40h103q5 -38 42 -38t42 38h103v-40q-10 -47 -47.5 -76.5t-97.5 -29.5zM390 887h-74q9 29 13.5 35.5t20.5 18.5q25 17 25 27
q0 8 -14 8q-18 0 -33 -11h-40v46q38 18 81 18q96 0 96 -59q0 -30 -45 -55q-3 -2 -7.5 -4t-6.5 -3t-4.5 -3t-4 -4t-3.5 -5.5t-4 -8.5z" />
    <glyph glyph-name="uni1EB3" unicode="&#x1eb3;" horiz-adv-x="553" 
d="M508 0h-98q-32 0 -48 11.5t-24 38.5q-51 -57 -151 -57q-73 0 -120 41t-47 116q0 81 56 122.5t151 41.5q57 0 101 -10v36q0 36 -20.5 51.5t-68.5 15.5q-71 0 -125 -35h-54v121q98 42 214 42q120 0 177 -42.5t57 -139.5v-353zM258 98q36 0 70 29v93q-32 5 -59 5
q-78 0 -78 -63q0 -64 67 -64zM264 561q-60 0 -97.5 29.5t-47.5 76.5v40h103q5 -38 42 -38t42 38h103v-40q-10 -47 -47.5 -76.5t-97.5 -29.5zM282 707h-74q3 14 5.5 23t4.5 15t4.5 10.5t4.5 7t7 8t8 9.5q25 22 25 36q0 10 -14 10q-18 0 -33 -15h-40v62q38 24 81 24
q46 0 71 -20t25 -59t-45 -73q-2 -2 -8.5 -6t-7.5 -5t-4.5 -5.5t-5 -9t-4.5 -12.5z" />
    <glyph glyph-name="uni1EB4" unicode="&#x1eb4;" horiz-adv-x="694" 
d="M19 0v45l223 655h208l226 -655v-45h-186l-49 158h-223l-47 -158h-152zM328 524l-71 -236h145l-72 236h-2zM353 722q-60 0 -97.5 29.5t-47.5 76.5v40h103q5 -38 42 -38t42 38h103v-40q-10 -47 -47.5 -76.5t-97.5 -29.5zM201 887v40q8 50 35.5 77t70.5 27q27 0 64 -12
t46 -12q23 0 31 24h90v-40q-8 -50 -35.5 -77t-69.5 -27q-28 0 -64.5 13t-45.5 13q-26 0 -32 -26h-90z" />
    <glyph glyph-name="uni1EB5" unicode="&#x1eb5;" horiz-adv-x="553" 
d="M508 0h-98q-32 0 -48 11.5t-24 38.5q-51 -57 -151 -57q-73 0 -120 41t-47 116q0 81 56 122.5t151 41.5q57 0 101 -10v36q0 36 -20.5 51.5t-68.5 15.5q-71 0 -125 -35h-54v121q98 42 214 42q120 0 177 -42.5t57 -139.5v-353zM258 98q36 0 70 29v93q-32 5 -59 5
q-78 0 -78 -63q0 -64 67 -64zM264 561q-60 0 -97.5 29.5t-47.5 76.5v40h103q5 -38 42 -38t42 38h103v-40q-10 -47 -47.5 -76.5t-97.5 -29.5zM96 743v40q8 50 35.5 77t70.5 27q27 0 64 -12t46 -12q24 0 31 24h90v-40q-8 -50 -35.5 -77t-69.5 -27q-28 0 -64.5 13t-45.5 13
q-26 0 -32 -26h-90z" />
    <glyph glyph-name="uni1EB6" unicode="&#x1eb6;" horiz-adv-x="694" 
d="M19 0v45l223 655h208l226 -655v-45h-186l-49 158h-223l-47 -158h-152zM328 524l-71 -236h145l-72 236h-2zM347 723q-60 0 -97.5 29.5t-47.5 76.5v40h103q5 -38 42 -38t42 38h103v-40q-10 -47 -47.5 -76.5t-97.5 -29.5zM348 -201q-40 0 -66.5 23.5t-26.5 60.5t26.5 61
t66.5 24q41 0 67 -24t26 -61t-26 -60.5t-67 -23.5z" />
    <glyph glyph-name="uni1EB7" unicode="&#x1eb7;" horiz-adv-x="553" 
d="M508 0h-98q-32 0 -48 11.5t-24 38.5q-51 -57 -151 -57q-73 0 -120 41t-47 116q0 81 56 122.5t151 41.5q57 0 101 -10v36q0 36 -20.5 51.5t-68.5 15.5q-71 0 -125 -35h-54v121q98 42 214 42q120 0 177 -42.5t57 -139.5v-353zM258 98q36 0 70 29v93q-32 5 -59 5
q-78 0 -78 -63q0 -64 67 -64zM264 561q-60 0 -97.5 29.5t-47.5 76.5v40h103q5 -38 42 -38t42 38h103v-40q-10 -47 -47.5 -76.5t-97.5 -29.5zM264 -201q-40 0 -66.5 23.5t-26.5 60.5t26.5 61t66.5 24q41 0 67 -24t26 -61t-26 -60.5t-67 -23.5z" />
    <glyph glyph-name="uni1EB8" unicode="&#x1eb8;" horiz-adv-x="581" 
d="M56 0v700h482v-134h-291v-149h205v-126h-205v-161h301v-130h-492zM302 -201q-40 0 -66.5 23.5t-26.5 60.5t26.5 61t66.5 24q41 0 67 -24t26 -61t-26 -60.5t-67 -23.5z" />
    <glyph glyph-name="uni1EB9" unicode="&#x1eb9;" horiz-adv-x="557" 
d="M535 224h-333q6 -63 36 -87.5t88 -24.5q81 0 134 39h56v-107q-90 -52 -218 -52q-136 0 -207 70.5t-71 197.5q0 126 74 200.5t195 74.5q248 0 248 -265q0 -12 -1 -28t-1 -18zM289 425q-34 0 -56 -23.5t-30 -83.5h164q-2 59 -21 83t-57 24zM279 -201q-40 0 -66.5 23.5
t-26.5 60.5t26.5 61t66.5 24q41 0 67 -24t26 -61t-26 -60.5t-67 -23.5z" />
    <glyph glyph-name="uni1EBA" unicode="&#x1eba;" horiz-adv-x="581" 
d="M56 0v700h482v-134h-291v-149h205v-126h-205v-161h301v-130h-492zM320 754h-74q3 14 5.5 23t4.5 15t4.5 10.5t4.5 7t7 8t8 9.5q25 22 25 36q0 10 -14 10q-18 0 -33 -15h-40v62q38 24 81 24q46 0 71 -20t25 -59t-45 -73q-2 -2 -8.5 -6t-7.5 -5t-4.5 -5.5t-5 -9t-4.5 -12.5
z" />
    <glyph glyph-name="uni1EBB" unicode="&#x1ebb;" horiz-adv-x="557" 
d="M535 224h-333q6 -63 36 -87.5t88 -24.5q81 0 134 39h56v-107q-90 -52 -218 -52q-136 0 -207 70.5t-71 197.5q0 126 74 200.5t195 74.5q248 0 248 -265q0 -12 -1 -28t-1 -18zM289 425q-34 0 -56 -23.5t-30 -83.5h164q-2 59 -21 83t-57 24zM297 554h-74q3 14 5.5 23t4.5 15
t4.5 10.5t4.5 7t7 8t8 9.5q25 22 25 36q0 10 -14 10q-18 0 -33 -15h-40v62q37 24 81 24q46 0 71 -20t25 -59t-45 -73q-2 -2 -8.5 -6t-7.5 -5t-4.5 -5.5t-5 -9t-4.5 -12.5z" />
    <glyph glyph-name="uni1EBC" unicode="&#x1ebc;" horiz-adv-x="581" 
d="M56 0v700h482v-134h-291v-149h205v-126h-205v-161h301v-130h-492zM134 762v40q8 50 35.5 77t70.5 27q27 0 64 -12t46 -12q24 0 31 24h90v-40q-8 -50 -35.5 -77t-69.5 -27q-28 0 -64.5 13t-45.5 13q-26 0 -32 -26h-90z" />
    <glyph glyph-name="uni1EBD" unicode="&#x1ebd;" horiz-adv-x="557" 
d="M535 224h-333q6 -63 36 -87.5t88 -24.5q81 0 134 39h56v-107q-90 -52 -218 -52q-136 0 -207 70.5t-71 197.5q0 126 74 200.5t195 74.5q248 0 248 -265q0 -12 -1 -28t-1 -18zM289 425q-34 0 -56 -23.5t-30 -83.5h164q-2 59 -21 83t-57 24zM110 562v40q8 50 35.5 77
t70.5 27q27 0 64 -12t46 -12q24 0 31 24h90v-40q-8 -50 -35.5 -77t-69.5 -27q-28 0 -64.5 13t-45.5 13q-26 0 -32 -26h-90z" />
    <glyph glyph-name="uni1EBE" unicode="&#x1ebe;" horiz-adv-x="581" 
d="M56 0v700h482v-134h-291v-149h205v-126h-205v-161h301v-130h-492zM152 723v38l91 104h121l89 -104v-38h-97l-56 42l-55 -42h-93zM525 828h-105v33l33 109h173v-43z" />
    <glyph glyph-name="uni1EBF" unicode="&#x1ebf;" horiz-adv-x="557" 
d="M535 224h-333q6 -63 36 -87.5t88 -24.5q81 0 134 39h56v-107q-90 -52 -218 -52q-136 0 -207 70.5t-71 197.5q0 126 74 200.5t195 74.5q248 0 248 -265q0 -12 -1 -28t-1 -18zM289 425q-34 0 -56 -23.5t-30 -83.5h164q-2 59 -21 83t-57 24zM128 561v38l91 104h121l89 -104
v-38h-97l-56 42l-55 -42h-93zM513 632h-105v33l33 109h173v-43z" />
    <glyph glyph-name="uni1EC0" unicode="&#x1ec0;" horiz-adv-x="581" 
d="M56 0v700h482v-134h-291v-149h205v-126h-205v-161h301v-130h-492zM152 723v38l91 104h121l89 -104v-38h-97l-56 42l-55 -42h-93zM189 836h-105l-102 99v43h173l34 -109v-33z" />
    <glyph glyph-name="uni1EC1" unicode="&#x1ec1;" horiz-adv-x="557" 
d="M535 224h-333q6 -63 36 -87.5t88 -24.5q81 0 134 39h56v-107q-90 -52 -218 -52q-136 0 -207 70.5t-71 197.5q0 126 74 200.5t195 74.5q248 0 248 -265q0 -12 -1 -28t-1 -18zM289 425q-34 0 -56 -23.5t-30 -83.5h164q-2 59 -21 83t-57 24zM128 561v38l91 104h121l89 -104
v-38h-97l-56 42l-55 -42h-93zM541 680h-105l-102 99v43h173l34 -109v-33z" />
    <glyph glyph-name="uni1EC2" unicode="&#x1ec2;" horiz-adv-x="581" 
d="M56 0v700h482v-134h-291v-149h205v-126h-205v-161h301v-130h-492zM152 722v38l91 104h121l89 -104v-38h-97l-56 42l-55 -42h-93zM505 823h-74q3 14 5.5 23t4.5 15t4.5 10.5t4.5 7t7 8t8 9.5q25 22 25 36q0 10 -14 10q-18 0 -33 -15h-40v62q37 24 81 24q46 0 71 -20
t25 -59t-45 -73q-2 -2 -8.5 -6t-7.5 -5t-4.5 -5.5t-5 -9t-4.5 -12.5z" />
    <glyph glyph-name="uni1EC3" unicode="&#x1ec3;" horiz-adv-x="557" 
d="M535 224h-333q6 -63 36 -87.5t88 -24.5q81 0 134 39h56v-107q-90 -52 -218 -52q-136 0 -207 70.5t-71 197.5q0 126 74 200.5t195 74.5q248 0 248 -265q0 -12 -1 -28t-1 -18zM289 425q-34 0 -56 -23.5t-30 -83.5h164q-2 59 -21 83t-57 24zM128 561v38l91 104h121l89 -104
v-38h-97l-56 42l-55 -42h-93zM477 669h-74q3 14 5.5 23t4.5 15t4.5 10.5t4.5 7t7 8t8 9.5q25 22 25 36q0 10 -14 10q-18 0 -33 -15h-40v62q37 24 81 24q46 0 71 -20t25 -59t-45 -73q-2 -2 -8.5 -6t-7.5 -5t-4.5 -5.5t-5 -9t-4.5 -12.5z" />
    <glyph glyph-name="uni1EC4" unicode="&#x1ec4;" horiz-adv-x="581" 
d="M56 0v700h482v-134h-291v-149h205v-126h-205v-161h301v-130h-492zM157 722v38l91 104h121l89 -104v-38h-97l-56 42l-55 -42h-93zM154 887v40q8 50 35.5 77t70.5 27q27 0 64 -12t46 -12q24 0 31 24h90v-40q-8 -50 -35.5 -77t-69.5 -27q-28 0 -64.5 13t-45.5 13
q-26 0 -32 -26h-90z" />
    <glyph glyph-name="uni1EC5" unicode="&#x1ec5;" horiz-adv-x="557" 
d="M535 224h-333q6 -63 36 -87.5t88 -24.5q81 0 134 39h56v-107q-90 -52 -218 -52q-136 0 -207 70.5t-71 197.5q0 126 74 200.5t195 74.5q248 0 248 -265q0 -12 -1 -28t-1 -18zM289 425q-34 0 -56 -23.5t-30 -83.5h164q-2 59 -21 83t-57 24zM128 561v38l91 104h121l89 -104
v-38h-97l-56 42l-55 -42h-93zM110 739v40q8 50 35.5 77t70.5 27q27 0 64 -12t46 -12q24 0 31 24h90v-40q-8 -50 -35.5 -77t-69.5 -27q-28 0 -64.5 13t-45.5 13q-26 0 -32 -26h-90z" />
    <glyph glyph-name="uni1EC6" unicode="&#x1ec6;" horiz-adv-x="581" 
d="M56 0v700h482v-134h-291v-149h205v-126h-205v-161h301v-130h-492zM151 723v38l91 104h121l89 -104v-38h-97l-56 42l-55 -42h-93zM302 -201q-40 0 -66.5 23.5t-26.5 60.5t26.5 61t66.5 24q41 0 67 -24t26 -61t-26 -60.5t-67 -23.5z" />
    <glyph glyph-name="uni1EC7" unicode="&#x1ec7;" horiz-adv-x="557" 
d="M535 224h-333q6 -63 36 -87.5t88 -24.5q81 0 134 39h56v-107q-90 -52 -218 -52q-136 0 -207 70.5t-71 197.5q0 126 74 200.5t195 74.5q248 0 248 -265q0 -12 -1 -28t-1 -18zM289 425q-34 0 -56 -23.5t-30 -83.5h164q-2 59 -21 83t-57 24zM128 561v38l91 104h121l89 -104
v-38h-97l-56 42l-55 -42h-93zM279 -201q-40 0 -66.5 23.5t-26.5 60.5t26.5 61t66.5 24q41 0 67 -24t26 -61t-26 -60.5t-67 -23.5z" />
    <glyph glyph-name="uni1EC8" unicode="&#x1ec8;" horiz-adv-x="311" 
d="M252 0h-193v700h193v-700zM174 754h-74q3 14 5.5 23t4.5 15t4.5 10.5t4.5 7t7 8t8 9.5q25 22 25 36q0 10 -14 10q-18 0 -33 -15h-40v62q38 24 81 24q46 0 71 -20t25 -59t-45 -73q-2 -2 -8.5 -6t-7.5 -5t-4.5 -5.5t-5 -9t-4.5 -12.5z" />
    <glyph glyph-name="uni1EC9" unicode="&#x1ec9;" horiz-adv-x="278" 
d="M228 0h-179v527h116q39 0 51 -19t12 -82v-426zM157 554h-74q3 14 5.5 23t4.5 15t4.5 10.5t4.5 7t7 8t8 9.5q25 22 25 36q0 10 -14 10q-18 0 -33 -15h-40v62q38 24 81 24q46 0 71 -20t25 -59t-45 -73q-2 -2 -8.5 -6t-7.5 -5t-4.5 -5.5t-5 -9t-4.5 -12.5z" />
    <glyph glyph-name="uni1ECA" unicode="&#x1eca;" horiz-adv-x="311" 
d="M252 0h-193v700h193v-700zM156 -201q-40 0 -66.5 23.5t-26.5 60.5t26.5 61t66.5 24q41 0 67 -24t26 -61t-26 -60.5t-67 -23.5z" />
    <glyph glyph-name="uni1ECB" unicode="&#x1ecb;" horiz-adv-x="278" 
d="M228 0h-179v527h116q39 0 51 -19t12 -82v-426zM139 559q-40 0 -66.5 23.5t-26.5 60.5t26.5 61t66.5 24q41 0 67 -24t26 -61t-26 -60.5t-67 -23.5zM139 -201q-40 0 -66.5 23.5t-26.5 60.5t26.5 61t66.5 24q41 0 67 -24t26 -61t-26 -60.5t-67 -23.5z" />
    <glyph glyph-name="uni1ECC" unicode="&#x1ecc;" horiz-adv-x="742" 
d="M371 -9q-149 0 -247 95.5t-98 262.5t99 263.5t246 96.5t246.5 -96.5t99.5 -263.5t-99 -262.5t-247 -95.5zM371 122q69 0 109.5 56t40.5 169q0 114 -40.5 170.5t-109.5 56.5t-109.5 -56.5t-40.5 -170.5q0 -113 40.5 -169t109.5 -56zM372 -201q-40 0 -66.5 23.5t-26.5 60.5
t26.5 61t66.5 24q41 0 67 -24t26 -61t-26 -60.5t-67 -23.5z" />
    <glyph glyph-name="uni1ECD" unicode="&#x1ecd;" horiz-adv-x="601" 
d="M301 -8q-122 0 -201.5 73t-79.5 196q0 124 79.5 199t201.5 75q121 0 200.5 -75t79.5 -199q0 -123 -79 -196t-201 -73zM301 110q98 0 98 149q0 76 -26 114.5t-72 38.5q-47 0 -73 -38t-26 -115q0 -149 99 -149zM301 -201q-40 0 -66.5 23.5t-26.5 60.5t26.5 61t66.5 24
q41 0 67 -24t26 -61t-26 -60.5t-67 -23.5z" />
    <glyph glyph-name="uni1ECE" unicode="&#x1ece;" horiz-adv-x="742" 
d="M371 -9q-149 0 -247 95.5t-98 262.5t99 263.5t246 96.5t246.5 -96.5t99.5 -263.5t-99 -262.5t-247 -95.5zM371 122q69 0 109.5 56t40.5 169q0 114 -40.5 170.5t-109.5 56.5t-109.5 -56.5t-40.5 -170.5q0 -113 40.5 -169t109.5 -56zM390 754h-74q3 14 5.5 23t4.5 15
t4.5 10.5t4.5 7t7 8t8 9.5q25 22 25 36q0 10 -14 10q-18 0 -33 -15h-40v62q38 24 81 24q46 0 71 -20t25 -59t-45 -73q-2 -2 -8.5 -6t-7.5 -5t-4.5 -5.5t-5 -9t-4.5 -12.5z" />
    <glyph glyph-name="uni1ECF" unicode="&#x1ecf;" horiz-adv-x="601" 
d="M301 -8q-122 0 -201.5 73t-79.5 196q0 124 79.5 199t201.5 75q121 0 200.5 -75t79.5 -199q0 -123 -79 -196t-201 -73zM301 110q98 0 98 149q0 76 -26 114.5t-72 38.5q-47 0 -73 -38t-26 -115q0 -149 99 -149zM319 554h-74q3 14 5.5 23t4.5 15t4.5 10.5t4.5 7t7 8t8 9.5
q25 22 25 36q0 10 -14 10q-18 0 -33 -15h-40v62q38 24 81 24q46 0 71 -20t25 -59t-45 -73q-2 -2 -8.5 -6t-7.5 -5t-4.5 -5.5t-5 -9t-4.5 -12.5z" />
    <glyph glyph-name="uni1ED0" unicode="&#x1ed0;" horiz-adv-x="742" 
d="M371 -9q-149 0 -247 95.5t-98 262.5t99 263.5t246 96.5t246.5 -96.5t99.5 -263.5t-99 -262.5t-247 -95.5zM371 122q69 0 109.5 56t40.5 169q0 114 -40.5 170.5t-109.5 56.5t-109.5 -56.5t-40.5 -170.5q0 -113 40.5 -169t109.5 -56zM221 723v38l91 104h121l89 -104v-38
h-97l-56 42l-55 -42h-93zM594 828h-105v33l33 109h173v-43z" />
    <glyph glyph-name="uni1ED1" unicode="&#x1ed1;" horiz-adv-x="601" 
d="M301 -8q-122 0 -201.5 73t-79.5 196q0 124 79.5 199t201.5 75q121 0 200.5 -75t79.5 -199q0 -123 -79 -196t-201 -73zM301 110q98 0 98 149q0 76 -26 114.5t-72 38.5q-47 0 -73 -38t-26 -115q0 -149 99 -149zM150 561v38l91 104h121l89 -104v-38h-97l-56 42l-55 -42h-93z
M546 632h-105v33l33 109h173v-43z" />
    <glyph glyph-name="uni1ED2" unicode="&#x1ed2;" horiz-adv-x="742" 
d="M371 -9q-149 0 -247 95.5t-98 262.5t99 263.5t246 96.5t246.5 -96.5t99.5 -263.5t-99 -262.5t-247 -95.5zM371 122q69 0 109.5 56t40.5 169q0 114 -40.5 170.5t-109.5 56.5t-109.5 -56.5t-40.5 -170.5q0 -113 40.5 -169t109.5 -56zM221 723v38l91 104h121l89 -104v-38
h-97l-56 42l-55 -42h-93zM258 836h-105l-102 99v43h173l34 -109v-33z" />
    <glyph glyph-name="uni1ED3" unicode="&#x1ed3;" horiz-adv-x="601" 
d="M301 -8q-122 0 -201.5 73t-79.5 196q0 124 79.5 199t201.5 75q121 0 200.5 -75t79.5 -199q0 -123 -79 -196t-201 -73zM301 110q98 0 98 149q0 76 -26 114.5t-72 38.5q-47 0 -73 -38t-26 -115q0 -149 99 -149zM150 561v38l91 104h121l89 -104v-38h-97l-56 42l-55 -42h-93z
M565 675h-105l-102 99v43h173l34 -109v-33z" />
    <glyph glyph-name="uni1ED4" unicode="&#x1ed4;" horiz-adv-x="742" 
d="M371 -9q-149 0 -247 95.5t-98 262.5t99 263.5t246 96.5t246.5 -96.5t99.5 -263.5t-99 -262.5t-247 -95.5zM371 122q69 0 109.5 56t40.5 169q0 114 -40.5 170.5t-109.5 56.5t-109.5 -56.5t-40.5 -170.5q0 -113 40.5 -169t109.5 -56zM221 722v38l91 104h121l89 -104v-38
h-97l-56 42l-55 -42h-93zM574 823h-74q3 14 5.5 23t4.5 15t4.5 10.5t4.5 7t7 8t8 9.5q25 22 25 36q0 10 -14 10q-18 0 -33 -15h-40v62q37 24 81 24q46 0 71 -20t25 -59t-45 -73q-2 -2 -8.5 -6t-7.5 -5t-4.5 -5.5t-5 -9t-4.5 -12.5z" />
    <glyph glyph-name="uni1ED5" unicode="&#x1ed5;" horiz-adv-x="601" 
d="M301 -8q-122 0 -201.5 73t-79.5 196q0 124 79.5 199t201.5 75q121 0 200.5 -75t79.5 -199q0 -123 -79 -196t-201 -73zM301 110q98 0 98 149q0 76 -26 114.5t-72 38.5q-47 0 -73 -38t-26 -115q0 -149 99 -149zM150 561v38l91 104h121l89 -104v-38h-97l-56 42l-55 -42h-93z
M507 670h-74q3 14 5.5 23t4.5 15t4.5 10.5t4.5 7t7 8t8 9.5q25 22 25 36q0 10 -14 10q-18 0 -33 -15h-40v62q37 24 81 24q46 0 71 -20t25 -59t-45 -73q-2 -2 -8.5 -6t-7.5 -5t-4.5 -5.5t-5 -9t-4.5 -12.5z" />
    <glyph glyph-name="uni1ED6" unicode="&#x1ed6;" horiz-adv-x="742" 
d="M371 -9q-149 0 -247 95.5t-98 262.5t99 263.5t246 96.5t246.5 -96.5t99.5 -263.5t-99 -262.5t-247 -95.5zM371 122q69 0 109.5 56t40.5 169q0 114 -40.5 170.5t-109.5 56.5t-109.5 -56.5t-40.5 -170.5q0 -113 40.5 -169t109.5 -56zM226 722v38l91 104h121l89 -104v-38
h-97l-56 42l-55 -42h-93zM223 887v40q8 50 35.5 77t70.5 27q27 0 64 -12t46 -12q23 0 31 24h90v-40q-8 -50 -35.5 -77t-69.5 -27q-28 0 -64.5 13t-45.5 13q-26 0 -32 -26h-90z" />
    <glyph glyph-name="uni1ED7" unicode="&#x1ed7;" horiz-adv-x="601" 
d="M301 -8q-122 0 -201.5 73t-79.5 196q0 124 79.5 199t201.5 75q121 0 200.5 -75t79.5 -199q0 -123 -79 -196t-201 -73zM301 110q98 0 98 149q0 76 -26 114.5t-72 38.5q-47 0 -73 -38t-26 -115q0 -149 99 -149zM150 561v38l91 104h121l89 -104v-38h-97l-56 42l-55 -42h-93z
M132 739v40q8 50 35.5 77t70.5 27q27 0 64 -12t46 -12q24 0 31 24h90v-40q-8 -50 -35.5 -77t-69.5 -27q-28 0 -64.5 13t-45.5 13q-26 0 -32 -26h-90z" />
    <glyph glyph-name="uni1ED8" unicode="&#x1ed8;" horiz-adv-x="742" 
d="M371 -9q-149 0 -247 95.5t-98 262.5t99 263.5t246 96.5t246.5 -96.5t99.5 -263.5t-99 -262.5t-247 -95.5zM371 122q69 0 109.5 56t40.5 169q0 114 -40.5 170.5t-109.5 56.5t-109.5 -56.5t-40.5 -170.5q0 -113 40.5 -169t109.5 -56zM221 722v38l91 104h121l89 -104v-38
h-97l-56 42l-55 -42h-93zM372 -201q-40 0 -66.5 23.5t-26.5 60.5t26.5 61t66.5 24q41 0 67 -24t26 -61t-26 -60.5t-67 -23.5z" />
    <glyph glyph-name="uni1ED9" unicode="&#x1ed9;" horiz-adv-x="601" 
d="M301 -8q-122 0 -201.5 73t-79.5 196q0 124 79.5 199t201.5 75q121 0 200.5 -75t79.5 -199q0 -123 -79 -196t-201 -73zM301 110q98 0 98 149q0 76 -26 114.5t-72 38.5q-47 0 -73 -38t-26 -115q0 -149 99 -149zM150 561v38l91 104h121l89 -104v-38h-97l-56 42l-55 -42h-93z
M301 -201q-40 0 -66.5 23.5t-26.5 60.5t26.5 61t66.5 24q41 0 67 -24t26 -61t-26 -60.5t-67 -23.5z" />
    <glyph glyph-name="uni1EDA" unicode="&#x1eda;" horiz-adv-x="742" 
d="M371 122q69 0 109.5 56t40.5 169q0 114 -40.5 170.5t-109.5 56.5t-109.5 -56.5t-40.5 -170.5q0 -113 40.5 -169t109.5 -56zM571 651q30 -22 44 -35q102 -99 102 -267q0 -167 -99 -262.5t-247 -95.5q-149 0 -247 95.5t-98 262.5t99 263.5t246 96.5q41 0 82 -9q31 2 50 24
q21 22 21 61h108q0 -80 -55 -129q-4 -4 -6 -5zM408 761h-105v33l33 109h173v-43z" />
    <glyph glyph-name="uni1EDB" unicode="&#x1edb;" horiz-adv-x="601" 
d="M301 110q98 0 98 149q0 76 -26 114.5t-72 38.5q-47 0 -73 -38t-26 -115q0 -149 99 -149zM495 467q4 -4 6 -5q80 -78 80 -201t-79 -196t-201 -73t-201.5 73t-79.5 196q0 124 79.5 199t201.5 75q43 0 85 -11q33 2 52 24q21 22 21 60h108q0 -79 -55 -128q-5 -5 -17 -13z
M304 561h-105v33l33 109h173v-43z" />
    <glyph glyph-name="uni1EDC" unicode="&#x1edc;" horiz-adv-x="742" 
d="M371 122q69 0 109.5 56t40.5 169q0 114 -40.5 170.5t-109.5 56.5t-109.5 -56.5t-40.5 -170.5q0 -113 40.5 -169t109.5 -56zM571 651q30 -22 44 -35q102 -99 102 -267q0 -167 -99 -262.5t-247 -95.5q-149 0 -247 95.5t-98 262.5t99 263.5t246 96.5q41 0 82 -9q31 2 50 24
q21 22 21 61h108q0 -80 -55 -129q-4 -4 -6 -5zM441 761h-105l-102 99v43h173l34 -109v-33z" />
    <glyph glyph-name="uni1EDD" unicode="&#x1edd;" horiz-adv-x="601" 
d="M301 110q98 0 98 149q0 76 -26 114.5t-72 38.5q-47 0 -73 -38t-26 -115q0 -149 99 -149zM495 467q4 -4 6 -5q80 -78 80 -201t-79 -196t-201 -73t-201.5 73t-79.5 196q0 124 79.5 199t201.5 75q43 0 85 -11q33 2 52 24q21 22 21 60h108q0 -79 -55 -128q-5 -5 -17 -13z
M331 561h-105l-102 99v43h173l34 -109v-33z" />
    <glyph glyph-name="uni1EDE" unicode="&#x1ede;" horiz-adv-x="742" 
d="M371 122q69 0 109.5 56t40.5 169q0 114 -40.5 170.5t-109.5 56.5t-109.5 -56.5t-40.5 -170.5q0 -113 40.5 -169t109.5 -56zM571 651q30 -22 44 -35q102 -99 102 -267q0 -167 -99 -262.5t-247 -95.5q-149 0 -247 95.5t-98 262.5t99 263.5t246 96.5q41 0 82 -9q31 2 50 24
q21 22 21 61h108q0 -80 -55 -129q-4 -4 -6 -5zM390 754h-74q3 14 5.5 23t4.5 15t4.5 10.5t4.5 7t7 8t8 9.5q25 22 25 36q0 10 -14 10q-18 0 -33 -15h-40v62q38 24 81 24q46 0 71 -20t25 -59t-45 -73q-2 -2 -8.5 -6t-7.5 -5t-4.5 -5.5t-5 -9t-4.5 -12.5z" />
    <glyph glyph-name="uni1EDF" unicode="&#x1edf;" horiz-adv-x="601" 
d="M301 110q98 0 98 149q0 76 -26 114.5t-72 38.5q-47 0 -73 -38t-26 -115q0 -149 99 -149zM495 467q4 -4 6 -5q80 -78 80 -201t-79 -196t-201 -73t-201.5 73t-79.5 196q0 124 79.5 199t201.5 75q43 0 85 -11q33 2 52 24q21 22 21 60h108q0 -79 -55 -128q-5 -5 -17 -13z
M302 554h-74q3 14 5.5 23t4.5 15t4.5 10.5t4.5 7t7 8t8 9.5q25 22 25 36q0 10 -14 10q-18 0 -33 -15h-40v62q38 24 81 24q46 0 71 -20t25 -59t-45 -73q-2 -2 -8.5 -6t-7.5 -5t-4.5 -5.5t-5 -9t-4.5 -12.5z" />
    <glyph glyph-name="uni1EE0" unicode="&#x1ee0;" horiz-adv-x="742" 
d="M371 122q69 0 109.5 56t40.5 169q0 114 -40.5 170.5t-109.5 56.5t-109.5 -56.5t-40.5 -170.5q0 -113 40.5 -169t109.5 -56zM571 651q30 -22 44 -35q102 -99 102 -267q0 -167 -99 -262.5t-247 -95.5q-149 0 -247 95.5t-98 262.5t99 263.5t246 96.5q41 0 82 -9q31 2 50 24
q21 22 21 61h108q0 -80 -55 -129q-4 -4 -6 -5zM203 762v40q8 50 35.5 77t70.5 27q27 0 64 -12t46 -12q23 0 31 24h90v-40q-8 -50 -35.5 -77t-69.5 -27q-28 0 -64.5 13t-45.5 13q-26 0 -32 -26h-90z" />
    <glyph glyph-name="uni1EE1" unicode="&#x1ee1;" horiz-adv-x="601" 
d="M301 110q98 0 98 149q0 76 -26 114.5t-72 38.5q-47 0 -73 -38t-26 -115q0 -149 99 -149zM495 467q4 -4 6 -5q80 -78 80 -201t-79 -196t-201 -73t-201.5 73t-79.5 196q0 124 79.5 199t201.5 75q43 0 85 -11q33 2 52 24q21 22 21 60h108q0 -79 -55 -128q-5 -5 -17 -13z
M95 562v40q8 50 35.5 77t70.5 27q27 0 64 -12t46 -12q23 0 31 24h90v-40q-8 -50 -35.5 -77t-69.5 -27q-28 0 -64.5 13t-45.5 13q-26 0 -32 -26h-90z" />
    <glyph glyph-name="uni1EE2" unicode="&#x1ee2;" horiz-adv-x="742" 
d="M371 122q69 0 109.5 56t40.5 169q0 114 -40.5 170.5t-109.5 56.5t-109.5 -56.5t-40.5 -170.5q0 -113 40.5 -169t109.5 -56zM571 651q30 -22 44 -35q102 -99 102 -267q0 -167 -99 -262.5t-247 -95.5q-149 0 -247 95.5t-98 262.5t99 263.5t246 96.5q41 0 82 -9q31 2 50 24
q21 22 21 61h108q0 -80 -55 -129q-4 -4 -6 -5zM372 -201q-40 0 -66.5 23.5t-26.5 60.5t26.5 61t66.5 24q41 0 67 -24t26 -61t-26 -60.5t-67 -23.5z" />
    <glyph glyph-name="uni1EE3" unicode="&#x1ee3;" horiz-adv-x="601" 
d="M301 110q98 0 98 149q0 76 -26 114.5t-72 38.5q-47 0 -73 -38t-26 -115q0 -149 99 -149zM495 467q4 -4 6 -5q80 -78 80 -201t-79 -196t-201 -73t-201.5 73t-79.5 196q0 124 79.5 199t201.5 75q43 0 85 -11q33 2 52 24q21 22 21 60h108q0 -79 -55 -128q-5 -5 -17 -13z
M296 -201q-40 0 -66.5 23.5t-26.5 60.5t26.5 61t66.5 24q41 0 67 -24t26 -61t-26 -60.5t-67 -23.5z" />
    <glyph glyph-name="uni1EE4" unicode="&#x1ee4;" horiz-adv-x="693" 
d="M366 131q59 0 86.5 30t27.5 106v433h159v-434q0 -137 -69 -205.5t-216 -68.5q-148 0 -224.5 70t-76.5 204v434h192v-433q0 -76 29.5 -106t91.5 -30zM346 -201q-40 0 -66.5 23.5t-26.5 60.5t26.5 61t66.5 24q41 0 67 -24t26 -61t-26 -60.5t-67 -23.5z" />
    <glyph glyph-name="uni1EE5" unicode="&#x1ee5;" horiz-adv-x="610" 
d="M297 124q31 0 82 17v386h179v-527h-125q-23 0 -34 11.5t-16 47.5q-87 -67 -180 -67q-154 0 -154 151v384h180v-343q0 -36 16.5 -48t51.5 -12zM304 -201q-40 0 -66.5 23.5t-26.5 60.5t26.5 61t66.5 24q41 0 67 -24t26 -61t-26 -60.5t-67 -23.5z" />
    <glyph glyph-name="uni1EE6" unicode="&#x1ee6;" horiz-adv-x="693" 
d="M366 131q59 0 86.5 30t27.5 106v433h159v-434q0 -137 -69 -205.5t-216 -68.5q-148 0 -224.5 70t-76.5 204v434h192v-433q0 -76 29.5 -106t91.5 -30zM364 754h-74q3 14 5.5 23t4.5 15t4.5 10.5t4.5 7t7 8t8 9.5q25 22 25 36q0 10 -14 10q-18 0 -33 -15h-40v62q38 24 81 24
q46 0 71 -20t25 -59t-45 -73q-2 -2 -8.5 -6t-7.5 -5t-4.5 -5.5t-5 -9t-4.5 -12.5z" />
    <glyph glyph-name="uni1EE7" unicode="&#x1ee7;" horiz-adv-x="610" 
d="M297 124q31 0 82 17v386h179v-527h-125q-23 0 -34 11.5t-16 47.5q-87 -67 -180 -67q-154 0 -154 151v384h180v-343q0 -36 16.5 -48t51.5 -12zM322 554h-74q3 14 5.5 23t4.5 15t4.5 10.5t4.5 7t7 8t8 9.5q25 22 25 36q0 10 -14 10q-18 0 -33 -15h-40v62q38 24 81 24
q46 0 71 -20t25 -59t-45 -73q-2 -2 -8.5 -6t-7.5 -5t-4.5 -5.5t-5 -9t-4.5 -12.5z" />
    <glyph glyph-name="uni1EE8" unicode="&#x1ee8;" horiz-adv-x="693" 
d="M639 619v-353q0 -137 -69 -205.5t-216 -68.5q-148 0 -224.5 70t-76.5 204v434h192v-433q0 -76 29.5 -106t91.5 -30q59 0 86.5 30t27.5 106v433h90q35 0 56.5 23.5t21.5 61.5h108q0 -59 -31 -102t-83 -63q-2 0 -3 -1zM441 761h-105v33l33 109h173v-43z" />
    <glyph glyph-name="uni1EE9" unicode="&#x1ee9;" horiz-adv-x="610" 
d="M558 454v-454h-125q-23 0 -34 11.5t-16 47.5q-87 -67 -180 -67q-154 0 -154 151v384h180v-343q0 -36 16.5 -48t51.5 -12q31 0 82 17v386h103q26 5 43 23q21 22 21 60h108q0 -76 -55 -128q-20 -17 -41 -28zM374 561h-105v33l33 109h173v-43z" />
    <glyph glyph-name="uni1EEA" unicode="&#x1eea;" horiz-adv-x="693" 
d="M639 619v-353q0 -137 -69 -205.5t-216 -68.5q-148 0 -224.5 70t-76.5 204v434h192v-433q0 -76 29.5 -106t91.5 -30q59 0 86.5 30t27.5 106v433h90q35 0 56.5 23.5t21.5 61.5h108q0 -59 -31 -102t-83 -63q-2 0 -3 -1zM474 761h-105l-102 99v43h173l34 -109v-33z" />
    <glyph glyph-name="uni1EEB" unicode="&#x1eeb;" horiz-adv-x="610" 
d="M558 454v-454h-125q-23 0 -34 11.5t-16 47.5q-87 -67 -180 -67q-154 0 -154 151v384h180v-343q0 -36 16.5 -48t51.5 -12q31 0 82 17v386h103q26 5 43 23q21 22 21 60h108q0 -76 -55 -128q-20 -17 -41 -28zM399 561h-105l-102 99v43h173l34 -109v-33z" />
    <glyph glyph-name="uni1EEC" unicode="&#x1eec;" horiz-adv-x="693" 
d="M639 619v-353q0 -137 -69 -205.5t-216 -68.5q-148 0 -224.5 70t-76.5 204v434h192v-433q0 -76 29.5 -106t91.5 -30q59 0 86.5 30t27.5 106v433h90q35 0 56.5 23.5t21.5 61.5h108q0 -59 -31 -102t-83 -63q-2 0 -3 -1zM423 754h-74q3 14 5.5 23t4.5 15t4.5 10.5t4.5 7t7 8
t8 9.5q25 22 25 36q0 10 -14 10q-18 0 -33 -15h-40v62q37 24 81 24q46 0 71 -20t25 -59t-45 -73q-2 -2 -8.5 -6t-7.5 -5t-4.5 -5.5t-5 -9t-4.5 -12.5z" />
    <glyph glyph-name="uni1EED" unicode="&#x1eed;" horiz-adv-x="610" 
d="M558 454v-454h-125q-23 0 -34 11.5t-16 47.5q-87 -67 -180 -67q-154 0 -154 151v384h180v-343q0 -36 16.5 -48t51.5 -12q31 0 82 17v386h103q26 5 43 23q21 22 21 60h108q0 -76 -55 -128q-20 -17 -41 -28zM365 554h-74q3 14 5.5 23t4.5 15t4.5 10.5t4.5 7t7 8t8 9.5
q25 22 25 36q0 10 -14 10q-18 0 -33 -15h-40v62q38 24 81 24q46 0 71 -20t25 -59t-45 -73q-2 -2 -8.5 -6t-7.5 -5t-4.5 -5.5t-5 -9t-4.5 -12.5z" />
    <glyph glyph-name="uni1EEE" unicode="&#x1eee;" horiz-adv-x="693" 
d="M639 619v-353q0 -137 -69 -205.5t-216 -68.5q-148 0 -224.5 70t-76.5 204v434h192v-433q0 -76 29.5 -106t91.5 -30q59 0 86.5 30t27.5 106v433h90q35 0 56.5 23.5t21.5 61.5h108q0 -59 -31 -102t-83 -63q-2 0 -3 -1zM236 762v40q8 50 35.5 77t70.5 27q27 0 64 -12t46 -12
q24 0 31 24h90v-40q-8 -50 -35.5 -77t-69.5 -27q-28 0 -64.5 13t-45.5 13q-26 0 -32 -26h-90z" />
    <glyph glyph-name="uni1EEF" unicode="&#x1eef;" horiz-adv-x="610" 
d="M558 454v-454h-125q-23 0 -34 11.5t-16 47.5q-87 -67 -180 -67q-154 0 -154 151v384h180v-343q0 -36 16.5 -48t51.5 -12q31 0 82 17v386h103q26 5 43 23q21 22 21 60h108q0 -76 -55 -128q-20 -17 -41 -28zM166 562v40q8 50 35.5 77t70.5 27q27 0 64 -12t46 -12
q24 0 31 24h90v-40q-8 -50 -35.5 -77t-69.5 -27q-28 0 -64.5 13t-45.5 13q-26 0 -32 -26h-90z" />
    <glyph glyph-name="uni1EF0" unicode="&#x1ef0;" horiz-adv-x="693" 
d="M639 619v-353q0 -137 -69 -205.5t-216 -68.5q-148 0 -224.5 70t-76.5 204v434h192v-433q0 -76 29.5 -106t91.5 -30q59 0 86.5 30t27.5 106v433h90q35 0 56.5 23.5t21.5 61.5h108q0 -59 -31 -102t-83 -63q-2 0 -3 -1zM367 -201q-40 0 -66.5 23.5t-26.5 60.5t26.5 61
t66.5 24q41 0 67 -24t26 -61t-26 -60.5t-67 -23.5z" />
    <glyph glyph-name="uni1EF1" unicode="&#x1ef1;" horiz-adv-x="610" 
d="M558 454v-454h-125q-23 0 -34 11.5t-16 47.5q-87 -67 -180 -67q-154 0 -154 151v384h180v-343q0 -36 16.5 -48t51.5 -12q31 0 82 17v386h103q26 5 43 23q21 22 21 60h108q0 -76 -55 -128q-20 -17 -41 -28zM335 -201q-40 0 -66.5 23.5t-26.5 60.5t26.5 61t66.5 24
q41 0 67 -24t26 -61t-26 -60.5t-67 -23.5z" />
    <glyph glyph-name="Ygrave" unicode="&#x1ef2;" horiz-adv-x="637" 
d="M420 0h-192v260l-214 393v47h180l140 -273h2l135 273h152v-47l-203 -388v-265zM388 761h-105l-102 99v43h173l34 -109v-33z" />
    <glyph glyph-name="ygrave" unicode="&#x1ef3;" horiz-adv-x="569" 
d="M136 -162v41l69 146l-190 461v41h171l110 -299h3l102 299h154v-41l-256 -648h-163zM354 561h-105l-102 99v43h173l34 -109v-33z" />
    <glyph glyph-name="uni1EF4" unicode="&#x1ef4;" horiz-adv-x="637" 
d="M420 0h-192v260l-214 393v47h180l140 -273h2l135 273h152v-47l-203 -388v-265zM319 -201q-40 0 -66.5 23.5t-26.5 60.5t26.5 61t66.5 24q41 0 67 -24t26 -61t-26 -60.5t-67 -23.5z" />
    <glyph glyph-name="uni1EF5" unicode="&#x1ef5;" horiz-adv-x="569" 
d="M136 -162v41l69 146l-190 461v41h171l110 -299h3l102 299h154v-41l-256 -648h-163zM444 -201q-40 0 -66.5 23.5t-26.5 60.5t26.5 61t66.5 24q41 0 67 -24t26 -61t-26 -60.5t-67 -23.5z" />
    <glyph glyph-name="uni1EF6" unicode="&#x1ef6;" horiz-adv-x="637" 
d="M420 0h-192v260l-214 393v47h180l140 -273h2l135 273h152v-47l-203 -388v-265zM337 754h-74q3 14 5.5 23t4.5 15t4.5 10.5t4.5 7t7 8t8 9.5q25 22 25 36q0 10 -14 10q-18 0 -33 -15h-40v62q38 24 81 24q46 0 71 -20t25 -59t-45 -73q-2 -2 -8.5 -6t-7.5 -5t-4.5 -5.5
t-5 -9t-4.5 -12.5z" />
    <glyph glyph-name="uni1EF7" unicode="&#x1ef7;" horiz-adv-x="569" 
d="M136 -162v41l69 146l-190 461v41h171l110 -299h3l102 299h154v-41l-256 -648h-163zM303 554h-74q3 14 5.5 23t4.5 15t4.5 10.5t4.5 7t7 8t8 9.5q25 22 25 36q0 10 -14 10q-18 0 -33 -15h-40v62q38 24 81 24q46 0 71 -20t25 -59t-45 -73q-2 -2 -8.5 -6t-7.5 -5t-4.5 -5.5
t-5 -9t-4.5 -12.5z" />
    <glyph glyph-name="uni1EF8" unicode="&#x1ef8;" horiz-adv-x="637" 
d="M420 0h-192v260l-214 393v47h180l140 -273h2l135 273h152v-47l-203 -388v-265zM150 762v40q8 50 35.5 77t70.5 27q27 0 64 -12t46 -12q24 0 31 24h90v-40q-8 -50 -35.5 -77t-69.5 -27q-28 0 -64.5 13t-45.5 13q-26 0 -32 -26h-90z" />
    <glyph glyph-name="uni1EF9" unicode="&#x1ef9;" horiz-adv-x="569" 
d="M136 -162v41l69 146l-190 461v41h171l110 -299h3l102 299h154v-41l-256 -648h-163zM117 562v40q8 50 35.5 77t70.5 27q27 0 64 -12t46 -12q23 0 31 24h90v-40q-8 -50 -35.5 -77t-69.5 -27q-28 0 -64.5 13t-45.5 13q-26 0 -32 -26h-90z" />
    <glyph glyph-name="endash" unicode="&#x2013;" horiz-adv-x="447" 
d="M38 216v132h370v-132h-370z" />
    <glyph glyph-name="emdash" unicode="&#x2014;" horiz-adv-x="748" 
d="M38 215v133h671v-133h-671z" />
    <glyph glyph-name="quoteleft" unicode="&#x2018;" horiz-adv-x="231" 
d="M206 629q-64 -8 -64 -38q0 -9 4.5 -13.5t15 -10t15.5 -8.5q29 -24 29 -60q0 -33 -24 -54t-61 -21q-41 0 -68.5 26.5t-27.5 78.5q0 80 44 122.5t137 50.5v-73z" />
    <glyph glyph-name="quoteright" unicode="&#x2019;" horiz-adv-x="231" 
d="M25 430v73q64 8 64 37q0 9 -4.5 13.5t-14.5 10t-15 9.5q-30 21 -30 60q0 33 24 54t62 21q41 0 68 -27t27 -78q0 -160 -181 -173z" />
    <glyph glyph-name="quotesinglbase" unicode="&#x201a;" horiz-adv-x="231" 
d="M25 -29q64 6 64 37q0 9 -4.5 13.5t-14.5 10t-15 9.5q-30 21 -30 60q0 33 24 54t62 21q41 0 68 -27t27 -78q0 -81 -44 -123.5t-137 -50.5v74z" />
    <glyph glyph-name="quotedblleft" unicode="&#x201c;" horiz-adv-x="446" 
d="M206 702v-73q-64 -8 -64 -38q0 -9 4.5 -13.5t15 -10t15.5 -8.5q29 -24 29 -60q0 -33 -24 -54t-61 -21q-41 0 -68.5 26.5t-27.5 78.5q0 80 44 122.5t137 50.5zM420 702v-73q-63 -8 -63 -38q0 -9 4.5 -13.5t14.5 -9.5t15 -9q30 -23 30 -60q0 -33 -24 -54t-62 -21
q-41 0 -68 26.5t-27 78.5q0 80 44 122.5t136 50.5z" />
    <glyph glyph-name="quotedblright" unicode="&#x201d;" horiz-adv-x="446" 
d="M240 430v73q64 8 64 37q0 9 -4.5 13.5t-15 10t-15.5 9.5q-29 22 -29 60q0 33 24 54t61 21q41 0 68.5 -27t27.5 -78q0 -160 -181 -173zM25 430v73q64 8 64 37q0 9 -4.5 13.5t-14.5 10t-15 9.5q-30 21 -30 60q0 33 24 54t62 21q41 0 68 -27t27 -78q0 -160 -181 -173z" />
    <glyph glyph-name="quotedblbase" unicode="&#x201e;" horiz-adv-x="446" 
d="M240 -103v74q64 6 64 37q0 9 -4.5 13.5t-15 10t-15.5 9.5q-29 22 -29 60q0 33 24 54t61 21q41 0 68.5 -27t27.5 -78q0 -81 -44 -123.5t-137 -50.5zM25 -103v74q64 6 64 37q0 9 -4.5 13.5t-14.5 10t-15 9.5q-30 21 -30 60q0 33 24 54t62 21q41 0 68 -27t27 -78
q0 -81 -44 -123.5t-137 -50.5z" />
    <glyph glyph-name="dagger" unicode="&#x2020;" horiz-adv-x="479" 
d="M178 -49l-28 298v65l38 105l-109 -35h-58v163h58l109 -37l-33 99v91h169v-91l-33 -98l109 36h58v-163h-58l-109 36l38 -104v-66l-28 -299h-123z" />
    <glyph glyph-name="daggerdbl" unicode="&#x2021;" horiz-adv-x="479" 
d="M155 -49v84l33 99l-109 -37h-58v163h58l110 -36l-39 72v57l38 73l-109 -35h-58v163h58l109 -38l-33 100v84h169v-84l-33 -99l109 37h58v-163h-58l-110 36l39 -72v-57l-38 -73l109 35h58v-163h-58l-109 38l33 -100v-84h-169z" />
    <glyph glyph-name="bullet" unicode="&#x2022;" horiz-adv-x="357" 
d="M179 134q-64 0 -106.5 39.5t-42.5 105.5q0 67 42.5 107t106.5 40t106 -40t42 -107t-42 -106t-106 -39z" />
    <glyph glyph-name="ellipsis" unicode="&#x2026;" horiz-adv-x="719" 
d="M117 -7q-39 0 -66.5 26.5t-27.5 64.5t27.5 64.5t66.5 26.5t66.5 -26.5t27.5 -64.5t-27.5 -64.5t-66.5 -26.5zM360 -7q-40 0 -67 26.5t-27 64.5t27 64.5t67 26.5q39 0 66.5 -26.5t27.5 -64.5t-27.5 -64.5t-66.5 -26.5zM602 -7q-39 0 -66.5 26.5t-27.5 64.5t27.5 64.5
t66.5 26.5t66.5 -26.5t27.5 -64.5t-27.5 -64.5t-66.5 -26.5z" />
    <glyph glyph-name="perthousand" unicode="&#x2030;" horiz-adv-x="1273" 
d="M204 422q54 0 54 96q0 97 -54 97t-54 -97q0 -96 54 -96zM204 329q-78 0 -132.5 49.5t-54.5 141.5t54 140.5t133 48.5t133 -48.5t54 -140.5t-54.5 -141.5t-132.5 -49.5zM125 -34l493 763h119l-493 -763h-119zM662 84q54 0 54 97t-54 97q-55 0 -55 -97t55 -97zM662 -9
q-78 0 -132.5 50.5t-54.5 141.5t54 139.5t133 48.5q78 0 132 -48.5t54 -139.5t-54.5 -141.5t-131.5 -50.5zM1069 84q54 0 54 97t-54 97t-54 -97t54 -97zM1069 -9q-78 0 -132.5 50.5t-54.5 141.5t54 139.5t133 48.5t133 -48.5t54 -139.5t-54.5 -141.5t-132.5 -50.5z" />
    <glyph glyph-name="guilsinglleft" unicode="&#x2039;" horiz-adv-x="309" 
d="M144 40l-113 188v63l113 189h134v-36l-105 -182v-2l105 -184v-36h-134z" />
    <glyph glyph-name="guilsinglright" unicode="&#x203a;" horiz-adv-x="309" 
d="M165 480l113 -189v-63l-113 -188h-134v36l105 184v2l-105 182v36h134z" />
    <glyph glyph-name="fraction" unicode="&#x2044;" horiz-adv-x="224" 
d="M417 729l-493 -763h-116l493 763h116z" />
    <glyph glyph-name="Euro" unicode="&#x20ac;" horiz-adv-x="614" 
d="M404 233h-130q12 -57 41 -82t83 -25q76 0 128 48h65v-121q-83 -62 -209 -62q-119 0 -198.5 61t-105.5 181h-59v93h48v47h-48v93h61q27 119 110 181t207 62q112 0 189 -43v-129h-74q-46 36 -107 36q-105 0 -131 -107h174l-17 -93h-167v-47h158z" />
    <glyph glyph-name="trademark" unicode="&#x2122;" horiz-adv-x="708" 
d="M200 420h-97v209h-77v71h252v-71h-78v-209zM316 420v280h137l40 -139h1l41 139h138v-280h-95v193h-1l-58 -193h-66l-57 193h-1v-193h-79z" />
    <glyph glyph-name="onethird" unicode="&#x2153;" horiz-adv-x="806" 
d="M237 308h-139v266l-49 -25h-23v97l109 54h102v-392zM669 729l-493 -763h-116l493 763h116zM616 -7q-72 0 -128 30v82h48q28 -21 65 -21q55 0 55 37q0 36 -51 36h-40v79h36q54 0 54 35q0 33 -45 33q-34 0 -63 -18h-48v80q56 33 134 33q68 0 108.5 -27t40.5 -80
q0 -70 -80 -89v-3q87 -12 87 -90q0 -57 -45.5 -87t-127.5 -30z" />
    <glyph glyph-name="twothirds" unicode="&#x2154;" horiz-adv-x="876" 
d="M323 406v-98h-295v98l109 96q52 46 52 72q0 32 -40 32q-38 0 -62 -22h-52v88q57 35 137 35q156 0 156 -118q0 -40 -21 -68.5t-70 -68.5l-56 -46h142zM750 729l-493 -763h-116l493 763h116zM685 -7q-72 0 -128 30v82h48q28 -21 65 -21q55 0 55 37q0 36 -51 36h-40v79h36
q54 0 54 35q0 33 -45 33q-34 0 -63 -18h-48v80q56 33 134 33q68 0 108.5 -27t40.5 -80q0 -70 -80 -89v-3q87 -12 87 -90q0 -57 -45.5 -87t-127.5 -30z" />
    <glyph glyph-name="oneeighth" unicode="&#x215b;" horiz-adv-x="827" 
d="M237 308h-139v266l-49 -25h-23v97l109 54h102v-392zM673 729l-493 -763h-116l493 763h116zM638 -7q-86 0 -131 31.5t-45 86.5q0 74 77 97v2q-62 17 -62 82q0 50 44 78.5t117 28.5q72 0 116 -28.5t44 -78.5q0 -65 -61 -82v-2q76 -22 76 -97q0 -55 -45 -86.5t-130 -31.5z
M638 75q46 0 46 48q0 50 -46 50q-24 0 -36 -14t-12 -36q0 -48 48 -48zM638 239q39 0 39 39q0 18 -10.5 29t-28.5 11q-40 0 -40 -40q0 -39 40 -39z" />
    <glyph glyph-name="threeeighths" unicode="&#x215c;" horiz-adv-x="854" 
d="M157 301q-72 0 -128 30v82h48q28 -21 65 -21q55 0 55 37q0 36 -51 36h-40v79h36q54 0 54 35q0 33 -45 33q-34 0 -63 -18h-48v80q50 33 134 33q68 0 108.5 -27t40.5 -80q0 -70 -80 -89v-3q87 -12 87 -90q0 -57 -45.5 -87t-127.5 -30zM715 729l-493 -763h-116l493 763h116z
M665 -7q-86 0 -131 31.5t-45 86.5q0 74 77 97v2q-62 17 -62 82q0 50 44 78.5t117 28.5q72 0 116 -28.5t44 -78.5q0 -65 -61 -82v-2q76 -22 76 -97q0 -55 -45 -86.5t-130 -31.5zM665 75q46 0 46 48q0 50 -46 50q-24 0 -36 -14t-12 -36q0 -48 48 -48zM665 239q39 0 39 39
q0 18 -10.5 29t-28.5 11q-40 0 -40 -40q0 -39 40 -39z" />
    <glyph glyph-name="fiveeighths" unicode="&#x215d;" horiz-adv-x="861" 
d="M334 435q0 -63 -47.5 -98.5t-131.5 -35.5q-70 0 -124 28v85h48q29 -21 64 -21q58 0 58 44q0 39 -42 39q-30 0 -44 -19h-74v243h272v-96h-178v-66h2q26 19 77 19q54 0 87 -31t33 -91zM717 729l-493 -763h-116l493 763h116zM672 -7q-86 0 -131 31.5t-45 86.5q0 74 77 97v2
q-62 17 -62 82q0 50 44 78.5t117 28.5q72 0 116 -28.5t44 -78.5q0 -65 -61 -82v-2q76 -22 76 -97q0 -55 -45 -86.5t-130 -31.5zM672 75q46 0 46 48q0 50 -46 50q-24 0 -36 -14t-12 -36q0 -48 48 -48zM672 239q39 0 39 39q0 18 -10.5 29t-28.5 11q-40 0 -40 -40q0 -39 40 -39
z" />
    <glyph glyph-name="seveneighths" unicode="&#x215e;" horiz-adv-x="840" 
d="M677 729l-493 -763h-116l493 763h116zM651 -7q-86 0 -131 31.5t-45 86.5q0 74 77 97v2q-62 17 -62 82q0 50 44 78.5t117 28.5q72 0 116 -28.5t44 -78.5q0 -65 -61 -82v-2q76 -22 76 -97q0 -55 -45 -86.5t-130 -31.5zM651 75q46 0 46 48q0 50 -46 50q-24 0 -36 -14
t-12 -36q0 -48 48 -48zM651 239q39 0 39 39q0 18 -10.5 29t-28.5 11q-40 0 -40 -40q0 -39 40 -39zM67 308v35l137 251v2h-176v104h292v-108l-116 -284h-137z" />
    <glyph glyph-name="minus" unicode="&#x2212;" horiz-adv-x="534" 
d="M510 276h-486v139h486v-139z" />
    <glyph glyph-name="cir.acute" unicode="&#xe00d;" horiz-adv-x="0" 
d="M48 723v38l91 104h121l89 -104v-38h-97l-56 42l-55 -42h-93zM421 828h-105v33l33 109h173v-43z" />
    <glyph glyph-name="cir.grave" unicode="&#xe00e;" horiz-adv-x="0" 
d="M48 723v38l91 104h121l89 -104v-38h-97l-56 42l-55 -42h-93zM85 836h-105l-102 99v43h173l34 -109v-33z" />
    <glyph glyph-name="cir.tilde" unicode="&#xe00f;" horiz-adv-x="0" 
d="M48 722v38l91 104h121l89 -104v-38h-97l-56 42l-55 -42h-93zM45 887v40q8 50 35.5 77t70.5 27q27 0 64 -12t46 -12q23 0 31 24h90v-40q-8 -50 -35.5 -77t-69.5 -27q-28 0 -64.5 13t-45.5 13q-26 0 -32 -26h-90z" />
    <glyph glyph-name="breve.tilde" unicode="&#xe010;" horiz-adv-x="0" 
d="M199 722q-60 0 -97.5 29.5t-47.5 76.5v40h103q5 -38 42 -38t42 38h103v-40q-10 -47 -47.5 -76.5t-97.5 -29.5zM47 887v40q8 50 35.5 77t70.5 27q27 0 64 -12t46 -12q23 0 31 24h90v-40q-8 -50 -35.5 -77t-69.5 -27q-28 0 -64.5 13t-45.5 13q-26 0 -32 -26h-90z" />
    <glyph glyph-name="breve.acute" unicode="&#xe011;" horiz-adv-x="0" 
d="M199 723q-60 0 -97.5 29.5t-47.5 76.5v40h103q5 -38 42 -38t42 38h103v-40q-10 -47 -47.5 -76.5t-97.5 -29.5zM252 885h-105v33l33 109h173v-43z" />
    <glyph glyph-name="breve.grave" unicode="&#xe012;" horiz-adv-x="0" 
d="M199 723q-60 0 -97.5 29.5t-47.5 76.5v40h103q5 -38 42 -38t42 38h103v-40q-10 -47 -47.5 -76.5t-97.5 -29.5zM247 897h-105l-102 99v43h173l34 -109v-33z" />
    <glyph glyph-name="breve.hook" unicode="&#xe013;" horiz-adv-x="0" 
d="M199 722q-60 0 -97.5 29.5t-47.5 76.5v40h103q5 -38 42 -38t42 38h103v-40q-10 -47 -47.5 -76.5t-97.5 -29.5zM241 887h-74q9 29 13.5 35.5t20.5 18.5q25 17 25 27q0 8 -14 8q-18 0 -33 -11h-40v46q37 18 81 18q96 0 96 -59q0 -30 -45 -55q-3 -2 -7.5 -4t-6.5 -3t-4.5 -3
t-4 -4t-3.5 -5.5t-4 -8.5z" />
    <glyph glyph-name="cir.hook" unicode="&#xe014;" horiz-adv-x="0" 
d="M48 722v38l91 104h121l89 -104v-38h-97l-56 42l-55 -42h-93zM401 823h-74q3 14 5.5 23t4.5 15t4.5 10.5t4.5 7t7 8t8 9.5q25 22 25 36q0 10 -14 10q-18 0 -33 -15h-40v62q37 24 81 24q46 0 71 -20t25 -59t-45 -73q-2 -2 -8.5 -6t-7.5 -5t-4.5 -5.5t-5 -9t-4.5 -12.5z" />
    <glyph glyph-name="uniE015" unicode="&#xe015;" 
d="M257 561h-105l-102 99v43h173l34 -109v-33z" />
    <glyph glyph-name="uniE016" unicode="&#xe016;" 
d="M247 561h-105v33l33 109h173v-43z" />
    <glyph glyph-name="uniE017" unicode="&#xe017;" 
d="M48 561v38l91 104h121l89 -104v-38h-97l-56 42l-55 -42h-93z" />
    <glyph glyph-name="uniE018" unicode="&#xe018;" 
d="M349 703v-38l-92 -104h-121l-88 104v38h97l56 -42l55 42h93z" />
    <glyph glyph-name="uniE019" unicode="&#xe019;" 
d="M25 562v40q8 50 35.5 77t70.5 27q27 0 64 -12t46 -12q23 0 31 24h90v-40q-8 -50 -35.5 -77t-69.5 -27q-28 0 -64.5 13t-45.5 13q-26 0 -32 -26h-90z" />
    <glyph glyph-name="uniE01A" unicode="&#xe01a;" 
d="M257 561h-105l-102 99v43h173l34 -109v-33z" />
    <glyph glyph-name="uniE01B" unicode="&#xe01b;" 
d="M62 561v28l32 114h138v-42l-77 -100h-93zM238 561v28l32 114h138v-42l-76 -100h-94z" />
    <glyph glyph-name="uniE01C" unicode="&#xe01c;" 
d="M199 561q-60 0 -97.5 29.5t-47.5 76.5v40h103q5 -38 42 -38t42 38h103v-40q-10 -47 -47.5 -76.5t-97.5 -29.5z" />
    <glyph glyph-name="uniE01D" unicode="&#xe01d;" 
d="M199 561q-60 0 -97.5 29.5t-47.5 76.5v40h103q5 -38 42 -38t42 38h103v-40q-10 -47 -47.5 -76.5t-97.5 -29.5z" />
    <glyph glyph-name="uniE01E" unicode="&#xe01e;" 
d="M199 562q-46 0 -76.5 27.5t-30.5 74.5q0 46 30.5 74t76.5 28t76.5 -28t30.5 -74q0 -47 -30.5 -74.5t-76.5 -27.5zM199 628q15 0 24.5 9.5t9.5 26.5t-9.5 26.5t-24.5 9.5q-33 0 -33 -36t33 -36z" />
    <glyph glyph-name="uniE01F" unicode="&#xe01f;" horiz-adv-x="464" 
d="M254 554h-74q3 14 5.5 23t4.5 15t4.5 10.5t4.5 7t7 8t8 9.5q25 22 25 36q0 10 -14 10q-18 0 -33 -15h-40v62q38 24 81 24q46 0 71 -20t25 -59t-45 -73q-2 -2 -8.5 -6t-7.5 -5t-4.5 -5.5t-5 -9t-4.5 -12.5z" />
    <glyph glyph-name="uniE020" unicode="&#xe020;" horiz-adv-x="582" 
d="M105 559q-40 0 -66.5 23.5t-26.5 60.5t26.5 61t66.5 24t66.5 -24t26.5 -61t-26.5 -60.5t-66.5 -23.5zM477 559q-40 0 -66.5 23.5t-26.5 60.5t26.5 61t66.5 24t66.5 -24t26.5 -61t-26.5 -60.5t-66.5 -23.5z" />
    <glyph glyph-name="uniFB01" unicode="&#xfb01;" horiz-adv-x="617" 
d="M567 0h-179v527h116q39 0 51 -19t12 -82v-426zM478 559q-40 0 -66.5 23.5t-26.5 60.5t26.5 61t66.5 24t66.5 -24t26.5 -61t-26.5 -60.5t-66.5 -23.5zM12 411v116h57v32q0 153 178 153q54 0 91 -14v-101h-28q-32 0 -46.5 -9.5t-14.5 -35.5v-25h89v-116h-89v-411h-180v411
h-57z" />
    <glyph glyph-name="uniFB02" unicode="&#xfb02;" horiz-adv-x="616" 
d="M12 411v116h57v32q0 153 178 153q54 0 91 -14v-101h-28q-32 0 -46.5 -9.5t-14.5 -35.5v-25h89v-116h-89v-411h-180v411h-57zM567 0h-179v700h114q41 0 53 -17t12 -77v-606z" />
    <glyph glyph-name="space_uni0326" 
d="M128 -228v62q46 4 46 24q0 5 -2.5 8t-10 7t-9.5 5q-25 16 -25 47q0 25 20 41t51 16q34 0 55.5 -20.5t21.5 -59.5q0 -120 -147 -130z" />
    <glyph glyph-name="zero.numerator" horiz-adv-x="427" 
d="M214 301q-84 0 -138 52.5t-54 150.5q0 97 55 150t137 53t136.5 -53t54.5 -150q0 -98 -53.5 -150.5t-137.5 -52.5zM214 392q28 0 41 24t13 85q0 108 -54 108q-28 0 -41 -24t-13 -84q0 -61 13 -85t41 -24z" />
    <glyph glyph-name="one.numerator" horiz-adv-x="276" 
d="M231 308h-139v266l-49 -25h-23v97l109 54h102v-392z" />
    <glyph glyph-name="two.numerator" horiz-adv-x="348" 
d="M317 406v-98h-295v98l109 96q52 46 52 72q0 32 -40 32q-38 0 -62 -22h-52v88q57 35 137 35q156 0 156 -118q0 -40 -21 -68.5t-70 -68.5l-56 -46h142z" />
    <glyph glyph-name="three.numerator" horiz-adv-x="343" 
d="M147 301q-72 0 -128 30v82h48q28 -21 65 -21q55 0 55 37q0 36 -51 36h-40v79h36q54 0 54 35q0 33 -45 33q-34 0 -63 -18h-48v80q50 33 134 33q68 0 108.5 -27t40.5 -80q0 -70 -80 -89v-3q87 -12 87 -90q0 -57 -45.5 -87t-127.5 -30z" />
    <glyph glyph-name="four.numerator" horiz-adv-x="380" 
d="M322 308h-132v79h-171v94l176 219h127v-231h39v-82h-39v-79zM111 471v-2h83v103h-2z" />
    <glyph glyph-name="five.numerator" horiz-adv-x="345" 
d="M323 435q0 -63 -47.5 -98.5t-131.5 -35.5q-70 0 -124 28v85h48q29 -21 64 -21q58 0 58 44q0 39 -42 39q-30 0 -44 -19h-74v243h272v-96h-178v-66h2q26 19 77 19q54 0 87 -31t33 -91z" />
    <glyph glyph-name="six.numerator" horiz-adv-x="392" 
d="M203 301q-85 0 -133 47.5t-48 146.5q0 101 56.5 156.5t158.5 55.5q68 0 110 -22v-89h-47q-22 13 -57 13q-39 0 -59 -18t-25 -59q33 23 90 23q55 0 88.5 -29t33.5 -86q0 -65 -45 -102t-123 -37zM199 479q-20 0 -42 -10q2 -49 12.5 -66.5t31.5 -17.5q41 0 41 48
q0 46 -43 46z" />
    <glyph glyph-name="seven.numerator" horiz-adv-x="339" 
d="M61 308v35l137 251v2h-176v104h292v-108l-116 -284h-137z" />
    <glyph glyph-name="eight.numerator" horiz-adv-x="391" 
d="M196 301q-86 0 -131 31.5t-45 86.5q0 74 77 97v2q-62 17 -62 82q0 50 44 78.5t117 28.5q72 0 116 -28.5t44 -78.5q0 -65 -61 -82v-2q76 -22 76 -97q0 -55 -45 -86.5t-130 -31.5zM196 383q46 0 46 48q0 50 -46 50q-24 0 -36 -14t-12 -36q0 -48 48 -48zM196 547q39 0 39 39
q0 18 -10.5 29t-28.5 11q-40 0 -40 -40q0 -39 40 -39z" />
    <glyph glyph-name="nine.numerator" horiz-adv-x="389" 
d="M187 707q85 0 133 -47.5t48 -147.5q0 -102 -54 -156.5t-163 -54.5q-71 0 -113 22v89h48q24 -14 60 -14q41 0 60.5 17.5t24.5 57.5q-33 -23 -89 -23t-89.5 29.5t-33.5 87.5q0 66 45 103t123 37zM191 527q22 0 42 9q-2 50 -12.5 68.5t-31.5 18.5q-42 0 -42 -50
q0 -46 44 -46z" />
    <glyph glyph-name="zero.denominator" horiz-adv-x="427" 
d="M214 -7q-84 0 -138 52.5t-54 150.5q0 97 55 150t137 53t136.5 -53t54.5 -150q0 -98 -53.5 -150.5t-137.5 -52.5zM214 84q28 0 41 24t13 85q0 108 -54 108q-28 0 -41 -24t-13 -84q0 -61 13 -85t41 -24z" />
    <glyph glyph-name="one.denominator" horiz-adv-x="276" 
d="M231 0h-139v266l-49 -25h-23v97l109 54h102v-392z" />
    <glyph glyph-name="two.denominator" horiz-adv-x="348" 
d="M317 98v-98h-295v98l109 96q52 46 52 72q0 32 -40 32q-38 0 -62 -22h-52v88q57 35 137 35q156 0 156 -118q0 -40 -21 -68.5t-70 -68.5l-56 -46h142z" />
    <glyph glyph-name="three.denominator" horiz-adv-x="343" 
d="M147 -7q-72 0 -128 30v82h48q28 -21 65 -21q55 0 55 37q0 36 -51 36h-40v79h36q54 0 54 35q0 33 -45 33q-34 0 -63 -18h-48v80q56 33 134 33q68 0 108.5 -27t40.5 -80q0 -70 -80 -89v-3q87 -12 87 -90q0 -57 -45.5 -87t-127.5 -30z" />
    <glyph glyph-name="four.denominator" horiz-adv-x="380" 
d="M322 0h-132v79h-171v94l176 219h127v-231h39v-82h-39v-79zM111 162v-2h83v104h-2z" />
    <glyph glyph-name="five.denominator" horiz-adv-x="345" 
d="M323 127q0 -63 -47.5 -98.5t-131.5 -35.5q-70 0 -124 28v85h48q29 -21 64 -21q58 0 58 44q0 39 -42 39q-27 0 -44 -19h-74v243h272v-96h-178v-66h2q26 19 77 19q54 0 87 -31t33 -91z" />
    <glyph glyph-name="six.denominator" horiz-adv-x="392" 
d="M203 -7q-85 0 -133 47.5t-48 146.5q0 101 56.5 156.5t158.5 55.5q68 0 110 -22v-89h-47q-22 13 -57 13q-39 0 -59 -18t-25 -59q33 23 90 23q55 0 88.5 -29t33.5 -86q0 -65 -45 -102t-123 -37zM199 171q-20 0 -42 -10q2 -49 12.5 -66.5t31.5 -17.5q41 0 41 48q0 46 -43 46
z" />
    <glyph glyph-name="seven.denominator" horiz-adv-x="339" 
d="M61 0v35l137 251v2h-176v104h292v-108l-116 -284h-137z" />
    <glyph glyph-name="eight.denominator" horiz-adv-x="391" 
d="M196 -7q-86 0 -131 31.5t-45 86.5q0 74 77 97v2q-62 17 -62 82q0 50 44 78.5t117 28.5q72 0 116 -28.5t44 -78.5q0 -65 -61 -82v-2q76 -22 76 -97q0 -55 -45 -86.5t-130 -31.5zM196 75q46 0 46 48q0 50 -46 50q-24 0 -36 -14t-12 -36q0 -48 48 -48zM196 239q39 0 39 39
q0 18 -10.5 29t-28.5 11q-40 0 -40 -40q0 -39 40 -39z" />
    <glyph glyph-name="nine.denominator" horiz-adv-x="389" 
d="M187 399q85 0 133 -47.5t48 -147.5q0 -102 -54 -156.5t-163 -54.5q-71 0 -113 22v89h48q21 -14 60 -14q41 0 60.5 17.5t24.5 57.5q-33 -23 -89 -23t-89.5 29.5t-33.5 87.5q0 66 45 103t123 37zM191 219q22 0 42 9q-2 50 -12.5 68.5t-31.5 18.5q-42 0 -42 -50
q0 -46 44 -46z" />
    <glyph glyph-name="Q.alt" horiz-adv-x="742" 
d="M756 -121h-167q-30 43 -82 68.5t-153 41.5q-128 20 -210 84q-118 93 -118 279q0 165 99 261t246 96q148 0 247 -96.5t99 -262.5q0 -219 -170 -281v-3q147 -25 209 -120v-67zM371 120q69 0 109.5 56t40.5 171q0 114 -40.5 170.5t-109.5 56.5t-109.5 -56.5t-40.5 -170.5
q0 -115 40.5 -171t109.5 -56z" />
    <glyph glyph-name="Q.alt1" horiz-adv-x="742" 
d="M371 -9q-149 0 -247 95.5t-98 262.5t99 263.5t246 96.5t246.5 -96.5t99.5 -263.5q0 -132 -74 -226l79 -66v-57h-138l-42 36q-79 -45 -171 -45zM371 118q39 0 67 9l-81 71v54h131l24 -20q9 45 9 115q0 114 -40.5 170.5t-109.5 56.5t-109.5 -56.5t-40.5 -170.5
q0 -115 40.5 -172t109.5 -57z" />
    <glyph glyph-name="f.short" horiz-adv-x="337" 
d="M12 411v116h57v32q0 153 178 153q54 0 91 -14v-101h-28q-32 0 -46.5 -9.5t-14.5 -35.5v-25h89v-116h-89v-411h-180v411h-57z" />
    <glyph glyph-name="f_f.short" horiz-adv-x="652" 
d="M249 411v-411h-180v411h-57v116h57v26q0 153 178 153q52 0 92 -14v-101h-29q-32 0 -46.5 -9t-14.5 -34v-21h136v32q0 153 178 153q53 0 90 -14v-101h-27q-33 0 -47.5 -9.5t-14.5 -35.5v-25h89v-116h-89v-411h-179v411h-136z" />
    <glyph glyph-name="less.cap" horiz-adv-x="444" 
d="M248 0l-219 307v85l219 308h165v-46l-208 -304v-2l208 -302v-46h-165z" />
    <glyph glyph-name="greater.cap" horiz-adv-x="444" 
d="M31 0v46l207 304v2l-207 302v46h164l219 -307v-85l-219 -308h-164z" />
    <glyph glyph-name="questiondown.cap" horiz-adv-x="464" 
d="M219 482h130q10 -60 -3 -97.5t-58 -82.5q-26 -24 -40.5 -39t-26 -36.5t-11.5 -42.5q0 -27 18 -42t49 -15q63 0 103 40h68v-123q-80 -53 -193 -53q-112 0 -171.5 47.5t-59.5 138.5q0 57 27.5 97t82.5 80q36 27 50 40t25.5 36t9.5 52zM280 707q40 0 67 -26.5t27 -64.5
t-27 -64.5t-67 -26.5q-39 0 -66.5 26.5t-27.5 64.5t27.5 64.5t66.5 26.5z" />
    <glyph glyph-name="exclamdown.cap" horiz-adv-x="301" 
d="M209 482l37 -377v-105h-191v105l36 377h118zM150 707q40 0 67 -26.5t27 -64.5t-27 -64.5t-67 -26.5q-39 0 -66.5 26.5t-27.5 64.5t27.5 64.5t66.5 26.5z" />
    <glyph glyph-name="bullet.cap" horiz-adv-x="357" 
d="M179 182q-64 0 -106.5 39t-42.5 105q0 67 42.5 107t106.5 40t106 -40t42 -107q0 -66 -42 -105t-106 -39z" />
    <glyph glyph-name="hyphen.cap" horiz-adv-x="312" 
d="M33 259v137h246v-137h-246z" />
    <glyph glyph-name="endash.cap" horiz-adv-x="439" 
d="M34 261v133h370v-133h-370z" />
    <glyph glyph-name="emdash.cap" horiz-adv-x="740" 
d="M34 261v133h671v-133h-671z" />
    <glyph glyph-name="dagger.cap" horiz-adv-x="479" 
d="M178 0l-28 259v65l38 105l-109 -35h-58v163h58l109 -37l-33 98v82h169v-82l-33 -98l109 37h58v-163h-58l-109 36l38 -104v-65l-28 -261h-123z" />
    <glyph glyph-name="daggerdbl.cap" horiz-adv-x="479" 
d="M148 370l41 76l-110 -36h-58v161h58l109 -36l-33 94v71h169v-71l-33 -93l109 35h58v-161h-58l-110 37l41 -75v-42l-41 -76l110 36h58v-161h-58l-109 36l33 -94v-71h-169v71l33 93l-109 -35h-58v161h58l110 -37l-41 75v42z" />
    <glyph glyph-name="quoteleft.cap" horiz-adv-x="533" 
d="M285 -9q-109 0 -183.5 72.5t-74.5 210.5q0 191 118.5 303t351.5 124v-122q-109 -11 -157 -46.5t-48 -81.5q0 -25 17 -40t57 -32.5t59 -29.5q82 -54 82 -160q0 -88 -62 -143t-160 -55z" />
    <glyph glyph-name="quoteright.cap" horiz-adv-x="533" 
d="M248 709q110 0 184.5 -72.5t74.5 -210.5q0 -190 -119 -302t-352 -124v121q205 24 205 128q0 26 -17.5 41.5t-56.5 32t-58 29.5q-82 51 -82 159q0 88 61.5 143t159.5 55z" />
    <glyph glyph-name="quotedblleft.cap" horiz-adv-x="1056" 
d="M285 -9q-109 0 -183.5 72.5t-74.5 210.5q0 191 118.5 303t351.5 124v-122q-109 -11 -157 -46.5t-48 -81.5q0 -25 17 -40t57 -32.5t59 -29.5q82 -54 82 -160q0 -88 -62 -143t-160 -55zM808 -9q-109 0 -183.5 72.5t-74.5 210.5q0 191 118.5 303t351.5 124v-122
q-109 -11 -156.5 -46.5t-47.5 -81.5q0 -25 17 -40t56.5 -32.5t58.5 -29.5q82 -51 82 -160q0 -88 -62 -143t-160 -55z" />
    <glyph glyph-name="quotedblright.cap" horiz-adv-x="1056" 
d="M771 709q110 0 184.5 -72.5t74.5 -210.5q0 -190 -119 -302t-352 -124v121q205 24 205 128q0 26 -17.5 41.5t-56.5 32t-58 29.5q-82 51 -82 159q0 88 61.5 143t159.5 55zM248 709q110 0 184.5 -72.5t74.5 -210.5q0 -190 -119 -302t-352 -124v121q205 24 205 128
q0 26 -17.5 41.5t-56.5 32t-58 29.5q-82 51 -82 159q0 88 61.5 143t159.5 55z" />
    <glyph glyph-name="guillemotleft.cap" horiz-adv-x="738" 
d="M707 700v-46l-208 -304v-2l208 -302v-46h-165l-219 307v85l219 308h165zM413 700v-46l-208 -304v-2l208 -302v-46h-165l-219 307v85l219 308h165z" />
    <glyph glyph-name="guillemotright.cap" horiz-adv-x="738" 
d="M31 0v46l207 304v2l-207 302v46h164l219 -307v-85l-219 -308h-164zM325 0v46l207 304v2l-207 302v46h164l219 -307v-85l-219 -308h-164z" />
    <glyph glyph-name="at.cap" horiz-adv-x="861" 
d="M432 -34q-79 0 -149.5 21t-128.5 63t-91.5 112t-33.5 160q0 95 38 174t99.5 128.5t136 76.5t150.5 27q162 0 270.5 -83.5t108.5 -230.5q0 -127 -70.5 -193t-174.5 -66q-102 0 -128 63q-50 -61 -123 -61q-55 0 -88 36t-33 102q0 94 58.5 164.5t153.5 70.5q56 0 95 -39
q25 34 70 34h67l-50 -228q-13 -50 22 -50q42 0 70 41.5t28 125.5q0 107 -73.5 166t-202.5 59q-61 0 -116.5 -20t-100 -58t-71 -100t-26.5 -139q0 -135 80.5 -201t212.5 -66q140 0 241 63h35v-84q-102 -68 -276 -68zM398 261q30 0 56 26l30 134q-21 7 -35 7q-38 0 -62 -37.5
t-24 -88.5q0 -41 35 -41z" />
    <glyph glyph-name="paragraph.cap" horiz-adv-x="590" 
d="M242 0v300h-3q-101 0 -159.5 49t-58.5 150q0 201 254 201h259v-700h-114v586h-64v-586h-114z" />
    <glyph glyph-name="grave.cap" 
d="M257 723h-105l-102 93v42h173l34 -102v-33z" />
    <glyph glyph-name="dieresis.cap" 
d="M97 723q-37 0 -61 22t-24 57t24 57t61 22t60.5 -22t23.5 -57t-23.5 -57t-60.5 -22zM301 723q-37 0 -60.5 22t-23.5 57t23.5 57t60.5 22t61 -22t24 -57t-24 -57t-61 -22z" />
    <glyph glyph-name="macron.cap" 
d="M337 842v-109h-276v109h276z" />
    <glyph glyph-name="acute.cap" 
d="M142 723v33l33 102h173v-42l-101 -93h-105z" />
    <glyph glyph-name="circumflex.cap" 
d="M48 723v38l91 100h121l89 -100v-38h-97l-56 38l-55 -38h-93z" />
    <glyph glyph-name="caron.cap" 
d="M349 861v-38l-92 -100h-121l-88 100v38h97l56 -38l55 38h93z" />
    <glyph glyph-name="breve.cap" 
d="M199 723q-61 0 -98.5 27.5t-46.5 71.5v39h103q6 -31 42 -31t42 31h103v-39q-10 -43 -47.5 -71t-97.5 -28z" />
    <glyph glyph-name="dotaccent.cap" 
d="M199 723q-40 0 -66.5 23.5t-26.5 60.5t26.5 61t66.5 24t66.5 -24t26.5 -61t-26.5 -60.5t-66.5 -23.5z" />
    <glyph glyph-name="ring.cap" 
d="M199 723q-46 0 -76.5 27.5t-30.5 74.5q0 46 30.5 74t76.5 28t76.5 -28t30.5 -74q0 -47 -30.5 -74.5t-76.5 -27.5zM199 789q15 0 24.5 9.5t9.5 26.5t-9.5 26.5t-24.5 9.5q-33 0 -33 -36t33 -36z" />
    <glyph glyph-name="tilde.cap" 
d="M25 723v40q17 103 106 103q27 0 64 -12t46 -12q23 0 31 24h90v-40q-8 -50 -35.5 -76.5t-69.5 -26.5q-28 0 -64.5 13t-45.5 13q-26 0 -32 -26h-90z" />
    <glyph glyph-name="hungarumlaut.cap" 
d="M59 723v29l31 106h141v-42l-76 -93h-96zM238 723v29l31 106h141v-42l-75 -93h-97z" />
    </font>
</defs>
</svg>
