<?xml version="1.0" standalone="no"?>
<!DOCTYPE svg PUBLIC "-//W3C//DTD SVG 1.1//EN" "http://www.w3.org/Graphics/SVG/1.1/DTD/svg11.dtd" >
<svg>
<metadata>
Created by FontForge 20090622 at Mon May 18 07:08:47 2020
 By deploy user
Copyright (c) 2014 by Graviton. All rights reserved.
</metadata>
<defs>
<font id="SVN-AgudaBlack" horiz-adv-x="630" >
  <font-face 
    font-family="SVN-Aguda Black"
    font-weight="900"
    font-stretch="normal"
    units-per-em="1000"
    panose-1="0 0 0 0 0 0 0 0 0 0"
    ascent="782"
    descent="-218"
    x-height="560"
    cap-height="720"
    bbox="-60 -240 1215 1133"
    underline-thickness="50"
    underline-position="-50"
    unicode-range="U+0020-U+FB99"
  />
<missing-glyph horiz-adv-x="760" 
d="M147 593q97 97 233 97t233 -97t97 -233t-97 -233t-233 -97t-233 97t-97 233t97 233zM518 180l42 42l-138 138l138 138l-42 42l-138 -138l-138 138l-42 -42l138 -138l-138 -138l42 -42l138 138z" />
    <glyph glyph-name="graviton" unicode="&#x6b3;" horiz-adv-x="525" arabic-form="medial" 
d="M211 222v113q0 10 10 10h77v-133h-77q-10 0 -10 10zM310 522q-20 -20 -48 -20t-48 20t-20 49t20 49t48 20t48 -20q21 -20 21 -49t-21 -49zM112 402q62 63 150 63t150 -63q63 -62 63 -150t-63 -150q-62 -62 -150 -62t-150 62t-62 150t62 150zM334 158v217q0 3 -3 3h-110
q-19 0 -33 -13.5t-14 -32.5v-107q0 -19 14 -33t33 -14h77v-23q0 -10 -10 -10h-70q-4 0 -4 -3v-27q0 -3 4 -3h70q19 0 32.5 13.5t13.5 32.5z" />
    <glyph glyph-name=".notdef" horiz-adv-x="760" 
d="M147 593q97 97 233 97t233 -97t97 -233t-97 -233t-233 -97t-233 97t-97 233t97 233zM518 180l42 42l-138 138l138 138l-42 42l-138 -138l-138 138l-42 -42l138 -138l-138 -138l42 -42l138 138z" />
    <glyph glyph-name=".null" horiz-adv-x="0" 
 />
    <glyph glyph-name="nonmarkingreturn" horiz-adv-x="333" 
 />
    <glyph glyph-name="space" unicode=" " horiz-adv-x="320" 
 />
    <glyph glyph-name="exclam" unicode="!" horiz-adv-x="240" 
d="M60 220v500h120v-500h-120zM176 13q-23 -23 -56 -23t-57 23q-23 24 -23 57t23 56q24 24 57 24t56 -24q24 -23 24 -56t-24 -57z" />
    <glyph glyph-name="quotedbl" unicode="&#x22;" horiz-adv-x="420" 
d="M180 520h-120v200h120v-200zM240 520v200h120v-200h-120z" />
    <glyph glyph-name="numbersign" unicode="#" horiz-adv-x="640" 
d="M590 540v-72h-100v-216h100v-72h-100v-100h-80v100h-180v-100h-80v100h-100v72h100v216h-100v72h100v100h80v-100h180v100h80v-100h100zM230 252h180v216h-180v-216z" />
    <glyph glyph-name="dollar" unicode="$" horiz-adv-x="620" 
d="M570 480v-40h-120v40q0 48 -40 48h-200q-40 0 -40 -48q0 -14 1.5 -20t10.5 -13.5t28 -14.5l200 -50q68 -17 108 -41q52 -29 52 -101q0 -82 -39 -121t-121 -39h-40v-80h-120v80h-40q-82 0 -121 39t-39 121v40h120v-40q0 -48 40 -48h200q40 0 40 48q0 14 -1.5 20
t-10.5 13.5t-28 14.5l-200 50q-67 17 -109 40q-51 31 -51 102q0 82 39 121t121 39h40v80h120v-80h40q82 0 121 -39t39 -121z" />
    <glyph glyph-name="percent" unicode="%" horiz-adv-x="890" 
d="M375 600v-120q0 -68 -26.5 -94t-93.5 -26h-80q-67 0 -93.5 26t-26.5 94v120q0 68 26.5 94t93.5 26h80q67 0 93.5 -26t26.5 -94zM135 600v-120q0 -28 8 -38t32 -10h80q24 0 32 10t8 38v120q0 28 -8 38t-32 10h-80q-24 0 -32 -10t-8 -38zM635 360h80q67 0 93.5 -26
t26.5 -94v-120q0 -68 -26.5 -94t-93.5 -26h-80q-67 0 -93.5 26t-26.5 94v120q0 68 26.5 94t93.5 26zM755 120v120q0 28 -8 38t-32 10h-80q-24 0 -32 -10t-8 -38v-120q0 -28 8 -38t32 -10h80q24 0 32 10t8 38zM220 0l360 720h90l-360 -720h-90z" />
    <glyph glyph-name="ampersand" unicode="&#x26;" horiz-adv-x="685" 
d="M215 416h460v-112h-80v-144q0 -82 -38.5 -121t-121.5 -39h-220q-83 0 -121.5 39t-38.5 121v100q0 35 14 59.5t31 30.5l15 5v10q-2 0 -6.5 1.5t-14.5 7.5t-18 15.5t-14.5 28t-6.5 42.5v100q0 82 38.5 121t121.5 39h180q83 0 121.5 -39t38.5 -121v-80h-120v80q0 48 -40 48
h-180q-40 0 -40 -48v-100q0 -23 9 -33.5t31 -10.5zM475 160v144h-260q-22 0 -31 -10.5t-9 -33.5v-100q0 -48 40 -48h220q40 0 40 48z" />
    <glyph glyph-name="quotesingle" unicode="'" horiz-adv-x="240" 
d="M180 520h-120v200h120v-200z" />
    <glyph glyph-name="parenleft" unicode="(" horiz-adv-x="335" 
d="M215 -128h100v-112h-100q-83 0 -121.5 39t-38.5 121v680q0 82 38.5 121t121.5 39h100v-112h-100q-40 0 -40 -48v-680q0 -48 40 -48z" />
    <glyph glyph-name="parenright" unicode=")" horiz-adv-x="335" 
d="M20 -240v112h100q40 0 40 48v680q0 48 -40 48h-100v112h100q82 0 121 -39t39 -121v-680q0 -82 -39 -121t-121 -39h-100z" />
    <glyph glyph-name="asterisk" unicode="*" horiz-adv-x="500" 
d="M317 576h133v-72h-133l69 -119l-70 -40l-66 115l-66 -115l-70 40l69 119h-133v72h133l-69 119l70 40l66 -115l66 115l70 -40z" />
    <glyph glyph-name="plus" unicode="+" horiz-adv-x="580" 
d="M350 336h180v-112h-180v-184h-120v184h-180v112h180v184h120v-184z" />
    <glyph glyph-name="comma" unicode="," horiz-adv-x="260" 
d="M210 140l-105 -210h-95l52 210h148z" />
    <glyph glyph-name="hyphen" unicode="-" horiz-adv-x="400" 
d="M50 336h300v-112h-300v112z" />
    <glyph glyph-name="period" unicode="." horiz-adv-x="260" 
d="M73 126q24 24 57 24t56 -24q24 -23 24 -56t-24 -57q-23 -23 -56 -23t-57 23q-23 24 -23 57t23 56z" />
    <glyph glyph-name="slash" unicode="/" horiz-adv-x="426" 
d="M30 0l240 720h126l-240 -720h-126z" />
    <glyph glyph-name="zero" unicode="0" horiz-adv-x="670" 
d="M215 720h240q83 0 121.5 -39t38.5 -121v-400q0 -82 -38.5 -121t-121.5 -39h-240q-83 0 -121.5 39t-38.5 121v400q0 82 38.5 121t121.5 39zM495 160v400q0 48 -40 48h-240q-40 0 -40 -48v-400q0 -48 40 -48h240q40 0 40 48z" />
    <glyph glyph-name="one" unicode="1" horiz-adv-x="320" 
d="M140 608h-120v112h240v-720h-120v608z" />
    <glyph glyph-name="two" unicode="2" horiz-adv-x="665" 
d="M175 160v-48h440v-112h-560v160q0 71 17 113q17 41 52 64q34 23 111 49l200 66q41 13 51 34q9 19 9 74q0 48 -40 48h-240q-40 0 -40 -48v-80h-120v80q0 82 38.5 121t121.5 39h240q83 0 121.5 -39t38.5 -121q0 -72 -17 -114q-16 -39 -53 -64q-34 -22 -110 -48l-200 -66
q-41 -13 -51 -34q-9 -20 -9 -74z" />
    <glyph glyph-name="three" unicode="3" horiz-adv-x="665" 
d="M210 720h240q82 0 121 -39t39 -121v-100q0 -35 -14 -59.5t-31 -30.5l-15 -5v-10q2 0 6.5 -1.5t14.5 -7.5t18 -15.5t14.5 -28t6.5 -42.5v-100q0 -82 -39 -121t-121 -39h-240q-82 0 -121 39t-39 121v80h120v-80q0 -48 40 -48h240q40 0 40 48v100q0 23 -9 33.5t-31 10.5
h-220v112h220q22 0 31 10.5t9 33.5v100q0 48 -40 48h-240q-40 0 -40 -48v-80h-120v80q0 82 39 121t121 39z" />
    <glyph glyph-name="four" unicode="4" horiz-adv-x="615" 
d="M130 272h320v288h120v-560h-120v160h-440v155l240 405h140l-260 -438v-10z" />
    <glyph glyph-name="five" unicode="5" horiz-adv-x="665" 
d="M175 456h280q83 0 121.5 -39t38.5 -121v-136q0 -82 -38.5 -121t-121.5 -39h-240q-83 0 -121.5 39t-38.5 121v80h120v-80q0 -48 40 -48h240q40 0 40 48v136q0 48 -40 48h-400v376h550v-112h-430v-152z" />
    <glyph glyph-name="six" unicode="6" horiz-adv-x="670" 
d="M615 560v-80h-120v80q0 48 -40 48h-240q-40 0 -40 -48v-144h280q83 0 121.5 -39t38.5 -121v-96q0 -82 -38.5 -121t-121.5 -39h-240q-83 0 -121.5 39t-38.5 121v400q0 82 38.5 121t121.5 39h240q83 0 121.5 -39t38.5 -121zM455 304h-280v-144q0 -48 40 -48h240q40 0 40 48
v96q0 48 -40 48z" />
    <glyph glyph-name="seven" unicode="7" horiz-adv-x="610" 
d="M20 608v112h560v-149l-268 -571h-132l280 598v10h-440z" />
    <glyph glyph-name="eight" unicode="8" horiz-adv-x="670" 
d="M615 560v-100q0 -35 -14 -59.5t-31 -30.5l-15 -5v-10q2 0 6.5 -1.5t14.5 -7.5t18 -15.5t14.5 -28t6.5 -42.5v-100q0 -82 -38.5 -121t-121.5 -39h-240q-83 0 -121.5 39t-38.5 121v100q0 35 14 59.5t31 30.5l15 5v10q-2 0 -6.5 1.5t-14.5 7.5t-18 15.5t-14.5 28t-6.5 42.5
v100q0 82 38.5 121t121.5 39h240q83 0 121.5 -39t38.5 -121zM495 160v100q0 23 -9 33.5t-31 10.5h-240q-22 0 -31 -10.5t-9 -33.5v-100q0 -48 40 -48h240q40 0 40 48zM495 460v100q0 48 -40 48h-240q-40 0 -40 -48v-100q0 -23 9 -33.5t31 -10.5h240q22 0 31 10.5t9 33.5z
" />
    <glyph glyph-name="nine" unicode="9" horiz-adv-x="670" 
d="M55 160v80h120v-80q0 -48 40 -48h240q40 0 40 48v144h-280q-83 0 -121.5 39t-38.5 121v96q0 82 38.5 121t121.5 39h240q83 0 121.5 -39t38.5 -121v-400q0 -82 -38.5 -121t-121.5 -39h-240q-83 0 -121.5 39t-38.5 121zM215 416h280v144q0 48 -40 48h-240q-40 0 -40 -48
v-96q0 -48 40 -48z" />
    <glyph glyph-name="colon" unicode=":" horiz-adv-x="260" 
d="M73 126q24 24 57 24t56 -24q24 -23 24 -56t-24 -57q-23 -23 -56 -23t-57 23q-23 24 -23 57t23 56zM186 433q-23 -23 -56 -23t-57 23q-23 24 -23 57t23 56q24 24 57 24t56 -24q24 -23 24 -56t-24 -57z" />
    <glyph glyph-name="semicolon" unicode=";" horiz-adv-x="260" 
d="M105 -70h-95l52 210h148zM186 433q-23 -23 -56 -23t-57 23q-23 24 -23 57t23 56q24 24 57 24t56 -24q24 -23 24 -56t-24 -57z" />
    <glyph glyph-name="less" unicode="&#x3c;" horiz-adv-x="580" 
d="M50 196v168l480 156v-118l-360 -117v-10l360 -118v-117z" />
    <glyph glyph-name="equal" unicode="=" horiz-adv-x="580" 
d="M50 318v112h480v-112h-480zM530 130h-480v112h480v-112z" />
    <glyph glyph-name="greater" unicode="&#x3e;" horiz-adv-x="580" 
d="M50 520l480 -156v-168l-480 -156v117l360 118v10l-360 117v118z" />
    <glyph glyph-name="question" unicode="?" horiz-adv-x="660" 
d="M243 126q24 24 57 24t56 -24q24 -23 24 -56t-24 -57q-23 -23 -56 -23t-57 23q-23 24 -23 57t23 56zM180 720h280q82 0 121 -39t39 -121v-120q0 -82 -39 -121t-121 -39h-100v-60h-120v172h220q40 0 40 48v120q0 48 -40 48h-280q-40 0 -40 -48v-50h-120v50q0 82 39 121
t121 39z" />
    <glyph glyph-name="at" unicode="@" horiz-adv-x="800" 
d="M360 540h80q66 0 93 -25t27 -85v-130q0 -68 -26 -94t-94 -26h-80q-66 0 -93 25t-27 85q0 38 25 54t95 33l120 30v23q0 22 -8 30t-32 8h-80q-24 0 -32 -10t-8 -38v-30h-80v30q0 68 26 94t94 26zM480 300v53l-120 -30q-26 -6 -33 -12.5t-7 -20.5q0 -22 8 -30t32 -8h80
q24 0 32 10t8 38zM152 607q103 103 248 103t247 -103q103 -102 103 -247t-103 -248q-102 -102 -247 -102q-144 0 -248 102q-102 104 -102 248q0 145 102 247zM209 169q79 -79 191 -79t191 79t79 191t-79 191t-191 79t-191 -79t-79 -191t79 -191z" />
    <glyph glyph-name="A" unicode="A" horiz-adv-x="683" 
d="M247 720h189l237 -720h-127l-60 184h-289l-61 -184h-126zM336 608l-102 -312h215l-103 312h-10z" />
    <glyph glyph-name="B" unicode="B" horiz-adv-x="715" 
d="M660 560v-100q0 -35 -14 -59.5t-31 -30.5l-15 -5v-10q2 0 6.5 -1.5t14.5 -7.5t18 -15.5t14.5 -28t6.5 -42.5v-100q0 -82 -39 -121t-121 -39h-440v720h440q82 0 121 -39t39 -121zM540 160v100q0 23 -9 33.5t-31 10.5h-320v-192h320q40 0 40 48zM540 460v100q0 48 -40 48
h-320v-192h320q22 0 31 10.5t9 33.5z" />
    <glyph glyph-name="C" unicode="C" horiz-adv-x="705" 
d="M535 160v80h120v-80q0 -82 -38.5 -121t-121.5 -39h-280q-83 0 -121.5 39t-38.5 121v400q0 82 38.5 121t121.5 39h280q83 0 121.5 -39t38.5 -121v-80h-120v80q0 48 -40 48h-280q-40 0 -40 -48v-400q0 -48 40 -48h280q40 0 40 48z" />
    <glyph glyph-name="D" unicode="D" horiz-adv-x="715" 
d="M60 720h440q82 0 121 -39t39 -121v-400q0 -82 -39 -121t-121 -39h-440v720zM540 160v400q0 48 -40 48h-320v-496h320q40 0 40 48z" />
    <glyph glyph-name="E" unicode="E" horiz-adv-x="665" 
d="M620 720v-112h-440v-192h430v-112h-430v-192h440v-112h-560v720h560z" />
    <glyph glyph-name="F" unicode="F" horiz-adv-x="655" 
d="M180 304v-304h-120v720h560v-112h-440v-192h430v-112h-430z" />
    <glyph glyph-name="G" unicode="G" horiz-adv-x="710" 
d="M655 560v-80h-120v80q0 48 -40 48h-280q-40 0 -40 -48v-400q0 -48 40 -48h280q40 0 40 48v144h-180v112h300v-256q0 -82 -38.5 -121t-121.5 -39h-280q-83 0 -121.5 39t-38.5 121v400q0 82 38.5 121t121.5 39h280q83 0 121.5 -39t38.5 -121z" />
    <glyph glyph-name="H" unicode="H" horiz-adv-x="720" 
d="M540 416v304h120v-720h-120v304h-360v-304h-120v720h120v-304h360z" />
    <glyph glyph-name="I" unicode="I" horiz-adv-x="240" 
d="M180 0h-120v720h120v-720z" />
    <glyph glyph-name="J" unicode="J" horiz-adv-x="700" 
d="M520 160v560h120v-560q0 -82 -39 -121t-121 -39h-280q-82 0 -121 39t-39 121v200h120v-200q0 -48 40 -48h280q40 0 40 48z" />
    <glyph glyph-name="K" unicode="K" horiz-adv-x="691" 
d="M681 720l-210 -360l210 -360h-139l-177 304h-185v-304h-120v720h120v-304h185l177 304h139z" />
    <glyph glyph-name="L" unicode="L" 
d="M180 112h440v-112h-560v720h120v-608z" />
    <glyph glyph-name="M" unicode="M" horiz-adv-x="840" 
d="M425 272l142 448h213v-720h-120v608h-10l-143 -448h-175l-142 448h-10v-608h-120v720h212l143 -448h10z" />
    <glyph glyph-name="N" unicode="N" horiz-adv-x="720" 
d="M540 112v608h120v-720h-208l-262 608h-10v-608h-120v720h207l263 -608h10z" />
    <glyph glyph-name="O" unicode="O" horiz-adv-x="710" 
d="M215 720h280q83 0 121.5 -39t38.5 -121v-400q0 -82 -38.5 -121t-121.5 -39h-280q-83 0 -121.5 39t-38.5 121v400q0 82 38.5 121t121.5 39zM535 160v400q0 48 -40 48h-280q-40 0 -40 -48v-400q0 -48 40 -48h280q40 0 40 48z" />
    <glyph glyph-name="P" unicode="P" horiz-adv-x="700" 
d="M60 720h440q82 0 121 -39t39 -121v-160q0 -82 -39 -121t-121 -39h-320v-240h-120v720zM540 400v160q0 48 -40 48h-320v-256h320q40 0 40 48z" />
    <glyph glyph-name="Q" unicode="Q" horiz-adv-x="710" 
d="M215 720h280q83 0 121.5 -39t38.5 -121v-400q0 -82 -38.5 -121t-121.5 -39h-80v-160h-120v160h-80q-83 0 -121.5 39t-38.5 121v400q0 82 38.5 121t121.5 39zM535 160v400q0 48 -40 48h-280q-40 0 -40 -48v-400q0 -48 40 -48h280q40 0 40 48z" />
    <glyph glyph-name="R" unicode="R" horiz-adv-x="710" 
d="M660 560v-160q0 -82 -38 -120.5t-118 -39.5l140 -240h-139l-140 240h-185v-240h-120v720h440q82 0 121 -39t39 -121zM540 400v160q0 48 -40 48h-320v-256h320q40 0 40 48z" />
    <glyph glyph-name="S" unicode="S" horiz-adv-x="700" 
d="M650 560v-80h-120v80q0 48 -40 48h-280q-40 0 -40 -48q0 -38 4 -55q7 -30 56 -46l240 -80q76 -26 110 -48q70 -42 70 -171q0 -82 -39 -121t-121 -39h-280q-82 0 -121 39t-39 121v80h120v-80q0 -48 40 -48h280q40 0 40 48q0 38 -4 55q-7 30 -56 46l-240 80q-79 27 -111 47
q-36 24 -52.5 64t-16.5 108q0 82 39 121t121 39h280q82 0 121 -39t39 -121z" />
    <glyph glyph-name="T" unicode="T" horiz-adv-x="620" 
d="M10 720h600v-112h-240v-608h-120v608h-240v112z" />
    <glyph glyph-name="U" unicode="U" horiz-adv-x="720" 
d="M540 160v560h120v-560q0 -82 -39 -121t-121 -39h-280q-82 0 -121 39t-39 121v560h120v-560q0 -48 40 -48h280q40 0 40 48z" />
    <glyph glyph-name="V" unicode="V" horiz-adv-x="683" 
d="M136 720l200 -608h10l200 608h127l-237 -720h-189l-237 720h126z" />
    <glyph glyph-name="W" unicode="W" horiz-adv-x="1064" 
d="M778 112l143 608h123l-169 -720h-196l-142 608h-10l-143 -608h-195l-169 720h123l143 -608h10l142 608h188l142 -608h10z" />
    <glyph glyph-name="X" unicode="X" horiz-adv-x="663" 
d="M336 416l178 304h139l-210 -360l210 -360h-139l-178 304h-10l-177 -304h-139l210 360l-210 360h139l177 -304h10z" />
    <glyph glyph-name="Y" unicode="Y" horiz-adv-x="664" 
d="M517 720h137l-262 -477v-243h-120v243l-262 477h137l180 -328h10z" />
    <glyph glyph-name="Z" unicode="Z" horiz-adv-x="690" 
d="M645 720v-170l-480 -428v-10h480v-112h-600v170l480 428v10h-480v112h600z" />
    <glyph glyph-name="bracketleft" unicode="[" horiz-adv-x="340" 
d="M320 760v-112h-140v-776h140v-112h-260v1000h260z" />
    <glyph glyph-name="backslash" unicode="\" horiz-adv-x="426" 
d="M30 720h126l240 -720h-126z" />
    <glyph glyph-name="bracketright" unicode="]" horiz-adv-x="340" 
d="M160 648h-140v112h260v-1000h-260v112h140v776z" />
    <glyph glyph-name="asciicircum" unicode="^" horiz-adv-x="614" 
d="M253 720h108l203 -320h-95l-157 248h-10l-157 -248h-95z" />
    <glyph glyph-name="underscore" unicode="_" horiz-adv-x="660" 
d="M50 72h560v-72h-560v72z" />
    <glyph glyph-name="grave" unicode="`" horiz-adv-x="330" 
d="M193 640l-143 160h123l107 -160h-87z" />
    <glyph glyph-name="a" unicode="a" horiz-adv-x="625" 
d="M210 560h200q82 0 121 -39t39 -121v-240q0 -82 -39 -121t-121 -39h-200q-82 0 -121 39t-39 121q0 72 51 101q41 24 109 41l240 60v38q0 48 -40 48h-200q-40 0 -40 -48v-40h-120v40q0 82 39 121t121 39zM450 160v108l-240 -60q-26 -6 -33 -16t-7 -32q0 -48 40 -48h200
q40 0 40 48z" />
    <glyph glyph-name="b" unicode="b" horiz-adv-x="635" 
d="M60 760h120v-200h240q82 0 121 -39t39 -121v-240q0 -82 -39 -121t-121 -39h-200q-82 0 -121 39t-39 121v600zM220 112h200q40 0 40 48v240q0 48 -40 48h-240v-288q0 -48 40 -48z" />
    <glyph glyph-name="c" unicode="c" horiz-adv-x="625" 
d="M455 160v40h120v-40q0 -82 -38.5 -121t-121.5 -39h-200q-83 0 -121.5 39t-38.5 121v240q0 82 38.5 121t121.5 39h200q83 0 121.5 -39t38.5 -121v-40h-120v40q0 48 -40 48h-200q-40 0 -40 -48v-240q0 -48 40 -48h200q40 0 40 48z" />
    <glyph glyph-name="d" unicode="d" horiz-adv-x="635" 
d="M455 560v200h120v-600q0 -82 -38.5 -121t-121.5 -39h-200q-83 0 -121.5 39t-38.5 121v240q0 82 38.5 121t121.5 39h240zM215 112h200q40 0 40 48v288h-240q-40 0 -40 -48v-240q0 -48 40 -48z" />
    <glyph glyph-name="e" unicode="e" 
d="M215 560h200q83 0 121.5 -39t38.5 -121v-166h-400v-74q0 -48 40 -48h200q40 0 40 48v40h120v-40q0 -82 -38.5 -121t-121.5 -39h-200q-83 0 -121.5 39t-38.5 121v240q0 82 38.5 121t121.5 39zM175 326h280v74q0 48 -40 48h-200q-40 0 -40 -48v-74z" />
    <glyph glyph-name="f" unicode="f" horiz-adv-x="415" 
d="M380 648h-180q-12 0 -16 -6t-4 -22v-60h180v-112h-180v-448h-120v620q0 75 32.5 107.5t107.5 32.5h180v-112z" />
    <glyph glyph-name="g" unicode="g" horiz-adv-x="590" 
d="M180 142l240 -60q68 -17 108 -41q52 -29 52 -101q0 -82 -39 -121t-121 -39h-200q-82 0 -121 39t-39 121v460q0 82 39 121t121 39h160q82 0 121 -39t39 -121v-50q0 -150 -160 -150h-200v-58zM180 400v-108h200q22 0 31 13.5t9 44.5v50q0 48 -40 48h-160q-40 0 -40 -48z
M220 -108h200q40 0 40 48q0 14 -1.5 20t-10.5 13.5t-28 14.5l-240 60v-108q0 -48 40 -48z" />
    <glyph glyph-name="h" unicode="h" horiz-adv-x="640" 
d="M180 448v-448h-120v760h120v-200h240q82 0 121 -39t39 -121v-400h-120v400q0 48 -40 48h-240z" />
    <glyph glyph-name="i" unicode="i" horiz-adv-x="240" 
d="M180 0h-120v560h120v-560zM63 766q24 24 57 24t56 -24q24 -23 24 -56t-24 -57q-23 -23 -56 -23t-57 23q-23 24 -23 57t23 56z" />
    <glyph glyph-name="j" unicode="j" horiz-adv-x="240" 
d="M63 766q24 24 57 24t56 -24q24 -23 24 -56t-24 -57q-23 -23 -56 -23t-57 23q-23 24 -23 57t23 56zM60 -60v620h120v-620q0 -75 -32.5 -107.5t-107.5 -32.5h-100v112h100q20 0 20 28z" />
    <glyph glyph-name="k" unicode="k" horiz-adv-x="610" 
d="M600 560l-169 -280l169 -280h-140l-135 224h-145v-224h-120v760h120v-424h145l135 224h140z" />
    <glyph glyph-name="l" unicode="l" horiz-adv-x="320" 
d="M180 760v-620q0 -16 4 -22t16 -6h100v-112h-100q-75 0 -107.5 32.5t-32.5 107.5v620h120z" />
    <glyph glyph-name="m" unicode="m" horiz-adv-x="920" 
d="M560 560h140q82 0 121 -39t39 -121v-400h-120v400q0 48 -40 48h-140q-40 0 -40 -48v-400h-120v400q0 48 -40 48h-140q-40 0 -40 -48v-400h-120v400q0 82 39 121t121 39h140q35 0 59.5 -14t30.5 -31l5 -15h10q0 2 1.5 6.5t7.5 14.5t15.5 18t28 14.5t42.5 6.5z" />
    <glyph glyph-name="n" unicode="n" horiz-adv-x="640" 
d="M580 0h-120v400q0 48 -40 48h-200q-40 0 -40 -48v-400h-120v400q0 82 39 121t121 39h200q82 0 121 -39t39 -121v-400z" />
    <glyph glyph-name="o" unicode="o" 
d="M215 560h200q83 0 121.5 -39t38.5 -121v-240q0 -82 -38.5 -121t-121.5 -39h-200q-83 0 -121.5 39t-38.5 121v240q0 82 38.5 121t121.5 39zM455 160v240q0 48 -40 48h-200q-40 0 -40 -48v-240q0 -48 40 -48h200q40 0 40 48z" />
    <glyph glyph-name="p" unicode="p" horiz-adv-x="635" 
d="M180 0v-200h-120v600q0 82 39 121t121 39h200q82 0 121 -39t39 -121v-240q0 -82 -39 -121t-121 -39h-240zM420 448h-200q-40 0 -40 -48v-288h240q40 0 40 48v240q0 48 -40 48z" />
    <glyph glyph-name="q" unicode="q" horiz-adv-x="635" 
d="M575 -200h-120v200h-240q-83 0 -121.5 39t-38.5 121v240q0 82 38.5 121t121.5 39h200q83 0 121.5 -39t38.5 -121v-600zM415 448h-200q-40 0 -40 -48v-240q0 -48 40 -48h240v288q0 48 -40 48z" />
    <glyph glyph-name="r" unicode="r" horiz-adv-x="400" 
d="M220 560h160v-112h-160q-40 0 -40 -48v-400h-120v400q0 82 39 121t121 39z" />
    <glyph glyph-name="s" unicode="s" horiz-adv-x="620" 
d="M570 160q0 -82 -39 -121t-121 -39h-200q-82 0 -121 39t-39 121v40h120v-40q0 -48 40 -48h200q40 0 40 48q0 14 -1.5 20t-10.5 13.5t-28 14.5l-200 50q-67 17 -109 40q-51 31 -51 102q0 82 39 121t121 39h200q82 0 121 -39t39 -121v-40h-120v40q0 48 -40 48h-200
q-40 0 -40 -48q0 -14 1.5 -20t10.5 -13.5t28 -14.5l200 -50q68 -17 108 -41q52 -29 52 -101z" />
    <glyph glyph-name="t" unicode="t" horiz-adv-x="415" 
d="M200 112h180v-112h-180q-75 0 -107.5 32.5t-32.5 107.5v520h120v-100h180v-112h-180v-308q0 -16 4 -22t16 -6z" />
    <glyph glyph-name="u" unicode="u" horiz-adv-x="640" 
d="M460 160v400h120v-400q0 -82 -39 -121t-121 -39h-200q-82 0 -121 39t-39 121v400h120v-400q0 -48 40 -48h200q40 0 40 48z" />
    <glyph glyph-name="v" unicode="v" horiz-adv-x="605" 
d="M137 560l160 -448h10l160 448h128l-200 -560h-185l-200 560h127z" />
    <glyph glyph-name="w" unicode="w" horiz-adv-x="905" 
d="M659 112l103 448h123l-128 -560h-197l-103 448h-10l-102 -448h-197l-128 560h123l103 -448h10l102 448h189l102 -448h10z" />
    <glyph glyph-name="x" unicode="x" horiz-adv-x="580" 
d="M570 560l-169 -280l169 -280h-140l-135 224h-10l-135 -224h-140l169 280l-169 280h140l135 -224h10l135 224h140z" />
    <glyph glyph-name="y" unicode="y" horiz-adv-x="605" 
d="M307 112l160 448h128l-272 -760h-127l71 200h-57l-200 560h127l160 -448h10z" />
    <glyph glyph-name="z" unicode="z" horiz-adv-x="610" 
d="M565 560v-183l-400 -255v-10h400v-112h-520v182l400 256v10h-400v112h520z" />
    <glyph glyph-name="braceleft" unicode="{" horiz-adv-x="380" 
d="M220 600v-240q0 -35 -14 -59.5t-31 -30.5l-15 -5v-10q2 0 6.5 -1.5t14.5 -7.5t18 -15.5t14.5 -28t6.5 -42.5v-240q0 -48 40 -48h100v-112h-100q-82 0 -121 39t-39 121v240q0 23 -9 33.5t-31 10.5h-50v112h50q22 0 31 10.5t9 33.5v240q0 82 39 121t121 39h100v-112h-100
q-40 0 -40 -48z" />
    <glyph glyph-name="bar" unicode="|" horiz-adv-x="200" 
d="M140 -240h-80v1040h80v-1040z" />
    <glyph glyph-name="braceright" unicode="}" horiz-adv-x="380" 
d="M160 360v240q0 48 -40 48h-100v112h100q82 0 121 -39t39 -121v-240q0 -23 9 -33.5t31 -10.5h50v-112h-50q-22 0 -31 -10.5t-9 -33.5v-240q0 -82 -39 -121t-121 -39h-100v112h100q40 0 40 48v240q0 35 14 59.5t31 30.5l15 5v10q-2 0 -6.5 1.5t-14.5 7.5t-18 15.5t-14.5 28
t-6.5 42.5z" />
    <glyph glyph-name="asciitilde" unicode="~" horiz-adv-x="580" 
d="M410 364v56h120v-56q0 -75 -32.5 -107.5t-107.5 -32.5h-200q-12 0 -16 -6t-4 -22v-56h-120v56q0 75 32.5 107.5t107.5 32.5h200q20 0 20 28z" />
    <glyph glyph-name="uni00A0" unicode="&#xa0;" horiz-adv-x="320" 
 />
    <glyph glyph-name="exclamdown" unicode="&#xa1;" horiz-adv-x="240" 
d="M180 -160h-120v500h120v-500zM63 546q24 24 57 24t56 -24q24 -23 24 -56t-24 -57q-23 -23 -56 -23t-57 23q-23 24 -23 57t23 56z" />
    <glyph glyph-name="cent" unicode="&#xa2;" horiz-adv-x="625" 
d="M575 480v-40h-120v40q0 48 -40 48h-200q-40 0 -40 -48v-240q0 -48 40 -48h200q40 0 40 48v40h120v-40q0 -82 -38.5 -121t-121.5 -39h-40v-80h-120v80h-40q-83 0 -121.5 39t-38.5 121v240q0 82 38.5 121t121.5 39h40v80h120v-80h40q83 0 121.5 -39t38.5 -121z" />
    <glyph glyph-name="sterling" unicode="&#xa3;" horiz-adv-x="720" 
d="M670 560v-80h-120v80q0 48 -40 48h-240q-40 0 -40 -48v-139h160v-112h-160v-197h440v-112h-640v112h80v197h-80v112h80v139q0 82 39 121t121 39h240q82 0 121 -39t39 -121z" />
    <glyph glyph-name="currency" unicode="&#xa4;" horiz-adv-x="600" 
d="M485 260l65 -65l-85 -85l-65 65q-100 -52 -200 0l-65 -65l-85 85l65 65q-52 100 0 200l-65 65l85 85l65 -65q100 52 200 0l65 65l85 -85l-65 -65q52 -100 0 -200zM236 424q-26 -26 -26 -64t26 -64t64 -26t64 26t26 64t-26 64t-64 26t-64 -26z" />
    <glyph glyph-name="yen" unicode="&#xa5;" horiz-adv-x="664" 
d="M517 720h137l-180 -328h68v-72h-420v72h68l-180 328h137l180 -328h10zM272 172h-150v72h420v-72h-150v-172h-120v172z" />
    <glyph glyph-name="brokenbar" unicode="&#xa6;" horiz-adv-x="200" 
d="M140 -160h-80v320h80v-320zM60 400v320h80v-320h-80z" />
    <glyph glyph-name="section" unicode="&#xa7;" horiz-adv-x="620" 
d="M570 560v-40h-120v40q0 48 -40 48h-200q-40 0 -40 -48q0 -14 1.5 -20t10.5 -13.5t28 -14.5l200 -50q68 -17 108 -41q52 -29 52 -101v-60h-120v60q0 14 -1.5 20t-10.5 13.5t-28 14.5l-200 50q-67 17 -109 40q-51 31 -51 102q0 82 39 121t121 39h200q82 0 121 -39t39 -121z
M210 272l200 -50q68 -17 108 -41q52 -29 52 -101q0 -82 -39 -121t-121 -39h-200q-82 0 -121 39t-39 121v40h120v-40q0 -48 40 -48h200q40 0 40 48q0 14 -1.5 20t-10.5 13.5t-28 14.5l-200 50q-67 17 -109 40q-51 31 -51 102v60h120v-60q0 -14 1.5 -20t10.5 -13.5t28 -14.5z
" />
    <glyph glyph-name="dieresis" unicode="&#xa8;" horiz-adv-x="420" 
d="M250 749q21 21 50 21t49 -21q21 -20 21 -49t-21 -50q-20 -20 -49 -20t-50 20q-20 21 -20 50t20 49zM70 749q21 21 50 21t49 -21q21 -20 21 -49t-21 -50q-20 -20 -49 -20t-50 20q-20 21 -20 50t20 49z" />
    <glyph glyph-name="copyright" unicode="&#xa9;" horiz-adv-x="800" 
d="M360 540h80q68 0 94 -26t26 -94v-30h-80v30q0 28 -8 38t-32 10h-80q-24 0 -32 -10t-8 -38v-120q0 -28 8 -38t32 -10h80q24 0 32 10t8 38v30h80v-30q0 -68 -26 -94t-94 -26h-80q-68 0 -94 26t-26 94v120q0 68 26 94t94 26zM152 607q103 103 248 103t247 -103
q103 -102 103 -247t-103 -248q-102 -102 -247 -102q-144 0 -248 102q-102 104 -102 248q0 145 102 247zM209 169q79 -79 191 -79t191 79t79 191t-79 191t-191 79t-191 -79t-79 -191t79 -191z" />
    <glyph glyph-name="ordfeminine" unicode="&#xaa;" horiz-adv-x="425" 
d="M170 720h80q66 0 93 -25t27 -85v-130q0 -68 -26 -94t-94 -26h-80q-66 0 -93 25t-27 85q0 38 25 54t95 33l120 30v23q0 22 -8 30t-32 8h-80q-24 0 -32 -10t-8 -38v-30h-80v30q0 68 26 94t94 26zM290 480v53l-120 -30q-26 -6 -33 -12.5t-7 -20.5q0 -22 8 -30t32 -8h80
q24 0 32 10t8 38z" />
    <glyph glyph-name="guillemotleft" unicode="&#xab;" horiz-adv-x="670" 
d="M200 480h150l-150 -200l150 -200h-150l-150 200zM470 480h150l-150 -200l150 -200h-150l-150 200z" />
    <glyph glyph-name="logicalnot" unicode="&#xac;" horiz-adv-x="580" 
d="M50 278v112h480v-220h-120v108h-360z" />
    <glyph glyph-name="uni00AD" unicode="&#xad;" horiz-adv-x="400" 
d="M50 336h300v-112h-300v112z" />
    <glyph glyph-name="registered" unicode="&#xae;" horiz-adv-x="800" 
d="M250 540h200q66 0 93 -25t27 -85v-30q0 -50 -17 -75t-58 -32l63 -113h-92l-61 110h-75v-110h-80v360zM490 400v30q0 22 -8 30t-32 8h-120v-106h120q24 0 32 8t8 30zM152 607q103 103 248 103t247 -103q103 -102 103 -247t-103 -248q-102 -102 -247 -102q-144 0 -248 102
q-102 104 -102 248q0 145 102 247zM209 169q79 -79 191 -79t191 79t79 191t-79 191t-191 79t-191 -79t-79 -191t79 -191z" />
    <glyph glyph-name="overscore" unicode="&#xaf;" horiz-adv-x="360" 
d="M310 640h-260v72h260v-72z" />
    <glyph glyph-name="degree" unicode="&#xb0;" horiz-adv-x="480" 
d="M105 674q56 56 135 56q78 0 134 -56t56 -134q0 -79 -56 -135q-55 -55 -134 -55q-80 0 -135 55t-55 135q0 79 55 134zM162 462q32 -32 78 -32t78 32t32 78t-32 78t-78 32t-78 -32t-32 -78t32 -78z" />
    <glyph glyph-name="plusminus" unicode="&#xb1;" horiz-adv-x="580" 
d="M530 40h-480v112h480v-112zM350 520v-114h180v-112h-180v-114h-120v114h-180v112h180v114h120z" />
    <glyph glyph-name="twosuperior" unicode="&#xb2;" horiz-adv-x="425" 
d="M255 513l-80 -20q-29 -7 -34.5 -13t-5.5 -30v-18h240v-72h-320v90q0 46 25 62q26 19 95 35l80 20q29 7 34.5 13t5.5 30q0 22 -8 30t-32 8h-80q-24 0 -32 -10t-8 -38v-30h-80v30q0 68 26.5 94t93.5 26h80q66 0 93 -25t27 -85q0 -45 -26 -63q-28 -18 -94 -34z" />
    <glyph glyph-name="threesuperior" unicode="&#xb3;" horiz-adv-x="425" 
d="M330 545v-10q2 0 4.5 -1t9.5 -5t12 -10t9.5 -19t4.5 -30q0 -60 -27 -85t-93 -25h-80q-68 0 -94 26t-26 94v10h80v-10q0 -28 8 -38t32 -10h80q24 0 32 8t8 30q0 20 -8 27t-32 7h-90v72h90q24 0 32 7t8 27q0 22 -8 30t-32 8h-80q-24 0 -32 -10t-8 -38v-10h-80v10
q0 68 26 94t94 26h80q66 0 93 -25t27 -85q0 -25 -9.5 -42t-20.5 -20z" />
    <glyph glyph-name="acute" unicode="&#xb4;" horiz-adv-x="330" 
d="M157 800h123l-143 -160h-87z" />
    <glyph glyph-name="mu" unicode="&#xb5;" horiz-adv-x="640" 
d="M460 160v400h120v-400q0 -82 -39 -121t-121 -39h-240v-160h-120v720h120v-448h240q40 0 40 48z" />
    <glyph glyph-name="paragraph" unicode="&#xb6;" horiz-adv-x="580" 
d="M440 -120v840h80v-840h-80zM40 360v200q0 82 39 121t121 39h120v-840h-80v320h-40q-82 0 -121 39t-39 121z" />
    <glyph glyph-name="middot" unicode="&#xb7;" horiz-adv-x="260" 
d="M73 336q24 24 57 24t56 -24q24 -23 24 -56t-24 -57q-23 -23 -56 -23t-57 23q-23 24 -23 57t23 56z" />
    <glyph glyph-name="cedilla" unicode="&#xb8;" horiz-adv-x="360" 
d="M190 -40h40q45 0 62.5 -17.5t17.5 -62.5v-40q0 -45 -17.5 -62.5t-62.5 -17.5h-180v72h170q10 0 10 18v20q0 18 -10 18h-110v112h80v-40z" />
    <glyph glyph-name="onesuperior" unicode="&#xb9;" horiz-adv-x="240" 
d="M20 648v72h160v-360h-80v288h-80z" />
    <glyph glyph-name="ordmasculine" unicode="&#xba;" horiz-adv-x="430" 
d="M175 720h80q67 0 93.5 -26t26.5 -94v-120q0 -68 -26.5 -94t-93.5 -26h-80q-67 0 -93.5 26t-26.5 94v120q0 68 26.5 94t93.5 26zM295 480v120q0 28 -8 38t-32 10h-80q-24 0 -32 -10t-8 -38v-120q0 -28 8 -38t32 -10h80q24 0 32 10t8 38z" />
    <glyph glyph-name="guillemotright" unicode="&#xbb;" horiz-adv-x="670" 
d="M470 280l-150 200h150l150 -200l-150 -200h-150zM200 280l-150 200h150l150 -200l-150 -200h-150z" />
    <glyph glyph-name="onequarter" unicode="&#xbc;" horiz-adv-x="685" 
d="M180 360h-80v288h-80v72h160v-360zM65 0l360 720h90l-360 -720h-90zM560 132v148h80v-280h-80v60h-240v105l125 195h95l-140 -218v-10h160z" />
    <glyph glyph-name="onehalf" unicode="&#xbd;" horiz-adv-x="730" 
d="M180 360h-80v288h-80v72h160v-360zM65 0l360 720h90l-360 -720h-90zM440 90v-18h240v-72h-320v90q0 46 25 62q26 19 95 35l80 20q29 7 34.5 13t5.5 30q0 22 -8 30t-32 8h-80q-24 0 -32 -10t-8 -38v-30h-80v30q0 68 26 94t94 26h80q66 0 93 -25t27 -85q0 -45 -26 -63
q-28 -18 -94 -34l-80 -20q-29 -7 -34.5 -13t-5.5 -30z" />
    <glyph glyph-name="threequarters" unicode="&#xbe;" horiz-adv-x="835" 
d="M370 470q0 -60 -27 -85t-93 -25h-80q-68 0 -94 26t-26 94v10h80v-10q0 -28 8 -38t32 -10h80q24 0 32 8t8 30q0 20 -8 27t-32 7h-90v72h90q24 0 32 7t8 27q0 22 -8 30t-32 8h-80q-24 0 -32 -10t-8 -38v-10h-80v10q0 68 26 94t94 26h80q66 0 93 -25t27 -85q0 -25 -9.5 -42
t-20.5 -20l-10 -3v-10q2 0 4.5 -1t9.5 -5t12 -10t9.5 -19t4.5 -30zM215 0l360 720h90l-360 -720h-90zM710 132v148h80v-280h-80v60h-240v105l125 195h95l-140 -218v-10h160z" />
    <glyph glyph-name="questiondown" unicode="&#xbf;" horiz-adv-x="660" 
d="M416 433q-23 -23 -56 -23t-57 23q-23 24 -23 57t23 56q24 24 57 24t56 -24q24 -23 24 -56t-24 -57zM480 -160h-280q-82 0 -121 39t-39 121v120q0 82 39 121t121 39h100v60h120v-172h-220q-40 0 -40 -48v-120q0 -48 40 -48h280q40 0 40 48v50h120v-50q0 -82 -39 -121
t-121 -39z" />
    <glyph glyph-name="Agrave" unicode="&#xc0;" horiz-adv-x="683" 
d="M304 943l106 -160h-86l-144 160h124zM247 720h189l237 -720h-127l-60 184h-289l-61 -184h-126zM336 608l-102 -312h215l-103 312h-10z" />
    <glyph glyph-name="Aacute" unicode="&#xc1;" horiz-adv-x="683" 
d="M370 783h-87l107 160h123zM10 0l237 720h189l237 -720h-127l-60 184h-289l-61 -184h-126zM234 296h215l-103 312h-10z" />
    <glyph glyph-name="Acircumflex" unicode="&#xc2;" horiz-adv-x="683" 
d="M247 720h189l237 -720h-127l-60 184h-289l-61 -184h-126zM336 608l-102 -312h215l-103 312h-10zM346 871h-10l-62 -88h-98l113 160h104l114 -160h-98z" />
    <glyph glyph-name="Atilde" unicode="&#xc3;" horiz-adv-x="683" 
d="M247 720h189l237 -720h-127l-60 184h-289l-61 -184h-126zM336 608l-102 -312h215l-103 312h-10zM264 838l-9 -25l-75 29l13 32q16 42 38.5 52.5t64.5 -5.5l109 -31q9 -3 16 13l9 25l75 -29l-13 -32q-16 -42 -38.5 -52.5t-64.5 5.5l-109 31q-9 3 -16 -13z" />
    <glyph glyph-name="Adieresis" unicode="&#xc4;" horiz-adv-x="683" 
d="M247 720h189l237 -720h-127l-60 184h-289l-61 -184h-126zM336 608l-102 -312h215l-103 312h-10zM300 810q-20 -20 -49 -20t-50 20q-20 21 -20 50t20 49q21 21 50 21t49 -21q21 -20 21 -49t-21 -50zM480 810q-20 -20 -49 -20t-50 20q-20 21 -20 50t20 49q21 21 50 21
t49 -21q21 -20 21 -49t-21 -50z" />
    <glyph glyph-name="Aring" unicode="&#xc5;" horiz-adv-x="683" 
d="M415 821q-31 -31 -74 -31t-74 31t-31 74t31 74t74 31t74 -31t31 -74t-31 -74zM341 930q-14 0 -24.5 -10.5t-10.5 -24.5t10.5 -24.5t24.5 -10.5q21 0 30 17.5t0 35t-30 17.5zM247 720h189l237 -720h-127l-60 184h-289l-61 -184h-126zM336 608l-102 -312h215l-103 312h-10z
" />
    <glyph glyph-name="AE" unicode="&#xc6;" horiz-adv-x="1072" 
d="M1027 720v-112h-440v-192h430v-112h-430v-192h440v-112h-560v184h-228l-94 -184h-135l370 720h647zM457 608l-160 -312h170v312h-10z" />
    <glyph glyph-name="Ccedilla" unicode="&#xc7;" horiz-adv-x="705" 
d="M655 560v-80h-120v80q0 48 -40 48h-280q-40 0 -40 -48v-400q0 -48 40 -48h280q40 0 40 48v80h120v-80q0 -82 -38.5 -121t-121.5 -39h-130v-40h40q45 0 62.5 -17.5t17.5 -62.5v-40q0 -45 -17.5 -62.5t-62.5 -17.5h-180v72h170q10 0 10 18v20q0 18 -10 18h-110v112h-70
q-83 0 -121.5 39t-38.5 121v400q0 82 38.5 121t121.5 39h280q83 0 121.5 -39t38.5 -121z" />
    <glyph glyph-name="Egrave" unicode="&#xc8;" horiz-adv-x="665" 
d="M620 720v-112h-440v-192h430v-112h-430v-192h440v-112h-560v720h560zM330 943l106 -160h-86l-144 160h124z" />
    <glyph glyph-name="Eacute" unicode="&#xc9;" horiz-adv-x="665" 
d="M620 720v-112h-440v-192h430v-112h-430v-192h440v-112h-560v720h560zM355 783h-87l107 160h123z" />
    <glyph glyph-name="Ecircumflex" unicode="&#xca;" horiz-adv-x="665" 
d="M620 720v-112h-440v-192h430v-112h-430v-192h440v-112h-560v720h560zM345 871h-10l-62 -88h-98l113 160h104l114 -160h-98z" />
    <glyph glyph-name="Edieresis" unicode="&#xcb;" horiz-adv-x="665" 
d="M620 720v-112h-440v-192h430v-112h-430v-192h440v-112h-560v720h560zM299 810q-20 -20 -49 -20t-50 20q-20 21 -20 50t20 49q21 21 50 21t49 -21q21 -20 21 -49t-21 -50zM479 810q-20 -20 -49 -20t-50 20q-20 21 -20 50t20 49q21 21 50 21t49 -21q21 -20 21 -49t-21 -50z
" />
    <glyph glyph-name="Igrave" unicode="&#xcc;" horiz-adv-x="240" 
d="M180 720v-720h-120v720h120zM73 943l106 -160h-86l-144 160h124z" />
    <glyph glyph-name="Iacute" unicode="&#xcd;" horiz-adv-x="240" 
d="M180 0h-120v720h120v-720zM144 783h-87l107 160h123z" />
    <glyph glyph-name="Icircumflex" unicode="&#xce;" horiz-adv-x="240" 
d="M180 0h-120v720h120v-720zM67 960h104l114 -160h-98l-63 88h-10l-62 -88h-98z" />
    <glyph glyph-name="Idieresis" unicode="&#xcf;" horiz-adv-x="240" 
d="M180 0h-120v720h120v-720zM79 909q21 -20 21 -49t-21 -50q-20 -20 -49 -20t-49 20q-21 21 -21 50t21 49q20 21 49 21t49 -21zM160 909q21 21 50 21t49 -21q21 -20 21 -49t-21 -50q-20 -20 -49 -20t-50 20q-20 21 -20 50t20 49z" />
    <glyph glyph-name="Eth" unicode="&#xd0;" horiz-adv-x="755" 
d="M100 720h440q82 0 121 -39t39 -121v-400q0 -82 -39 -121t-121 -39h-440v304h-80v112h80v304zM580 160v400q0 48 -40 48h-320v-192h190v-112h-190v-192h320q40 0 40 48z" />
    <glyph glyph-name="Ntilde" unicode="&#xd1;" horiz-adv-x="720" 
d="M540 112v608h120v-720h-208l-262 608h-10v-608h-120v720h207l263 -608h10zM310 826v-26h-80v36q0 45 17.5 62.5t62.5 17.5h90q10 0 10 18v26h80v-36q0 -45 -17.5 -62.5t-62.5 -17.5h-90q-10 0 -10 -18z" />
    <glyph glyph-name="Ograve" unicode="&#xd2;" horiz-adv-x="710" 
d="M215 720h280q83 0 121.5 -39t38.5 -121v-400q0 -82 -38.5 -121t-121.5 -39h-280q-83 0 -121.5 39t-38.5 121v400q0 82 38.5 121t121.5 39zM175 560v-400q0 -48 40 -48h280q40 0 40 48v400q0 48 -40 48h-280q-40 0 -40 -48zM330 943l106 -160h-86l-144 160h124z" />
    <glyph glyph-name="Oacute" unicode="&#xd3;" horiz-adv-x="710" 
d="M215 720h280q83 0 121.5 -39t38.5 -121v-400q0 -82 -38.5 -121t-121.5 -39h-280q-83 0 -121.5 39t-38.5 121v400q0 82 38.5 121t121.5 39zM535 160v400q0 48 -40 48h-280q-40 0 -40 -48v-400q0 -48 40 -48h280q40 0 40 48zM372 783h-87l107 160h123z" />
    <glyph glyph-name="Ocircumflex" unicode="&#xd4;" horiz-adv-x="710" 
d="M215 720h280q83 0 121.5 -39t38.5 -121v-400q0 -82 -38.5 -121t-121.5 -39h-280q-83 0 -121.5 39t-38.5 121v400q0 82 38.5 121t121.5 39zM535 160v400q0 48 -40 48h-280q-40 0 -40 -48v-400q0 -48 40 -48h280q40 0 40 48zM358 871h-10l-62 -88h-98l113 160h104l114 -160
h-98z" />
    <glyph glyph-name="Otilde" unicode="&#xd5;" horiz-adv-x="710" 
d="M215 720h280q83 0 121.5 -39t38.5 -121v-400q0 -82 -38.5 -121t-121.5 -39h-280q-83 0 -121.5 39t-38.5 121v400q0 82 38.5 121t121.5 39zM535 160v400q0 48 -40 48h-280q-40 0 -40 -48v-400q0 -48 40 -48h280q40 0 40 48zM273 838l-9 -25l-75 29l13 32q16 42 38.5 52.5
t64.5 -5.5l109 -31q9 -3 16 13l9 25l75 -29l-13 -32q-16 -42 -38.5 -52.5t-64.5 5.5l-109 31q-9 3 -16 -13z" />
    <glyph glyph-name="Odieresis" unicode="&#xd6;" horiz-adv-x="710" 
d="M215 720h280q83 0 121.5 -39t38.5 -121v-400q0 -82 -38.5 -121t-121.5 -39h-280q-83 0 -121.5 39t-38.5 121v400q0 82 38.5 121t121.5 39zM535 160v400q0 48 -40 48h-280q-40 0 -40 -48v-400q0 -48 40 -48h280q40 0 40 48zM494 810q-20 -20 -49 -20t-50 20q-20 21 -20 50
t20 49q21 21 50 21t49 -21q21 -20 21 -49t-21 -50zM314 810q-20 -20 -49 -20t-50 20q-20 21 -20 50t20 49q21 21 50 21t49 -21q21 -20 21 -49t-21 -50z" />
    <glyph glyph-name="multiply" unicode="&#xd7;" horiz-adv-x="580" 
d="M290 365l155 155l85 -85l-155 -155l155 -155l-85 -85l-155 155l-155 -155l-85 85l155 155l-155 155l85 85z" />
    <glyph glyph-name="Oslash" unicode="&#xd8;" horiz-adv-x="710" 
d="M215 720h280q83 0 121.5 -39t38.5 -121v-400q0 -82 -38.5 -121t-121.5 -39h-280q-83 0 -121.5 39t-38.5 121v400q0 82 38.5 121t121.5 39zM495 608h-280q-40 0 -40 -48v-250l360 180v70q0 48 -40 48zM215 112h280q40 0 40 48v250l-360 -180v-70q0 -48 40 -48z" />
    <glyph glyph-name="Ugrave" unicode="&#xd9;" horiz-adv-x="720" 
d="M60 720h120v-560q0 -48 40 -48h280q40 0 40 48v560h120v-560q0 -82 -39 -121t-121 -39h-280q-82 0 -121 39t-39 121v560zM332 943l106 -160h-86l-144 160h124z" />
    <glyph glyph-name="Uacute" unicode="&#xda;" horiz-adv-x="720" 
d="M540 160v560h120v-560q0 -82 -39 -121t-121 -39h-280q-82 0 -121 39t-39 121v560h120v-560q0 -48 40 -48h280q40 0 40 48zM372 783h-87l107 160h123z" />
    <glyph glyph-name="Ucircumflex" unicode="&#xdb;" horiz-adv-x="720" 
d="M540 160v560h120v-560q0 -82 -39 -121t-121 -39h-280q-82 0 -121 39t-39 121v560h120v-560q0 -48 40 -48h280q40 0 40 48zM364 888h-10l-62 -88h-98l113 160h104l115 -160h-99z" />
    <glyph glyph-name="Udieresis" unicode="&#xdc;" horiz-adv-x="720" 
d="M540 160v560h120v-560q0 -82 -39 -121t-121 -39h-280q-82 0 -121 39t-39 121v560h120v-560q0 -48 40 -48h280q40 0 40 48zM499 810q-20 -20 -49 -20t-50 20q-20 21 -20 50t20 49q21 21 50 21t49 -21q21 -20 21 -49t-21 -50zM319 810q-20 -20 -49 -20t-50 20
q-20 21 -20 50t20 49q21 21 50 21t49 -21q21 -20 21 -49t-21 -50z" />
    <glyph glyph-name="Yacute" unicode="&#xdd;" horiz-adv-x="664" 
d="M337 392l180 328h137l-262 -477v-243h-120v243l-262 477h137l180 -328h10zM348 783h-87l107 160h123z" />
    <glyph glyph-name="Thorn" unicode="&#xde;" horiz-adv-x="700" 
d="M180 600h320q82 0 121 -39t39 -121v-160q0 -82 -39 -121t-121 -39h-320v-120h-120v720h120v-120zM540 280v160q0 48 -40 48h-320v-256h320q40 0 40 48z" />
    <glyph glyph-name="germandbls" unicode="&#xdf;" horiz-adv-x="635" 
d="M580 560v-100q0 -35 -14 -59.5t-31 -30.5l-15 -5v-10q2 0 6.5 -1.5t14.5 -7.5t18 -15.5t14.5 -28t6.5 -42.5v-100q0 -82 -39 -121t-121 -39h-160v112h160q40 0 40 48v100q0 23 -9 33.5t-31 10.5h-110v112h110q22 0 31 10.5t9 33.5v100q0 48 -40 48h-200q-40 0 -40 -48
v-560h-120v560q0 82 39 121t121 39h200q82 0 121 -39t39 -121z" />
    <glyph glyph-name="agrave" unicode="&#xe0;" horiz-adv-x="625" 
d="M210 560h200q82 0 121 -39t39 -121v-240q0 -82 -39 -121t-121 -39h-200q-82 0 -121 39t-39 121q0 72 51 101q41 24 109 41l240 60v38q0 48 -40 48h-200q-40 0 -40 -48v-40h-120v40q0 82 39 121t121 39zM450 160v108l-240 -60q-26 -6 -33 -16t-7 -32q0 -48 40 -48h200
q40 0 40 48zM301 787l107 -160h-87l-143 160h123z" />
    <glyph glyph-name="aacute" unicode="&#xe1;" horiz-adv-x="625" 
d="M210 560h200q82 0 121 -39t39 -121v-240q0 -82 -39 -121t-121 -39h-200q-82 0 -121 39t-39 121q0 72 51 101q41 24 109 41l240 60v38q0 48 -40 48h-200q-40 0 -40 -48v-40h-120v40q0 82 39 121t121 39zM450 160v108l-240 -60q-26 -6 -33 -16t-7 -32q0 -48 40 -48h200
q40 0 40 48zM356 788h123l-143 -160h-87z" />
    <glyph glyph-name="acircumflex" unicode="&#xe2;" horiz-adv-x="625" 
d="M210 560h200q82 0 121 -39t39 -121v-240q0 -82 -39 -121t-121 -39h-200q-82 0 -121 39t-39 121q0 72 51 101q41 24 109 41l240 60v38q0 48 -40 48h-200q-40 0 -40 -48v-40h-120v40q0 82 39 121t121 39zM450 160v108l-240 -60q-26 -6 -33 -16t-7 -32q0 -48 40 -48h200
q40 0 40 48zM331 715h-10l-62 -88h-98l113 160h104l115 -160h-99z" />
    <glyph glyph-name="atilde" unicode="&#xe3;" horiz-adv-x="625" 
d="M210 560h200q82 0 121 -39t39 -121v-240q0 -82 -39 -121t-121 -39h-200q-82 0 -121 39t-39 121q0 72 51 101q41 24 109 41l240 60v38q0 48 -40 48h-200q-40 0 -40 -48v-40h-120v40q0 82 39 121t121 39zM450 160v108l-240 -60q-26 -6 -33 -16t-7 -32q0 -48 40 -48h200
q40 0 40 48zM247 674l-9 -25l-75 29l13 32q16 42 38.5 52.5t64.5 -5.5l109 -31q9 -3 16 13l9 25l75 -29l-13 -32q-16 -42 -38.5 -52.5t-64.5 5.5l-109 31q-9 3 -16 -13z" />
    <glyph glyph-name="adieresis" unicode="&#xe4;" horiz-adv-x="625" 
d="M210 560h200q82 0 121 -39t39 -121v-240q0 -82 -39 -121t-121 -39h-200q-82 0 -121 39t-39 121q0 72 51 101q41 24 109 41l240 60v38q0 48 -40 48h-200q-40 0 -40 -48v-40h-120v40q0 82 39 121t121 39zM450 160v108l-240 -60q-26 -6 -33 -16t-7 -32q0 -48 40 -48h200
q40 0 40 48zM269 650q-20 -20 -49 -20t-50 20q-20 21 -20 50t20 49q21 21 50 21t49 -21q21 -20 21 -49t-21 -50zM449 650q-20 -20 -49 -20t-50 20q-20 21 -20 50t20 49q21 21 50 21t49 -21q21 -20 21 -49t-21 -50z" />
    <glyph glyph-name="aring" unicode="&#xe5;" horiz-adv-x="625" 
d="M210 560h200q82 0 121 -39t39 -121v-240q0 -82 -39 -121t-121 -39h-200q-82 0 -121 39t-39 121q0 72 51 101q41 24 109 41l240 60v38q0 48 -40 48h-200q-40 0 -40 -48v-40h-120v40q0 82 39 121t121 39zM450 160v108l-240 -60q-26 -6 -33 -16t-7 -32q0 -48 40 -48h200
q40 0 40 48zM384 661q-30 -31 -74 -31t-75 31q-30 31 -30 74t30 74q31 31 75 31t74 -31q31 -31 31 -74t-31 -74zM334 759q-14 16 -33 9.5t-24.5 -24.5t8.5 -34q20 -22 45 -2q22 17 13 39q-3 7 -9 12z" />
    <glyph glyph-name="ae" unicode="&#xe6;" horiz-adv-x="1025" 
d="M970 400v-166h-400v-74q0 -48 40 -48h200q40 0 40 48v40h120v-40q0 -82 -39 -121t-121 -39h-200q-35 0 -59.5 14t-30.5 31l-5 15h-10q0 -2 -1.5 -6.5t-7.5 -14.5t-15.5 -18t-28 -14.5t-42.5 -6.5h-200q-82 0 -121 39t-39 121q0 72 51 101q41 24 109 41l240 60v38
q0 48 -40 48h-200q-40 0 -40 -48v-40h-120v40q0 82 39 121t121 39h200q35 0 59.5 -14t30.5 -31l5 -15h10q0 2 1.5 6.5t7.5 14.5t15.5 18t28 14.5t42.5 6.5h200q82 0 121 -39t39 -121zM570 400v-74h280v74q0 48 -40 48h-200q-40 0 -40 -48zM450 160v108l-240 -60
q-26 -6 -33 -16t-7 -32q0 -48 40 -48h200q40 0 40 48z" />
    <glyph glyph-name="ccedilla" unicode="&#xe7;" horiz-adv-x="625" 
d="M575 400v-40h-120v40q0 48 -40 48h-200q-40 0 -40 -48v-240q0 -48 40 -48h200q40 0 40 48v40h120v-40q0 -82 -38.5 -121t-121.5 -39h-90v-40h40q45 0 62.5 -17.5t17.5 -62.5v-40q0 -45 -17.5 -62.5t-62.5 -17.5h-180v72h170q10 0 10 18v20q0 18 -10 18h-110v112h-30
q-83 0 -121.5 39t-38.5 121v240q0 82 38.5 121t121.5 39h200q83 0 121.5 -39t38.5 -121z" />
    <glyph glyph-name="egrave" unicode="&#xe8;" 
d="M575 400v-166h-400v-74q0 -48 40 -48h200q40 0 40 48v40h120v-40q0 -82 -38.5 -121t-121.5 -39h-200q-83 0 -121.5 39t-38.5 121v240q0 82 38.5 121t121.5 39h200q83 0 121.5 -39t38.5 -121zM175 400v-74h280v74q0 48 -40 48h-200q-40 0 -40 -48zM288 787l107 -160h-87
l-143 160h123z" />
    <glyph glyph-name="eacute" unicode="&#xe9;" 
d="M575 400v-166h-400v-74q0 -48 40 -48h200q40 0 40 48v40h120v-40q0 -82 -38.5 -121t-121.5 -39h-200q-83 0 -121.5 39t-38.5 121v240q0 82 38.5 121t121.5 39h200q83 0 121.5 -39t38.5 -121zM175 400v-74h280v74q0 48 -40 48h-200q-40 0 -40 -48zM355 788h123l-143 -160
h-87z" />
    <glyph glyph-name="ecircumflex" unicode="&#xea;" 
d="M575 400v-166h-400v-74q0 -48 40 -48h200q40 0 40 48v40h120v-40q0 -82 -38.5 -121t-121.5 -39h-200q-83 0 -121.5 39t-38.5 121v240q0 82 38.5 121t121.5 39h200q83 0 121.5 -39t38.5 -121zM175 400v-74h280v74q0 48 -40 48h-200q-40 0 -40 -48zM320 715h-10l-62 -88
h-98l113 160h104l115 -160h-99z" />
    <glyph glyph-name="edieresis" unicode="&#xeb;" 
d="M575 400v-166h-400v-74q0 -48 40 -48h200q40 0 40 48v40h120v-40q0 -82 -38.5 -121t-121.5 -39h-200q-83 0 -121.5 39t-38.5 121v240q0 82 38.5 121t121.5 39h200q83 0 121.5 -39t38.5 -121zM175 400v-74h280v74q0 48 -40 48h-200q-40 0 -40 -48zM274 650
q-20 -20 -49 -20t-50 20q-20 21 -20 50t20 49q21 21 50 21t49 -21q21 -20 21 -49t-21 -50zM454 650q-20 -20 -49 -20t-50 20q-20 21 -20 50t20 49q21 21 50 21t49 -21q21 -20 21 -49t-21 -50z" />
    <glyph glyph-name="igrave" unicode="&#xec;" horiz-adv-x="240" 
d="M180 560v-560h-120v560h120zM69 787l107 -160h-87l-143 160h123z" />
    <glyph glyph-name="iacute" unicode="&#xed;" horiz-adv-x="240" 
d="M180 0h-120v560h120v-560zM163 788h123l-143 -160h-87z" />
    <glyph glyph-name="icircumflex" unicode="&#xee;" horiz-adv-x="240" 
d="M180 0h-120v560h120v-560zM67 800h104l114 -160h-98l-63 88h-10l-62 -88h-98z" />
    <glyph glyph-name="idieresis" unicode="&#xef;" horiz-adv-x="240" 
d="M180 0h-120v560h120v-560zM79 749q21 -20 21 -49t-21 -50q-20 -20 -49 -20t-49 20q-21 21 -21 50t21 49q20 21 49 21t49 -21zM160 749q21 21 50 21t49 -21q21 -20 21 -49t-21 -50q-20 -20 -49 -20t-50 20q-20 21 -20 50t20 49z" />
    <glyph glyph-name="eth" unicode="&#xf0;" 
d="M335 720h80q83 0 121.5 -39t38.5 -121v-400q0 -82 -38.5 -121t-121.5 -39h-200q-83 0 -121.5 39t-38.5 121v160q0 82 38.5 121t121.5 39h240v80q0 48 -40 48h-80v-80h-80v80h-120v112h120v80h80v-80zM455 160v208h-240q-40 0 -40 -48v-160q0 -48 40 -48h200q40 0 40 48z
" />
    <glyph glyph-name="ntilde" unicode="&#xf1;" horiz-adv-x="640" 
d="M220 560h200q82 0 121 -39t39 -121v-400h-120v400q0 48 -40 48h-200q-40 0 -40 -48v-400h-120v400q0 82 39 121t121 39zM270 666v-26h-80v36q0 45 17.5 62.5t62.5 17.5h90q10 0 10 18v26h80v-36q0 -45 -17.5 -62.5t-62.5 -17.5h-90q-10 0 -10 -18z" />
    <glyph glyph-name="ograve" unicode="&#xf2;" 
d="M215 560h200q83 0 121.5 -39t38.5 -121v-240q0 -82 -38.5 -121t-121.5 -39h-200q-83 0 -121.5 39t-38.5 121v240q0 82 38.5 121t121.5 39zM455 160v240q0 48 -40 48h-200q-40 0 -40 -48v-240q0 -48 40 -48h200q40 0 40 48zM284 787l107 -160h-87l-143 160h123z" />
    <glyph glyph-name="oacute" unicode="&#xf3;" 
d="M215 560h200q83 0 121.5 -39t38.5 -121v-240q0 -82 -38.5 -121t-121.5 -39h-200q-83 0 -121.5 39t-38.5 121v240q0 82 38.5 121t121.5 39zM175 400v-240q0 -48 40 -48h200q40 0 40 48v240q0 48 -40 48h-200q-40 0 -40 -48zM353 788h123l-143 -160h-87z" />
    <glyph glyph-name="ocircumflex" unicode="&#xf4;" 
d="M215 560h200q83 0 121.5 -39t38.5 -121v-240q0 -82 -38.5 -121t-121.5 -39h-200q-83 0 -121.5 39t-38.5 121v240q0 82 38.5 121t121.5 39zM455 160v240q0 48 -40 48h-200q-40 0 -40 -48v-240q0 -48 40 -48h200q40 0 40 48zM319 715h-10l-62 -88h-98l113 160h104l115 -160
h-99z" />
    <glyph glyph-name="otilde" unicode="&#xf5;" 
d="M215 560h200q83 0 121.5 -39t38.5 -121v-240q0 -82 -38.5 -121t-121.5 -39h-200q-83 0 -121.5 39t-38.5 121v240q0 82 38.5 121t121.5 39zM455 160v240q0 48 -40 48h-200q-40 0 -40 -48v-240q0 -48 40 -48h200q40 0 40 48zM245 674l-9 -25l-75 29l13 32q16 42 38.5 52.5
t64.5 -5.5l109 -31q9 -3 16 13l9 25l75 -29l-13 -32q-16 -42 -38.5 -52.5t-64.5 5.5l-109 31q-9 3 -16 -13z" />
    <glyph glyph-name="odieresis" unicode="&#xf6;" 
d="M215 560h200q83 0 121.5 -39t38.5 -121v-240q0 -82 -38.5 -121t-121.5 -39h-200q-83 0 -121.5 39t-38.5 121v240q0 82 38.5 121t121.5 39zM455 160v240q0 48 -40 48h-200q-40 0 -40 -48v-240q0 -48 40 -48h200q40 0 40 48zM274 650q-20 -20 -49 -20t-50 20q-20 21 -20 50
t20 49q21 21 50 21t49 -21q21 -20 21 -49t-21 -50zM454 650q-20 -20 -49 -20t-50 20q-20 21 -20 50t20 49q21 21 50 21t49 -21q21 -20 21 -49t-21 -50z" />
    <glyph glyph-name="divide" unicode="&#xf7;" horiz-adv-x="580" 
d="M50 224v112h480v-112h-480zM233 166q24 24 57 24t56 -24q24 -23 24 -56t-24 -57q-23 -23 -56 -23t-57 23q-23 24 -23 57t23 56zM346 393q-23 -23 -56 -23t-57 23q-23 24 -23 57t23 56q24 24 57 24t56 -24q24 -23 24 -56t-24 -57z" />
    <glyph glyph-name="oslash" unicode="&#xf8;" 
d="M215 560h200q83 0 121.5 -39t38.5 -121v-240q0 -82 -38.5 -121t-121.5 -39h-200q-83 0 -121.5 39t-38.5 121v240q0 82 38.5 121t121.5 39zM415 448h-200q-40 0 -40 -48v-150l280 140v10q0 48 -40 48zM215 112h200q40 0 40 48v150l-280 -140v-10q0 -48 40 -48z" />
    <glyph glyph-name="ugrave" unicode="&#xf9;" horiz-adv-x="640" 
d="M460 160v400h120v-400q0 -82 -39 -121t-121 -39h-200q-82 0 -121 39t-39 121v400h120v-400q0 -48 40 -48h200q40 0 40 48zM285 787l107 -160h-87l-143 160h123z" />
    <glyph glyph-name="uacute" unicode="&#xfa;" horiz-adv-x="640" 
d="M60 560h120v-400q0 -48 40 -48h200q40 0 40 48v400h120v-400q0 -82 -39 -121t-121 -39h-200q-82 0 -121 39t-39 121v400zM353 788h123l-143 -160h-87z" />
    <glyph glyph-name="ucircumflex" unicode="&#xfb;" horiz-adv-x="640" 
d="M460 160v400h120v-400q0 -82 -39 -121t-121 -39h-200q-82 0 -121 39t-39 121v400h120v-400q0 -48 40 -48h200q40 0 40 48zM324 728h-10l-62 -88h-98l113 160h104l115 -160h-99z" />
    <glyph glyph-name="udieresis" unicode="&#xfc;" horiz-adv-x="640" 
d="M460 160v400h120v-400q0 -82 -39 -121t-121 -39h-200q-82 0 -121 39t-39 121v400h120v-400q0 -48 40 -48h200q40 0 40 48zM279 650q-20 -20 -49 -20t-50 20q-20 21 -20 50t20 49q21 21 50 21t49 -21q21 -20 21 -49t-21 -50zM459 650q-20 -20 -49 -20t-50 20
q-20 21 -20 50t20 49q21 21 50 21t49 -21q21 -20 21 -49t-21 -50z" />
    <glyph glyph-name="yacute" unicode="&#xfd;" horiz-adv-x="605" 
d="M307 112l160 448h128l-272 -760h-127l71 200h-57l-200 560h127l160 -448h10zM342 788h123l-143 -160h-87z" />
    <glyph glyph-name="thorn" unicode="&#xfe;" horiz-adv-x="635" 
d="M180 560h240q82 0 121 -39t39 -121v-240q0 -82 -39 -121t-121 -39h-240v-200h-120v960h120v-200zM460 160v240q0 48 -40 48h-240v-336h240q40 0 40 48z" />
    <glyph glyph-name="ydieresis" unicode="&#xff;" horiz-adv-x="605" 
d="M307 112l160 448h128l-272 -760h-127l71 200h-57l-200 560h127l160 -448h10zM441 650q-20 -20 -49 -20t-50 20q-20 21 -20 50t20 49q21 21 50 21t49 -21q21 -20 21 -49t-21 -50zM261 650q-20 -20 -49 -20t-50 20q-20 21 -20 50t20 49q21 21 50 21t49 -21q21 -20 21 -49
t-21 -50z" />
    <glyph glyph-name="Abreve" unicode="&#x102;" horiz-adv-x="683" 
d="M413 872v43h80v-53q0 -45 -17.5 -62.5t-62.5 -17.5h-142q-45 0 -62.5 17.5t-17.5 62.5v53h80v-43q0 -18 10 -18h122q10 0 10 18zM247 720h189l237 -720h-127l-60 184h-289l-61 -184h-126zM336 608l-102 -312h215l-103 312h-10z" />
    <glyph glyph-name="abreve" unicode="&#x103;" horiz-adv-x="625" 
d="M406 717v43h80v-53q0 -45 -17.5 -62.5t-62.5 -17.5h-142q-45 0 -62.5 17.5t-17.5 62.5v53h80v-43q0 -18 10 -18h122q10 0 10 18zM210 560h200q82 0 121 -39t39 -121v-240q0 -82 -39 -121t-121 -39h-200q-82 0 -121 39t-39 121q0 72 51 101q41 24 109 41l240 60v38
q0 48 -40 48h-200q-40 0 -40 -48v-40h-120v40q0 82 39 121t121 39zM450 160v108l-240 -60q-26 -6 -33 -16t-7 -32q0 -48 40 -48h200q40 0 40 48z" />
    <glyph glyph-name="Dcroat" unicode="&#x110;" horiz-adv-x="715" 
d="M60 720h440q82 0 121 -39t39 -121v-400q0 -82 -39 -121t-121 -39h-440v285h-59v100h59v335zM540 160v400q0 48 -40 48h-320v-223h150v-100h-150v-173h320q40 0 40 48z" />
    <glyph glyph-name="dcroat" unicode="&#x111;" horiz-adv-x="635" 
d="M455 709v51h120v-51h59v-100h-59v-449q0 -82 -38.5 -121t-121.5 -39h-200q-83 0 -121.5 39t-38.5 121v240q0 82 38.5 121t121.5 39h240v49h-118v100h118zM215 112h200q40 0 40 48v288h-240q-40 0 -40 -48v-240q0 -48 40 -48z" />
    <glyph glyph-name="Itilde" unicode="&#x128;" horiz-adv-x="240" 
d="M42 838l-9 -25l-75 29l13 32q16 42 38.5 52.5t64.5 -5.5l109 -31q9 -3 16 13l9 25l75 -29l-13 -32q-16 -42 -38.5 -52.5t-64.5 5.5l-109 31q-9 3 -16 -13zM180 0h-120v720h120v-720z" />
    <glyph glyph-name="itilde" unicode="&#x129;" horiz-adv-x="240" 
d="M180 0h-120v560h120v-560zM38 674l-9 -25l-75 29l13 32q16 42 38.5 52.5t64.5 -5.5l109 -31q9 -3 16 13l9 25l75 -29l-13 -32q-16 -42 -38.5 -52.5t-64.5 5.5l-109 31q-9 3 -16 -13z" />
    <glyph glyph-name="dotlessi" unicode="&#x131;" horiz-adv-x="240" 
d="M180 0h-120v560h120v-560z" />
    <glyph glyph-name="Lslash" unicode="&#x141;" horiz-adv-x="700" 
d="M250 308v-196h440v-112h-560v248l-120 -60v84l120 60v388h120v-328l240 120v-84z" />
    <glyph glyph-name="lslash" unicode="&#x142;" horiz-adv-x="410" 
d="M370 512v-84l-120 -60v-228q0 -16 4 -22t16 -6h100v-112h-100q-75 0 -107.5 32.5t-32.5 107.5v168l-120 -60v84l120 60v368h120v-308z" />
    <glyph glyph-name="OE" unicode="&#x152;" horiz-adv-x="1140" 
d="M1095 720v-112h-440v-192h430v-112h-430v-192h440v-112h-880q-83 0 -121.5 39t-38.5 121v400q0 82 38.5 121t121.5 39h880zM215 112h320v496h-320q-40 0 -40 -48v-400q0 -48 40 -48z" />
    <glyph glyph-name="oe" unicode="&#x153;" horiz-adv-x="1030" 
d="M975 400v-166h-400v-74q0 -48 40 -48h200q40 0 40 48v40h120v-40q0 -82 -38.5 -121t-121.5 -39h-200q-35 0 -59.5 14t-30.5 31l-5 15h-10q0 -2 -1.5 -6.5t-7.5 -14.5t-15.5 -18t-28 -14.5t-42.5 -6.5h-200q-83 0 -121.5 39t-38.5 121v240q0 82 38.5 121t121.5 39h200
q35 0 59.5 -14t30.5 -31l5 -15h10q0 2 1.5 6.5t7.5 14.5t15.5 18t28 14.5t42.5 6.5h200q83 0 121.5 -39t38.5 -121zM455 160v240q0 48 -40 48h-200q-40 0 -40 -48v-240q0 -48 40 -48h200q40 0 40 48zM815 448h-200q-40 0 -40 -48v-74h280v74q0 48 -40 48z" />
    <glyph glyph-name="Scaron" unicode="&#x160;" horiz-adv-x="700" 
d="M650 560v-80h-120v80q0 48 -40 48h-280q-40 0 -40 -48q0 -38 4 -55q7 -30 56 -46l240 -80q76 -26 110 -48q70 -42 70 -171q0 -82 -39 -121t-121 -39h-280q-82 0 -121 39t-39 121v80h120v-80q0 -48 40 -48h280q40 0 40 48q0 38 -4 55q-7 30 -56 46l-240 80q-79 27 -111 47
q-36 24 -52.5 64t-16.5 108q0 82 39 121t121 39h280q82 0 121 -39t39 -121zM516 960l-115 -160h-104l-113 160h98l62 -88h10l63 88h99z" />
    <glyph glyph-name="scaron" unicode="&#x161;" horiz-adv-x="620" 
d="M570 400v-40h-120v40q0 48 -40 48h-200q-40 0 -40 -48q0 -14 1.5 -20t10.5 -13.5t28 -14.5l200 -50q68 -17 108 -41q52 -29 52 -101q0 -82 -39 -121t-121 -39h-200q-82 0 -121 39t-39 121v40h120v-40q0 -48 40 -48h200q40 0 40 48q0 14 -1.5 20t-10.5 13.5t-28 14.5
l-200 50q-67 17 -109 40q-51 31 -51 102q0 82 39 121t121 39h200q82 0 121 -39t39 -121zM476 800l-115 -160h-104l-113 160h98l62 -88h10l63 88h99z" />
    <glyph glyph-name="Utilde" unicode="&#x168;" horiz-adv-x="720" 
d="M281 838l-9 -25l-75 29l13 32q16 42 38.5 52.5t64.5 -5.5l109 -31q9 -3 16 13l9 25l75 -29l-13 -32q-16 -42 -38.5 -52.5t-64.5 5.5l-109 31q-9 3 -16 -13zM540 160v560h120v-560q0 -82 -39 -121t-121 -39h-280q-82 0 -121 39t-39 121v560h120v-560q0 -48 40 -48h280
q40 0 40 48z" />
    <glyph glyph-name="utilde" unicode="&#x169;" horiz-adv-x="640" 
d="M240 674l-9 -25l-75 29l13 32q16 42 38.5 52.5t64.5 -5.5l109 -31q9 -3 16 13l9 25l75 -29l-13 -32q-16 -42 -38.5 -52.5t-64.5 5.5l-109 31q-9 3 -16 -13zM460 160v400h120v-400q0 -82 -39 -121t-121 -39h-200q-82 0 -121 39t-39 121v400h120v-400q0 -48 40 -48h200
q40 0 40 48z" />
    <glyph glyph-name="Ydieresis" unicode="&#x178;" horiz-adv-x="664" 
d="M337 392l180 328h137l-262 -477v-243h-120v243l-262 477h137l180 -328h10zM471 810q-20 -20 -49 -20t-50 20q-20 21 -20 50t20 49q21 21 50 21t49 -21q21 -20 21 -49t-21 -50zM291 810q-20 -20 -49 -20t-50 20q-20 21 -20 50t20 49q21 21 50 21t49 -21q21 -20 21 -49
t-21 -50z" />
    <glyph glyph-name="Zcaron" unicode="&#x17d;" horiz-adv-x="690" 
d="M645 720v-170l-480 -428v-10h480v-112h-600v170l480 428v10h-480v112h600zM511 960l-115 -160h-104l-113 160h98l62 -88h10l63 88h99z" />
    <glyph glyph-name="zcaron" unicode="&#x17e;" horiz-adv-x="610" 
d="M565 560v-183l-400 -255v-10h400v-112h-520v182l400 256v10h-400v112h520zM471 800l-115 -160h-104l-113 160h98l62 -88h10l63 88h99z" />
    <glyph glyph-name="florin" unicode="&#x192;" horiz-adv-x="415" 
d="M380 648h-180q-12 0 -16 -6t-4 -22v-60h180v-112h-180v-508q0 -75 -32.5 -107.5t-107.5 -32.5h-100v112h100q20 0 20 28v680q0 75 32.5 107.5t107.5 32.5h180v-112z" />
    <glyph glyph-name="Ohorn" unicode="&#x1a0;" horiz-adv-x="742" 
d="M215 720h280h12h95q36 -3 36 21v63h103v-27q4 -119 -28 -136q-21 -18 -64 -23q6 -26 6 -58v-400q0 -82 -38.5 -121t-121.5 -39h-280q-83 0 -121.5 39t-38.5 121v400q0 82 38.5 121t121.5 39zM535 160v400q0 48 -40 48h-280q-40 0 -40 -48v-400q0 -48 40 -48h280
q40 0 40 48z" />
    <glyph glyph-name="ohorn" unicode="&#x1a1;" 
d="M215 560h200h12h78q36 -3 36 21v63h103v-27q4 -119 -28 -136q-15 -13 -48 -20q7 -25 7 -61v-240q0 -82 -38.5 -121t-121.5 -39h-200q-83 0 -121.5 39t-38.5 121v240q0 82 38.5 121t121.5 39zM455 160v240q0 48 -40 48h-200q-40 0 -40 -48v-240q0 -48 40 -48h200
q40 0 40 48z" />
    <glyph glyph-name="Uhorn" unicode="&#x1af;" horiz-adv-x="784" 
d="M540 160v560h114q22 1 22 21v63h103v-27q4 -119 -28 -136q-26 -23 -91 -25v-456q0 -82 -39 -121t-121 -39h-280q-82 0 -121 39t-39 121v560h120v-560q0 -48 40 -48h280q40 0 40 48z" />
    <glyph glyph-name="uhorn" unicode="&#x1b0;" horiz-adv-x="677" 
d="M460 160v400h110q22 1 22 21v63h103v-27q4 -119 -28 -136q-25 -23 -87 -25v-296q0 -82 -39 -121t-121 -39h-200q-82 0 -121 39t-39 121v400h120v-400q0 -48 40 -48h200q40 0 40 48z" />
    <glyph glyph-name="circumflex" unicode="&#x2c6;" horiz-adv-x="431" 
d="M148 640h-98l113 160h104l114 -160h-98l-63 88h-10z" />
    <glyph glyph-name="caron" unicode="&#x2c7;" horiz-adv-x="431" 
d="M163 640l-113 160h98l62 -88h10l63 88h98l-114 -160h-104z" />
    <glyph glyph-name="uni02C9" unicode="&#x2c9;" horiz-adv-x="360" 
d="M310 640h-260v72h260v-72z" />
    <glyph glyph-name="breve" unicode="&#x2d8;" horiz-adv-x="360" 
d="M230 730v70h80v-80q0 -45 -17.5 -62.5t-62.5 -17.5h-100q-45 0 -62.5 17.5t-17.5 62.5v80h80v-70q0 -18 10 -18h80q10 0 10 18z" />
    <glyph glyph-name="dotaccent" unicode="&#x2d9;" horiz-adv-x="260" 
d="M73 766q24 24 57 24t56 -24q24 -23 24 -56t-24 -57q-23 -23 -56 -23t-57 23q-23 24 -23 57t23 56z" />
    <glyph glyph-name="ring" unicode="&#x2da;" horiz-adv-x="310" 
d="M81 809q31 31 74 31t74 -31t31 -74t-31 -74t-74 -31t-74 31t-31 74t31 74zM130 710q20 -22 45 -2q22 17 13 39q-3 7 -9 12q-14 16 -33 9.5t-24.5 -24.5t8.5 -34z" />
    <glyph glyph-name="ogonek" unicode="&#x2db;" horiz-adv-x="320" 
d="M50 0h80v-120q0 -28 8 -38t32 -10h100v-72h-100q-68 0 -94 26t-26 94v120z" />
    <glyph glyph-name="tilde" unicode="&#x2dc;" horiz-adv-x="360" 
d="M230 774v26h80v-36q0 -45 -17.5 -62.5t-62.5 -17.5h-90q-10 0 -10 -18v-26h-80v36q0 45 17.5 62.5t62.5 17.5h90q10 0 10 18z" />
    <glyph glyph-name="hungarumlaut" unicode="&#x2dd;" horiz-adv-x="520" 
d="M50 640l107 160h123l-143 -160h-87zM240 640l107 160h123l-143 -160h-87z" />
    <glyph glyph-name="uni03A9" unicode="&#x3a9;" horiz-adv-x="680" 
d="M560 122v-10h100v-112h-220v173h20q22 0 31 10.5t9 33.5v303q0 48 -40 48h-240q-40 0 -40 -48v-303q0 -23 9 -33.5t31 -10.5h20v-173h-220v112h100v10q-2 0 -6.5 1.5t-14.5 7.5t-18 15.5t-14.5 28t-6.5 42.5v303q0 82 39 121t121 39h240q82 0 121 -39t39 -121v-303
q0 -35 -14 -59.5t-31 -30.5z" />
    <glyph glyph-name="uni03BC" unicode="&#x3bc;" horiz-adv-x="640" 
d="M460 160v400h120v-400q0 -82 -39 -121t-121 -39h-240v-160h-120v720h120v-448h240q40 0 40 48z" />
    <glyph glyph-name="pi" unicode="&#x3c0;" horiz-adv-x="640" 
d="M20 560h600v-112h-80v-448h-120v448h-200v-448h-120v448h-80v112z" />
    <glyph glyph-name="uni1EA0" unicode="&#x1ea0;" horiz-adv-x="683" 
d="M305 -74q16 16 38.5 16t38.5 -16t16 -38.5t-16 -38.5t-38.5 -16t-38.5 16t-16 38.5t16 38.5zM247 720h189l237 -720h-127l-60 184h-289l-61 -184h-126zM336 608l-102 -312h215l-103 312h-10z" />
    <glyph glyph-name="uni1EA1" unicode="&#x1ea1;" horiz-adv-x="625" 
d="M277 -74q16 16 38.5 16t38.5 -16t16 -38.5t-16 -38.5t-38.5 -16t-38.5 16t-16 38.5t16 38.5zM210 560h200q82 0 121 -39t39 -121v-240q0 -82 -39 -121t-121 -39h-200q-82 0 -121 39t-39 121q0 72 51 101q41 24 109 41l240 60v38q0 48 -40 48h-200q-40 0 -40 -48v-40h-120
v40q0 82 39 121t121 39zM450 160v108l-240 -60q-26 -6 -33 -16t-7 -32q0 -48 40 -48h200q40 0 40 48z" />
    <glyph glyph-name="uni1EA2" unicode="&#x1ea2;" horiz-adv-x="683" 
d="M288 1007h89q71 0 71 -74v-51q0 -36 -14 -53t-55 -20v-27h-73v93h62q13 0 13 1v62h-99v-50h-68v45q0 74 74 74zM247 720h189l237 -720h-127l-60 184h-289l-61 -184h-126zM336 608l-102 -312h215l-103 312h-10z" />
    <glyph glyph-name="uni1EA3" unicode="&#x1ea3;" horiz-adv-x="625" 
d="M283 852h89q71 0 71 -74v-51q0 -36 -14 -53t-55 -20v-27h-73v93h62q13 0 13 1v62h-99v-50h-68v45q0 74 74 74zM210 560h200q82 0 121 -39t39 -121v-240q0 -82 -39 -121t-121 -39h-200q-82 0 -121 39t-39 121q0 72 51 101q41 24 109 41l240 60v38q0 48 -40 48h-200
q-40 0 -40 -48v-40h-120v40q0 82 39 121t121 39zM450 160v108l-240 -60q-26 -6 -33 -16t-7 -32q0 -48 40 -48h200q40 0 40 48z" />
    <glyph glyph-name="uni1EA4" unicode="&#x1ea4;" horiz-adv-x="683" 
d="M247 720h189l237 -720h-127l-60 184h-289l-61 -184h-126zM336 608l-102 -312h215l-103 312h-10zM346 871h-10l-62 -88h-98l113 160h104l114 -160h-98zM550 908h-87l107 160h123z" />
    <glyph glyph-name="uni1EA5" unicode="&#x1ea5;" horiz-adv-x="625" 
d="M210 560h200q82 0 121 -39t39 -121v-240q0 -82 -39 -121t-121 -39h-200q-82 0 -121 39t-39 121q0 72 51 101q41 24 109 41l240 60v38q0 48 -40 48h-200q-40 0 -40 -48v-40h-120v40q0 82 39 121t121 39zM450 160v108l-240 -60q-26 -6 -33 -16t-7 -32q0 -48 40 -48h200
q40 0 40 48zM331 715h-10l-62 -88h-98l113 160h104l115 -160h-99zM535 753h-87l107 160h123z" />
    <glyph glyph-name="uni1EA6" unicode="&#x1ea6;" horiz-adv-x="683" 
d="M247 720h189l237 -720h-127l-60 184h-289l-61 -184h-126zM336 608l-102 -312h215l-103 312h-10zM346 871h-10l-62 -88h-98l113 160h104l114 -160h-98zM477 1069l106 -160h-86l-144 160h124z" />
    <glyph glyph-name="uni1EA7" unicode="&#x1ea7;" horiz-adv-x="625" 
d="M210 560h200q82 0 121 -39t39 -121v-240q0 -82 -39 -121t-121 -39h-200q-82 0 -121 39t-39 121q0 72 51 101q41 24 109 41l240 60v38q0 48 -40 48h-200q-40 0 -40 -48v-40h-120v40q0 82 39 121t121 39zM450 160v108l-240 -60q-26 -6 -33 -16t-7 -32q0 -48 40 -48h200
q40 0 40 48zM331 715h-10l-62 -88h-98l113 160h104l115 -160h-99zM462 914l106 -160h-86l-144 160h124z" />
    <glyph glyph-name="uni1EA8" unicode="&#x1ea8;" horiz-adv-x="683" 
d="M247 720h189l237 -720h-127l-60 184h-289l-61 -184h-126zM336 608l-102 -312h215l-103 312h-10zM346 871h-10l-62 -88h-98l113 160h104l114 -160h-98zM453 1125h89q71 0 71 -74v-51q0 -36 -14 -53t-55 -20v-27h-73v93h62q13 0 13 1v62h-99v-50h-68v45q0 74 74 74z" />
    <glyph glyph-name="uni1EA9" unicode="&#x1ea9;" horiz-adv-x="625" 
d="M210 560h200q82 0 121 -39t39 -121v-240q0 -82 -39 -121t-121 -39h-200q-82 0 -121 39t-39 121q0 72 51 101q41 24 109 41l240 60v38q0 48 -40 48h-200q-40 0 -40 -48v-40h-120v40q0 82 39 121t121 39zM450 160v108l-240 -60q-26 -6 -33 -16t-7 -32q0 -48 40 -48h200
q40 0 40 48zM331 715h-10l-62 -88h-98l113 160h104l115 -160h-99zM438 969h89q71 0 71 -74v-51q0 -36 -14 -53t-55 -20v-27h-73v93h62q13 0 13 1v62h-99v-50h-68v45q0 74 74 74z" />
    <glyph glyph-name="uni1EAA" unicode="&#x1eaa;" horiz-adv-x="683" 
d="M247 720h189l237 -720h-127l-60 184h-289l-61 -184h-126zM336 608l-102 -312h215l-103 312h-10zM346 871h-10l-62 -88h-98l113 160h104l114 -160h-98zM264 1010l-9 -25l-75 29l13 32q16 42 38.5 52.5t64.5 -5.5l109 -31q9 -3 16 13l9 25l75 -29l-13 -32
q-16 -42 -38.5 -52.5t-64.5 5.5l-109 31q-9 3 -16 -13z" />
    <glyph glyph-name="uni1EAB" unicode="&#x1eab;" horiz-adv-x="625" 
d="M210 560h200q82 0 121 -39t39 -121v-240q0 -82 -39 -121t-121 -39h-200q-82 0 -121 39t-39 121q0 72 51 101q41 24 109 41l240 60v38q0 48 -40 48h-200q-40 0 -40 -48v-40h-120v40q0 82 39 121t121 39zM450 160v108l-240 -60q-26 -6 -33 -16t-7 -32q0 -48 40 -48h200
q40 0 40 48zM331 715h-10l-62 -88h-98l113 160h104l115 -160h-99zM249 854l-9 -25l-75 29l13 32q16 42 38.5 52.5t64.5 -5.5l109 -31q9 -3 16 13l9 25l75 -29l-13 -32q-16 -42 -38.5 -52.5t-64.5 5.5l-109 31q-9 3 -16 -13z" />
    <glyph glyph-name="uni1EAC" unicode="&#x1eac;" horiz-adv-x="683" 
d="M247 720h189l237 -720h-127l-60 184h-289l-61 -184h-126zM336 608l-102 -312h215l-103 312h-10zM346 871h-10l-62 -88h-98l113 160h104l114 -160h-98zM305 -74q16 16 38.5 16t38.5 -16t16 -38.5t-16 -38.5t-38.5 -16t-38.5 16t-16 38.5t16 38.5z" />
    <glyph glyph-name="uni1EAD" unicode="&#x1ead;" horiz-adv-x="625" 
d="M210 560h200q82 0 121 -39t39 -121v-240q0 -82 -39 -121t-121 -39h-200q-82 0 -121 39t-39 121q0 72 51 101q41 24 109 41l240 60v38q0 48 -40 48h-200q-40 0 -40 -48v-40h-120v40q0 82 39 121t121 39zM450 160v108l-240 -60q-26 -6 -33 -16t-7 -32q0 -48 40 -48h200
q40 0 40 48zM331 715h-10l-62 -88h-98l113 160h104l115 -160h-99zM277 -74q16 16 38.5 16t38.5 -16t16 -38.5t-16 -38.5t-38.5 -16t-38.5 16t-16 38.5t16 38.5z" />
    <glyph glyph-name="uni1EAE" unicode="&#x1eae;" horiz-adv-x="683" 
d="M413 872v43h80v-53q0 -45 -17.5 -62.5t-62.5 -17.5h-142q-45 0 -62.5 17.5t-17.5 62.5v53h80v-43q0 -18 10 -18h122q10 0 10 18zM247 720h189l237 -720h-127l-60 184h-289l-61 -184h-126zM336 608l-102 -312h215l-103 312h-10zM375 916h-87l107 160h123z" />
    <glyph glyph-name="uni1EAF" unicode="&#x1eaf;" horiz-adv-x="625" 
d="M406 717v43h80v-53q0 -45 -17.5 -62.5t-62.5 -17.5h-142q-45 0 -62.5 17.5t-17.5 62.5v53h80v-43q0 -18 10 -18h122q10 0 10 18zM210 560h200q82 0 121 -39t39 -121v-240q0 -82 -39 -121t-121 -39h-200q-82 0 -121 39t-39 121q0 72 51 101q41 24 109 41l240 60v38
q0 48 -40 48h-200q-40 0 -40 -48v-40h-120v40q0 82 39 121t121 39zM450 160v108l-240 -60q-26 -6 -33 -16t-7 -32q0 -48 40 -48h200q40 0 40 48zM368 761h-87l107 160h123z" />
    <glyph glyph-name="uni1EB0" unicode="&#x1eb0;" horiz-adv-x="683" 
d="M413 872v43h80v-53q0 -45 -17.5 -62.5t-62.5 -17.5h-142q-45 0 -62.5 17.5t-17.5 62.5v53h80v-43q0 -18 10 -18h122q10 0 10 18zM247 720h189l237 -720h-127l-60 184h-289l-61 -184h-126zM336 608l-102 -312h215l-103 312h-10zM291 1076l106 -160h-86l-144 160h124z" />
    <glyph glyph-name="uni1EB1" unicode="&#x1eb1;" horiz-adv-x="625" 
d="M406 717v43h80v-53q0 -45 -17.5 -62.5t-62.5 -17.5h-142q-45 0 -62.5 17.5t-17.5 62.5v53h80v-43q0 -18 10 -18h122q10 0 10 18zM210 560h200q82 0 121 -39t39 -121v-240q0 -82 -39 -121t-121 -39h-200q-82 0 -121 39t-39 121q0 72 51 101q41 24 109 41l240 60v38
q0 48 -40 48h-200q-40 0 -40 -48v-40h-120v40q0 82 39 121t121 39zM450 160v108l-240 -60q-26 -6 -33 -16t-7 -32q0 -48 40 -48h200q40 0 40 48zM284 921l106 -160h-86l-144 160h124z" />
    <glyph glyph-name="uni1EB2" unicode="&#x1eb2;" horiz-adv-x="683" 
d="M413 872v43h80v-53q0 -45 -17.5 -62.5t-62.5 -17.5h-142q-45 0 -62.5 17.5t-17.5 62.5v53h80v-43q0 -18 10 -18h122q10 0 10 18zM247 720h189l237 -720h-127l-60 184h-289l-61 -184h-126zM336 608l-102 -312h215l-103 312h-10zM288 1133h89q71 0 71 -74v-51
q0 -36 -14 -53t-55 -20v-27h-73v93h62q13 0 13 1v62h-99v-50h-68v45q0 74 74 74z" />
    <glyph glyph-name="uni1EB3" unicode="&#x1eb3;" horiz-adv-x="625" 
d="M406 717v43h80v-53q0 -45 -17.5 -62.5t-62.5 -17.5h-142q-45 0 -62.5 17.5t-17.5 62.5v53h80v-43q0 -18 10 -18h122q10 0 10 18zM210 560h200q82 0 121 -39t39 -121v-240q0 -82 -39 -121t-121 -39h-200q-82 0 -121 39t-39 121q0 72 51 101q41 24 109 41l240 60v38
q0 48 -40 48h-200q-40 0 -40 -48v-40h-120v40q0 82 39 121t121 39zM450 160v108l-240 -60q-26 -6 -33 -16t-7 -32q0 -48 40 -48h200q40 0 40 48zM281 978h89q71 0 71 -74v-51q0 -36 -14 -53t-55 -20v-27h-73v93h62q13 0 13 1v62h-99v-50h-68v45q0 74 74 74z" />
    <glyph glyph-name="uni1EB4" unicode="&#x1eb4;" horiz-adv-x="683" 
d="M413 872v43h80v-53q0 -45 -17.5 -62.5t-62.5 -17.5h-142q-45 0 -62.5 17.5t-17.5 62.5v53h80v-43q0 -18 10 -18h122q10 0 10 18zM247 720h189l237 -720h-127l-60 184h-289l-61 -184h-126zM336 608l-102 -312h215l-103 312h-10zM264 975l-9 -25l-75 29l13 32
q16 42 38.5 52.5t64.5 -5.5l109 -31q9 -3 16 13l9 25l75 -29l-13 -32q-16 -42 -38.5 -52.5t-64.5 5.5l-109 31q-9 3 -16 -13z" />
    <glyph glyph-name="uni1EB5" unicode="&#x1eb5;" horiz-adv-x="625" 
d="M406 717v43h80v-53q0 -45 -17.5 -62.5t-62.5 -17.5h-142q-45 0 -62.5 17.5t-17.5 62.5v53h80v-43q0 -18 10 -18h122q10 0 10 18zM210 560h200q82 0 121 -39t39 -121v-240q0 -82 -39 -121t-121 -39h-200q-82 0 -121 39t-39 121q0 72 51 101q41 24 109 41l240 60v38
q0 48 -40 48h-200q-40 0 -40 -48v-40h-120v40q0 82 39 121t121 39zM450 160v108l-240 -60q-26 -6 -33 -16t-7 -32q0 -48 40 -48h200q40 0 40 48zM256 820l-9 -25l-75 29l13 32q16 42 38.5 52.5t64.5 -5.5l109 -31q9 -3 16 13l9 25l75 -29l-13 -32q-16 -42 -38.5 -52.5
t-64.5 5.5l-109 31q-9 3 -16 -13z" />
    <glyph glyph-name="uni1EB6" unicode="&#x1eb6;" horiz-adv-x="683" 
d="M413 872v43h80v-53q0 -45 -17.5 -62.5t-62.5 -17.5h-142q-45 0 -62.5 17.5t-17.5 62.5v53h80v-43q0 -18 10 -18h122q10 0 10 18zM247 720h189l237 -720h-127l-60 184h-289l-61 -184h-126zM336 608l-102 -312h215l-103 312h-10zM305 -74q16 16 38.5 16t38.5 -16t16 -38.5
t-16 -38.5t-38.5 -16t-38.5 16t-16 38.5t16 38.5z" />
    <glyph glyph-name="uni1EB7" unicode="&#x1eb7;" horiz-adv-x="625" 
d="M406 717v43h80v-53q0 -45 -17.5 -62.5t-62.5 -17.5h-142q-45 0 -62.5 17.5t-17.5 62.5v53h80v-43q0 -18 10 -18h122q10 0 10 18zM210 560h200q82 0 121 -39t39 -121v-240q0 -82 -39 -121t-121 -39h-200q-82 0 -121 39t-39 121q0 72 51 101q41 24 109 41l240 60v38
q0 48 -40 48h-200q-40 0 -40 -48v-40h-120v40q0 82 39 121t121 39zM450 160v108l-240 -60q-26 -6 -33 -16t-7 -32q0 -48 40 -48h200q40 0 40 48zM277 -74q16 16 38.5 16t38.5 -16t16 -38.5t-16 -38.5t-38.5 -16t-38.5 16t-16 38.5t16 38.5z" />
    <glyph glyph-name="uni1EB8" unicode="&#x1eb8;" horiz-adv-x="665" 
d="M294 -74q16 16 38.5 16t38.5 -16t16 -38.5t-16 -38.5t-38.5 -16t-38.5 16t-16 38.5t16 38.5zM620 720v-112h-440v-192h430v-112h-430v-192h440v-112h-560v720h560z" />
    <glyph glyph-name="uni1EB9" unicode="&#x1eb9;" 
d="M276 -74q16 16 38.5 16t38.5 -16t16 -38.5t-16 -38.5t-38.5 -16t-38.5 16t-16 38.5t16 38.5zM215 560h200q83 0 121.5 -39t38.5 -121v-166h-400v-74q0 -48 40 -48h200q40 0 40 48v40h120v-40q0 -82 -38.5 -121t-121.5 -39h-200q-83 0 -121.5 39t-38.5 121v240
q0 82 38.5 121t121.5 39zM175 326h280v74q0 48 -40 48h-200q-40 0 -40 -48v-74z" />
    <glyph glyph-name="uni1EBA" unicode="&#x1eba;" horiz-adv-x="665" 
d="M300 1007h89q71 0 71 -74v-51q0 -36 -14 -53t-55 -20v-27h-73v93h62q13 0 13 1v62h-99v-50h-68v45q0 74 74 74zM620 720v-112h-440v-192h430v-112h-430v-192h440v-112h-560v720h560z" />
    <glyph glyph-name="uni1EBB" unicode="&#x1ebb;" 
d="M276 852h89q71 0 71 -74v-51q0 -36 -14 -53t-55 -20v-27h-73v93h62q13 0 13 1v62h-99v-50h-68v45q0 74 74 74zM215 560h200q83 0 121.5 -39t38.5 -121v-166h-400v-74q0 -48 40 -48h200q40 0 40 48v40h120v-40q0 -82 -38.5 -121t-121.5 -39h-200q-83 0 -121.5 39
t-38.5 121v240q0 82 38.5 121t121.5 39zM175 326h280v74q0 48 -40 48h-200q-40 0 -40 -48v-74z" />
    <glyph glyph-name="uni1EBC" unicode="&#x1ebc;" horiz-adv-x="665" 
d="M259 838l-9 -25l-75 29l13 32q16 42 38.5 52.5t64.5 -5.5l109 -31q9 -3 16 13l9 25l75 -29l-13 -32q-16 -42 -38.5 -52.5t-64.5 5.5l-109 31q-9 3 -16 -13zM620 720v-112h-440v-192h430v-112h-430v-192h440v-112h-560v720h560z" />
    <glyph glyph-name="uni1EBD" unicode="&#x1ebd;" 
d="M244 674l-9 -25l-75 29l13 32q16 42 38.5 52.5t64.5 -5.5l109 -31q9 -3 16 13l9 25l75 -29l-13 -32q-16 -42 -38.5 -52.5t-64.5 5.5l-109 31q-9 3 -16 -13zM215 560h200q83 0 121.5 -39t38.5 -121v-166h-400v-74q0 -48 40 -48h200q40 0 40 48v40h120v-40
q0 -82 -38.5 -121t-121.5 -39h-200q-83 0 -121.5 39t-38.5 121v240q0 82 38.5 121t121.5 39zM175 326h280v74q0 48 -40 48h-200q-40 0 -40 -48v-74z" />
    <glyph glyph-name="uni1EBE" unicode="&#x1ebe;" horiz-adv-x="665" 
d="M620 720v-112h-440v-192h430v-112h-430v-192h440v-112h-560v720h560zM345 871h-10l-62 -88h-98l113 160h104l114 -160h-98zM549 908h-87l107 160h123z" />
    <glyph glyph-name="uni1EBF" unicode="&#x1ebf;" 
d="M575 400v-166h-400v-74q0 -48 40 -48h200q40 0 40 48v40h120v-40q0 -82 -38.5 -121t-121.5 -39h-200q-83 0 -121.5 39t-38.5 121v240q0 82 38.5 121t121.5 39h200q83 0 121.5 -39t38.5 -121zM175 400v-74h280v74q0 48 -40 48h-200q-40 0 -40 -48zM320 715h-10l-62 -88
h-98l113 160h104l115 -160h-99zM524 753h-87l107 160h123z" />
    <glyph glyph-name="uni1EC0" unicode="&#x1ec0;" horiz-adv-x="665" 
d="M620 720v-112h-440v-192h430v-112h-430v-192h440v-112h-560v720h560zM345 871h-10l-62 -88h-98l113 160h104l114 -160h-98zM476 1069l106 -160h-86l-144 160h124z" />
    <glyph glyph-name="uni1EC1" unicode="&#x1ec1;" 
d="M575 400v-166h-400v-74q0 -48 40 -48h200q40 0 40 48v40h120v-40q0 -82 -38.5 -121t-121.5 -39h-200q-83 0 -121.5 39t-38.5 121v240q0 82 38.5 121t121.5 39h200q83 0 121.5 -39t38.5 -121zM175 400v-74h280v74q0 48 -40 48h-200q-40 0 -40 -48zM320 715h-10l-62 -88
h-98l113 160h104l115 -160h-99zM451 914l106 -160h-86l-144 160h124z" />
    <glyph glyph-name="uni1EC2" unicode="&#x1ec2;" horiz-adv-x="665" 
d="M620 720v-112h-440v-192h430v-112h-430v-192h440v-112h-560v720h560zM345 871h-10l-62 -88h-98l113 160h104l114 -160h-98zM452 1125h89q71 0 71 -74v-51q0 -36 -14 -53t-55 -20v-27h-73v93h62q13 0 13 1v62h-99v-50h-68v45q0 74 74 74z" />
    <glyph glyph-name="uni1EC3" unicode="&#x1ec3;" 
d="M575 400v-166h-400v-74q0 -48 40 -48h200q40 0 40 48v40h120v-40q0 -82 -38.5 -121t-121.5 -39h-200q-83 0 -121.5 39t-38.5 121v240q0 82 38.5 121t121.5 39h200q83 0 121.5 -39t38.5 -121zM175 400v-74h280v74q0 48 -40 48h-200q-40 0 -40 -48zM320 715h-10l-62 -88
h-98l113 160h104l115 -160h-99zM427 969h89q71 0 71 -74v-51q0 -36 -14 -53t-55 -20v-27h-73v93h62q13 0 13 1v62h-99v-50h-68v45q0 74 74 74z" />
    <glyph glyph-name="uni1EC4" unicode="&#x1ec4;" horiz-adv-x="665" 
d="M620 720v-112h-440v-192h430v-112h-430v-192h440v-112h-560v720h560zM345 871h-10l-62 -88h-98l113 160h104l114 -160h-98zM263 1010l-9 -25l-75 29l13 32q16 42 38.5 52.5t64.5 -5.5l109 -31q9 -3 16 13l9 25l75 -29l-13 -32q-16 -42 -38.5 -52.5t-64.5 5.5l-109 31
q-9 3 -16 -13z" />
    <glyph glyph-name="uni1EC5" unicode="&#x1ec5;" 
d="M575 400v-166h-400v-74q0 -48 40 -48h200q40 0 40 48v40h120v-40q0 -82 -38.5 -121t-121.5 -39h-200q-83 0 -121.5 39t-38.5 121v240q0 82 38.5 121t121.5 39h200q83 0 121.5 -39t38.5 -121zM175 400v-74h280v74q0 48 -40 48h-200q-40 0 -40 -48zM320 715h-10l-62 -88
h-98l113 160h104l115 -160h-99zM238 854l-9 -25l-75 29l13 32q16 42 38.5 52.5t64.5 -5.5l109 -31q9 -3 16 13l9 25l75 -29l-13 -32q-16 -42 -38.5 -52.5t-64.5 5.5l-109 31q-9 3 -16 -13z" />
    <glyph glyph-name="uni1EC6" unicode="&#x1ec6;" horiz-adv-x="665" 
d="M620 720v-112h-440v-192h430v-112h-430v-192h440v-112h-560v720h560zM345 871h-10l-62 -88h-98l113 160h104l114 -160h-98zM294 -74q16 16 38.5 16t38.5 -16t16 -38.5t-16 -38.5t-38.5 -16t-38.5 16t-16 38.5t16 38.5z" />
    <glyph glyph-name="uni1EC7" unicode="&#x1ec7;" 
d="M575 400v-166h-400v-74q0 -48 40 -48h200q40 0 40 48v40h120v-40q0 -82 -38.5 -121t-121.5 -39h-200q-83 0 -121.5 39t-38.5 121v240q0 82 38.5 121t121.5 39h200q83 0 121.5 -39t38.5 -121zM175 400v-74h280v74q0 48 -40 48h-200q-40 0 -40 -48zM320 715h-10l-62 -88
h-98l113 160h104l115 -160h-99zM276 -74q16 16 38.5 16t38.5 -16t16 -38.5t-16 -38.5t-38.5 -16t-38.5 16t-16 38.5t16 38.5z" />
    <glyph glyph-name="uni1EC8" unicode="&#x1ec8;" horiz-adv-x="240" 
d="M67 1007h89q71 0 71 -74v-51q0 -36 -14 -53t-55 -20v-27h-73v93h62q13 0 13 1v62h-99v-50h-68v45q0 74 74 74zM180 0h-120v720h120v-720z" />
    <glyph glyph-name="uni1EC9" unicode="&#x1ec9;" horiz-adv-x="240" 
d="M180 0h-120v560h120v-560zM66 852h89q71 0 71 -74v-51q0 -36 -14 -53t-55 -20v-27h-73v93h62q13 0 13 1v62h-99v-50h-68v45q0 74 74 74z" />
    <glyph glyph-name="uni1ECA" unicode="&#x1eca;" horiz-adv-x="240" 
d="M83 -74q16 16 38.5 16t38.5 -16t16 -38.5t-16 -38.5t-38.5 -16t-38.5 16t-16 38.5t16 38.5zM180 0h-120v720h120v-720z" />
    <glyph glyph-name="uni1ECB" unicode="&#x1ecb;" horiz-adv-x="240" 
d="M83 -74q16 16 38.5 16t38.5 -16t16 -38.5t-16 -38.5t-38.5 -16t-38.5 16t-16 38.5t16 38.5zM180 0h-120v560h120v-560zM63 766q24 24 57 24t56 -24q24 -23 24 -56t-24 -57q-23 -23 -56 -23t-57 23q-23 24 -23 57t23 56z" />
    <glyph glyph-name="uni1ECC" unicode="&#x1ecc;" horiz-adv-x="710" 
d="M314 -74q16 16 38.5 16t38.5 -16t16 -38.5t-16 -38.5t-38.5 -16t-38.5 16t-16 38.5t16 38.5zM215 720h280q83 0 121.5 -39t38.5 -121v-400q0 -82 -38.5 -121t-121.5 -39h-280q-83 0 -121.5 39t-38.5 121v400q0 82 38.5 121t121.5 39zM535 160v400q0 48 -40 48h-280
q-40 0 -40 -48v-400q0 -48 40 -48h280q40 0 40 48z" />
    <glyph glyph-name="uni1ECD" unicode="&#x1ecd;" 
d="M271 -74q16 16 38.5 16t38.5 -16t16 -38.5t-16 -38.5t-38.5 -16t-38.5 16t-16 38.5t16 38.5zM215 560h200q83 0 121.5 -39t38.5 -121v-240q0 -82 -38.5 -121t-121.5 -39h-200q-83 0 -121.5 39t-38.5 121v240q0 82 38.5 121t121.5 39zM455 160v240q0 48 -40 48h-200
q-40 0 -40 -48v-240q0 -48 40 -48h200q40 0 40 48z" />
    <glyph glyph-name="uni1ECE" unicode="&#x1ece;" horiz-adv-x="710" 
d="M315 1007h89q71 0 71 -74v-51q0 -36 -14 -53t-55 -20v-27h-73v93h62q13 0 13 1v62h-99v-50h-68v45q0 74 74 74zM215 720h280q83 0 121.5 -39t38.5 -121v-400q0 -82 -38.5 -121t-121.5 -39h-280q-83 0 -121.5 39t-38.5 121v400q0 82 38.5 121t121.5 39zM535 160v400
q0 48 -40 48h-280q-40 0 -40 -48v-400q0 -48 40 -48h280q40 0 40 48z" />
    <glyph glyph-name="uni1ECF" unicode="&#x1ecf;" 
d="M270 852h89q71 0 71 -74v-51q0 -36 -14 -53t-55 -20v-27h-73v93h62q13 0 13 1v62h-99v-50h-68v45q0 74 74 74zM215 560h200q83 0 121.5 -39t38.5 -121v-240q0 -82 -38.5 -121t-121.5 -39h-200q-83 0 -121.5 39t-38.5 121v240q0 82 38.5 121t121.5 39zM455 160v240
q0 48 -40 48h-200q-40 0 -40 -48v-240q0 -48 40 -48h200q40 0 40 48z" />
    <glyph glyph-name="uni1ED0" unicode="&#x1ed0;" horiz-adv-x="710" 
d="M215 720h280q83 0 121.5 -39t38.5 -121v-400q0 -82 -38.5 -121t-121.5 -39h-280q-83 0 -121.5 39t-38.5 121v400q0 82 38.5 121t121.5 39zM535 160v400q0 48 -40 48h-280q-40 0 -40 -48v-400q0 -48 40 -48h280q40 0 40 48zM358 871h-10l-62 -88h-98l113 160h104l114 -160
h-98zM562 908h-87l107 160h123z" />
    <glyph glyph-name="uni1ED1" unicode="&#x1ed1;" 
d="M215 560h200q83 0 121.5 -39t38.5 -121v-240q0 -82 -38.5 -121t-121.5 -39h-200q-83 0 -121.5 39t-38.5 121v240q0 82 38.5 121t121.5 39zM455 160v240q0 48 -40 48h-200q-40 0 -40 -48v-240q0 -48 40 -48h200q40 0 40 48zM319 715h-10l-62 -88h-98l113 160h104l115 -160
h-99zM523 753h-87l107 160h123z" />
    <glyph glyph-name="uni1ED2" unicode="&#x1ed2;" horiz-adv-x="710" 
d="M215 720h280q83 0 121.5 -39t38.5 -121v-400q0 -82 -38.5 -121t-121.5 -39h-280q-83 0 -121.5 39t-38.5 121v400q0 82 38.5 121t121.5 39zM535 160v400q0 48 -40 48h-280q-40 0 -40 -48v-400q0 -48 40 -48h280q40 0 40 48zM358 871h-10l-62 -88h-98l113 160h104l114 -160
h-98zM489 1069l106 -160h-86l-144 160h124z" />
    <glyph glyph-name="uni1ED3" unicode="&#x1ed3;" 
d="M215 560h200q83 0 121.5 -39t38.5 -121v-240q0 -82 -38.5 -121t-121.5 -39h-200q-83 0 -121.5 39t-38.5 121v240q0 82 38.5 121t121.5 39zM455 160v240q0 48 -40 48h-200q-40 0 -40 -48v-240q0 -48 40 -48h200q40 0 40 48zM319 715h-10l-62 -88h-98l113 160h104l115 -160
h-99zM450 914l106 -160h-86l-144 160h124z" />
    <glyph glyph-name="uni1ED4" unicode="&#x1ed4;" horiz-adv-x="710" 
d="M215 720h280q83 0 121.5 -39t38.5 -121v-400q0 -82 -38.5 -121t-121.5 -39h-280q-83 0 -121.5 39t-38.5 121v400q0 82 38.5 121t121.5 39zM535 160v400q0 48 -40 48h-280q-40 0 -40 -48v-400q0 -48 40 -48h280q40 0 40 48zM358 871h-10l-62 -88h-98l113 160h104l114 -160
h-98zM465 1125h89q71 0 71 -74v-51q0 -36 -14 -53t-55 -20v-27h-73v93h62q13 0 13 1v62h-99v-50h-68v45q0 74 74 74z" />
    <glyph glyph-name="uni1ED5" unicode="&#x1ed5;" 
d="M215 560h200q83 0 121.5 -39t38.5 -121v-240q0 -82 -38.5 -121t-121.5 -39h-200q-83 0 -121.5 39t-38.5 121v240q0 82 38.5 121t121.5 39zM455 160v240q0 48 -40 48h-200q-40 0 -40 -48v-240q0 -48 40 -48h200q40 0 40 48zM319 715h-10l-62 -88h-98l113 160h104l115 -160
h-99zM426 969h89q71 0 71 -74v-51q0 -36 -14 -53t-55 -20v-27h-73v93h62q13 0 13 1v62h-99v-50h-68v45q0 74 74 74z" />
    <glyph glyph-name="uni1ED6" unicode="&#x1ed6;" horiz-adv-x="710" 
d="M215 720h280q83 0 121.5 -39t38.5 -121v-400q0 -82 -38.5 -121t-121.5 -39h-280q-83 0 -121.5 39t-38.5 121v400q0 82 38.5 121t121.5 39zM535 160v400q0 48 -40 48h-280q-40 0 -40 -48v-400q0 -48 40 -48h280q40 0 40 48zM358 871h-10l-62 -88h-98l113 160h104l114 -160
h-98zM276 1010l-9 -25l-75 29l13 32q16 42 38.5 52.5t64.5 -5.5l109 -31q9 -3 16 13l9 25l75 -29l-13 -32q-16 -42 -38.5 -52.5t-64.5 5.5l-109 31q-9 3 -16 -13z" />
    <glyph glyph-name="uni1ED7" unicode="&#x1ed7;" 
d="M215 560h200q83 0 121.5 -39t38.5 -121v-240q0 -82 -38.5 -121t-121.5 -39h-200q-83 0 -121.5 39t-38.5 121v240q0 82 38.5 121t121.5 39zM455 160v240q0 48 -40 48h-200q-40 0 -40 -48v-240q0 -48 40 -48h200q40 0 40 48zM319 715h-10l-62 -88h-98l113 160h104l115 -160
h-99zM237 854l-9 -25l-75 29l13 32q16 42 38.5 52.5t64.5 -5.5l109 -31q9 -3 16 13l9 25l75 -29l-13 -32q-16 -42 -38.5 -52.5t-64.5 5.5l-109 31q-9 3 -16 -13z" />
    <glyph glyph-name="uni1ED8" unicode="&#x1ed8;" horiz-adv-x="710" 
d="M215 720h280q83 0 121.5 -39t38.5 -121v-400q0 -82 -38.5 -121t-121.5 -39h-280q-83 0 -121.5 39t-38.5 121v400q0 82 38.5 121t121.5 39zM535 160v400q0 48 -40 48h-280q-40 0 -40 -48v-400q0 -48 40 -48h280q40 0 40 48zM358 871h-10l-62 -88h-98l113 160h104l114 -160
h-98zM314 -74q16 16 38.5 16t38.5 -16t16 -38.5t-16 -38.5t-38.5 -16t-38.5 16t-16 38.5t16 38.5z" />
    <glyph glyph-name="uni1ED9" unicode="&#x1ed9;" 
d="M215 560h200q83 0 121.5 -39t38.5 -121v-240q0 -82 -38.5 -121t-121.5 -39h-200q-83 0 -121.5 39t-38.5 121v240q0 82 38.5 121t121.5 39zM455 160v240q0 48 -40 48h-200q-40 0 -40 -48v-240q0 -48 40 -48h200q40 0 40 48zM319 715h-10l-62 -88h-98l113 160h104l115 -160
h-99zM271 -74q16 16 38.5 16t38.5 -16t16 -38.5t-16 -38.5t-38.5 -16t-38.5 16t-16 38.5t16 38.5z" />
    <glyph glyph-name="uni1EDA" unicode="&#x1eda;" horiz-adv-x="742" 
d="M215 720h280h12h95q36 -3 36 21v63h103v-27q4 -119 -28 -136q-21 -18 -64 -23q6 -26 6 -58v-400q0 -82 -38.5 -121t-121.5 -39h-280q-83 0 -121.5 39t-38.5 121v400q0 82 38.5 121t121.5 39zM535 160v400q0 48 -40 48h-280q-40 0 -40 -48v-400q0 -48 40 -48h280
q40 0 40 48zM372 783h-87l107 160h123z" />
    <glyph glyph-name="uni1EDB" unicode="&#x1edb;" 
d="M215 560h200h12h78q36 -3 36 21v63h103v-27q4 -119 -28 -136q-15 -13 -48 -20q7 -25 7 -61v-240q0 -82 -38.5 -121t-121.5 -39h-200q-83 0 -121.5 39t-38.5 121v240q0 82 38.5 121t121.5 39zM455 160v240q0 48 -40 48h-200q-40 0 -40 -48v-240q0 -48 40 -48h200
q40 0 40 48zM353 788h123l-143 -160h-87z" />
    <glyph glyph-name="uni1EDC" unicode="&#x1edc;" horiz-adv-x="742" 
d="M215 720h280h12h95q36 -3 36 21v63h103v-27q4 -119 -28 -136q-21 -18 -64 -23q6 -26 6 -58v-400q0 -82 -38.5 -121t-121.5 -39h-280q-83 0 -121.5 39t-38.5 121v400q0 82 38.5 121t121.5 39zM535 160v400q0 48 -40 48h-280q-40 0 -40 -48v-400q0 -48 40 -48h280
q40 0 40 48zM330 943l106 -160h-86l-144 160h124z" />
    <glyph glyph-name="uni1EDD" unicode="&#x1edd;" 
d="M215 560h200h12h78q36 -3 36 21v63h103v-27q4 -119 -28 -136q-15 -13 -48 -20q7 -25 7 -61v-240q0 -82 -38.5 -121t-121.5 -39h-200q-83 0 -121.5 39t-38.5 121v240q0 82 38.5 121t121.5 39zM455 160v240q0 48 -40 48h-200q-40 0 -40 -48v-240q0 -48 40 -48h200
q40 0 40 48zM284 787l107 -160h-87l-143 160h123z" />
    <glyph glyph-name="uni1EDE" unicode="&#x1ede;" horiz-adv-x="742" 
d="M215 720h280h12h95q36 -3 36 21v63h103v-27q4 -119 -28 -136q-21 -18 -64 -23q6 -26 6 -58v-400q0 -82 -38.5 -121t-121.5 -39h-280q-83 0 -121.5 39t-38.5 121v400q0 82 38.5 121t121.5 39zM535 160v400q0 48 -40 48h-280q-40 0 -40 -48v-400q0 -48 40 -48h280
q40 0 40 48zM315 1007h89q71 0 71 -74v-51q0 -36 -14 -53t-55 -20v-27h-73v93h62q13 0 13 1v62h-99v-50h-68v45q0 74 74 74z" />
    <glyph glyph-name="uni1EDF" unicode="&#x1edf;" 
d="M215 560h200h12h78q36 -3 36 21v63h103v-27q4 -119 -28 -136q-15 -13 -48 -20q7 -25 7 -61v-240q0 -82 -38.5 -121t-121.5 -39h-200q-83 0 -121.5 39t-38.5 121v240q0 82 38.5 121t121.5 39zM455 160v240q0 48 -40 48h-200q-40 0 -40 -48v-240q0 -48 40 -48h200
q40 0 40 48zM270 852h89q71 0 71 -74v-51q0 -36 -14 -53t-55 -20v-27h-73v93h62q13 0 13 1v62h-99v-50h-68v45q0 74 74 74z" />
    <glyph glyph-name="uni1EE0" unicode="&#x1ee0;" horiz-adv-x="742" 
d="M215 720h280h12h95q36 -3 36 21v63h103v-27q4 -119 -28 -136q-21 -18 -64 -23q6 -26 6 -58v-400q0 -82 -38.5 -121t-121.5 -39h-280q-83 0 -121.5 39t-38.5 121v400q0 82 38.5 121t121.5 39zM535 160v400q0 48 -40 48h-280q-40 0 -40 -48v-400q0 -48 40 -48h280
q40 0 40 48zM273 838l-9 -25l-75 29l13 32q16 42 38.5 52.5t64.5 -5.5l109 -31q9 -3 16 13l9 25l75 -29l-13 -32q-16 -42 -38.5 -52.5t-64.5 5.5l-109 31q-9 3 -16 -13z" />
    <glyph glyph-name="uni1EE1" unicode="&#x1ee1;" 
d="M215 560h200h12h78q36 -3 36 21v63h103v-27q4 -119 -28 -136q-15 -13 -48 -20q7 -25 7 -61v-240q0 -82 -38.5 -121t-121.5 -39h-200q-83 0 -121.5 39t-38.5 121v240q0 82 38.5 121t121.5 39zM455 160v240q0 48 -40 48h-200q-40 0 -40 -48v-240q0 -48 40 -48h200
q40 0 40 48zM245 674l-9 -25l-75 29l13 32q16 42 38.5 52.5t64.5 -5.5l109 -31q9 -3 16 13l9 25l75 -29l-13 -32q-16 -42 -38.5 -52.5t-64.5 5.5l-109 31q-9 3 -16 -13z" />
    <glyph glyph-name="uni1EE2" unicode="&#x1ee2;" horiz-adv-x="742" 
d="M215 720h280h12h95q36 -3 36 21v63h103v-27q4 -119 -28 -136q-21 -18 -64 -23q6 -26 6 -58v-400q0 -82 -38.5 -121t-121.5 -39h-280q-83 0 -121.5 39t-38.5 121v400q0 82 38.5 121t121.5 39zM535 160v400q0 48 -40 48h-280q-40 0 -40 -48v-400q0 -48 40 -48h280
q40 0 40 48zM314 -74q16 16 38.5 16t38.5 -16t16 -38.5t-16 -38.5t-38.5 -16t-38.5 16t-16 38.5t16 38.5z" />
    <glyph glyph-name="uni1EE3" unicode="&#x1ee3;" 
d="M215 560h200h12h78q36 -3 36 21v63h103v-27q4 -119 -28 -136q-15 -13 -48 -20q7 -25 7 -61v-240q0 -82 -38.5 -121t-121.5 -39h-200q-83 0 -121.5 39t-38.5 121v240q0 82 38.5 121t121.5 39zM455 160v240q0 48 -40 48h-200q-40 0 -40 -48v-240q0 -48 40 -48h200
q40 0 40 48zM271 -74q16 16 38.5 16t38.5 -16t16 -38.5t-16 -38.5t-38.5 -16t-38.5 16t-16 38.5t16 38.5z" />
    <glyph glyph-name="uni1EE4" unicode="&#x1ee4;" horiz-adv-x="720" 
d="M316 -74q16 16 38.5 16t38.5 -16t16 -38.5t-16 -38.5t-38.5 -16t-38.5 16t-16 38.5t16 38.5zM540 160v560h120v-560q0 -82 -39 -121t-121 -39h-280q-82 0 -121 39t-39 121v560h120v-560q0 -48 40 -48h280q40 0 40 48z" />
    <glyph glyph-name="uni1EE5" unicode="&#x1ee5;" horiz-adv-x="640" 
d="M276 -74q16 16 38.5 16t38.5 -16t16 -38.5t-16 -38.5t-38.5 -16t-38.5 16t-16 38.5t16 38.5zM460 160v400h120v-400q0 -82 -39 -121t-121 -39h-200q-82 0 -121 39t-39 121v400h120v-400q0 -48 40 -48h200q40 0 40 48z" />
    <glyph glyph-name="uni1EE6" unicode="&#x1ee6;" horiz-adv-x="720" 
d="M315 1007h89q71 0 71 -74v-51q0 -36 -14 -53t-55 -20v-27h-73v93h62q13 0 13 1v62h-99v-50h-68v45q0 74 74 74zM540 160v560h120v-560q0 -82 -39 -121t-121 -39h-280q-82 0 -121 39t-39 121v560h120v-560q0 -48 40 -48h280q40 0 40 48z" />
    <glyph glyph-name="uni1EE7" unicode="&#x1ee7;" horiz-adv-x="640" 
d="M270 852h89q71 0 71 -74v-51q0 -36 -14 -53t-55 -20v-27h-73v93h62q13 0 13 1v62h-99v-50h-68v45q0 74 74 74zM460 160v400h120v-400q0 -82 -39 -121t-121 -39h-200q-82 0 -121 39t-39 121v400h120v-400q0 -48 40 -48h200q40 0 40 48z" />
    <glyph glyph-name="uni1EE8" unicode="&#x1ee8;" horiz-adv-x="784" 
d="M540 160v560h114q22 1 22 21v63h103v-27q4 -119 -28 -136q-26 -23 -91 -25v-456q0 -82 -39 -121t-121 -39h-280q-82 0 -121 39t-39 121v560h120v-560q0 -48 40 -48h280q40 0 40 48zM372 783h-87l107 160h123z" />
    <glyph glyph-name="uni1EE9" unicode="&#x1ee9;" horiz-adv-x="677" 
d="M460 160v400h110q22 1 22 21v63h103v-27q4 -119 -28 -136q-25 -23 -87 -25v-296q0 -82 -39 -121t-121 -39h-200q-82 0 -121 39t-39 121v400h120v-400q0 -48 40 -48h200q40 0 40 48zM353 788h123l-143 -160h-87z" />
    <glyph glyph-name="uni1EEA" unicode="&#x1eea;" horiz-adv-x="784" 
d="M540 160v560h114q22 1 22 21v63h103v-27q4 -119 -28 -136q-26 -23 -91 -25v-456q0 -82 -39 -121t-121 -39h-280q-82 0 -121 39t-39 121v560h120v-560q0 -48 40 -48h280q40 0 40 48zM332 943l106 -160h-86l-144 160h124z" />
    <glyph glyph-name="uni1EEB" unicode="&#x1eeb;" horiz-adv-x="677" 
d="M460 160v400h110q22 1 22 21v63h103v-27q4 -119 -28 -136q-25 -23 -87 -25v-296q0 -82 -39 -121t-121 -39h-200q-82 0 -121 39t-39 121v400h120v-400q0 -48 40 -48h200q40 0 40 48zM285 787l107 -160h-87l-143 160h123z" />
    <glyph glyph-name="uni1EEC" unicode="&#x1eec;" horiz-adv-x="784" 
d="M540 160v560h114q22 1 22 21v63h103v-27q4 -119 -28 -136q-26 -23 -91 -25v-456q0 -82 -39 -121t-121 -39h-280q-82 0 -121 39t-39 121v560h120v-560q0 -48 40 -48h280q40 0 40 48zM315 1007h89q71 0 71 -74v-51q0 -36 -14 -53t-55 -20v-27h-73v93h62q13 0 13 1v62h-99
v-50h-68v45q0 74 74 74z" />
    <glyph glyph-name="uni1EED" unicode="&#x1eed;" horiz-adv-x="677" 
d="M460 160v400h110q22 1 22 21v63h103v-27q4 -119 -28 -136q-25 -23 -87 -25v-296q0 -82 -39 -121t-121 -39h-200q-82 0 -121 39t-39 121v400h120v-400q0 -48 40 -48h200q40 0 40 48zM270 852h89q71 0 71 -74v-51q0 -36 -14 -53t-55 -20v-27h-73v93h62q13 0 13 1v62h-99
v-50h-68v45q0 74 74 74z" />
    <glyph glyph-name="uni1EEE" unicode="&#x1eee;" horiz-adv-x="784" 
d="M540 160v560h114q22 1 22 21v63h103v-27q4 -119 -28 -136q-26 -23 -91 -25v-456q0 -82 -39 -121t-121 -39h-280q-82 0 -121 39t-39 121v560h120v-560q0 -48 40 -48h280q40 0 40 48zM281 838l-9 -25l-75 29l13 32q16 42 38.5 52.5t64.5 -5.5l109 -31q9 -3 16 13l9 25
l75 -29l-13 -32q-16 -42 -38.5 -52.5t-64.5 5.5l-109 31q-9 3 -16 -13z" />
    <glyph glyph-name="uni1EEF" unicode="&#x1eef;" horiz-adv-x="677" 
d="M460 160v400h110q22 1 22 21v63h103v-27q4 -119 -28 -136q-25 -23 -87 -25v-296q0 -82 -39 -121t-121 -39h-200q-82 0 -121 39t-39 121v400h120v-400q0 -48 40 -48h200q40 0 40 48zM240 674l-9 -25l-75 29l13 32q16 42 38.5 52.5t64.5 -5.5l109 -31q9 -3 16 13l9 25
l75 -29l-13 -32q-16 -42 -38.5 -52.5t-64.5 5.5l-109 31q-9 3 -16 -13z" />
    <glyph glyph-name="uni1EF0" unicode="&#x1ef0;" horiz-adv-x="784" 
d="M540 160v560h114q22 1 22 21v63h103v-27q4 -119 -28 -136q-26 -23 -91 -25v-456q0 -82 -39 -121t-121 -39h-280q-82 0 -121 39t-39 121v560h120v-560q0 -48 40 -48h280q40 0 40 48zM316 -74q16 16 38.5 16t38.5 -16t16 -38.5t-16 -38.5t-38.5 -16t-38.5 16t-16 38.5
t16 38.5z" />
    <glyph glyph-name="uni1EF1" unicode="&#x1ef1;" horiz-adv-x="677" 
d="M460 160v400h110q22 1 22 21v63h103v-27q4 -119 -28 -136q-25 -23 -87 -25v-296q0 -82 -39 -121t-121 -39h-200q-82 0 -121 39t-39 121v400h120v-400q0 -48 40 -48h200q40 0 40 48zM276 -74q16 16 38.5 16t38.5 -16t16 -38.5t-16 -38.5t-38.5 -16t-38.5 16t-16 38.5
t16 38.5z" />
    <glyph glyph-name="Ygrave" unicode="&#x1ef2;" horiz-adv-x="664" 
d="M304 943l106 -160h-86l-144 160h124zM517 720h137l-262 -477v-243h-120v243l-262 477h137l180 -328h10z" />
    <glyph glyph-name="ygrave" unicode="&#x1ef3;" horiz-adv-x="605" 
d="M288 787l107 -160h-87l-143 160h123zM307 112l160 448h128l-272 -760h-127l71 200h-57l-200 560h127l160 -448h10z" />
    <glyph glyph-name="uni1EF4" unicode="&#x1ef4;" horiz-adv-x="664" 
d="M293 -74q16 16 38.5 16t38.5 -16t16 -38.5t-16 -38.5t-38.5 -16t-38.5 16t-16 38.5t16 38.5zM517 720h137l-262 -477v-243h-120v243l-262 477h137l180 -328h10z" />
    <glyph glyph-name="uni1EF5" unicode="&#x1ef5;" horiz-adv-x="605" 
d="M439 -74q16 16 38.5 16t38.5 -16t16 -38.5t-16 -38.5t-38.5 -16t-38.5 16t-16 38.5t16 38.5zM307 112l160 448h128l-272 -760h-127l71 200h-57l-200 560h127l160 -448h10z" />
    <glyph glyph-name="uni1EF6" unicode="&#x1ef6;" horiz-adv-x="664" 
d="M290 1007h89q71 0 71 -74v-51q0 -36 -14 -53t-55 -20v-27h-73v93h62q13 0 13 1v62h-99v-50h-68v45q0 74 74 74zM517 720h137l-262 -477v-243h-120v243l-262 477h137l180 -328h10z" />
    <glyph glyph-name="uni1EF7" unicode="&#x1ef7;" horiz-adv-x="605" 
d="M258 852h89q71 0 71 -74v-51q0 -36 -14 -53t-55 -20v-27h-73v93h62q13 0 13 1v62h-99v-50h-68v45q0 74 74 74zM307 112l160 448h128l-272 -760h-127l71 200h-57l-200 560h127l160 -448h10z" />
    <glyph glyph-name="uni1EF8" unicode="&#x1ef8;" horiz-adv-x="664" 
d="M247 838l-9 -25l-75 29l13 32q16 42 38.5 52.5t64.5 -5.5l109 -31q9 -3 16 13l9 25l75 -29l-13 -32q-16 -42 -38.5 -52.5t-64.5 5.5l-109 31q-9 3 -16 -13zM517 720h137l-262 -477v-243h-120v243l-262 477h137l180 -328h10z" />
    <glyph glyph-name="uni1EF9" unicode="&#x1ef9;" horiz-adv-x="605" 
d="M220 674l-9 -25l-75 29l13 32q16 42 38.5 52.5t64.5 -5.5l109 -31q9 -3 16 13l9 25l75 -29l-13 -32q-16 -42 -38.5 -52.5t-64.5 5.5l-109 31q-9 3 -16 -13zM307 112l160 448h128l-272 -760h-127l71 200h-57l-200 560h127l160 -448h10z" />
    <glyph glyph-name="uni1EFA" unicode="&#x1efa;" horiz-adv-x="0" 
d="M597 740v63h98v-27q2 -42 -7 -77.5t-26 -50.5q-38 -28 -101 -25h-128v96h128q36 -3 36 21z" />
    <glyph glyph-name="uni1EFB" unicode="&#x1efb;" horiz-adv-x="0" 
d="M283 932h89q71 0 71 -74v-51q0 -36 -14 -53t-55 -20v-26h-73v98h56q13 0 13 1v50h-87v-44h-74v45q0 74 74 74z" />
    <glyph glyph-name="endash" unicode="&#x2013;" horiz-adv-x="580" 
d="M50 336h480v-112h-480v112z" />
    <glyph glyph-name="emdash" unicode="&#x2014;" horiz-adv-x="720" 
d="M50 336h620v-112h-620v112z" />
    <glyph glyph-name="quoteleft" unicode="&#x2018;" horiz-adv-x="300" 
d="M50 510l105 210h95l-53 -210h-147z" />
    <glyph glyph-name="quoteright" unicode="&#x2019;" horiz-adv-x="300" 
d="M250 720l-105 -210h-95l52 210h148z" />
    <glyph glyph-name="quotesinglbase" unicode="&#x201a;" horiz-adv-x="300" 
d="M250 210l-105 -210h-95l52 210h148z" />
    <glyph glyph-name="quotedblleft" unicode="&#x201c;" horiz-adv-x="480" 
d="M50 510l105 210h95l-53 -210h-147zM230 510l105 210h95l-53 -210h-147z" />
    <glyph glyph-name="quotedblright" unicode="&#x201d;" horiz-adv-x="480" 
d="M430 720l-105 -210h-95l52 210h148zM250 720l-105 -210h-95l52 210h148z" />
    <glyph glyph-name="quotedblbase" unicode="&#x201e;" horiz-adv-x="480" 
d="M430 210l-105 -210h-95l52 210h148zM250 210l-105 -210h-95l52 210h148z" />
    <glyph glyph-name="dagger" unicode="&#x2020;" horiz-adv-x="680" 
d="M630 560v-112h-230v-568h-120v568h-230v112h230v160h120v-160h230z" />
    <glyph glyph-name="daggerdbl" unicode="&#x2021;" horiz-adv-x="680" 
d="M630 560v-112h-230v-296h230v-112h-230v-160h-120v160h-230v112h230v296h-230v112h230v160h120v-160h230z" />
    <glyph glyph-name="bullet" unicode="&#x2022;" horiz-adv-x="360" 
d="M88 372q38 38 92 38t92 -38t38 -92t-38 -92t-92 -38t-92 38t-38 92t38 92z" />
    <glyph glyph-name="ellipsis" unicode="&#x2026;" horiz-adv-x="660" 
d="M73 126q24 24 57 24t56 -24q24 -23 24 -56t-24 -57q-23 -23 -56 -23t-57 23q-23 24 -23 57t23 56zM273 126q24 24 57 24t56 -24q24 -23 24 -56t-24 -57q-23 -23 -56 -23t-57 23q-23 24 -23 57t23 56zM473 126q24 24 57 24t56 -24q24 -23 24 -56t-24 -57q-23 -23 -56 -23
t-57 23q-23 24 -23 57t23 56z" />
    <glyph glyph-name="perthousand" unicode="&#x2030;" horiz-adv-x="1270" 
d="M375 600v-120q0 -68 -26.5 -94t-93.5 -26h-80q-67 0 -93.5 26t-26.5 94v120q0 68 26.5 94t93.5 26h80q67 0 93.5 -26t26.5 -94zM135 600v-120q0 -28 8 -38t32 -10h80q24 0 32 10t8 38v120q0 28 -8 38t-32 10h-80q-24 0 -32 -10t-8 -38zM635 360h80q67 0 93.5 -26
t26.5 -94v-120q0 -68 -26.5 -94t-93.5 -26h-80q-67 0 -93.5 26t-26.5 94v120q0 68 26.5 94t93.5 26zM755 120v120q0 28 -8 38t-32 10h-80q-24 0 -32 -10t-8 -38v-120q0 -28 8 -38t32 -10h80q24 0 32 10t8 38zM1015 360h80q67 0 93.5 -26t26.5 -94v-120q0 -68 -26.5 -94
t-93.5 -26h-80q-67 0 -93.5 26t-26.5 94v120q0 68 26.5 94t93.5 26zM1135 120v120q0 28 -8 38t-32 10h-80q-24 0 -32 -10t-8 -38v-120q0 -28 8 -38t32 -10h80q24 0 32 10t8 38zM220 0l360 720h90l-360 -720h-90z" />
    <glyph glyph-name="guilsinglleft" unicode="&#x2039;" horiz-adv-x="400" 
d="M200 480h150l-150 -200l150 -200h-150l-150 200z" />
    <glyph glyph-name="guilsinglright" unicode="&#x203a;" horiz-adv-x="400" 
d="M200 280l-150 200h150l150 -200l-150 -200h-150z" />
    <glyph glyph-name="fraction" unicode="&#x2044;" horiz-adv-x="469" 
d="M10 0l360 720h89l-360 -720h-89z" />
    <glyph glyph-name="Euro" unicode="&#x20ac;" horiz-adv-x="750" 
d="M580 160v80h120v-80q0 -82 -39 -121t-121 -39h-280q-82 0 -121 39t-39 121v90h-80v72h380v-72h-180v-90q0 -48 40 -48h280q40 0 40 48zM260 720h280q82 0 121 -39t39 -121v-80h-120v80q0 48 -40 48h-280q-40 0 -40 -48v-90h180v-72h-380v72h80v90q0 82 39 121t121 39z
" />
    <glyph glyph-name="afii61289" unicode="&#x2113;" horiz-adv-x="415" 
d="M175 720h80q67 0 93.5 -26t26.5 -94v-220q0 -68 -26.5 -94t-93.5 -26h-120v-140q0 -28 8 -38t32 -10h120v-72h-120q-67 0 -93.5 26t-26.5 94v480q0 68 26.5 94t93.5 26zM295 380v220q0 28 -8 38t-32 10h-80q-24 0 -32 -10t-8 -38v-268h120q24 0 32 10t8 38z" />
    <glyph glyph-name="trademark" unicode="&#x2122;" horiz-adv-x="850" 
d="M595 512l47 208h148v-360h-80v288h-10l-48 -208h-125l-47 208h-10v-288h-80v360h147l48 -208h10zM135 648h-125v72h330v-72h-125v-288h-80v288z" />
    <glyph glyph-name="Omega" unicode="&#x2126;" horiz-adv-x="680" 
d="M560 122v-10h100v-112h-220v173h20q22 0 31 10.5t9 33.5v303q0 48 -40 48h-240q-40 0 -40 -48v-303q0 -23 9 -33.5t31 -10.5h20v-173h-220v112h100v10q-2 0 -6.5 1.5t-14.5 7.5t-18 15.5t-14.5 28t-6.5 42.5v303q0 82 39 121t121 39h240q82 0 121 -39t39 -121v-303
q0 -35 -14 -59.5t-31 -30.5z" />
    <glyph glyph-name="estimated" unicode="&#x212e;" horiz-adv-x="840" 
d="M708 180h35q-48 -86 -135 -138q-85 -52 -188 -52q-152 0 -262 108q-108 110 -108 262q0 153 108 261q109 109 262 109t261 -109q109 -108 109 -261v-14h-580v-253q91 -73 210 -73q89 0 165.5 43t122.5 117zM210 627v-253h420v253q-91 73 -210 73t-210 -73z" />
    <glyph glyph-name="partialdiff" unicode="&#x2202;" 
d="M135 760h280q83 0 121.5 -39t38.5 -121v-440q0 -82 -38.5 -121t-121.5 -39h-200q-83 0 -121.5 39t-38.5 121v160q0 82 38.5 121t121.5 39h240v120q0 48 -40 48h-280v112zM455 160v208h-240q-40 0 -40 -48v-160q0 -48 40 -48h200q40 0 40 48z" />
    <glyph glyph-name="increment" unicode="&#x2206;" horiz-adv-x="683" 
d="M247 720h189l237 -720h-663zM336 608l-163 -496h336l-163 496h-10z" />
    <glyph glyph-name="product" unicode="&#x220f;" horiz-adv-x="720" 
d="M60 0v720h600v-720h-120v608h-360v-608h-120z" />
    <glyph glyph-name="summation" unicode="&#x2211;" horiz-adv-x="640" 
d="M620 720v-112h-480v-10l280 -265v-106l-280 -265v-10h480v-112h-600v170l280 265v10l-280 265v170h600z" />
    <glyph glyph-name="minus" unicode="&#x2212;" horiz-adv-x="580" 
d="M50 336h480v-112h-480v112z" />
    <glyph glyph-name="uni2215" unicode="&#x2215;" horiz-adv-x="469" 
d="M10 0l360 720h89l-360 -720h-89z" />
    <glyph glyph-name="uni2219" unicode="&#x2219;" horiz-adv-x="260" 
d="M73 336q24 24 57 24t56 -24q24 -23 24 -56t-24 -57q-23 -23 -56 -23t-57 23q-23 24 -23 57t23 56z" />
    <glyph glyph-name="radical" unicode="&#x221a;" horiz-adv-x="680" 
d="M333 -108l255 1048h82l-273 -1120h-139l-129 528h-99v72h164l129 -528h10z" />
    <glyph glyph-name="infinity" unicode="&#x221e;" horiz-adv-x="900" 
d="M550 480h140q82 0 121 -39t39 -121v-80q0 -82 -39 -121t-121 -39h-140q-35 0 -59.5 14t-30.5 31l-5 15h-10q0 -2 -1.5 -6.5t-7.5 -14.5t-15.5 -18t-28 -14.5t-42.5 -6.5h-140q-82 0 -121 39t-39 121v80q0 82 39 121t121 39h140q35 0 59.5 -14t30.5 -31l5 -15h10
q0 2 1.5 6.5t7.5 14.5t15.5 18t28 14.5t42.5 6.5zM390 240v80q0 48 -40 48h-140q-40 0 -40 -48v-80q0 -48 40 -48h140q40 0 40 48zM730 240v80q0 48 -40 48h-140q-40 0 -40 -48v-80q0 -48 40 -48h140q40 0 40 48z" />
    <glyph glyph-name="integral" unicode="&#x222b;" horiz-adv-x="440" 
d="M300 800h120v-72h-120q-24 0 -32 -10t-8 -38v-680q0 -68 -26 -94t-94 -26h-120v72h120q24 0 32 10t8 38v680q0 68 26 94t94 26z" />
    <glyph glyph-name="approxequal" unicode="&#x2248;" horiz-adv-x="580" 
d="M410 484v56h120v-56q0 -75 -32.5 -107.5t-107.5 -32.5h-200q-12 0 -16 -6t-4 -22v-56h-120v56q0 75 32.5 107.5t107.5 32.5h200q20 0 20 28zM410 244v56h120v-56q0 -75 -32.5 -107.5t-107.5 -32.5h-200q-12 0 -16 -6t-4 -22v-56h-120v56q0 75 32.5 107.5t107.5 32.5h200
q20 0 20 28z" />
    <glyph glyph-name="notequal" unicode="&#x2260;" horiz-adv-x="580" 
d="M530 430v-112h-176l-38 -76h214v-112h-270l-40 -80h-90l40 80h-120v112h176l38 76h-214v112h270l40 80h90l-40 -80h120z" />
    <glyph glyph-name="lessequal" unicode="&#x2264;" horiz-adv-x="580" 
d="M530 40h-480v112h480v-112zM530 521v-114l-360 -52v-10l360 -53v-113l-480 70v202z" />
    <glyph glyph-name="greaterequal" unicode="&#x2265;" horiz-adv-x="580" 
d="M530 152v-112h-480v112h480zM410 355l-360 52v114l480 -70v-202l-480 -70v113l360 53v10z" />
    <glyph glyph-name="lozenge" unicode="&#x25ca;" horiz-adv-x="664" 
d="M278 0l-228 360l228 360h108l228 -360l-228 -360h-108zM337 72l183 288l-183 288h-10l-182 -288l182 -288h10z" />
    <glyph glyph-name="f_f_j" unicode="&#xe095;" horiz-adv-x="880" 
d="M500 620v-60h320v-620q0 -75 -32.5 -107.5t-107.5 -32.5h-100v112h100q20 0 20 28v508h-200v-448h-120v448h-200v-448h-120v620q0 75 32.5 107.5t107.5 32.5h140v-112h-140q-12 0 -16 -6t-4 -22v-60h200v60q0 75 32.5 107.5t107.5 32.5h180v-112h-180q-12 0 -16 -6
t-4 -22z" />
    <glyph glyph-name="f_j" unicode="&#xe09a;" horiz-adv-x="560" 
d="M180 620v-60h320v-620q0 -75 -32.5 -107.5t-107.5 -32.5h-100v112h100q20 0 20 28v508h-200v-448h-120v620q0 75 32.5 107.5t107.5 32.5h180v-112h-180q-12 0 -16 -6t-4 -22z" />
    <glyph glyph-name="lslash.sc" unicode="&#xf6f9;" horiz-adv-x="620" 
d="M250 228v-116h360v-112h-480v168l-120 -60v84l120 60v308h120v-248l180 90v-84z" />
    <glyph glyph-name="oe.sc" unicode="&#xf6fa;" horiz-adv-x="980" 
d="M935 560v-112h-360v-112h350v-112h-350v-112h360v-112h-720q-83 0 -121.5 39t-38.5 121v240q0 82 38.5 121t121.5 39h720zM215 112h240v336h-240q-40 0 -40 -48v-240q0 -48 40 -48z" />
    <glyph glyph-name="scaron.sc" unicode="&#xf6fd;" horiz-adv-x="620" 
d="M570 400v-40h-120v40q0 48 -40 48h-200q-40 0 -40 -48q0 -14 1.5 -20t10.5 -13.5t28 -14.5l200 -50q68 -17 108 -41q52 -29 52 -101q0 -82 -39 -121t-121 -39h-200q-82 0 -121 39t-39 121v40h120v-40q0 -48 40 -48h200q40 0 40 48q0 14 -1.5 20t-10.5 13.5t-28 14.5
l-200 50q-67 17 -109 40q-51 31 -51 102q0 82 39 121t121 39h200q82 0 121 -39t39 -121zM476 800l-115 -160h-104l-113 160h98l62 -88h10l63 88h99z" />
    <glyph glyph-name="zcaron.sc" unicode="&#xf6ff;" horiz-adv-x="610" 
d="M565 560v-183l-400 -255v-10h400v-112h-520v182l400 256v10h-400v112h520zM471 800l-115 -160h-104l-113 160h98l62 -88h10l63 88h99z" />
    <glyph glyph-name="a.sc" unicode="&#xf761;" horiz-adv-x="605" 
d="M210 560h185l200 -560h-128l-44 124h-241l-45 -124h-127zM297 448l-75 -212h161l-76 212h-10z" />
    <glyph glyph-name="b.sc" unicode="&#xf762;" horiz-adv-x="635" 
d="M580 400v-20q0 -35 -14 -59.5t-31 -30.5l-15 -5v-10q2 0 6.5 -1.5t14.5 -7.5t18 -15.5t14.5 -28t6.5 -42.5v-20q0 -82 -39 -121t-121 -39h-360v560h360q82 0 121 -39t39 -121zM460 160v20q0 54 -40 54h-240v-122h240q40 0 40 48zM460 380v20q0 48 -40 48h-240v-122h240
q40 0 40 54z" />
    <glyph glyph-name="c.sc" unicode="&#xf763;" horiz-adv-x="625" 
d="M455 160v40h120v-40q0 -82 -38.5 -121t-121.5 -39h-200q-83 0 -121.5 39t-38.5 121v240q0 82 38.5 121t121.5 39h200q83 0 121.5 -39t38.5 -121v-40h-120v40q0 48 -40 48h-200q-40 0 -40 -48v-240q0 -48 40 -48h200q40 0 40 48z" />
    <glyph glyph-name="d.sc" unicode="&#xf764;" horiz-adv-x="635" 
d="M60 560h360q82 0 121 -39t39 -121v-240q0 -82 -39 -121t-121 -39h-360v560zM460 160v240q0 48 -40 48h-240v-336h240q40 0 40 48z" />
    <glyph glyph-name="e.sc" unicode="&#xf765;" horiz-adv-x="585" 
d="M540 560v-112h-360v-112h350v-112h-350v-112h360v-112h-480v560h480z" />
    <glyph glyph-name="f.sc" unicode="&#xf766;" horiz-adv-x="575" 
d="M180 224v-224h-120v560h480v-112h-360v-112h350v-112h-350z" />
    <glyph glyph-name="g.sc" unicode="&#xf767;" 
d="M575 400v-40h-120v40q0 48 -40 48h-200q-40 0 -40 -48v-240q0 -48 40 -48h200q40 0 40 48v74h-140v92h260v-166q0 -82 -38.5 -121t-121.5 -39h-200q-83 0 -121.5 39t-38.5 121v240q0 82 38.5 121t121.5 39h200q83 0 121.5 -39t38.5 -121z" />
    <glyph glyph-name="h.sc" unicode="&#xf768;" horiz-adv-x="640" 
d="M460 336v224h120v-560h-120v224h-280v-224h-120v560h120v-224h280z" />
    <glyph glyph-name="i.sc" unicode="&#xf769;" horiz-adv-x="240" 
d="M180 0h-120v560h120v-560z" />
    <glyph glyph-name="j.sc" unicode="&#xf76a;" horiz-adv-x="620" 
d="M440 160v400h120v-400q0 -82 -39 -121t-121 -39h-200q-82 0 -121 39t-39 121v120h120v-120q0 -48 40 -48h200q40 0 40 48z" />
    <glyph glyph-name="k.sc" unicode="&#xf76b;" horiz-adv-x="610" 
d="M600 560l-169 -280l169 -280h-140l-135 224h-145v-224h-120v560h120v-224h145l135 224h140z" />
    <glyph glyph-name="l.sc" unicode="&#xf76c;" horiz-adv-x="550" 
d="M60 560h120v-448h360v-112h-480v560z" />
    <glyph glyph-name="m.sc" unicode="&#xf76d;" horiz-adv-x="760" 
d="M385 212l100 348h215v-560h-120v448h-10l-100 -348h-180l-100 348h-10v-448h-120v560h215l100 -348h10z" />
    <glyph glyph-name="n.sc" unicode="&#xf76e;" horiz-adv-x="640" 
d="M460 112v448h120v-560h-210l-180 448h-10v-448h-120v560h210l180 -448h10z" />
    <glyph glyph-name="o.sc" unicode="&#xf76f;" 
d="M215 560h200q83 0 121.5 -39t38.5 -121v-240q0 -82 -38.5 -121t-121.5 -39h-200q-83 0 -121.5 39t-38.5 121v240q0 82 38.5 121t121.5 39zM455 160v240q0 48 -40 48h-200q-40 0 -40 -48v-240q0 -48 40 -48h200q40 0 40 48z" />
    <glyph glyph-name="p.sc" unicode="&#xf770;" horiz-adv-x="620" 
d="M60 560h360q82 0 121 -39t39 -121v-80q0 -82 -39 -121t-121 -39h-240v-160h-120v560zM460 320v80q0 48 -40 48h-240v-176h240q40 0 40 48z" />
    <glyph glyph-name="q.sc" unicode="&#xf771;" 
d="M215 560h200q83 0 121.5 -39t38.5 -121v-240q0 -82 -38.5 -121t-121.5 -39h-40v-160h-120v160h-40q-83 0 -121.5 39t-38.5 121v240q0 82 38.5 121t121.5 39zM455 160v240q0 48 -40 48h-200q-40 0 -40 -48v-240q0 -48 40 -48h200q40 0 40 48z" />
    <glyph glyph-name="r.sc" unicode="&#xf772;" 
d="M580 400v-80q0 -139 -117 -157l98 -163h-140l-96 160h-145v-160h-120v560h360q82 0 121 -39t39 -121zM180 448v-176h240q40 0 40 48v80q0 48 -40 48h-240z" />
    <glyph glyph-name="s.sc" unicode="&#xf773;" horiz-adv-x="620" 
d="M570 160q0 -82 -39 -121t-121 -39h-200q-82 0 -121 39t-39 121v40h120v-40q0 -48 40 -48h200q40 0 40 48q0 14 -1.5 20t-10.5 13.5t-28 14.5l-200 50q-67 17 -109 40q-51 31 -51 102q0 82 39 121t121 39h200q82 0 121 -39t39 -121v-40h-120v40q0 48 -40 48h-200
q-40 0 -40 -48q0 -14 1.5 -20t10.5 -13.5t28 -14.5l200 -50q68 -17 108 -41q52 -29 52 -101z" />
    <glyph glyph-name="t.sc" unicode="&#xf774;" horiz-adv-x="540" 
d="M10 560h520v-112h-200v-448h-120v448h-200v112z" />
    <glyph glyph-name="u.sc" unicode="&#xf775;" horiz-adv-x="640" 
d="M460 160v400h120v-400q0 -82 -39 -121t-121 -39h-200q-82 0 -121 39t-39 121v400h120v-400q0 -48 40 -48h200q40 0 40 48z" />
    <glyph glyph-name="v.sc" unicode="&#xf776;" horiz-adv-x="605" 
d="M137 560l160 -448h10l160 448h128l-200 -560h-185l-200 560h127z" />
    <glyph glyph-name="w.sc" unicode="&#xf777;" horiz-adv-x="905" 
d="M659 112l103 448h123l-128 -560h-197l-103 448h-10l-102 -448h-197l-128 560h123l103 -448h10l102 448h189l102 -448h10z" />
    <glyph glyph-name="x.sc" unicode="&#xf778;" horiz-adv-x="580" 
d="M570 560l-169 -280l169 -280h-140l-135 224h-10l-135 -224h-140l169 280l-169 280h140l135 -224h10l135 224h140z" />
    <glyph glyph-name="y.sc" unicode="&#xf779;" horiz-adv-x="582" 
d="M296 322l138 238h138l-221 -383v-177h-120v177l-221 383h139l137 -238h10z" />
    <glyph glyph-name="z.sc" unicode="&#xf77a;" horiz-adv-x="610" 
d="M565 560v-183l-400 -255v-10h400v-112h-520v182l400 256v10h-400v112h520z" />
    <glyph glyph-name="agrave.sc" unicode="&#xf7e0;" horiz-adv-x="605" 
d="M210 560h185l200 -560h-128l-44 124h-241l-45 -124h-127zM297 448l-75 -212h161l-76 212h-10zM266 800l106 -160h-86l-144 160h124z" />
    <glyph glyph-name="aacute.sc" unicode="&#xf7e1;" horiz-adv-x="605" 
d="M10 0l200 560h185l200 -560h-128l-44 124h-241l-45 -124h-127zM222 236h161l-76 212h-10zM319 640h-87l107 160h123z" />
    <glyph glyph-name="acircumflex.sc" unicode="&#xf7e2;" horiz-adv-x="605" 
d="M210 560h185l200 -560h-128l-44 124h-241l-45 -124h-127zM297 448l-75 -212h161l-76 212h-10zM307 728h-10l-62 -88h-98l113 160h104l114 -160h-98z" />
    <glyph glyph-name="atilde.sc" unicode="&#xf7e3;" horiz-adv-x="605" 
d="M210 560h185l200 -560h-128l-44 124h-241l-45 -124h-127zM297 448l-75 -212h161l-76 212h-10zM252 666v-26h-80v36q0 45 17.5 62.5t62.5 17.5h90q10 0 10 18v26h80v-36q0 -45 -17.5 -62.5t-62.5 -17.5h-90q-10 0 -10 -18z" />
    <glyph glyph-name="adieresis.sc" unicode="&#xf7e4;" horiz-adv-x="605" 
d="M210 560h185l200 -560h-128l-44 124h-241l-45 -124h-127zM297 448l-75 -212h161l-76 212h-10zM261 650q-20 -20 -49 -20t-50 20q-20 21 -20 50t20 49q21 21 50 21t49 -21q21 -20 21 -49t-21 -50zM441 650q-20 -20 -49 -20t-50 20q-20 21 -20 50t20 49q21 21 50 21t49 -21
q21 -20 21 -49t-21 -50z" />
    <glyph glyph-name="aring.sc" unicode="&#xf7e5;" horiz-adv-x="605" 
d="M376 661q-30 -31 -74 -31t-75 31q-30 31 -30 74t30 74q31 31 75 31t74 -31q31 -31 31 -74t-31 -74zM302 770q-14 0 -24.5 -10.5t-10.5 -24.5t10.5 -24.5t24.5 -10.5q21 0 30 17.5t0 35t-30 17.5zM210 560h185l200 -560h-128l-44 124h-241l-45 -124h-127zM297 448
l-75 -212h161l-76 212h-10z" />
    <glyph glyph-name="ae.sc" unicode="&#xf7e6;" horiz-adv-x="932" 
d="M887 560v-112h-360v-112h350v-112h-350v-112h360v-112h-480v124h-190l-70 -124h-137l312 560h565zM279 236h128v212h-10z" />
    <glyph glyph-name="ccedilla.sc" unicode="&#xf7e7;" horiz-adv-x="625" 
d="M575 400v-40h-120v40q0 48 -40 48h-200q-40 0 -40 -48v-240q0 -48 40 -48h200q40 0 40 48v40h120v-40q0 -82 -38.5 -121t-121.5 -39h-90v-40h40q45 0 62.5 -17.5t17.5 -62.5v-40q0 -45 -17.5 -62.5t-62.5 -17.5h-180v72h170q10 0 10 18v20q0 18 -10 18h-110v112h-30
q-83 0 -121.5 39t-38.5 121v240q0 82 38.5 121t121.5 39h200q83 0 121.5 -39t38.5 -121z" />
    <glyph glyph-name="egrave.sc" unicode="&#xf7e8;" horiz-adv-x="585" 
d="M263 800l107 -160h-87l-143 160h123zM540 560v-112h-360v-112h350v-112h-350v-112h360v-112h-480v560h480z" />
    <glyph glyph-name="eacute.sc" unicode="&#xf7e9;" horiz-adv-x="585" 
d="M337 800h123l-143 -160h-87zM540 560v-112h-360v-112h350v-112h-350v-112h360v-112h-480v560h480z" />
    <glyph glyph-name="ecircumflex.sc" unicode="&#xf7ea;" horiz-adv-x="585" 
d="M540 560v-112h-360v-112h350v-112h-350v-112h360v-112h-480v560h480zM304 728h-10l-62 -88h-98l113 160h104l115 -160h-99z" />
    <glyph glyph-name="edieresis.sc" unicode="&#xf7eb;" horiz-adv-x="585" 
d="M540 560v-112h-360v-112h350v-112h-350v-112h360v-112h-480v560h480zM259 650q-20 -20 -49 -20t-50 20q-20 21 -20 50t20 49q21 21 50 21t49 -21q21 -20 21 -49t-21 -50zM439 650q-20 -20 -49 -20t-50 20q-20 21 -20 50t20 49q21 21 50 21t49 -21q21 -20 21 -49t-21 -50z
" />
    <glyph glyph-name="igrave.sc" unicode="&#xf7ec;" horiz-adv-x="240" 
d="M180 560v-560h-120v560h120zM103 640l-143 160h123l107 -160h-87z" />
    <glyph glyph-name="iacute.sc" unicode="&#xf7ed;" horiz-adv-x="240" 
d="M180 0h-120v560h120v-560zM157 800h123l-143 -160h-87z" />
    <glyph glyph-name="icircumflex.sc" unicode="&#xf7ee;" horiz-adv-x="240" 
d="M180 0h-120v560h120v-560zM67 800h104l114 -160h-98l-63 88h-10l-62 -88h-98z" />
    <glyph glyph-name="idieresis.sc" unicode="&#xf7ef;" horiz-adv-x="240" 
d="M180 0h-120v560h120v-560zM79 749q21 -20 21 -49t-21 -50q-20 -20 -49 -20t-49 20q-21 21 -21 50t21 49q20 21 49 21t49 -21zM160 749q21 21 50 21t49 -21q21 -20 21 -49t-21 -50q-20 -20 -49 -20t-50 20q-20 21 -20 50t20 49z" />
    <glyph glyph-name="eth.sc" unicode="&#xf7f0;" horiz-adv-x="675" 
d="M100 560h360q82 0 121 -39t39 -121v-240q0 -82 -39 -121t-121 -39h-360v224h-80v112h80v224zM500 160v240q0 48 -40 48h-240v-112h150v-112h-150v-112h240q40 0 40 48z" />
    <glyph glyph-name="ntilde.sc" unicode="&#xf7f1;" horiz-adv-x="640" 
d="M460 112v448h120v-560h-210l-180 448h-10v-448h-120v560h210l180 -448h10zM270 666v-26h-80v36q0 45 17.5 62.5t62.5 17.5h90q10 0 10 18v26h80v-36q0 -45 -17.5 -62.5t-62.5 -17.5h-90q-10 0 -10 -18z" />
    <glyph glyph-name="ograve.sc" unicode="&#xf7f2;" 
d="M215 560h200q83 0 121.5 -39t38.5 -121v-240q0 -82 -38.5 -121t-121.5 -39h-200q-83 0 -121.5 39t-38.5 121v240q0 82 38.5 121t121.5 39zM455 160v240q0 48 -40 48h-200q-40 0 -40 -48v-240q0 -48 40 -48h200q40 0 40 48zM278 800l107 -160h-87l-143 160h123z" />
    <glyph glyph-name="oacute.sc" unicode="&#xf7f3;" 
d="M215 560h200q83 0 121.5 -39t38.5 -121v-240q0 -82 -38.5 -121t-121.5 -39h-200q-83 0 -121.5 39t-38.5 121v240q0 82 38.5 121t121.5 39zM175 400v-240q0 -48 40 -48h200q40 0 40 48v240q0 48 -40 48h-200q-40 0 -40 -48zM332 640h-87l107 160h123z" />
    <glyph glyph-name="ocircumflex.sc" unicode="&#xf7f4;" 
d="M215 560h200q83 0 121.5 -39t38.5 -121v-240q0 -82 -38.5 -121t-121.5 -39h-200q-83 0 -121.5 39t-38.5 121v240q0 82 38.5 121t121.5 39zM455 160v240q0 48 -40 48h-200q-40 0 -40 -48v-240q0 -48 40 -48h200q40 0 40 48zM319 728h-10l-62 -88h-98l113 160h104l115 -160
h-99z" />
    <glyph glyph-name="otilde.sc" unicode="&#xf7f5;" 
d="M265 666v-26h-80v36q0 45 17.5 62.5t62.5 17.5h90q10 0 10 18v26h80v-36q0 -45 -17.5 -62.5t-62.5 -17.5h-90q-10 0 -10 -18zM215 560h200q83 0 121.5 -39t38.5 -121v-240q0 -82 -38.5 -121t-121.5 -39h-200q-83 0 -121.5 39t-38.5 121v240q0 82 38.5 121t121.5 39z
M455 160v240q0 48 -40 48h-200q-40 0 -40 -48v-240q0 -48 40 -48h200q40 0 40 48z" />
    <glyph glyph-name="odieresis.sc" unicode="&#xf7f6;" 
d="M215 560h200q83 0 121.5 -39t38.5 -121v-240q0 -82 -38.5 -121t-121.5 -39h-200q-83 0 -121.5 39t-38.5 121v240q0 82 38.5 121t121.5 39zM455 160v240q0 48 -40 48h-200q-40 0 -40 -48v-240q0 -48 40 -48h200q40 0 40 48zM274 650q-20 -20 -49 -20t-50 20q-20 21 -20 50
t20 49q21 21 50 21t49 -21q21 -20 21 -49t-21 -50zM454 650q-20 -20 -49 -20t-50 20q-20 21 -20 50t20 49q21 21 50 21t49 -21q21 -20 21 -49t-21 -50z" />
    <glyph glyph-name="oslash.sc" unicode="&#xf7f8;" 
d="M215 560h200q83 0 121.5 -39t38.5 -121v-240q0 -82 -38.5 -121t-121.5 -39h-200q-83 0 -121.5 39t-38.5 121v240q0 82 38.5 121t121.5 39zM415 448h-200q-40 0 -40 -48v-150l280 140v10q0 48 -40 48zM215 112h200q40 0 40 48v150l-280 -140v-10q0 -48 40 -48z" />
    <glyph glyph-name="ugrave.sc" unicode="&#xf7f9;" horiz-adv-x="640" 
d="M460 160v400h120v-400q0 -82 -39 -121t-121 -39h-200q-82 0 -121 39t-39 121v400h120v-400q0 -48 40 -48h200q40 0 40 48zM283 800l107 -160h-87l-143 160h123z" />
    <glyph glyph-name="uacute.sc" unicode="&#xf7fa;" horiz-adv-x="640" 
d="M60 560h120v-400q0 -48 40 -48h200q40 0 40 48v400h120v-400q0 -82 -39 -121t-121 -39h-200q-82 0 -121 39t-39 121v400zM337 640h-87l107 160h123z" />
    <glyph glyph-name="ucircumflex.sc" unicode="&#xf7fb;" horiz-adv-x="640" 
d="M460 160v400h120v-400q0 -82 -39 -121t-121 -39h-200q-82 0 -121 39t-39 121v400h120v-400q0 -48 40 -48h200q40 0 40 48zM324 728h-10l-62 -88h-98l113 160h104l115 -160h-99z" />
    <glyph glyph-name="udieresis.sc" unicode="&#xf7fc;" horiz-adv-x="640" 
d="M460 160v400h120v-400q0 -82 -39 -121t-121 -39h-200q-82 0 -121 39t-39 121v400h120v-400q0 -48 40 -48h200q40 0 40 48zM279 650q-20 -20 -49 -20t-50 20q-20 21 -20 50t20 49q21 21 50 21t49 -21q21 -20 21 -49t-21 -50zM459 650q-20 -20 -49 -20t-50 20
q-20 21 -20 50t20 49q21 21 50 21t49 -21q21 -20 21 -49t-21 -50z" />
    <glyph glyph-name="yacute.sc" unicode="&#xf7fd;" horiz-adv-x="582" 
d="M328 800h123l-143 -160h-87zM296 322l138 238h138l-221 -383v-177h-120v177l-221 383h139l137 -238h10z" />
    <glyph glyph-name="thorn.sc" unicode="&#xf7fe;" horiz-adv-x="620" 
d="M180 480h240q82 0 121 -39t39 -121v-80q0 -82 -39 -121t-121 -39h-240v-80h-120v560h120v-80zM460 240v80q0 48 -40 48h-240v-176h240q40 0 40 48z" />
    <glyph glyph-name="ydieresis.sc" unicode="&#xf7ff;" horiz-adv-x="582" 
d="M296 322l138 238h138l-221 -383v-177h-120v177l-221 383h139l137 -238h10zM250 650q-20 -20 -49 -20t-50 20q-20 21 -20 50t20 49q21 21 50 21t49 -21q21 -20 21 -49t-21 -50zM430 650q-20 -20 -49 -20t-50 20q-20 21 -20 50t20 49q21 21 50 21t49 -21q21 -20 21 -49
t-21 -50z" />
    <glyph glyph-name="Lslash.salt" unicode="&#xf800;" horiz-adv-x="700" 
d="M290 112h400v-112h-400q-82 0 -121 39t-39 121v88l-120 -60v84l120 60v388h120v-328l240 120v-84l-240 -120v-148q0 -48 40 -48z" />
    <glyph glyph-name="four.salt" unicode="&#xf801;" horiz-adv-x="665" 
d="M485 312v408h120v-720h-120v200h-280q-83 0 -121.5 39t-38.5 121v360h120v-360q0 -48 40 -48h280z" />
    <glyph glyph-name="seven.salt" unicode="&#xf802;" horiz-adv-x="590" 
d="M370 608h-360v112h360q82 0 121 -39t39 -121v-560h-120v560q0 48 -40 48z" />
    <glyph glyph-name="A.salt" unicode="&#xf803;" horiz-adv-x="720" 
d="M220 720h280q82 0 121 -39t39 -121v-560h-120v244h-360v-244h-120v560q0 82 39 121t121 39zM180 560v-204h360v204q0 48 -40 48h-280q-40 0 -40 -48z" />
    <glyph glyph-name="E.salt" unicode="&#xf804;" horiz-adv-x="660" 
d="M615 608h-400q-40 0 -40 -48v-144h430v-112h-430v-144q0 -48 40 -48h400v-112h-400q-83 0 -121.5 39t-38.5 121v400q0 82 38.5 121t121.5 39h400v-112z" />
    <glyph glyph-name="F.salt" unicode="&#xf805;" horiz-adv-x="655" 
d="M180 304v-304h-120v560q0 82 39 121t121 39h400v-112h-400q-40 0 -40 -48v-144h430v-112h-430z" />
    <glyph glyph-name="J.salt" unicode="&#xf806;" 
d="M10 112h400q40 0 40 48v560h120v-560q0 -82 -39 -121t-121 -39h-400v112z" />
    <glyph glyph-name="K.salt" unicode="&#xf807;" horiz-adv-x="720" 
d="M660 720v-260q0 -35 -14 -59.5t-31 -30.5l-15 -5v-10q2 0 6.5 -1.5t14.5 -7.5t18 -15.5t14.5 -28t6.5 -42.5v-260h-120v260q0 23 -9 33.5t-31 10.5h-320v-304h-120v720h120v-304h320q22 0 31 10.5t9 33.5v260h120z" />
    <glyph glyph-name="L.salt" unicode="&#xf808;" 
d="M220 112h400v-112h-400q-82 0 -121 39t-39 121v560h120v-560q0 -48 40 -48z" />
    <glyph glyph-name="M.salt" unicode="&#xf809;" horiz-adv-x="1040" 
d="M620 720h200q82 0 121 -39t39 -121v-560h-120v560q0 48 -40 48h-200q-40 0 -40 -48v-560h-120v560q0 48 -40 48h-200q-40 0 -40 -48v-560h-120v560q0 82 39 121t121 39h200q35 0 59.5 -14t30.5 -31l5 -15h10q0 2 1.5 6.5t7.5 14.5t15.5 18t28 14.5t42.5 6.5z" />
    <glyph glyph-name="N.salt" unicode="&#xf810;" horiz-adv-x="720" 
d="M660 0h-120v560q0 48 -40 48h-280q-40 0 -40 -48v-560h-120v560q0 82 39 121t121 39h280q82 0 121 -39t39 -121v-560z" />
    <glyph glyph-name="R.salt" unicode="&#xf811;" horiz-adv-x="720" 
d="M60 720h440q82 0 121 -39t39 -121v-164q0 -35 -14 -59.5t-31 -30.5l-15 -5v-10q2 0 6.5 -1.5t14.5 -7.5t18 -15.5t14.5 -28t6.5 -42.5v-196h-120v196q0 23 -9 33.5t-31 10.5h-320v-240h-120v720zM540 396v164q0 48 -40 48h-320v-256h320q22 0 31 10.5t9 33.5z" />
    <glyph glyph-name="W.salt" unicode="&#xf812;" horiz-adv-x="1040" 
d="M820 0h-200q-35 0 -59.5 14t-30.5 31l-5 15h-10q0 -2 -1.5 -6.5t-7.5 -14.5t-15.5 -18t-28 -14.5t-42.5 -6.5h-200q-82 0 -121 39t-39 121v560h120v-560q0 -48 40 -48h200q40 0 40 48v560h120v-560q0 -48 40 -48h200q40 0 40 48v560h120v-560q0 -82 -39 -121t-121 -39z
" />
    <glyph glyph-name="X.salt" unicode="&#xf813;" horiz-adv-x="720" 
d="M660 720v-260q0 -35 -14 -59.5t-31 -30.5l-15 -5v-10q2 0 6.5 -1.5t14.5 -7.5t18 -15.5t14.5 -28t6.5 -42.5v-260h-120v260q0 23 -9 33.5t-31 10.5h-280q-22 0 -31 -10.5t-9 -33.5v-260h-120v260q0 35 14 59.5t31 30.5l15 5v10q-2 0 -6.5 1.5t-14.5 7.5t-18 15.5
t-14.5 28t-6.5 42.5v260h120v-260q0 -23 9 -33.5t31 -10.5h280q22 0 31 10.5t9 33.5v260h120z" />
    <glyph glyph-name="Y.salt" unicode="&#xf814;" horiz-adv-x="690" 
d="M525 400v320h120v-320q0 -82 -38.5 -121t-121.5 -39h-80v-240h-120v240h-80q-83 0 -121.5 39t-38.5 121v320h120v-320q0 -48 40 -48h280q40 0 40 48z" />
    <glyph glyph-name="g.salt" unicode="&#xf815;" horiz-adv-x="635" 
d="M215 560h200q83 0 121.5 -39t38.5 -121v-460q0 -75 -32.5 -107.5t-107.5 -32.5h-220v112h220q20 0 20 28v60h-240q-83 0 -121.5 39t-38.5 121v240q0 82 38.5 121t121.5 39zM215 112h240v288q0 48 -40 48h-200q-40 0 -40 -48v-240q0 -48 40 -48z" />
    <glyph glyph-name="k.salt" unicode="&#xf816;" horiz-adv-x="640" 
d="M580 560v-180q0 -35 -14 -59.5t-31 -30.5l-15 -5v-10q2 0 6.5 -1.5t14.5 -7.5t18 -15.5t14.5 -28t6.5 -42.5v-180h-120v180q0 23 -9 33.5t-31 10.5h-240v-224h-120v760h120v-424h240q22 0 31 10.5t9 33.5v180h120z" />
    <glyph glyph-name="w.salt" unicode="&#xf817;" horiz-adv-x="920" 
d="M700 0h-140q-35 0 -59.5 14t-30.5 31l-5 15h-10q0 -2 -1.5 -6.5t-7.5 -14.5t-15.5 -18t-28 -14.5t-42.5 -6.5h-140q-82 0 -121 39t-39 121v400h120v-400q0 -48 40 -48h140q40 0 40 48v400h120v-400q0 -48 40 -48h140q40 0 40 48v400h120v-400q0 -82 -39 -121t-121 -39z
" />
    <glyph glyph-name="x.salt" unicode="&#xf818;" horiz-adv-x="640" 
d="M580 560v-180q0 -35 -14 -59.5t-31 -30.5l-15 -5v-10q2 0 6.5 -1.5t14.5 -7.5t18 -15.5t14.5 -28t6.5 -42.5v-180h-120v180q0 23 -9 33.5t-31 10.5h-200q-22 0 -31 -10.5t-9 -33.5v-180h-120v180q0 35 14 59.5t31 30.5l15 5v10q-2 0 -6.5 1.5t-14.5 7.5t-18 15.5
t-14.5 28t-6.5 42.5v180h120v-180q0 -23 9 -33.5t31 -10.5h200q22 0 31 10.5t9 33.5v180h120z" />
    <glyph glyph-name="y.salt" unicode="&#xf819;" horiz-adv-x="640" 
d="M460 112v448h120v-620q0 -75 -32.5 -107.5t-107.5 -32.5h-220v112h220q20 0 20 28v60h-240q-82 0 -121 39t-39 121v400h120v-400q0 -48 40 -48h240z" />
    <glyph glyph-name="OE.salt" unicode="&#xf820;" horiz-adv-x="1140" 
d="M1095 608h-400q-40 0 -40 -48v-144h430v-112h-430v-144q0 -48 40 -48h400v-112h-400q-35 0 -59.5 14t-30.5 31l-5 15h-10q0 -2 -1.5 -6.5t-7.5 -14.5t-15.5 -18t-28 -14.5t-42.5 -6.5h-280q-83 0 -121.5 39t-38.5 121v400q0 82 38.5 121t121.5 39h280q35 0 59.5 -14
t30.5 -31l5 -15h10q0 2 1.5 6.5t7.5 14.5t15.5 18t28 14.5t42.5 6.5h400v-112zM535 160v400q0 48 -40 48h-280q-40 0 -40 -48v-400q0 -48 40 -48h280q40 0 40 48z" />
    <glyph glyph-name="trademark.salt" unicode="&#xf821;" horiz-adv-x="990" 
d="M740 720h70q68 0 94 -26t26 -94v-240h-80v240q0 28 -8 38t-32 10h-70q-24 0 -32 -10t-8 -38v-240h-80v240q0 28 -8 38t-32 10h-70q-24 0 -32 -10t-8 -38v-240h-80v240q0 68 26 94t94 26h70q36 0 53.5 -11.5t20.5 -24.5l1 -4h10q0 2 1 4.5t5.5 9.5t11.5 12t22 9.5t35 4.5z
M135 648h-125v72h330v-72h-125v-288h-80v288z" />
    <glyph glyph-name="Ydieresis.salt" unicode="&#xf822;" horiz-adv-x="690" 
d="M525 400v320h120v-320q0 -82 -38.5 -121t-121.5 -39h-80v-240h-120v240h-80q-83 0 -121.5 39t-38.5 121v320h120v-320q0 -48 40 -48h280q40 0 40 48zM484 810q-20 -20 -49 -20t-50 20q-20 21 -20 50t20 49q21 21 50 21t49 -21q21 -20 21 -49t-21 -50zM304 810
q-20 -20 -49 -20t-50 20q-20 21 -20 50t20 49q21 21 50 21t49 -21q21 -20 21 -49t-21 -50z" />
    <glyph glyph-name="yen.salt" unicode="&#xf823;" horiz-adv-x="690" 
d="M525 400v320h120v-320q0 -82 -38.5 -121t-121.5 -39h-80v-68h130v-72h-130v-100h-120v100h-130v72h130v68h-80q-83 0 -121.5 39t-38.5 121v320h120v-320q0 -48 40 -48h280q40 0 40 48z" />
    <glyph glyph-name="registered.salt" unicode="&#xf824;" horiz-adv-x="800" 
d="M152 607q103 103 248 103t247 -103q103 -102 103 -247t-103 -248q-102 -102 -247 -102q-144 0 -248 102q-102 104 -102 248q0 145 102 247zM209 169q79 -79 191 -79t191 79t79 191t-79 191t-191 79t-191 -79t-79 -191t79 -191zM245 540h200q66 0 93 -25t27 -85v-34
q0 -25 -9.5 -42t-20.5 -20l-10 -3v-10q2 0 4.5 -1t9.5 -5t12 -10t9.5 -19t4.5 -30v-76h-80v76q0 20 -8 27t-32 7h-120v-110h-80v360zM485 396v34q0 22 -8 30t-32 8h-120v-106h120q24 0 32 7t8 27z" />
    <glyph glyph-name="onequarter.salt" unicode="&#xf825;" horiz-adv-x="760" 
d="M620 172v188h80v-360h-80v100h-120q-68 0 -94 26t-26 94v140h80v-140q0 -28 8 -38t32 -10h120zM180 360h-80v288h-80v72h160v-360zM65 0l360 720h90l-360 -720h-90z" />
    <glyph glyph-name="threequarters.salt" unicode="&#xf826;" horiz-adv-x="910" 
d="M370 470q0 -60 -27 -85t-93 -25h-80q-68 0 -94 26t-26 94v10h80v-10q0 -28 8 -38t32 -10h80q24 0 32 8t8 30q0 20 -8 27t-32 7h-90v72h90q24 0 32 7t8 27q0 22 -8 30t-32 8h-80q-24 0 -32 -10t-8 -38v-10h-80v10q0 68 26 94t94 26h80q66 0 93 -25t27 -85q0 -25 -9.5 -42
t-20.5 -20l-10 -3v-10q2 0 4.5 -1t9.5 -5t12 -10t9.5 -19t4.5 -30zM770 172v188h80v-360h-80v100h-120q-68 0 -94 26t-26 94v140h80v-140q0 -28 8 -38t32 -10h120zM215 0l360 720h90l-360 -720h-90z" />
    <glyph glyph-name="Agrave.salt" unicode="&#xf827;" horiz-adv-x="720" 
d="M220 720h280q82 0 121 -39t39 -121v-560h-120v244h-360v-244h-120v560q0 82 39 121t121 39zM180 356h360v204q0 48 -40 48h-280q-40 0 -40 -48v-204zM323 960l107 -160h-87l-143 160h123z" />
    <glyph glyph-name="Aacute.salt" unicode="&#xf828;" horiz-adv-x="720" 
d="M220 720h280q82 0 121 -39t39 -121v-560h-120v244h-360v-244h-120v560q0 82 39 121t121 39zM180 560v-204h360v204q0 48 -40 48h-280q-40 0 -40 -48zM377 800h-87l107 160h123z" />
    <glyph glyph-name="Acircumflex.salt" unicode="&#xf829;" horiz-adv-x="720" 
d="M220 720h280q82 0 121 -39t39 -121v-560h-120v244h-360v-244h-120v560q0 82 39 121t121 39zM180 356h360v204q0 48 -40 48h-280q-40 0 -40 -48v-204zM364 888h-10l-62 -88h-98l113 160h104l115 -160h-99z" />
    <glyph glyph-name="Atilde.salt" unicode="&#xf830;" horiz-adv-x="720" 
d="M220 720h280q82 0 121 -39t39 -121v-560h-120v244h-360v-244h-120v560q0 82 39 121t121 39zM180 356h360v204q0 48 -40 48h-280q-40 0 -40 -48v-204zM310 826v-26h-80v36q0 45 17.5 62.5t62.5 17.5h90q10 0 10 18v26h80v-36q0 -45 -17.5 -62.5t-62.5 -17.5h-90
q-10 0 -10 -18z" />
    <glyph glyph-name="Adieresis.salt" unicode="&#xf831;" horiz-adv-x="720" 
d="M220 720h280q82 0 121 -39t39 -121v-560h-120v244h-360v-244h-120v560q0 82 39 121t121 39zM180 356h360v204q0 48 -40 48h-280q-40 0 -40 -48v-204zM499 810q-20 -20 -49 -20t-50 20q-20 21 -20 50t20 49q21 21 50 21t49 -21q21 -20 21 -49t-21 -50zM319 810
q-20 -20 -49 -20t-50 20q-20 21 -20 50t20 49q21 21 50 21t49 -21q21 -20 21 -49t-21 -50z" />
    <glyph glyph-name="Aring.salt" unicode="&#xf832;" horiz-adv-x="720" 
d="M220 720h280q82 0 121 -39t39 -121v-560h-120v244h-360v-244h-120v560q0 82 39 121t121 39zM180 356h360v204q0 48 -40 48h-280q-40 0 -40 -48v-204zM434 821q-30 -31 -74 -31t-75 31q-30 31 -30 74t30 74q31 31 75 31t74 -31q31 -31 31 -74t-31 -74zM384 919
q-14 16 -33 9.5t-24.5 -24.5t8.5 -34q20 -22 45 -2q22 17 13 39q-3 7 -9 12z" />
    <glyph glyph-name="AE.salt" unicode="&#xf833;" horiz-adv-x="1145" 
d="M1100 608h-400q-40 0 -40 -48v-144h430v-112h-430v-144q0 -48 40 -48h400v-112h-400q-82 0 -121 39t-39 121v84h-360v-244h-120v560q0 82 39 121t121 39h280q35 0 59.5 -14t30.5 -31l5 -15h10q0 2 1.5 6.5t7.5 14.5t15.5 18t28 14.5t42.5 6.5h400v-112zM180 560v-204h360
v204q0 48 -40 48h-280q-40 0 -40 -48z" />
    <glyph glyph-name="Egrave.salt" unicode="&#xf834;" horiz-adv-x="660" 
d="M615 608h-400q-40 0 -40 -48v-144h430v-112h-430v-144q0 -48 40 -48h400v-112h-400q-83 0 -121.5 39t-38.5 121v400q0 82 38.5 121t121.5 39h400v-112zM298 960l107 -160h-87l-143 160h123z" />
    <glyph glyph-name="Eacute.salt" unicode="&#xf835;" horiz-adv-x="660" 
d="M615 608h-400q-40 0 -40 -48v-144h430v-112h-430v-144q0 -48 40 -48h400v-112h-400q-83 0 -121.5 39t-38.5 121v400q0 82 38.5 121t121.5 39h400v-112zM372 960h123l-143 -160h-87z" />
    <glyph glyph-name="Ecircumflex.salt" unicode="&#xf836;" horiz-adv-x="660" 
d="M615 608h-400q-40 0 -40 -48v-144h430v-112h-430v-144q0 -48 40 -48h400v-112h-400q-83 0 -121.5 39t-38.5 121v400q0 82 38.5 121t121.5 39h400v-112zM339 888h-10l-62 -88h-98l113 160h104l115 -160h-99z" />
    <glyph glyph-name="Edieresis.salt" unicode="&#xf837;" horiz-adv-x="660" 
d="M615 608h-400q-40 0 -40 -48v-144h430v-112h-430v-144q0 -48 40 -48h400v-112h-400q-83 0 -121.5 39t-38.5 121v400q0 82 38.5 121t121.5 39h400v-112zM474 810q-20 -20 -49 -20t-50 20q-20 21 -20 50t20 49q21 21 50 21t49 -21q21 -20 21 -49t-21 -50zM294 810
q-20 -20 -49 -20t-50 20q-20 21 -20 50t20 49q21 21 50 21t49 -21q21 -20 21 -49t-21 -50z" />
    <glyph glyph-name="Ntilde.salt" unicode="&#xf838;" horiz-adv-x="720" 
d="M220 720h280q82 0 121 -39t39 -121v-560h-120v560q0 48 -40 48h-280q-40 0 -40 -48v-560h-120v560q0 82 39 121t121 39zM310 826v-26h-80v36q0 45 17.5 62.5t62.5 17.5h90q10 0 10 18v26h80v-36q0 -45 -17.5 -62.5t-62.5 -17.5h-90q-10 0 -10 -18z" />
    <glyph glyph-name="Yacute.salt" unicode="&#xf839;" horiz-adv-x="690" 
d="M382 960h123l-143 -160h-87zM525 400v320h120v-320q0 -82 -38.5 -121t-121.5 -39h-80v-240h-120v240h-80q-83 0 -121.5 39t-38.5 121v320h120v-320q0 -48 40 -48h280q40 0 40 48z" />
    <glyph glyph-name="yacute.salt" unicode="&#xf840;" horiz-adv-x="640" 
d="M460 112v448h120v-620q0 -75 -32.5 -107.5t-107.5 -32.5h-220v112h220q20 0 20 28v60h-240q-82 0 -121 39t-39 121v400h120v-400q0 -48 40 -48h240zM357 800h123l-143 -160h-87z" />
    <glyph glyph-name="ydieresis.salt" unicode="&#xf841;" horiz-adv-x="640" 
d="M460 112v448h120v-620q0 -75 -32.5 -107.5t-107.5 -32.5h-220v112h220q20 0 20 28v60h-240q-82 0 -121 39t-39 121v400h120v-400q0 -48 40 -48h240zM459 650q-20 -20 -49 -20t-50 20q-20 21 -20 50t20 49q21 21 50 21t49 -21q21 -20 21 -49t-21 -50zM279 650
q-20 -20 -49 -20t-50 20q-20 21 -20 50t20 49q21 21 50 21t49 -21q21 -20 21 -49t-21 -50z" />
    <glyph glyph-name="lslashsc.salt" unicode="&#xf842;" horiz-adv-x="620" 
d="M250 228v-68q0 -48 40 -48h320v-112h-320q-82 0 -121 39t-39 121v8l-120 -60v84l120 60v308h120v-248l180 90v-84z" />
    <glyph glyph-name="oesc.salt" unicode="&#xf843;" horiz-adv-x="980" 
d="M935 448h-320q-40 0 -40 -48v-64h350v-112h-350v-64q0 -48 40 -48h320v-112h-320q-35 0 -59.5 14t-30.5 31l-5 15h-10q0 -2 -1.5 -6.5t-7.5 -14.5t-15.5 -18t-28 -14.5t-42.5 -6.5h-200q-83 0 -121.5 39t-38.5 121v240q0 82 38.5 121t121.5 39h200q35 0 59.5 -14
t30.5 -31l5 -15h10q0 2 1.5 6.5t7.5 14.5t15.5 18t28 14.5t42.5 6.5h320v-112zM455 160v240q0 48 -40 48h-200q-40 0 -40 -48v-240q0 -48 40 -48h200q40 0 40 48z" />
    <glyph glyph-name="asc.salt" unicode="&#xf844;" horiz-adv-x="640" 
d="M220 560h200q82 0 121 -39t39 -121v-400h-120v164h-280v-164h-120v400q0 82 39 121t121 39zM180 400v-124h280v124q0 48 -40 48h-200q-40 0 -40 -48z" />
    <glyph glyph-name="esc.salt" unicode="&#xf845;" horiz-adv-x="580" 
d="M535 448h-320q-40 0 -40 -48v-64h350v-112h-350v-64q0 -48 40 -48h320v-112h-320q-83 0 -121.5 39t-38.5 121v240q0 82 38.5 121t121.5 39h320v-112z" />
    <glyph glyph-name="fsc.salt" unicode="&#xf846;" horiz-adv-x="575" 
d="M180 224v-224h-120v400q0 82 39 121t121 39h320v-112h-320q-40 0 -40 -48v-64h350v-112h-350z" />
    <glyph glyph-name="jsc.salt" unicode="&#xf847;" horiz-adv-x="550" 
d="M370 160v400h120v-400q0 -82 -39 -121t-121 -39h-320v112h320q40 0 40 48z" />
    <glyph glyph-name="ksc.salt" unicode="&#xf848;" horiz-adv-x="640" 
d="M580 560v-180q0 -35 -14 -59.5t-31 -30.5l-15 -5v-10q2 0 6.5 -1.5t14.5 -7.5t18 -15.5t14.5 -28t6.5 -42.5v-180h-120v180q0 23 -9 33.5t-31 10.5h-240v-224h-120v560h120v-224h240q22 0 31 10.5t9 33.5v180h120z" />
    <glyph glyph-name="lsc.salt" unicode="&#xf849;" horiz-adv-x="550" 
d="M180 560v-400q0 -48 40 -48h320v-112h-320q-82 0 -121 39t-39 121v400h120z" />
    <glyph glyph-name="msc.salt" unicode="&#xf850;" horiz-adv-x="920" 
d="M560 560h140q82 0 121 -39t39 -121v-400h-120v400q0 48 -40 48h-140q-40 0 -40 -48v-400h-120v400q0 48 -40 48h-140q-40 0 -40 -48v-400h-120v400q0 82 39 121t121 39h140q35 0 59.5 -14t30.5 -31l5 -15h10q0 2 1.5 6.5t7.5 14.5t15.5 18t28 14.5t42.5 6.5z" />
    <glyph glyph-name="nsc.salt" unicode="&#xf851;" horiz-adv-x="640" 
d="M580 0h-120v400q0 48 -40 48h-200q-40 0 -40 -48v-400h-120v400q0 82 39 121t121 39h200q82 0 121 -39t39 -121v-400z" />
    <glyph glyph-name="rsc.salt" unicode="&#xf852;" horiz-adv-x="640" 
d="M60 560h360q82 0 121 -39t39 -121v-84q0 -35 -14 -59.5t-31 -30.5l-15 -5v-10q2 0 6.5 -1.5t14.5 -7.5t18 -15.5t14.5 -28t6.5 -42.5v-116h-120v116q0 23 -9 33.5t-31 10.5h-240v-160h-120v560zM460 316v84q0 48 -40 48h-240v-176h240q22 0 31 10.5t9 33.5z" />
    <glyph glyph-name="wsc.salt" unicode="&#xf853;" horiz-adv-x="920" 
d="M700 0h-140q-35 0 -59.5 14t-30.5 31l-5 15h-10q0 -2 -1.5 -6.5t-7.5 -14.5t-15.5 -18t-28 -14.5t-42.5 -6.5h-140q-82 0 -121 39t-39 121v400h120v-400q0 -48 40 -48h140q40 0 40 48v400h120v-400q0 -48 40 -48h140q40 0 40 48v400h120v-400q0 -82 -39 -121t-121 -39z
" />
    <glyph glyph-name="xsc.salt" unicode="&#xf854;" horiz-adv-x="640" 
d="M580 560v-180q0 -35 -14 -59.5t-31 -30.5l-15 -5v-10q2 0 6.5 -1.5t14.5 -7.5t18 -15.5t14.5 -28t6.5 -42.5v-180h-120v180q0 23 -9 33.5t-31 10.5h-200q-22 0 -31 -10.5t-9 -33.5v-180h-120v180q0 35 14 59.5t31 30.5l15 5v10q-2 0 -6.5 1.5t-14.5 7.5t-18 15.5
t-14.5 28t-6.5 42.5v180h120v-180q0 -23 9 -33.5t31 -10.5h200q22 0 31 10.5t9 33.5v180h120z" />
    <glyph glyph-name="ysc.salt" unicode="&#xf855;" horiz-adv-x="610" 
d="M445 340v220h120v-220q0 -82 -38.5 -121t-121.5 -39h-40v-180h-120v180h-40q-83 0 -121.5 39t-38.5 121v220h120v-220q0 -48 40 -48h200q40 0 40 48z" />
    <glyph glyph-name="agravesc.salt" unicode="&#xf856;" horiz-adv-x="640" 
d="M220 560h200q82 0 121 -39t39 -121v-400h-120v164h-280v-164h-120v400q0 82 39 121t121 39zM180 276h280v124q0 48 -40 48h-200q-40 0 -40 -48v-124zM283 800l107 -160h-87l-143 160h123z" />
    <glyph glyph-name="aacutesc.salt" unicode="&#xf857;" horiz-adv-x="640" 
d="M220 560h200q82 0 121 -39t39 -121v-400h-120v164h-280v-164h-120v400q0 82 39 121t121 39zM180 276h280v124q0 48 -40 48h-200q-40 0 -40 -48v-124zM357 800h123l-143 -160h-87z" />
    <glyph glyph-name="acircumflexsc.salt" unicode="&#xf858;" horiz-adv-x="640" 
d="M220 560h200q82 0 121 -39t39 -121v-400h-120v164h-280v-164h-120v400q0 82 39 121t121 39zM180 276h280v124q0 48 -40 48h-200q-40 0 -40 -48v-124zM324 728h-10l-62 -88h-98l113 160h104l115 -160h-99z" />
    <glyph glyph-name="atildesc.salt" unicode="&#xf859;" horiz-adv-x="640" 
d="M220 560h200q82 0 121 -39t39 -121v-400h-120v164h-280v-164h-120v400q0 82 39 121t121 39zM180 276h280v124q0 48 -40 48h-200q-40 0 -40 -48v-124zM270 666v-26h-80v36q0 45 17.5 62.5t62.5 17.5h90q10 0 10 18v26h80v-36q0 -45 -17.5 -62.5t-62.5 -17.5h-90
q-10 0 -10 -18z" />
    <glyph glyph-name="adieresissc.salt" unicode="&#xf860;" horiz-adv-x="640" 
d="M220 560h200q82 0 121 -39t39 -121v-400h-120v164h-280v-164h-120v400q0 82 39 121t121 39zM180 276h280v124q0 48 -40 48h-200q-40 0 -40 -48v-124zM459 650q-20 -20 -49 -20t-50 20q-20 21 -20 50t20 49q21 21 50 21t49 -21q21 -20 21 -49t-21 -50zM279 650
q-20 -20 -49 -20t-50 20q-20 21 -20 50t20 49q21 21 50 21t49 -21q21 -20 21 -49t-21 -50z" />
    <glyph glyph-name="aringsc.salt" unicode="&#xf861;" horiz-adv-x="640" 
d="M220 560h200q82 0 121 -39t39 -121v-400h-120v164h-280v-164h-120v400q0 82 39 121t121 39zM180 276h280v124q0 48 -40 48h-200q-40 0 -40 -48v-124zM394 661q-30 -31 -74 -31t-75 31q-30 31 -30 74t30 74q31 31 75 31t74 -31q31 -31 31 -74t-31 -74zM344 759
q-14 16 -33 9.5t-24.5 -24.5t8.5 -34q20 -22 45 -2q22 17 13 39q-3 7 -9 12z" />
    <glyph glyph-name="aesc.salt" unicode="&#xf862;" horiz-adv-x="985" 
d="M940 448h-320q-40 0 -40 -48v-64h350v-112h-350v-64q0 -48 40 -48h320v-112h-320q-82 0 -121 39t-39 121v4h-280v-164h-120v400q0 82 39 121t121 39h200q35 0 59.5 -14t30.5 -31l5 -15h10q0 2 1.5 6.5t7.5 14.5t15.5 18t28 14.5t42.5 6.5h320v-112zM180 276h280v124
q0 48 -40 48h-200q-40 0 -40 -48v-124z" />
    <glyph glyph-name="egravesc.salt" unicode="&#xf863;" horiz-adv-x="580" 
d="M535 448h-320q-40 0 -40 -48v-64h350v-112h-350v-64q0 -48 40 -48h320v-112h-320q-83 0 -121.5 39t-38.5 121v240q0 82 38.5 121t121.5 39h320v-112zM258 800l107 -160h-87l-143 160h123z" />
    <glyph glyph-name="eacutesc.salt" unicode="&#xf864;" horiz-adv-x="580" 
d="M332 800h123l-143 -160h-87zM535 448h-320q-40 0 -40 -48v-64h350v-112h-350v-64q0 -48 40 -48h320v-112h-320q-83 0 -121.5 39t-38.5 121v240q0 82 38.5 121t121.5 39h320v-112z" />
    <glyph glyph-name="ecircumflexsc.salt" unicode="&#xf865;" horiz-adv-x="580" 
d="M535 448h-320q-40 0 -40 -48v-64h350v-112h-350v-64q0 -48 40 -48h320v-112h-320q-83 0 -121.5 39t-38.5 121v240q0 82 38.5 121t121.5 39h320v-112zM299 728h-10l-62 -88h-98l113 160h104l115 -160h-99z" />
    <glyph glyph-name="edieresissc.salt" unicode="&#xf866;" horiz-adv-x="580" 
d="M535 448h-320q-40 0 -40 -48v-64h350v-112h-350v-64q0 -48 40 -48h320v-112h-320q-83 0 -121.5 39t-38.5 121v240q0 82 38.5 121t121.5 39h320v-112zM254 650q-20 -20 -49 -20t-50 20q-20 21 -20 50t20 49q21 21 50 21t49 -21q21 -20 21 -49t-21 -50zM434 650
q-20 -20 -49 -20t-50 20q-20 21 -20 50t20 49q21 21 50 21t49 -21q21 -20 21 -49t-21 -50z" />
    <glyph glyph-name="ntildesc.salt" unicode="&#xf867;" horiz-adv-x="640" 
d="M220 560h200q82 0 121 -39t39 -121v-400h-120v400q0 48 -40 48h-200q-40 0 -40 -48v-400h-120v400q0 82 39 121t121 39zM270 666v-26h-80v36q0 45 17.5 62.5t62.5 17.5h90q10 0 10 18v26h80v-36q0 -45 -17.5 -62.5t-62.5 -17.5h-90q-10 0 -10 -18z" />
    <glyph glyph-name="yacutesc.salt" unicode="&#xf868;" horiz-adv-x="610" 
d="M342 800h123l-143 -160h-87zM445 340v220h120v-220q0 -82 -38.5 -121t-121.5 -39h-40v-180h-120v180h-40q-83 0 -121.5 39t-38.5 121v220h120v-220q0 -48 40 -48h200q40 0 40 48z" />
    <glyph glyph-name="ydieresissc.salt" unicode="&#xf869;" horiz-adv-x="610" 
d="M264 650q-20 -20 -49 -20t-50 20q-20 21 -20 50t20 49q21 21 50 21t49 -21q21 -20 21 -49t-21 -50zM444 650q-20 -20 -49 -20t-50 20q-20 21 -20 50t20 49q21 21 50 21t49 -21q21 -20 21 -49t-21 -50zM445 340v220h120v-220q0 -82 -38.5 -121t-121.5 -39h-40v-180h-120
v180h-40q-83 0 -121.5 39t-38.5 121v220h120v-220q0 -48 40 -48h200q40 0 40 48z" />
    <glyph glyph-name="f_f" unicode="&#xfb00;" horiz-adv-x="735" 
d="M700 648h-180q-12 0 -16 -6t-4 -22v-60h180v-112h-180v-448h-120v448h-200v-448h-120v620q0 75 32.5 107.5t107.5 32.5h140v-112h-140q-12 0 -16 -6t-4 -22v-60h200v60q0 75 32.5 107.5t107.5 32.5h180v-112z" />
    <glyph glyph-name="fi" unicode="&#xfb01;" horiz-adv-x="560" 
d="M180 620v-60h320v-560h-120v448h-200v-448h-120v620q0 75 32.5 107.5t107.5 32.5h180v-112h-180q-12 0 -16 -6t-4 -22z" />
    <glyph glyph-name="fl" unicode="&#xfb02;" horiz-adv-x="640" 
d="M520 112h100v-112h-100q-75 0 -107.5 32.5t-32.5 107.5v508h-180q-12 0 -16 -6t-4 -22v-60h160v-112h-160v-448h-120v620q0 75 32.5 107.5t107.5 32.5h300v-620q0 -16 4 -22t16 -6z" />
    <glyph glyph-name="f_f_i" unicode="&#xfb03;" horiz-adv-x="880" 
d="M500 620v-60h320v-560h-120v448h-200v-448h-120v448h-200v-448h-120v620q0 75 32.5 107.5t107.5 32.5h140v-112h-140q-12 0 -16 -6t-4 -22v-60h200v60q0 75 32.5 107.5t107.5 32.5h180v-112h-180q-12 0 -16 -6t-4 -22z" />
    <glyph glyph-name="f_f_l" unicode="&#xfb04;" horiz-adv-x="960" 
d="M840 112h100v-112h-100q-75 0 -107.5 32.5t-32.5 107.5v508h-180q-12 0 -16 -6t-4 -22v-60h160v-112h-160v-448h-120v448h-200v-448h-120v620q0 75 32.5 107.5t107.5 32.5h140v-112h-140q-12 0 -16 -6t-4 -22v-60h200v60q0 75 32.5 107.5t107.5 32.5h300v-620
q0 -16 4 -22t16 -6z" />
    <glyph glyph-name="arrow1" unicode="&#xfb05;" horiz-adv-x="360" 
d="M310 510v-300l-260 150z" />
    <glyph glyph-name="arrow2" unicode="&#xfb06;" horiz-adv-x="400" 
d="M350 273h-300l150 260z" />
    <glyph glyph-name="arrow3" unicode="&#xfb07;" horiz-adv-x="360" 
d="M310 360l-260 -150v300z" />
    <glyph glyph-name="arrow4" unicode="&#xfb08;" horiz-adv-x="400" 
d="M350 447l-150 -260l-150 260h300z" />
    <glyph glyph-name="arrow5" unicode="&#xfb09;" horiz-adv-x="640" 
d="M129 551q79 79 191 79t191 -79t79 -191t-79 -191t-191 -79t-191 79t-79 191t79 191zM147 360l260 -150v300z" />
    <glyph glyph-name="arrow6" unicode="&#xfb10;" horiz-adv-x="640" 
d="M129 551q79 79 191 79t191 -79t79 -191t-79 -191t-191 -79t-191 79t-79 191t79 191zM320 533l-150 -260h300z" />
    <glyph glyph-name="arrow7" unicode="&#xfb11;" horiz-adv-x="640" 
d="M129 551q79 79 191 79t191 -79t79 -191t-79 -191t-191 -79t-191 79t-79 191t79 191zM233 510v-300l260 150z" />
    <glyph glyph-name="arrow8" unicode="&#xfb12;" horiz-adv-x="640" 
d="M129 551q79 79 191 79t191 -79t79 -191t-79 -191t-191 -79t-191 79t-79 191t79 191zM170 447l150 -260l150 260h-300z" />
    <glyph glyph-name="NULL" horiz-adv-x="0" 
 />
    <glyph glyph-name="CR" horiz-adv-x="333" 
 />
    <glyph glyph-name="uni1ED8.001" horiz-adv-x="710" 
d="M287 800h-98l113 160h104l114 -160h-98l-63 88h-10z" />
    <glyph glyph-name="uni1ED9.001" 
d="M247 640h-98l113 160h104l114 -160h-98l-63 88h-10z" />
    <glyph glyph-name="uni1ED7.001" 
d="M215 560h200q83 0 121.5 -39t38.5 -121v-240q0 -82 -38.5 -121t-121.5 -39h-200q-83 0 -121.5 39t-38.5 121v240q0 82 38.5 121t121.5 39zM455 160v240q0 48 -40 48h-200q-40 0 -40 -48v-240q0 -48 40 -48h200q40 0 40 48zM309 715h10l63 -88h99l-115 160h-104l-113 -160
h98zM365 774v26h80v-36q0 -45 -17.5 -62.5t-62.5 -17.5h-90q-10 0 -10 -18v-26h-80v36q0 45 17.5 62.5t62.5 17.5h90q10 0 10 18z" />
    <glyph glyph-name="uni1ED6.001" horiz-adv-x="710" 
d="M215 720h280q83 0 121.5 -39t38.5 -121v-400q0 -82 -38.5 -121t-121.5 -39h-280q-83 0 -121.5 39t-38.5 121v400q0 82 38.5 121t121.5 39zM535 160v400q0 48 -40 48h-280q-40 0 -40 -48v-400q0 -48 40 -48h280q40 0 40 48zM348 871h10l63 -88h98l-114 160h-104l-113 -160
h98zM405 934v26h80v-36q0 -45 -17.5 -62.5t-62.5 -17.5h-90q-10 0 -10 -18v-26h-80v36q0 45 17.5 62.5t62.5 17.5h90q10 0 10 18z" />
    </font>
</defs>
</svg>
