<?xml version="1.0" standalone="no"?>
<!DOCTYPE svg PUBLIC "-//W3C//DTD SVG 1.1//EN" "http://www.w3.org/Graphics/SVG/1.1/DTD/svg11.dtd" >
<svg>
<metadata>
Created by FontForge 20090622 at Mon May 18 07:08:00 2020
 By deploy user
Copyright (c) 2014 by Graviton. All rights reserved.
</metadata>
<defs>
<font id="SVN-AgudaBold" horiz-adv-x="630" >
  <font-face 
    font-family="SVN-Aguda"
    font-weight="700"
    font-stretch="normal"
    units-per-em="1000"
    panose-1="0 0 0 0 0 0 0 0 0 0"
    ascent="776"
    descent="-224"
    x-height="560"
    cap-height="720"
    bbox="-60 -240 1205 1084"
    underline-thickness="50"
    underline-position="-50"
    unicode-range="U+0020-U+FB99"
  />
<missing-glyph horiz-adv-x="780" 
d="M157 593q97 97 233 97t233 -97t97 -233t-97 -233t-233 -97t-233 97t-97 233t97 233zM528 180l42 42l-138 138l138 138l-42 42l-138 -138l-138 138l-42 -42l138 -138l-138 -138l42 -42l138 138z" />
    <glyph glyph-name="graviton" unicode="&#x6b3;" horiz-adv-x="545" arabic-form="medial" 
d="M221 222v113q0 10 10 10h77v-133h-77q-10 0 -10 10zM320 522q-20 -20 -48 -20t-48 20t-20 49t20 49t48 20t48 -20q21 -20 21 -49t-21 -49zM122 402q62 63 150 63t150 -63q63 -62 63 -150t-63 -150q-62 -62 -150 -62t-150 62t-62 150t62 150zM344 158v217q0 3 -3 3h-110
q-19 0 -33 -13.5t-14 -32.5v-107q0 -19 14 -33t33 -14h77v-23q0 -10 -10 -10h-70q-4 0 -4 -3v-27q0 -3 4 -3h70q19 0 32.5 13.5t13.5 32.5z" />
    <glyph glyph-name=".notdef" horiz-adv-x="780" 
d="M157 593q97 97 233 97t233 -97t97 -233t-97 -233t-233 -97t-233 97t-97 233t97 233zM528 180l42 42l-138 138l138 138l-42 42l-138 -138l-138 138l-42 -42l138 -138l-138 -138l42 -42l138 138z" />
    <glyph glyph-name=".null" horiz-adv-x="0" 
 />
    <glyph glyph-name="nonmarkingreturn" horiz-adv-x="333" 
 />
    <glyph glyph-name="space" unicode=" " horiz-adv-x="320" 
 />
    <glyph glyph-name="exclam" unicode="!" horiz-adv-x="230" 
d="M70 190v530h90v-530h-90zM161 9q-19 -19 -46 -19t-46 19t-19 46t19 46t46 19t46 -19t19 -46t-19 -46z" />
    <glyph glyph-name="quotedbl" unicode="&#x22;" horiz-adv-x="390" 
d="M160 560h-90v160h90v-160zM230 560v160h90v-160h-90z" />
    <glyph glyph-name="numbersign" unicode="#" horiz-adv-x="640" 
d="M580 540v-54h-100v-252h100v-54h-100v-100h-60v100h-200v-100h-60v100h-100v54h100v252h-100v54h100v100h60v-100h200v100h60v-100h100zM220 234h200v252h-200v-252z" />
    <glyph glyph-name="dollar" unicode="$" horiz-adv-x="620" 
d="M560 480v-30h-90v30q0 42 -15.5 59t-54.5 17h-180q-39 0 -54.5 -17t-15.5 -59q0 -23 13 -33t57 -21l180 -45q53 -14 69 -19q24 -8 47 -23q44 -27 44 -99q0 -82 -39 -121t-121 -39h-45v-80h-90v80h-45q-82 0 -121 39t-39 121v30h90v-30q0 -42 15.5 -59t54.5 -17h180
q39 0 54.5 17t15.5 59q0 23 -13 33t-57 21l-180 45q-53 14 -69 19q-22 7 -47 22q-44 28 -44 100q0 82 39 121t121 39h45v80h90v-80h45q82 0 121 -39t39 -121z" />
    <glyph glyph-name="percent" unicode="%" horiz-adv-x="890" 
d="M375 600v-120q0 -68 -26.5 -94t-93.5 -26h-70q-67 0 -93.5 26t-26.5 94v120q0 68 26.5 94t93.5 26h70q67 0 93.5 -26t26.5 -94zM125 600v-120q0 -42 10.5 -54t49.5 -12h70q38 0 49 12.5t11 53.5v120q0 40 -11 53t-49 13h-70q-38 0 -49 -12.5t-11 -53.5zM635 360h70
q67 0 93.5 -26t26.5 -94v-120q0 -68 -26.5 -94t-93.5 -26h-70q-67 0 -93.5 26t-26.5 94v120q0 68 26.5 94t93.5 26zM765 120v120q0 40 -11 53t-49 13h-70q-38 0 -49 -12.5t-11 -53.5v-120q0 -42 10.5 -54t49.5 -12h70q38 0 49 12.5t11 53.5zM231 0l360 720h67l-360 -720h-67
z" />
    <glyph glyph-name="ampersand" unicode="&#x26;" horiz-adv-x="685" 
d="M225 402h440v-84h-80v-158q0 -82 -38.5 -121t-121.5 -39h-200q-83 0 -121.5 39t-38.5 121v85q0 54 21 80t42 29l7 1v10q-3 0 -7.5 1t-16.5 7.5t-21.5 17t-17 33t-7.5 51.5v85q0 82 38.5 121t121.5 39h160q83 0 121.5 -39t38.5 -121v-70h-90v70q0 42 -15.5 59t-54.5 17
h-160q-39 0 -54.5 -17t-15.5 -59v-85q0 -42 14.5 -57.5t55.5 -15.5zM495 160v158h-270q-41 0 -55.5 -15.5t-14.5 -57.5v-85q0 -42 15.5 -59t54.5 -17h200q39 0 54.5 17t15.5 59z" />
    <glyph glyph-name="quotesingle" unicode="'" horiz-adv-x="230" 
d="M70 560v160h90v-160h-90z" />
    <glyph glyph-name="parenleft" unicode="(" horiz-adv-x="335" 
d="M225 -156h80v-84h-80q-83 0 -121.5 39t-38.5 121v680q0 82 38.5 121t121.5 39h80v-84h-80q-39 0 -54.5 -17t-15.5 -59v-680q0 -42 15.5 -59t54.5 -17z" />
    <glyph glyph-name="parenright" unicode=")" horiz-adv-x="335" 
d="M30 -240v84h80q39 0 54.5 17t15.5 59v680q0 42 -15.5 59t-54.5 17h-80v84h80q82 0 121 -39t39 -121v-680q0 -82 -39 -121t-121 -39h-80z" />
    <glyph glyph-name="asterisk" unicode="*" horiz-adv-x="510" 
d="M305 567h145v-54h-145l77 -133l-52 -30l-75 130l-75 -130l-52 30l77 133h-145v54h145l-77 133l52 30l75 -130l75 130l52 -30z" />
    <glyph glyph-name="plus" unicode="+" horiz-adv-x="600" 
d="M345 322h195v-84h-195v-198h-90v198h-195v84h195v198h90v-198z" />
    <glyph glyph-name="comma" unicode="," horiz-adv-x="250" 
d="M190 110l-85 -170h-65l42 170h108z" />
    <glyph glyph-name="hyphen" unicode="-" horiz-adv-x="400" 
d="M60 322h280v-84h-280v84z" />
    <glyph glyph-name="period" unicode="." horiz-adv-x="250" 
d="M79 101q19 19 46 19t46 -19t19 -46t-19 -46t-46 -19t-46 19t-19 46t19 46z" />
    <glyph glyph-name="slash" unicode="/" horiz-adv-x="415" 
d="M40 0l240 720h95l-240 -720h-95z" />
    <glyph glyph-name="zero" unicode="0" horiz-adv-x="670" 
d="M225 720h220q83 0 121.5 -39t38.5 -121v-400q0 -82 -38.5 -121t-121.5 -39h-220q-83 0 -121.5 39t-38.5 121v400q0 82 38.5 121t121.5 39zM515 160v400q0 42 -15.5 59t-54.5 17h-220q-39 0 -54.5 -17t-15.5 -59v-400q0 -42 15.5 -59t54.5 -17h220q39 0 54.5 17t15.5 59z
" />
    <glyph glyph-name="one" unicode="1" horiz-adv-x="310" 
d="M150 636h-120v84h210v-720h-90v636z" />
    <glyph glyph-name="two" unicode="2" horiz-adv-x="665" 
d="M65 0v160q0 96 33 137q32 39 127 71l220 73q43 15 57 38q13 22 13 81q0 42 -15.5 59t-54.5 17h-220q-39 0 -54.5 -17t-15.5 -59v-70h-90v70q0 82 38.5 121t121.5 39h220q83 0 121.5 -39t38.5 -121q0 -96 -33 -137q-32 -39 -127 -71l-220 -73q-43 -15 -57 -38
q-13 -22 -13 -81v-76h450v-84h-540z" />
    <glyph glyph-name="three" unicode="3" horiz-adv-x="665" 
d="M220 720h220q82 0 121 -39t39 -121v-85q0 -54 -21 -80t-42 -29l-7 -1v-10q3 0 7.5 -1t16.5 -7.5t21.5 -17t17 -33t7.5 -51.5v-85q0 -82 -39 -121t-121 -39h-220q-82 0 -121 39t-39 121v70h90v-70q0 -42 15.5 -59t54.5 -17h220q39 0 54.5 17t15.5 59v85q0 42 -14.5 57.5
t-55.5 15.5h-210v84h210q41 0 55.5 15.5t14.5 57.5v85q0 42 -15.5 59t-54.5 17h-220q-39 0 -54.5 -17t-15.5 -59v-70h-90v70q0 82 39 121t121 39z" />
    <glyph glyph-name="four" unicode="4" horiz-adv-x="615" 
d="M470 264v296h90v-560h-90v180h-450v119l255 421h105l-270 -446v-10h360z" />
    <glyph glyph-name="five" unicode="5" horiz-adv-x="665" 
d="M155 442h290q83 0 121.5 -39t38.5 -121v-122q0 -82 -38.5 -121t-121.5 -39h-220q-83 0 -121.5 39t-38.5 121v70h90v-70q0 -42 15.5 -59t54.5 -17h220q39 0 54.5 17t15.5 59v122q0 42 -15.5 59t-54.5 17h-380v362h530v-84h-440v-194z" />
    <glyph glyph-name="six" unicode="6" horiz-adv-x="670" 
d="M605 560v-70h-90v70q0 42 -15.5 59t-54.5 17h-220q-39 0 -54.5 -17t-15.5 -59v-158h290q83 0 121.5 -39t38.5 -121v-82q0 -82 -38.5 -121t-121.5 -39h-220q-83 0 -121.5 39t-38.5 121v400q0 82 38.5 121t121.5 39h220q83 0 121.5 -39t38.5 -121zM445 318h-290v-158
q0 -42 15.5 -59t54.5 -17h220q39 0 54.5 17t15.5 59v82q0 42 -15.5 59t-54.5 17z" />
    <glyph glyph-name="seven" unicode="7" horiz-adv-x="610" 
d="M30 636v84h540v-114l-281 -606h-99l290 626v10h-450z" />
    <glyph glyph-name="eight" unicode="8" horiz-adv-x="670" 
d="M225 720h220q83 0 121.5 -39t38.5 -121v-85q0 -54 -21 -80t-42 -29l-7 -1v-10q3 0 7.5 -1t16.5 -7.5t21.5 -17t17 -33t7.5 -51.5v-85q0 -82 -38.5 -121t-121.5 -39h-220q-83 0 -121.5 39t-38.5 121v85q0 54 21 80t42 29l7 1v10q-3 0 -7.5 1t-16.5 7.5t-21.5 17t-17 33
t-7.5 51.5v85q0 82 38.5 121t121.5 39zM515 160v85q0 42 -14.5 57.5t-55.5 15.5h-220q-41 0 -55.5 -15.5t-14.5 -57.5v-85q0 -42 15.5 -59t54.5 -17h220q39 0 54.5 17t15.5 59zM515 475v85q0 42 -15.5 59t-54.5 17h-220q-39 0 -54.5 -17t-15.5 -59v-85q0 -42 14.5 -57.5
t55.5 -15.5h220q41 0 55.5 15.5t14.5 57.5z" />
    <glyph glyph-name="nine" unicode="9" horiz-adv-x="670" 
d="M65 160v70h90v-70q0 -42 15.5 -59t54.5 -17h220q39 0 54.5 17t15.5 59v158h-290q-83 0 -121.5 39t-38.5 121v82q0 82 38.5 121t121.5 39h220q83 0 121.5 -39t38.5 -121v-400q0 -82 -38.5 -121t-121.5 -39h-220q-83 0 -121.5 39t-38.5 121zM225 402h290v158q0 42 -15.5 59
t-54.5 17h-220q-39 0 -54.5 -17t-15.5 -59v-82q0 -42 15.5 -59t54.5 -17z" />
    <glyph glyph-name="colon" unicode=":" horiz-adv-x="250" 
d="M79 101q19 19 46 19t46 -19t19 -46t-19 -46t-46 -19t-46 19t-19 46t19 46zM171 459q-19 -19 -46 -19t-46 19t-19 46t19 46t46 19t46 -19t19 -46t-19 -46z" />
    <glyph glyph-name="semicolon" unicode=";" horiz-adv-x="250" 
d="M105 -60h-65l42 170h108zM171 459q-19 -19 -46 -19t-46 19t-19 46t19 46t46 19t46 -19t19 -46t-19 -46z" />
    <glyph glyph-name="less" unicode="&#x3c;" horiz-adv-x="600" 
d="M60 219v122l480 181v-90l-390 -147v-10l390 -148v-89z" />
    <glyph glyph-name="equal" unicode="=" horiz-adv-x="600" 
d="M60 326v84h480v-84h-480zM540 150h-480v84h480v-84z" />
    <glyph glyph-name="greater" unicode="&#x3e;" horiz-adv-x="600" 
d="M60 522l480 -181v-122l-480 -181v89l390 148v10l-390 147v90z" />
    <glyph glyph-name="question" unicode="?" horiz-adv-x="660" 
d="M190 720h260q82 0 121 -39t39 -121v-120q0 -82 -39 -121t-121 -39h-105v-90h-90v174h195q39 0 54.5 17t15.5 59v120q0 42 -15.5 59t-54.5 17h-260q-39 0 -54.5 -17t-15.5 -59v-70h-90v70q0 82 39 121t121 39zM254 101q19 19 46 19t46 -19t19 -46t-19 -46t-46 -19t-46 19
t-19 46t19 46z" />
    <glyph glyph-name="at" unicode="@" horiz-adv-x="800" 
d="M365 540h70q66 0 93 -23t27 -77v-140q0 -68 -26.5 -94t-93.5 -26h-70q-66 0 -93 23t-27 77q0 46 21 63t99 36l130 33v28q0 27 -12 36.5t-48 9.5h-70q-38 0 -49 -12.5t-11 -53.5v-20h-60v20q0 68 26.5 94t93.5 26zM365 234h70q38 0 49 12.5t11 53.5v56l-130 -33
q-44 -11 -52 -17t-8 -26q0 -27 11.5 -36.5t48.5 -9.5zM159 600q100 100 241 100t240 -100q100 -99 100 -240t-100 -241q-99 -99 -240 -99q-140 0 -241 99q-99 101 -99 241q0 141 99 240zM202 162q82 -82 198 -82t198 82t82 198t-82 198t-198 82t-198 -82t-82 -198t82 -198z
" />
    <glyph glyph-name="A" unicode="A" horiz-adv-x="680" 
d="M267 720h143l250 -720h-95l-69 198h-313l-68 -198h-95zM334 636l-122 -354h255l-123 354h-10z" />
    <glyph glyph-name="B" unicode="B" horiz-adv-x="715" 
d="M650 560v-85q0 -54 -21 -80t-42 -29l-7 -1v-10q3 0 7.5 -1t16.5 -7.5t21.5 -17t17 -33t7.5 -51.5v-85q0 -82 -39 -121t-121 -39h-420v720h420q82 0 121 -39t39 -121zM560 160v85q0 42 -14.5 57.5t-55.5 15.5h-330v-234h330q39 0 54.5 17t15.5 59zM560 475v85
q0 42 -15.5 59t-54.5 17h-330v-234h330q41 0 55.5 15.5t14.5 57.5z" />
    <glyph glyph-name="C" unicode="C" horiz-adv-x="705" 
d="M555 160v70h90v-70q0 -82 -38.5 -121t-121.5 -39h-260q-83 0 -121.5 39t-38.5 121v400q0 82 38.5 121t121.5 39h260q83 0 121.5 -39t38.5 -121v-70h-90v70q0 42 -15.5 59t-54.5 17h-260q-39 0 -54.5 -17t-15.5 -59v-400q0 -42 15.5 -59t54.5 -17h260q39 0 54.5 17
t15.5 59z" />
    <glyph glyph-name="D" unicode="D" horiz-adv-x="715" 
d="M70 720h420q82 0 121 -39t39 -121v-400q0 -82 -39 -121t-121 -39h-420v720zM560 160v400q0 42 -15.5 59t-54.5 17h-330v-552h330q39 0 54.5 17t15.5 59z" />
    <glyph glyph-name="E" unicode="E" horiz-adv-x="665" 
d="M610 720v-84h-450v-234h440v-84h-440v-234h450v-84h-540v720h540z" />
    <glyph glyph-name="F" unicode="F" horiz-adv-x="655" 
d="M160 318v-318h-90v720h540v-84h-450v-234h440v-84h-440z" />
    <glyph glyph-name="G" unicode="G" horiz-adv-x="710" 
d="M645 560v-70h-90v70q0 42 -15.5 59t-54.5 17h-260q-39 0 -54.5 -17t-15.5 -59v-400q0 -42 15.5 -59t54.5 -17h260q39 0 54.5 17t15.5 59v158h-200v84h290v-242q0 -82 -38.5 -121t-121.5 -39h-260q-83 0 -121.5 39t-38.5 121v400q0 82 38.5 121t121.5 39h260
q83 0 121.5 -39t38.5 -121z" />
    <glyph glyph-name="H" unicode="H" horiz-adv-x="720" 
d="M560 402v318h90v-720h-90v318h-400v-318h-90v720h90v-318h400z" />
    <glyph glyph-name="I" unicode="I" horiz-adv-x="230" 
d="M160 0h-90v720h90v-720z" />
    <glyph glyph-name="J" unicode="J" horiz-adv-x="700" 
d="M540 160v560h90v-560q0 -82 -39 -121t-121 -39h-260q-82 0 -121 39t-39 121v200h90v-200q0 -42 15.5 -59t54.5 -17h260q39 0 54.5 17t15.5 59z" />
    <glyph glyph-name="K" unicode="K" horiz-adv-x="691" 
d="M565 720h106l-226 -360l226 -360h-106l-200 318h-205v-318h-90v720h90v-318h205z" />
    <glyph glyph-name="L" unicode="L" 
d="M160 84h450v-84h-540v720h90v-636z" />
    <glyph glyph-name="M" unicode="M" horiz-adv-x="830" 
d="M420 264l182 456h158v-720h-90v636h-10l-183 -456h-125l-182 456h-10v-636h-90v720h157l183 -456h10z" />
    <glyph glyph-name="N" unicode="N" horiz-adv-x="720" 
d="M560 84v636h90v-720h-155l-325 636h-10v-636h-90v720h155l325 -636h10z" />
    <glyph glyph-name="O" unicode="O" horiz-adv-x="710" 
d="M225 720h260q83 0 121.5 -39t38.5 -121v-400q0 -82 -38.5 -121t-121.5 -39h-260q-83 0 -121.5 39t-38.5 121v400q0 82 38.5 121t121.5 39zM555 160v400q0 42 -15.5 59t-54.5 17h-260q-39 0 -54.5 -17t-15.5 -59v-400q0 -42 15.5 -59t54.5 -17h260q39 0 54.5 17t15.5 59z
" />
    <glyph glyph-name="P" unicode="P" horiz-adv-x="700" 
d="M70 720h420q82 0 121 -39t39 -121v-140q0 -82 -39 -121t-121 -39h-330v-260h-90v720zM560 420v140q0 42 -15.5 59t-54.5 17h-330v-292h330q39 0 54.5 17t15.5 59z" />
    <glyph glyph-name="Q" unicode="Q" horiz-adv-x="710" 
d="M225 720h260q83 0 121.5 -39t38.5 -121v-400q0 -82 -38.5 -121t-121.5 -39h-85v-160h-90v160h-85q-83 0 -121.5 39t-38.5 121v400q0 82 38.5 121t121.5 39zM555 160v400q0 42 -15.5 59t-54.5 17h-260q-39 0 -54.5 -17t-15.5 -59v-400q0 -42 15.5 -59t54.5 -17h260
q39 0 54.5 17t15.5 59z" />
    <glyph glyph-name="R" unicode="R" horiz-adv-x="710" 
d="M650 560v-140q0 -82 -39 -121t-121 -39h-19l164 -260h-107l-163 260h-205v-260h-90v720h420q82 0 121 -39t39 -121zM160 636v-292h330q39 0 54.5 17t15.5 59v140q0 42 -15.5 59t-54.5 17h-330z" />
    <glyph glyph-name="S" unicode="S" horiz-adv-x="700" 
d="M640 560v-70h-90v70q0 42 -15.5 59t-54.5 17h-260q-39 0 -54.5 -17t-15.5 -59q0 -54 13 -76q13 -21 57 -36l260 -87q95 -32 127 -70q33 -38 33 -131q0 -82 -39 -121t-121 -39h-260q-82 0 -121 39t-39 121v70h90v-70q0 -42 15.5 -59t54.5 -17h260q39 0 54.5 17t15.5 59
q0 55 -13 75q-13 22 -57 37l-260 87q-95 32 -128 69q-32 38 -32 132q0 82 39 121t121 39h260q82 0 121 -39t39 -121z" />
    <glyph glyph-name="T" unicode="T" horiz-adv-x="620" 
d="M20 720h580v-84h-245v-636h-90v636h-245v84z" />
    <glyph glyph-name="U" unicode="U" horiz-adv-x="720" 
d="M560 160v560h90v-560q0 -82 -39 -121t-121 -39h-260q-82 0 -121 39t-39 121v560h90v-560q0 -42 15.5 -59t54.5 -17h260q39 0 54.5 17t15.5 59z" />
    <glyph glyph-name="V" unicode="V" horiz-adv-x="680" 
d="M565 720h95l-250 -720h-143l-247 720h95l219 -636h10z" />
    <glyph glyph-name="W" unicode="W" horiz-adv-x="1056" 
d="M769 84l164 636h93l-186 -720h-146l-161 636h-10l-164 -636h-147l-182 720h93l161 -636h10l164 636h140l161 -636h10z" />
    <glyph glyph-name="X" unicode="X" horiz-adv-x="663" 
d="M336 402l200 318h107l-227 -360l227 -360h-107l-200 318h-10l-200 -318h-106l226 360l-226 360h106l200 -318h10z" />
    <glyph glyph-name="Y" unicode="Y" horiz-adv-x="661" 
d="M538 720h103l-266 -480v-240h-90v240l-265 480h103l202 -366h10z" />
    <glyph glyph-name="Z" unicode="Z" horiz-adv-x="690" 
d="M635 720v-128l-490 -498v-10h490v-84h-580v127l490 499v10h-490v84h580z" />
    <glyph glyph-name="bracketleft" unicode="[" horiz-adv-x="340" 
d="M310 760v-84h-150v-832h150v-84h-240v1000h240z" />
    <glyph glyph-name="backslash" unicode="\" horiz-adv-x="415" 
d="M40 720h95l240 -720h-95z" />
    <glyph glyph-name="bracketright" unicode="]" horiz-adv-x="340" 
d="M180 676h-150v84h240v-1000h-240v84h150v832z" />
    <glyph glyph-name="asciicircum" unicode="^" horiz-adv-x="611" 
d="M264 720h83l204 -320h-71l-169 266h-10l-170 -266h-71z" />
    <glyph glyph-name="underscore" unicode="_" horiz-adv-x="660" 
d="M60 54h540v-54h-540v54z" />
    <glyph glyph-name="grave" unicode="`" horiz-adv-x="315" 
d="M190 640l-130 150h95l100 -150h-65z" />
    <glyph glyph-name="a" unicode="a" horiz-adv-x="625" 
d="M220 560h180q82 0 121 -39t39 -121v-240q0 -82 -39 -121t-121 -39h-180q-82 0 -121 39t-39 121q0 72 44 99q23 15 47 23q16 5 69 19l250 62v37q0 42 -15.5 59t-54.5 17h-180q-39 0 -54.5 -17t-15.5 -59v-30h-90v30q0 82 39 121t121 39zM470 160v117l-250 -63
q-44 -11 -57 -21t-13 -33q0 -42 15.5 -59t54.5 -17h180q39 0 54.5 17t15.5 59z" />
    <glyph glyph-name="b" unicode="b" horiz-adv-x="635" 
d="M70 760h90v-200h250q82 0 121 -39t39 -121v-240q0 -82 -39 -121t-121 -39h-180q-82 0 -121 39t-39 121v600zM230 84h180q39 0 54.5 17t15.5 59v240q0 42 -15.5 59t-54.5 17h-250v-316q0 -42 15.5 -59t54.5 -17z" />
    <glyph glyph-name="c" unicode="c" horiz-adv-x="625" 
d="M475 160v30h90v-30q0 -82 -38.5 -121t-121.5 -39h-180q-83 0 -121.5 39t-38.5 121v240q0 82 38.5 121t121.5 39h180q83 0 121.5 -39t38.5 -121v-30h-90v30q0 42 -15.5 59t-54.5 17h-180q-39 0 -54.5 -17t-15.5 -59v-240q0 -42 15.5 -59t54.5 -17h180q39 0 54.5 17
t15.5 59z" />
    <glyph glyph-name="d" unicode="d" horiz-adv-x="635" 
d="M475 560v200h90v-600q0 -82 -38.5 -121t-121.5 -39h-180q-83 0 -121.5 39t-38.5 121v240q0 82 38.5 121t121.5 39h250zM225 84h180q39 0 54.5 17t15.5 59v316h-250q-39 0 -54.5 -17t-15.5 -59v-240q0 -42 15.5 -59t54.5 -17z" />
    <glyph glyph-name="e" unicode="e" 
d="M225 560h180q83 0 121.5 -39t38.5 -121v-162h-410v-78q0 -42 15.5 -59t54.5 -17h180q39 0 54.5 17t15.5 59v30h90v-30q0 -82 -38.5 -121t-121.5 -39h-180q-83 0 -121.5 39t-38.5 121v240q0 82 38.5 121t121.5 39zM155 322h320v78q0 42 -15.5 59t-54.5 17h-180
q-39 0 -54.5 -17t-15.5 -59v-78z" />
    <glyph glyph-name="f" unicode="f" horiz-adv-x="415" 
d="M370 676h-160q-29 0 -39.5 -12.5t-10.5 -43.5v-60h190v-84h-190v-476h-90v620q0 75 32.5 107.5t107.5 32.5h160v-84z" />
    <glyph glyph-name="g" unicode="g" horiz-adv-x="590" 
d="M160 143l250 -62q53 -14 69 -19q24 -8 47 -23q44 -27 44 -99q0 -82 -39 -121t-121 -39h-180q-82 0 -121 39t-39 121v460q0 82 39 121t121 39h140q82 0 121 -39t39 -121v-40q0 -82 -39 -121t-121 -39h-210v-57zM160 400v-116h210q39 0 54.5 17t15.5 59v40q0 42 -15.5 59
t-54.5 17h-140q-39 0 -54.5 -17t-15.5 -59zM230 -136h180q39 0 54.5 17t15.5 59q0 23 -13 33t-57 21l-250 63v-117q0 -42 15.5 -59t54.5 -17z" />
    <glyph glyph-name="h" unicode="h" horiz-adv-x="640" 
d="M160 476v-476h-90v760h90v-200h250q82 0 121 -39t39 -121v-400h-90v400q0 42 -15.5 59t-54.5 17h-250z" />
    <glyph glyph-name="i" unicode="i" horiz-adv-x="230" 
d="M160 0h-90v560h90v-560zM69 741q19 19 46 19t46 -19t19 -46t-19 -46t-46 -19t-46 19t-19 46t19 46z" />
    <glyph glyph-name="j" unicode="j" horiz-adv-x="230" 
d="M69 741q19 19 46 19t46 -19t19 -46t-19 -46t-46 -19t-46 19t-19 46t19 46zM70 -60v620h90v-620q0 -75 -32.5 -107.5t-107.5 -32.5h-80v84h80q29 0 39.5 12.5t10.5 43.5z" />
    <glyph glyph-name="k" unicode="k" horiz-adv-x="610" 
d="M590 560l-185 -280l185 -280h-108l-157 238h-165v-238h-90v760h90v-438h165l157 238h108z" />
    <glyph glyph-name="l" unicode="l" horiz-adv-x="320" 
d="M160 760v-620q0 -31 10.5 -43.5t39.5 -12.5h80v-84h-80q-75 0 -107.5 32.5t-32.5 107.5v620h90z" />
    <glyph glyph-name="m" unicode="m" horiz-adv-x="930" 
d="M580 560h120q82 0 121 -39t39 -121v-400h-90v400q0 42 -15.5 59t-54.5 17h-120q-39 0 -54.5 -17t-15.5 -59v-400h-90v400q0 42 -15.5 59t-54.5 17h-120q-39 0 -54.5 -17t-15.5 -59v-400h-90v400q0 82 39 121t121 39h120q54 0 80 -21t29 -42l1 -7h10q0 3 1 7.5t7.5 16.5
t17 21.5t33 17t51.5 7.5z" />
    <glyph glyph-name="n" unicode="n" horiz-adv-x="640" 
d="M570 0h-90v400q0 42 -15.5 59t-54.5 17h-180q-39 0 -54.5 -17t-15.5 -59v-400h-90v400q0 82 39 121t121 39h180q82 0 121 -39t39 -121v-400z" />
    <glyph glyph-name="o" unicode="o" 
d="M225 560h180q83 0 121.5 -39t38.5 -121v-240q0 -82 -38.5 -121t-121.5 -39h-180q-83 0 -121.5 39t-38.5 121v240q0 82 38.5 121t121.5 39zM475 160v240q0 42 -15.5 59t-54.5 17h-180q-39 0 -54.5 -17t-15.5 -59v-240q0 -42 15.5 -59t54.5 -17h180q39 0 54.5 17t15.5 59z
" />
    <glyph glyph-name="p" unicode="p" horiz-adv-x="635" 
d="M160 0v-200h-90v600q0 82 39 121t121 39h180q82 0 121 -39t39 -121v-240q0 -82 -39 -121t-121 -39h-250zM410 476h-180q-39 0 -54.5 -17t-15.5 -59v-316h250q39 0 54.5 17t15.5 59v240q0 42 -15.5 59t-54.5 17z" />
    <glyph glyph-name="q" unicode="q" horiz-adv-x="635" 
d="M565 -200h-90v200h-250q-83 0 -121.5 39t-38.5 121v240q0 82 38.5 121t121.5 39h180q83 0 121.5 -39t38.5 -121v-600zM405 476h-180q-39 0 -54.5 -17t-15.5 -59v-240q0 -42 15.5 -59t54.5 -17h250v316q0 42 -15.5 59t-54.5 17z" />
    <glyph glyph-name="r" unicode="r" horiz-adv-x="400" 
d="M230 560h140v-84h-140q-39 0 -54.5 -17t-15.5 -59v-400h-90v400q0 82 39 121t121 39z" />
    <glyph glyph-name="s" unicode="s" horiz-adv-x="620" 
d="M560 400v-30h-90v30q0 42 -15.5 59t-54.5 17h-180q-39 0 -54.5 -17t-15.5 -59q0 -23 13 -33t57 -21l180 -45q53 -14 69 -19q24 -8 47 -23q44 -27 44 -99q0 -82 -39 -121t-121 -39h-180q-82 0 -121 39t-39 121v30h90v-30q0 -42 15.5 -59t54.5 -17h180q39 0 54.5 17
t15.5 59q0 23 -13 33t-57 21l-180 45q-53 14 -69 19q-22 7 -47 22q-44 28 -44 100q0 82 39 121t121 39h180q82 0 121 -39t39 -121z" />
    <glyph glyph-name="t" unicode="t" horiz-adv-x="415" 
d="M210 84h160v-84h-160q-75 0 -107.5 32.5t-32.5 107.5v520h90v-100h190v-84h-190v-336q0 -31 10.5 -43.5t39.5 -12.5z" />
    <glyph glyph-name="u" unicode="u" horiz-adv-x="640" 
d="M480 160v400h90v-400q0 -82 -39 -121t-121 -39h-180q-82 0 -121 39t-39 121v400h90v-400q0 -42 15.5 -59t54.5 -17h180q39 0 54.5 17t15.5 59z" />
    <glyph glyph-name="v" unicode="v" horiz-adv-x="602" 
d="M116 560l180 -476h10l180 476h96l-211 -560h-139l-212 560h96z" />
    <glyph glyph-name="w" unicode="w" horiz-adv-x="896" 
d="M651 84l122 476h93l-144 -560h-146l-123 476h-10l-122 -476h-147l-144 560h93l122 -476h10l123 476h140l123 -476h10z" />
    <glyph glyph-name="x" unicode="x" horiz-adv-x="581" 
d="M561 560l-186 -280l186 -280h-108l-158 238h-10l-157 -238h-108l185 280l-185 280h108l157 -238h10l158 238h108z" />
    <glyph glyph-name="y" unicode="y" horiz-adv-x="602" 
d="M306 84l180 476h96l-287 -760h-96l75 200h-42l-212 560h96l180 -476h10z" />
    <glyph glyph-name="z" unicode="z" horiz-adv-x="610" 
d="M555 560v-133l-410 -333v-10h410v-84h-500v132l410 334v10h-410v84h500z" />
    <glyph glyph-name="braceleft" unicode="{" horiz-adv-x="400" 
d="M220 600v-225q0 -54 -21 -80t-42 -29l-7 -1v-10q3 0 7.5 -1t16.5 -7.5t21.5 -17t17 -33t7.5 -51.5v-225q0 -42 15.5 -59t54.5 -17h80v-84h-80q-82 0 -121 39t-39 121v225q0 42 -14.5 57.5t-55.5 15.5h-40v84h40q41 0 55.5 15.5t14.5 57.5v225q0 82 39 121t121 39h80v-84
h-80q-39 0 -54.5 -17t-15.5 -59z" />
    <glyph glyph-name="bar" unicode="|" horiz-adv-x="200" 
d="M130 -240h-60v1040h60v-1040z" />
    <glyph glyph-name="braceright" unicode="}" horiz-adv-x="400" 
d="M180 375v225q0 42 -15.5 59t-54.5 17h-80v84h80q82 0 121 -39t39 -121v-225q0 -42 14.5 -57.5t55.5 -15.5h40v-84h-40q-41 0 -55.5 -15.5t-14.5 -57.5v-225q0 -82 -39 -121t-121 -39h-80v84h80q39 0 54.5 17t15.5 59v225q0 54 21 80t42 29l7 1v10q-3 0 -7.5 1t-16.5 7.5
t-21.5 17t-17 33t-7.5 51.5z" />
    <glyph glyph-name="asciitilde" unicode="~" horiz-adv-x="600" 
d="M450 378v42h90v-42q0 -75 -32.5 -107.5t-107.5 -32.5h-200q-29 0 -39.5 -12.5t-10.5 -43.5v-42h-90v42q0 75 32.5 107.5t107.5 32.5h200q29 0 39.5 12.5t10.5 43.5z" />
    <glyph glyph-name="uni00A0" unicode="&#xa0;" horiz-adv-x="320" 
 />
    <glyph glyph-name="exclamdown" unicode="&#xa1;" horiz-adv-x="230" 
d="M160 -160h-90v530h90v-530zM69 551q19 19 46 19t46 -19t19 -46t-19 -46t-46 -19t-46 19t-19 46t19 46z" />
    <glyph glyph-name="cent" unicode="&#xa2;" horiz-adv-x="625" 
d="M565 480v-30h-90v30q0 42 -15.5 59t-54.5 17h-180q-39 0 -54.5 -17t-15.5 -59v-240q0 -42 15.5 -59t54.5 -17h180q39 0 54.5 17t15.5 59v30h90v-30q0 -82 -38.5 -121t-121.5 -39h-45v-80h-90v80h-45q-83 0 -121.5 39t-38.5 121v240q0 82 38.5 121t121.5 39h45v80h90v-80
h45q83 0 121.5 -39t38.5 -121z" />
    <glyph glyph-name="sterling" unicode="&#xa3;" horiz-adv-x="720" 
d="M660 560v-70h-90v70q0 42 -15.5 59t-54.5 17h-220q-39 0 -54.5 -17t-15.5 -59v-153h180v-84h-180v-239h450v-84h-620v84h80v239h-80v84h80v153q0 82 39 121t121 39h220q82 0 121 -39t39 -121z" />
    <glyph glyph-name="currency" unicode="&#xa4;" horiz-adv-x="600" 
d="M477 247l63 -63l-64 -64l-63 63q-50 -33 -113 -33t-113 33l-63 -63l-64 64l63 63q-33 50 -33 113t33 113l-63 63l64 64l63 -63q50 33 113 33t113 -33l63 63l64 -64l-63 -63q33 -50 33 -113t-33 -113zM215 445q-35 -35 -35 -85t35 -85t85 -35t85 35t35 85t-35 85t-85 35
t-85 -35z" />
    <glyph glyph-name="yen" unicode="&#xa5;" horiz-adv-x="661" 
d="M538 720h103l-203 -366h82v-54h-380v54h82l-202 366h103l202 -366h10zM285 154h-145v54h380v-54h-145v-154h-90v154z" />
    <glyph glyph-name="brokenbar" unicode="&#xa6;" horiz-adv-x="200" 
d="M130 -160h-60v320h60v-320zM70 400v320h60v-320h-60z" />
    <glyph glyph-name="section" unicode="&#xa7;" horiz-adv-x="620" 
d="M560 560v-30h-90v30q0 42 -15.5 59t-54.5 17h-180q-39 0 -54.5 -17t-15.5 -59q0 -23 13 -33t57 -21l180 -45q53 -14 69 -19q24 -8 47 -23q44 -27 44 -99v-60h-90v60q0 23 -13 33t-57 21l-180 45q-53 14 -69 19q-22 7 -47 22q-44 28 -44 100q0 82 39 121t121 39h180
q82 0 121 -39t39 -121zM220 266l180 -45q53 -14 69 -19q24 -8 47 -23q44 -27 44 -99q0 -82 -39 -121t-121 -39h-180q-82 0 -121 39t-39 121v30h90v-30q0 -42 15.5 -59t54.5 -17h180q39 0 54.5 17t15.5 59q0 23 -13 33t-57 21l-180 45q-53 14 -69 19q-22 7 -47 22
q-44 28 -44 100v60h90v-60q0 -23 13 -33t57 -21z" />
    <glyph glyph-name="dieresis" unicode="&#xa8;" horiz-adv-x="390" 
d="M76 724q16 16 39 16t39 -16t16 -39t-16 -39t-39 -16t-39 16t-16 39t16 39zM236 724q16 16 39 16t39 -16t16 -39t-16 -39t-39 -16t-39 16t-16 39t16 39z" />
    <glyph glyph-name="copyright" unicode="&#xa9;" horiz-adv-x="800" 
d="M365 540h70q67 0 93.5 -26t26.5 -94v-20h-60v20q0 40 -11 53t-49 13h-70q-38 0 -49 -12.5t-11 -53.5v-120q0 -42 10.5 -54t49.5 -12h70q38 0 49 12.5t11 53.5v20h60v-20q0 -68 -26.5 -94t-93.5 -26h-70q-67 0 -93.5 26t-26.5 94v120q0 68 26.5 94t93.5 26zM159 600
q100 100 241 100t240 -100q100 -99 100 -240t-100 -241q-99 -99 -240 -99q-140 0 -241 99q-99 101 -99 241q0 141 99 240zM202 162q82 -82 198 -82t198 82t82 198t-82 198t-198 82t-198 -82t-82 -198t82 -198z" />
    <glyph glyph-name="ordfeminine" unicode="&#xaa;" horiz-adv-x="435" 
d="M180 720h70q66 0 93 -23t27 -77v-140q0 -68 -26 -94t-94 -26h-70q-66 0 -93 23t-27 77q0 46 21 63t99 36l130 33v28q0 27 -12 36.5t-48 9.5h-70q-38 0 -49 -12.5t-11 -53.5v-20h-60v20q0 68 26 94t94 26zM180 414h70q38 0 49 12.5t11 53.5v56l-130 -33q-44 -11 -52 -17
t-8 -26q0 -27 11.5 -36.5t48.5 -9.5z" />
    <glyph glyph-name="guillemotleft" unicode="&#xab;" horiz-adv-x="635" 
d="M210 480h112l-150 -200l150 -200h-112l-150 200zM462 480h113l-150 -200l150 -200h-113l-150 200z" />
    <glyph glyph-name="logicalnot" unicode="&#xac;" horiz-adv-x="600" 
d="M60 296v84h480v-200h-90v116h-390z" />
    <glyph glyph-name="uni00AD" unicode="&#xad;" horiz-adv-x="400" 
d="M60 322h280v-84h-280v84z" />
    <glyph glyph-name="registered" unicode="&#xae;" horiz-adv-x="800" 
d="M255 540h190q66 0 93 -25t27 -85v-20q0 -54 -20.5 -79t-68.5 -30l79 -121h-72l-78 120h-90v-120h-60v360zM505 410v20q0 34 -11.5 45t-48.5 11h-130v-132h130q37 0 48.5 11t11.5 45zM159 600q100 100 241 100t240 -100q100 -99 100 -240t-100 -241q-99 -99 -240 -99
q-140 0 -241 99q-99 101 -99 241q0 141 99 240zM202 162q82 -82 198 -82t198 82t82 198t-82 198t-198 82t-198 -82t-82 -198t82 -198z" />
    <glyph glyph-name="overscore" unicode="&#xaf;" horiz-adv-x="370" 
d="M310 640h-250v54h250v-54z" />
    <glyph glyph-name="degree" unicode="&#xb0;" horiz-adv-x="500" 
d="M115 674q56 56 135 56q78 0 134 -56t56 -134q0 -79 -56 -135q-55 -55 -134 -55q-80 0 -135 55t-55 135q0 79 55 134zM158 448q38 -38 92 -38t92 38t38 92t-38 92t-92 38t-92 -38t-38 -92t38 -92z" />
    <glyph glyph-name="plusminus" unicode="&#xb1;" horiz-adv-x="600" 
d="M540 40h-480v84h480v-84zM345 520v-138h195v-84h-195v-138h-90v138h-195v84h195v138h90z" />
    <glyph glyph-name="twosuperior" unicode="&#xb2;" horiz-adv-x="435" 
d="M255 511l-70 -18q-44 -11 -52 -17t-8 -26v-36h250v-54h-310v90q0 46 21 63t99 36l70 18q44 11 52 17t8 26q0 34 -11.5 45t-48.5 11h-70q-38 0 -49 -12.5t-11 -53.5v-20h-60v20q0 68 26.5 94t93.5 26h70q66 0 93 -25t27 -85q0 -46 -21 -63t-99 -36z" />
    <glyph glyph-name="threesuperior" unicode="&#xb3;" horiz-adv-x="435" 
d="M320 545v-10q2 0 5.5 -1t12 -5t15 -10t12 -19t5.5 -30q0 -60 -27 -85t-93 -25h-70q-68 0 -94 26t-26 94v10h60v-10q0 -42 10.5 -54t49.5 -12h70q37 0 48.5 11t11.5 45q0 22 -13 32.5t-47 10.5h-90v54h90q34 0 47 10.5t13 32.5q0 34 -11.5 45t-48.5 11h-70
q-38 0 -49 -12.5t-11 -53.5v-10h-60v10q0 68 26 94t94 26h70q66 0 93 -25t27 -85q0 -25 -12 -42t-26 -20z" />
    <glyph glyph-name="acute" unicode="&#xb4;" horiz-adv-x="315" 
d="M160 790h95l-130 -150h-65z" />
    <glyph glyph-name="mu" unicode="&#xb5;" horiz-adv-x="640" 
d="M480 160v400h90v-400q0 -82 -39 -121t-121 -39h-250v-160h-90v720h90v-476h250q39 0 54.5 17t15.5 59z" />
    <glyph glyph-name="paragraph" unicode="&#xb6;" horiz-adv-x="560" 
d="M430 -120v840h60v-840h-60zM50 360v200q0 82 39 121t121 39h100v-840h-60v320h-40q-82 0 -121 39t-39 121z" />
    <glyph glyph-name="middot" unicode="&#xb7;" horiz-adv-x="250" 
d="M79 326q19 19 46 19t46 -19t19 -46t-19 -46t-46 -19t-46 19t-19 46t19 46z" />
    <glyph glyph-name="cedilla" unicode="&#xb8;" horiz-adv-x="370" 
d="M120 -99v99h60v-45h50q45 0 62.5 -17.5t17.5 -62.5v-25q0 -45 -17.5 -62.5t-62.5 -17.5h-170v54h170q12 0 16 5.5t4 20.5v25q0 15 -4 20.5t-16 5.5h-110z" />
    <glyph glyph-name="onesuperior" unicode="&#xb9;" horiz-adv-x="240" 
d="M30 666v54h140v-360h-60v306h-80z" />
    <glyph glyph-name="ordmasculine" unicode="&#xba;" horiz-adv-x="440" 
d="M185 720h70q67 0 93.5 -26t26.5 -94v-120q0 -68 -26.5 -94t-93.5 -26h-70q-67 0 -93.5 26t-26.5 94v120q0 68 26.5 94t93.5 26zM315 480v120q0 40 -11 53t-49 13h-70q-38 0 -49 -12.5t-11 -53.5v-120q0 -42 10.5 -54t49.5 -12h70q38 0 49 12.5t11 53.5z" />
    <glyph glyph-name="guillemotright" unicode="&#xbb;" horiz-adv-x="635" 
d="M462 280l-150 200h113l150 -200l-150 -200h-113zM210 280l-150 200h112l150 -200l-150 -200h-112z" />
    <glyph glyph-name="onequarter" unicode="&#xbc;" horiz-adv-x="675" 
d="M170 360h-60v306h-80v54h140v-360zM66 0l360 720h67l-360 -720h-67zM560 124v156h60v-280h-60v70h-250v82l138 208h72l-150 -226v-10h190z" />
    <glyph glyph-name="onehalf" unicode="&#xbd;" horiz-adv-x="720" 
d="M170 360h-60v306h-80v54h140v-360zM66 0l360 720h67l-360 -720h-67zM410 90v-36h250v-54h-310v90q0 46 21 63t99 36l70 18q44 11 52 17t8 26q0 34 -11.5 45t-48.5 11h-70q-38 0 -49 -12.5t-11 -53.5v-20h-60v20q0 68 26 94t94 26h70q66 0 93 -25t27 -85q0 -46 -21 -63
t-99 -36l-70 -18q-44 -11 -52 -17t-8 -26z" />
    <glyph glyph-name="threequarters" unicode="&#xbe;" horiz-adv-x="835" 
d="M370 470q0 -60 -27 -85t-93 -25h-70q-68 0 -94 26t-26 94v10h60v-10q0 -42 10.5 -54t49.5 -12h70q37 0 48.5 11t11.5 45q0 22 -13 32.5t-47 10.5h-90v54h90q34 0 47 10.5t13 32.5q0 34 -11.5 45t-48.5 11h-70q-38 0 -49 -12.5t-11 -53.5v-10h-60v10q0 68 26 94t94 26h70
q66 0 93 -25t27 -85q0 -25 -12 -42t-26 -20l-12 -3v-10q2 0 5.5 -1t12 -5t15 -10t12 -19t5.5 -30zM226 0l360 720h67l-360 -720h-67zM720 124v156h60v-280h-60v70h-250v82l138 208h72l-150 -226v-10h190z" />
    <glyph glyph-name="questiondown" unicode="&#xbf;" horiz-adv-x="660" 
d="M470 -160h-260q-82 0 -121 39t-39 121v120q0 82 39 121t121 39h105v90h90v-174h-195q-39 0 -54.5 -17t-15.5 -59v-120q0 -42 15.5 -59t54.5 -17h260q39 0 54.5 17t15.5 59v70h90v-70q0 -82 -39 -121t-121 -39zM406 459q-19 -19 -46 -19t-46 19t-19 46t19 46t46 19t46 -19
t19 -46t-19 -46z" />
    <glyph glyph-name="Agrave" unicode="&#xc0;" horiz-adv-x="680" 
d="M308 926l100 -150h-65l-130 150h95zM267 720h143l250 -720h-95l-69 198h-313l-68 -198h-95zM334 636l-122 -354h255l-123 354h-10z" />
    <glyph glyph-name="Aacute" unicode="&#xc1;" horiz-adv-x="680" 
d="M340 776h-65l100 150h95zM20 0l251 720h142l247 -720h-95l-68 198h-313l-69 -198h-95zM213 282h255l-121 354h-10z" />
    <glyph glyph-name="Acircumflex" unicode="&#xc2;" horiz-adv-x="680" 
d="M267 720h143l250 -720h-95l-69 198h-313l-68 -198h-95zM334 636l-122 -354h255l-123 354h-10zM345 872h-10l-72 -96h-76l114 150h79l113 -150h-75z" />
    <glyph glyph-name="Atilde" unicode="&#xc3;" horiz-adv-x="680" 
d="M267 720h143l250 -720h-95l-69 198h-313l-68 -198h-95zM334 636l-122 -354h255l-123 354h-10zM261 825l-10 -25l-56 22l10 25q17 42 39.5 52t64.5 -6l84 -33q12 -4 17 -1t11 18l10 25l56 -22l-10 -25q-17 -42 -39.5 -52t-64.5 6l-84 33q-18 8 -28 -17z" />
    <glyph glyph-name="Adieresis" unicode="&#xc4;" horiz-adv-x="680" 
d="M267 720h143l250 -720h-95l-69 198h-313l-68 -198h-95zM334 636l-122 -354h255l-123 354h-10zM420 790q-22 0 -38.5 16t-16.5 39t16.5 39t38.5 16q23 0 39 -16t16 -39t-16 -39t-39 -16zM260 790q-22 0 -38.5 16t-16.5 39t16.5 39t38.5 16q23 0 39 -16t16 -39t-16 -39
t-39 -16z" />
    <glyph glyph-name="Aring" unicode="&#xc5;" horiz-adv-x="680" 
d="M340 790q-39 0 -67 27.5t-28 67.5q0 39 28 67t67 28q40 0 67.5 -28t27.5 -67q0 -40 -27.5 -67.5t-67.5 -27.5zM368 913q-12 12 -28 12t-28 -12q-12 -11 -12 -28t12 -29q12 -11 28 -11t28 11q12 12 12 29t-12 28zM267 720h143l250 -720h-95l-69 198h-313l-68 -198h-95z
M334 636l-122 -354h255l-123 354h-10z" />
    <glyph glyph-name="AE" unicode="&#xc6;" horiz-adv-x="1060" 
d="M1005 720v-84h-450v-234h440v-84h-440v-234h450v-84h-540v198h-240l-103 -198h-102l377 720h608zM455 636l-186 -354h196v354h-10z" />
    <glyph glyph-name="Ccedilla" unicode="&#xc7;" horiz-adv-x="705" 
d="M645 560v-70h-90v70q0 42 -15.5 59t-54.5 17h-260q-39 0 -54.5 -17t-15.5 -59v-400q0 -42 15.5 -59t54.5 -17h260q39 0 54.5 17t15.5 59v70h90v-70q0 -82 -38.5 -121t-121.5 -39h-135v-45h50q45 0 62.5 -17.5t17.5 -62.5v-25q0 -45 -17.5 -62.5t-62.5 -17.5h-170v54h170
q12 0 16 5.5t4 20.5v25q0 15 -4 20.5t-16 5.5h-110v99h-65q-83 0 -121.5 39t-38.5 121v400q0 82 38.5 121t121.5 39h260q83 0 121.5 -39t38.5 -121z" />
    <glyph glyph-name="Egrave" unicode="&#xc8;" horiz-adv-x="665" 
d="M610 720v-84h-450v-234h440v-84h-440v-234h450v-84h-540v720h540zM323 926l100 -150h-65l-130 150h95z" />
    <glyph glyph-name="Eacute" unicode="&#xc9;" horiz-adv-x="665" 
d="M610 720v-84h-450v-234h440v-84h-440v-234h450v-84h-540v720h540zM343 776h-65l100 150h95z" />
    <glyph glyph-name="Ecircumflex" unicode="&#xca;" horiz-adv-x="665" 
d="M610 720v-84h-450v-234h440v-84h-440v-234h450v-84h-540v720h540zM345 872h-10l-72 -96h-76l114 150h79l113 -150h-75z" />
    <glyph glyph-name="Edieresis" unicode="&#xcb;" horiz-adv-x="665" 
d="M610 720v-84h-450v-234h440v-84h-440v-234h450v-84h-540v720h540zM458 806q-16 -16 -38 -16t-39 16q-16 16 -16 39t16 39q17 16 39 16t38 -16q17 -16 17 -39t-17 -39zM298 806q-16 -16 -38 -16t-39 16q-16 16 -16 39t16 39q17 16 39 16t38 -16q17 -16 17 -39t-17 -39z
" />
    <glyph glyph-name="Igrave" unicode="&#xcc;" horiz-adv-x="230" 
d="M160 720v-720h-90v720h90zM58 926l100 -150h-65l-130 150h95z" />
    <glyph glyph-name="Iacute" unicode="&#xcd;" horiz-adv-x="230" 
d="M160 0h-90v720h90v-720zM131 776h-65l100 150h95z" />
    <glyph glyph-name="Icircumflex" unicode="&#xce;" horiz-adv-x="230" 
d="M160 0h-90v720h90v-720zM75 950h79l113 -150h-75l-72 96h-10l-73 -96h-75z" />
    <glyph glyph-name="Idieresis" unicode="&#xcf;" horiz-adv-x="230" 
d="M160 0h-90v720h90v-720zM156 884q16 16 39 16t39 -16t16 -39t-16 -39t-39 -16t-39 16t-16 39t16 39zM74 884q16 -16 16 -39t-16 -39t-39 -16t-39 16t-16 39t16 39t39 16t39 -16z" />
    <glyph glyph-name="Eth" unicode="&#xd0;" horiz-adv-x="755" 
d="M110 720h420q82 0 121 -39t39 -121v-400q0 -82 -39 -121t-121 -39h-420v318h-80v84h80v318zM600 160v400q0 42 -15.5 59t-54.5 17h-330v-234h200v-84h-200v-234h330q39 0 54.5 17t15.5 59z" />
    <glyph glyph-name="Ntilde" unicode="&#xd1;" horiz-adv-x="720" 
d="M295 827v-27h-60v27q0 45 17.5 62.5t62.5 17.5h90q12 0 16 5.5t4 20.5v27h60v-27q0 -45 -17.5 -62.5t-62.5 -17.5h-90q-12 0 -16 -5.5t-4 -20.5zM560 84v636h90v-720h-155l-325 636h-10v-636h-90v720h155l325 -636h10z" />
    <glyph glyph-name="Ograve" unicode="&#xd2;" horiz-adv-x="710" 
d="M225 720h260q83 0 121.5 -39t38.5 -121v-400q0 -82 -38.5 -121t-121.5 -39h-260q-83 0 -121.5 39t-38.5 121v400q0 82 38.5 121t121.5 39zM155 560v-400q0 -42 15.5 -59t54.5 -17h260q39 0 54.5 17t15.5 59v400q0 42 -15.5 59t-54.5 17h-260q-39 0 -54.5 -17t-15.5 -59z
M324 926l100 -150h-65l-130 150h95z" />
    <glyph glyph-name="Oacute" unicode="&#xd3;" horiz-adv-x="710" 
d="M225 720h260q83 0 121.5 -39t38.5 -121v-400q0 -82 -38.5 -121t-121.5 -39h-260q-83 0 -121.5 39t-38.5 121v400q0 82 38.5 121t121.5 39zM555 160v400q0 42 -15.5 59t-54.5 17h-260q-39 0 -54.5 -17t-15.5 -59v-400q0 -42 15.5 -59t54.5 -17h260q39 0 54.5 17t15.5 59z
M363 776h-65l100 150h95z" />
    <glyph glyph-name="Ocircumflex" unicode="&#xd4;" horiz-adv-x="710" 
d="M225 720h260q83 0 121.5 -39t38.5 -121v-400q0 -82 -38.5 -121t-121.5 -39h-260q-83 0 -121.5 39t-38.5 121v400q0 82 38.5 121t121.5 39zM555 160v400q0 42 -15.5 59t-54.5 17h-260q-39 0 -54.5 -17t-15.5 -59v-400q0 -42 15.5 -59t54.5 -17h260q39 0 54.5 17t15.5 59z
M359 872h-10l-72 -96h-76l114 150h79l113 -150h-75z" />
    <glyph glyph-name="Otilde" unicode="&#xd5;" horiz-adv-x="710" 
d="M225 720h260q83 0 121.5 -39t38.5 -121v-400q0 -82 -38.5 -121t-121.5 -39h-260q-83 0 -121.5 39t-38.5 121v400q0 82 38.5 121t121.5 39zM555 160v400q0 42 -15.5 59t-54.5 17h-260q-39 0 -54.5 -17t-15.5 -59v-400q0 -42 15.5 -59t54.5 -17h260q39 0 54.5 17t15.5 59z
M278 825l-10 -25l-56 22l10 25q17 42 39.5 52t64.5 -6l84 -33q12 -4 17 -1t11 18l10 25l56 -22l-10 -25q-17 -42 -39.5 -52t-64.5 6l-84 33q-18 8 -28 -17z" />
    <glyph glyph-name="Odieresis" unicode="&#xd6;" horiz-adv-x="710" 
d="M225 720h260q83 0 121.5 -39t38.5 -121v-400q0 -82 -38.5 -121t-121.5 -39h-260q-83 0 -121.5 39t-38.5 121v400q0 82 38.5 121t121.5 39zM555 160v400q0 42 -15.5 59t-54.5 17h-260q-39 0 -54.5 -17t-15.5 -59v-400q0 -42 15.5 -59t54.5 -17h260q39 0 54.5 17t15.5 59z
M474 806q-16 -16 -39 -16t-39 16t-16 39t16 39t39 16t39 -16t16 -39t-16 -39zM314 806q-16 -16 -39 -16t-39 16t-16 39t16 39t39 16t39 -16t16 -39t-16 -39z" />
    <glyph glyph-name="multiply" unicode="&#xd7;" horiz-adv-x="580" 
d="M290 344l166 166l64 -64l-166 -166l166 -166l-64 -64l-166 166l-166 -166l-64 64l166 166l-166 166l64 64z" />
    <glyph glyph-name="Oslash" unicode="&#xd8;" horiz-adv-x="710" 
d="M225 720h260q83 0 121.5 -39t38.5 -121v-400q0 -82 -38.5 -121t-121.5 -39h-260q-83 0 -121.5 39t-38.5 121v400q0 82 38.5 121t121.5 39zM485 636h-260q-39 0 -54.5 -17t-15.5 -59v-270l400 200v70q0 42 -15.5 59t-54.5 17zM225 84h260q39 0 54.5 17t15.5 59v270
l-400 -200v-70q0 -42 15.5 -59t54.5 -17z" />
    <glyph glyph-name="Ugrave" unicode="&#xd9;" horiz-adv-x="720" 
d="M70 720h90v-560q0 -42 15.5 -59t54.5 -17h260q39 0 54.5 17t15.5 59v560h90v-560q0 -82 -39 -121t-121 -39h-260q-82 0 -121 39t-39 121v560zM324 926l100 -150h-65l-130 150h95z" />
    <glyph glyph-name="Uacute" unicode="&#xda;" horiz-adv-x="720" 
d="M560 160v560h90v-560q0 -82 -39 -121t-121 -39h-260q-82 0 -121 39t-39 121v560h90v-560q0 -42 15.5 -59t54.5 -17h260q39 0 54.5 17t15.5 59zM369 776h-65l100 150h95z" />
    <glyph glyph-name="Ucircumflex" unicode="&#xdb;" horiz-adv-x="720" 
d="M560 160v560h90v-560q0 -82 -39 -121t-121 -39h-260q-82 0 -121 39t-39 121v560h90v-560q0 -42 15.5 -59t54.5 -17h260q39 0 54.5 17t15.5 59zM365 896h-10l-73 -96h-75l114 150h78l114 -150h-76z" />
    <glyph glyph-name="Udieresis" unicode="&#xdc;" horiz-adv-x="720" 
d="M560 160v560h90v-560q0 -82 -39 -121t-121 -39h-260q-82 0 -121 39t-39 121v560h90v-560q0 -42 15.5 -59t54.5 -17h260q39 0 54.5 17t15.5 59zM478 806q-16 -16 -38 -16t-39 16q-16 16 -16 39t16 39q17 16 39 16t38 -16q17 -16 17 -39t-17 -39zM318 806q-16 -16 -38 -16
t-39 16q-16 16 -16 39t16 39q17 16 39 16t38 -16q17 -16 17 -39t-17 -39z" />
    <glyph glyph-name="Yacute" unicode="&#xdd;" horiz-adv-x="661" 
d="M335 354l203 366h103l-266 -480v-240h-90v240l-265 480h103l202 -366h10zM333 776h-65l100 150h95z" />
    <glyph glyph-name="Thorn" unicode="&#xde;" horiz-adv-x="700" 
d="M160 590h330q82 0 121 -39t39 -121v-140q0 -82 -39 -121t-121 -39h-330v-130h-90v720h90v-130zM560 290v140q0 42 -15.5 59t-54.5 17h-330v-292h330q39 0 54.5 17t15.5 59z" />
    <glyph glyph-name="germandbls" unicode="&#xdf;" horiz-adv-x="635" 
d="M570 560v-85q0 -54 -21 -80t-42 -29l-7 -1v-10q3 0 7.5 -1t16.5 -7.5t21.5 -17t17 -33t7.5 -51.5v-85q0 -82 -39 -121t-121 -39h-170v84h170q39 0 54.5 17t15.5 59v85q0 42 -14.5 57.5t-55.5 15.5h-90v84h90q41 0 55.5 15.5t14.5 57.5v85q0 42 -15.5 59t-54.5 17h-180
q-39 0 -54.5 -17t-15.5 -59v-560h-90v560q0 82 39 121t121 39h180q82 0 121 -39t39 -121z" />
    <glyph glyph-name="agrave" unicode="&#xe0;" horiz-adv-x="625" 
d="M220 560h180q82 0 121 -39t39 -121v-240q0 -82 -39 -121t-121 -39h-180q-82 0 -121 39t-39 121q0 72 44 99q23 15 47 23q16 5 69 19l250 62v37q0 42 -15.5 59t-54.5 17h-180q-39 0 -54.5 -17t-15.5 -59v-30h-90v30q0 82 39 121t121 39zM470 160v117l-250 -63
q-44 -11 -57 -21t-13 -33q0 -42 15.5 -59t54.5 -17h180q39 0 54.5 17t15.5 59zM295 770l100 -150h-65l-130 150h95z" />
    <glyph glyph-name="aacute" unicode="&#xe1;" horiz-adv-x="625" 
d="M220 560h180q82 0 121 -39t39 -121v-240q0 -82 -39 -121t-121 -39h-180q-82 0 -121 39t-39 121q0 72 44 99q23 15 47 23q16 5 69 19l250 62v37q0 42 -15.5 59t-54.5 17h-180q-39 0 -54.5 -17t-15.5 -59v-30h-90v30q0 82 39 121t121 39zM470 160v117l-250 -63
q-44 -11 -57 -21t-13 -33q0 -42 15.5 -59t54.5 -17h180q39 0 54.5 17t15.5 59zM362 772h95l-130 -150h-65z" />
    <glyph glyph-name="acircumflex" unicode="&#xe2;" horiz-adv-x="625" 
d="M220 560h180q82 0 121 -39t39 -121v-240q0 -82 -39 -121t-121 -39h-180q-82 0 -121 39t-39 121q0 72 44 99q23 15 47 23q16 5 69 19l250 62v37q0 42 -15.5 59t-54.5 17h-180q-39 0 -54.5 -17t-15.5 -59v-30h-90v30q0 82 39 121t121 39zM470 160v117l-250 -63
q-44 -11 -57 -21t-13 -33q0 -42 15.5 -59t54.5 -17h180q39 0 54.5 17t15.5 59zM329 716h-10l-73 -96h-75l114 150h78l114 -150h-76z" />
    <glyph glyph-name="atilde" unicode="&#xe3;" horiz-adv-x="625" 
d="M220 560h180q82 0 121 -39t39 -121v-240q0 -82 -39 -121t-121 -39h-180q-82 0 -121 39t-39 121q0 72 44 99q23 15 47 23q16 5 69 19l250 62v37q0 42 -15.5 59t-54.5 17h-180q-39 0 -54.5 -17t-15.5 -59v-30h-90v30q0 82 39 121t121 39zM470 160v117l-250 -63
q-44 -11 -57 -21t-13 -33q0 -42 15.5 -59t54.5 -17h180q39 0 54.5 17t15.5 59zM245 674l-10 -25l-56 22l10 25q17 42 39.5 52t64.5 -6l84 -33q12 -4 17 -1t11 18l10 25l56 -22l-10 -25q-17 -42 -39.5 -52t-64.5 6l-84 33q-18 8 -28 -17z" />
    <glyph glyph-name="adieresis" unicode="&#xe4;" horiz-adv-x="625" 
d="M220 560h180q82 0 121 -39t39 -121v-240q0 -82 -39 -121t-121 -39h-180q-82 0 -121 39t-39 121q0 72 44 99q23 15 47 23q16 5 69 19l250 62v37q0 42 -15.5 59t-54.5 17h-180q-39 0 -54.5 -17t-15.5 -59v-30h-90v30q0 82 39 121t121 39zM470 160v117l-250 -63
q-44 -11 -57 -21t-13 -33q0 -42 15.5 -59t54.5 -17h180q39 0 54.5 17t15.5 59zM428 646q-16 -16 -38 -16t-39 16q-16 16 -16 39t16 39q17 16 39 16t38 -16q17 -16 17 -39t-17 -39zM268 646q-16 -16 -38 -16t-39 16q-16 16 -16 39t16 39q17 16 39 16t38 -16q17 -16 17 -39
t-17 -39z" />
    <glyph glyph-name="aring" unicode="&#xe5;" horiz-adv-x="625" 
d="M220 560h180q82 0 121 -39t39 -121v-240q0 -82 -39 -121t-121 -39h-180q-82 0 -121 39t-39 121q0 72 44 99q23 15 47 23q16 5 69 19l250 62v37q0 42 -15.5 59t-54.5 17h-180q-39 0 -54.5 -17t-15.5 -59v-30h-90v30q0 82 39 121t121 39zM470 160v117l-250 -63
q-44 -11 -57 -21t-13 -33q0 -42 15.5 -59t54.5 -17h180q39 0 54.5 17t15.5 59zM310 630q-40 0 -67.5 27.5t-27.5 67.5q0 39 27.5 67t67.5 28q39 0 67 -28t28 -67q0 -40 -28 -67.5t-67 -27.5zM338 753q-12 12 -28 12t-28 -12q-12 -11 -12 -28t12 -29q12 -11 28 -11t28 11
q12 12 12 29t-12 28z" />
    <glyph glyph-name="ae" unicode="&#xe6;" horiz-adv-x="1035" 
d="M970 400v-162h-410v-78q0 -42 15.5 -59t54.5 -17h180q39 0 54.5 17t15.5 59v30h90v-30q0 -82 -39 -121t-121 -39h-180q-54 0 -80 21t-29 42l-1 7h-10q0 -3 -1 -7.5t-7.5 -16.5t-17 -21.5t-33 -17t-51.5 -7.5h-180q-82 0 -121 39t-39 121q0 72 44 99q23 15 47 23
q16 5 69 19l250 62v37q0 42 -15.5 59t-54.5 17h-180q-39 0 -54.5 -17t-15.5 -59v-30h-90v30q0 82 39 121t121 39h180q54 0 80 -21t29 -42l1 -7h10q0 3 1 7.5t7.5 16.5t17 21.5t33 17t51.5 7.5h180q82 0 121 -39t39 -121zM560 400v-78h320v78q0 42 -15.5 59t-54.5 17h-180
q-39 0 -54.5 -17t-15.5 -59zM470 160v117l-250 -63q-44 -11 -57 -21t-13 -33q0 -42 15.5 -59t54.5 -17h180q39 0 54.5 17t15.5 59z" />
    <glyph glyph-name="ccedilla" unicode="&#xe7;" horiz-adv-x="625" 
d="M565 400v-30h-90v30q0 42 -15.5 59t-54.5 17h-180q-39 0 -54.5 -17t-15.5 -59v-240q0 -42 15.5 -59t54.5 -17h180q39 0 54.5 17t15.5 59v30h90v-30q0 -82 -38.5 -121t-121.5 -39h-95v-45h50q45 0 62.5 -17.5t17.5 -62.5v-25q0 -45 -17.5 -62.5t-62.5 -17.5h-170v54h170
q12 0 16 5.5t4 20.5v25q0 15 -4 20.5t-16 5.5h-110v99h-25q-83 0 -121.5 39t-38.5 121v240q0 82 38.5 121t121.5 39h180q83 0 121.5 -39t38.5 -121z" />
    <glyph glyph-name="egrave" unicode="&#xe8;" 
d="M565 400v-162h-410v-78q0 -42 15.5 -59t54.5 -17h180q39 0 54.5 17t15.5 59v30h90v-30q0 -82 -38.5 -121t-121.5 -39h-180q-83 0 -121.5 39t-38.5 121v240q0 82 38.5 121t121.5 39h180q83 0 121.5 -39t38.5 -121zM155 400v-78h320v78q0 42 -15.5 59t-54.5 17h-180
q-39 0 -54.5 -17t-15.5 -59zM276 770l100 -150h-65l-130 150h95z" />
    <glyph glyph-name="eacute" unicode="&#xe9;" 
d="M565 400v-162h-410v-78q0 -42 15.5 -59t54.5 -17h180q39 0 54.5 17t15.5 59v30h90v-30q0 -82 -38.5 -121t-121.5 -39h-180q-83 0 -121.5 39t-38.5 121v240q0 82 38.5 121t121.5 39h180q83 0 121.5 -39t38.5 -121zM155 400v-78h320v78q0 42 -15.5 59t-54.5 17h-180
q-39 0 -54.5 -17t-15.5 -59zM363 772h95l-130 -150h-65z" />
    <glyph glyph-name="ecircumflex" unicode="&#xea;" 
d="M565 400v-162h-410v-78q0 -42 15.5 -59t54.5 -17h180q39 0 54.5 17t15.5 59v30h90v-30q0 -82 -38.5 -121t-121.5 -39h-180q-83 0 -121.5 39t-38.5 121v240q0 82 38.5 121t121.5 39h180q83 0 121.5 -39t38.5 -121zM155 400v-78h320v78q0 42 -15.5 59t-54.5 17h-180
q-39 0 -54.5 -17t-15.5 -59zM320 716h-10l-73 -96h-75l114 150h78l114 -150h-76z" />
    <glyph glyph-name="edieresis" unicode="&#xeb;" 
d="M565 400v-162h-410v-78q0 -42 15.5 -59t54.5 -17h180q39 0 54.5 17t15.5 59v30h90v-30q0 -82 -38.5 -121t-121.5 -39h-180q-83 0 -121.5 39t-38.5 121v240q0 82 38.5 121t121.5 39h180q83 0 121.5 -39t38.5 -121zM155 400v-78h320v78q0 42 -15.5 59t-54.5 17h-180
q-39 0 -54.5 -17t-15.5 -59zM434 646q-16 -16 -39 -16t-39 16t-16 39t16 39t39 16t39 -16t16 -39t-16 -39zM274 646q-16 -16 -39 -16t-39 16t-16 39t16 39t39 16t39 -16t16 -39t-16 -39z" />
    <glyph glyph-name="igrave" unicode="&#xec;" horiz-adv-x="230" 
d="M160 560v-560h-90v560h90zM59 770l100 -150h-65l-130 150h95z" />
    <glyph glyph-name="iacute" unicode="&#xed;" horiz-adv-x="230" 
d="M160 0h-90v560h90v-560zM169 772h95l-130 -150h-65z" />
    <glyph glyph-name="icircumflex" unicode="&#xee;" horiz-adv-x="230" 
d="M160 0h-90v560h90v-560zM75 790h79l113 -150h-75l-72 96h-10l-73 -96h-75z" />
    <glyph glyph-name="idieresis" unicode="&#xef;" horiz-adv-x="230" 
d="M160 0h-90v560h90v-560zM156 724q16 16 39 16t39 -16t16 -39t-16 -39t-39 -16t-39 16t-16 39t16 39zM74 724q16 -16 16 -39t-16 -39t-39 -16t-39 16t-16 39t16 39t39 16t39 -16z" />
    <glyph glyph-name="eth" unicode="&#xf0;" 
d="M325 720h80q83 0 121.5 -39t38.5 -121v-400q0 -82 -38.5 -121t-121.5 -39h-180q-83 0 -121.5 39t-38.5 121v160q0 82 38.5 121t121.5 39h250v80q0 42 -15.5 59t-54.5 17h-80v-80h-60v80h-120v84h120v80h60v-80zM475 160v236h-250q-39 0 -54.5 -17t-15.5 -59v-160
q0 -42 15.5 -59t54.5 -17h180q39 0 54.5 17t15.5 59z" />
    <glyph glyph-name="ntilde" unicode="&#xf1;" horiz-adv-x="640" 
d="M230 560h180q82 0 121 -39t39 -121v-400h-90v400q0 42 -15.5 59t-54.5 17h-180q-39 0 -54.5 -17t-15.5 -59v-400h-90v400q0 82 39 121t121 39zM255 667v-27h-60v27q0 45 17.5 62.5t62.5 17.5h90q12 0 16 5.5t4 20.5v27h60v-27q0 -45 -17.5 -62.5t-62.5 -17.5h-90
q-12 0 -16 -5.5t-4 -20.5z" />
    <glyph glyph-name="ograve" unicode="&#xf2;" 
d="M225 560h180q83 0 121.5 -39t38.5 -121v-240q0 -82 -38.5 -121t-121.5 -39h-180q-83 0 -121.5 39t-38.5 121v240q0 82 38.5 121t121.5 39zM475 160v240q0 42 -15.5 59t-54.5 17h-180q-39 0 -54.5 -17t-15.5 -59v-240q0 -42 15.5 -59t54.5 -17h180q39 0 54.5 17t15.5 59z
M275 770l100 -150h-65l-130 150h95z" />
    <glyph glyph-name="oacute" unicode="&#xf3;" 
d="M225 560h180q83 0 121.5 -39t38.5 -121v-240q0 -82 -38.5 -121t-121.5 -39h-180q-83 0 -121.5 39t-38.5 121v240q0 82 38.5 121t121.5 39zM155 400v-240q0 -42 15.5 -59t54.5 -17h180q39 0 54.5 17t15.5 59v240q0 42 -15.5 59t-54.5 17h-180q-39 0 -54.5 -17t-15.5 -59z
M363 772h95l-130 -150h-65z" />
    <glyph glyph-name="ocircumflex" unicode="&#xf4;" 
d="M225 560h180q83 0 121.5 -39t38.5 -121v-240q0 -82 -38.5 -121t-121.5 -39h-180q-83 0 -121.5 39t-38.5 121v240q0 82 38.5 121t121.5 39zM475 160v240q0 42 -15.5 59t-54.5 17h-180q-39 0 -54.5 -17t-15.5 -59v-240q0 -42 15.5 -59t54.5 -17h180q39 0 54.5 17t15.5 59z
M320 716h-10l-73 -96h-75l114 150h78l114 -150h-76z" />
    <glyph glyph-name="otilde" unicode="&#xf5;" 
d="M225 560h180q83 0 121.5 -39t38.5 -121v-240q0 -82 -38.5 -121t-121.5 -39h-180q-83 0 -121.5 39t-38.5 121v240q0 82 38.5 121t121.5 39zM475 160v240q0 42 -15.5 59t-54.5 17h-180q-39 0 -54.5 -17t-15.5 -59v-240q0 -42 15.5 -59t54.5 -17h180q39 0 54.5 17t15.5 59z
M245 674l-10 -25l-56 22l10 25q17 42 39.5 52t64.5 -6l84 -33q12 -4 17 -1t11 18l10 25l56 -22l-10 -25q-17 -42 -39.5 -52t-64.5 6l-84 33q-18 8 -28 -17z" />
    <glyph glyph-name="odieresis" unicode="&#xf6;" 
d="M225 560h180q83 0 121.5 -39t38.5 -121v-240q0 -82 -38.5 -121t-121.5 -39h-180q-83 0 -121.5 39t-38.5 121v240q0 82 38.5 121t121.5 39zM475 160v240q0 42 -15.5 59t-54.5 17h-180q-39 0 -54.5 -17t-15.5 -59v-240q0 -42 15.5 -59t54.5 -17h180q39 0 54.5 17t15.5 59z
M434 646q-16 -16 -39 -16t-39 16t-16 39t16 39t39 16t39 -16t16 -39t-16 -39zM274 646q-16 -16 -39 -16t-39 16t-16 39t16 39t39 16t39 -16t16 -39t-16 -39z" />
    <glyph glyph-name="divide" unicode="&#xf7;" horiz-adv-x="600" 
d="M60 238v84h480v-84h-480zM254 161q19 19 46 19t46 -19t19 -46t-19 -46t-46 -19t-46 19t-19 46t19 46zM346 399q-19 -19 -46 -19t-46 19t-19 46t19 46t46 19t46 -19t19 -46t-19 -46z" />
    <glyph glyph-name="oslash" unicode="&#xf8;" 
d="M225 560h180q83 0 121.5 -39t38.5 -121v-240q0 -82 -38.5 -121t-121.5 -39h-180q-83 0 -121.5 39t-38.5 121v240q0 82 38.5 121t121.5 39zM405 476h-180q-39 0 -54.5 -17t-15.5 -59v-170l320 160v10q0 42 -15.5 59t-54.5 17zM225 84h180q39 0 54.5 17t15.5 59v170
l-320 -160v-10q0 -42 15.5 -59t54.5 -17z" />
    <glyph glyph-name="ugrave" unicode="&#xf9;" horiz-adv-x="640" 
d="M480 160v400h90v-400q0 -82 -39 -121t-121 -39h-180q-82 0 -121 39t-39 121v400h90v-400q0 -42 15.5 -59t54.5 -17h180q39 0 54.5 17t15.5 59zM279 770l100 -150h-65l-130 150h95z" />
    <glyph glyph-name="uacute" unicode="&#xfa;" horiz-adv-x="640" 
d="M70 560h90v-400q0 -42 15.5 -59t54.5 -17h180q39 0 54.5 17t15.5 59v400h90v-400q0 -82 -39 -121t-121 -39h-180q-82 0 -121 39t-39 121v400zM363 772h95l-130 -150h-65z" />
    <glyph glyph-name="ucircumflex" unicode="&#xfb;" horiz-adv-x="640" 
d="M480 160v400h90v-400q0 -82 -39 -121t-121 -39h-180q-82 0 -121 39t-39 121v400h90v-400q0 -42 15.5 -59t54.5 -17h180q39 0 54.5 17t15.5 59zM325 736h-10l-73 -96h-75l114 150h78l114 -150h-76z" />
    <glyph glyph-name="udieresis" unicode="&#xfc;" horiz-adv-x="640" 
d="M480 160v400h90v-400q0 -82 -39 -121t-121 -39h-180q-82 0 -121 39t-39 121v400h90v-400q0 -42 15.5 -59t54.5 -17h180q39 0 54.5 17t15.5 59zM438 646q-16 -16 -38 -16t-39 16q-16 16 -16 39t16 39q17 16 39 16t38 -16q17 -16 17 -39t-17 -39zM278 646q-16 -16 -38 -16
t-39 16q-16 16 -16 39t16 39q17 16 39 16t38 -16q17 -16 17 -39t-17 -39z" />
    <glyph glyph-name="yacute" unicode="&#xfd;" horiz-adv-x="602" 
d="M306 84l180 476h96l-287 -760h-96l75 200h-42l-212 560h96l180 -476h10zM342 772h95l-130 -150h-65z" />
    <glyph glyph-name="thorn" unicode="&#xfe;" horiz-adv-x="635" 
d="M160 560h250q82 0 121 -39t39 -121v-240q0 -82 -39 -121t-121 -39h-250v-200h-90v960h90v-200zM480 160v240q0 42 -15.5 59t-54.5 17h-250v-392h250q39 0 54.5 17t15.5 59z" />
    <glyph glyph-name="ydieresis" unicode="&#xff;" horiz-adv-x="602" 
d="M306 84l180 476h96l-287 -760h-96l75 200h-42l-212 560h96l180 -476h10zM260 646q-16 -16 -39 -16t-39 16t-16 39t16 39t39 16t39 -16t16 -39t-16 -39zM420 646q-16 -16 -39 -16t-39 16t-16 39t16 39t39 16t39 -16t16 -39t-16 -39z" />
    <glyph glyph-name="Abreve" unicode="&#x102;" horiz-adv-x="680" 
d="M416 856v32h60v-32q0 -45 -17.5 -62.5t-62.5 -17.5h-113q-45 0 -62.5 17.5t-17.5 62.5v32h60v-32q0 -15 4 -20.5t16 -5.5h113q12 0 16 5.5t4 20.5zM267 720h143l250 -720h-95l-69 198h-313l-68 -198h-95zM334 636l-122 -354h255l-123 354h-10z" />
    <glyph glyph-name="abreve" unicode="&#x103;" horiz-adv-x="625" 
d="M403 702v32h60v-32q0 -45 -17.5 -62.5t-62.5 -17.5h-113q-45 0 -62.5 17.5t-17.5 62.5v32h60v-32q0 -15 4 -20.5t16 -5.5h113q12 0 16 5.5t4 20.5zM220 560h180q82 0 121 -39t39 -121v-240q0 -82 -39 -121t-121 -39h-180q-82 0 -121 39t-39 121q0 72 44 99q23 15 47 23
q16 5 69 19l250 62v37q0 42 -15.5 59t-54.5 17h-180q-39 0 -54.5 -17t-15.5 -59v-30h-90v30q0 82 39 121t121 39zM470 160v117l-250 -63q-44 -11 -57 -21t-13 -33q0 -42 15.5 -59t54.5 -17h180q39 0 54.5 17t15.5 59z" />
    <glyph glyph-name="Dcroat" unicode="&#x110;" horiz-adv-x="715" 
d="M70 720h420q82 0 121 -39t39 -121v-400q0 -82 -39 -121t-121 -39h-420v295h-56v84h56v341zM560 160v400q0 42 -15.5 59t-54.5 17h-330v-257h166v-84h-166v-211h330q39 0 54.5 17t15.5 59z" />
    <glyph glyph-name="dcroat" unicode="&#x111;" horiz-adv-x="635" 
d="M475 721v39h90v-39h49v-84h-49v-477q0 -82 -38.5 -121t-121.5 -39h-180q-83 0 -121.5 39t-38.5 121v240q0 82 38.5 121t121.5 39h250v77h-141v84h141zM225 84h180q39 0 54.5 17t15.5 59v316h-250q-39 0 -54.5 -17t-15.5 -59v-240q0 -42 15.5 -59t54.5 -17z" />
    <glyph glyph-name="Itilde" unicode="&#x128;" horiz-adv-x="230" 
d="M38 825l-10 -25l-56 22l10 25q17 42 39.5 52t64.5 -6l84 -33q12 -4 17 -1t11 18l10 25l56 -22l-10 -25q-17 -42 -39.5 -52t-64.5 6l-84 33q-18 8 -28 -17zM160 0h-90v720h90v-720z" />
    <glyph glyph-name="itilde" unicode="&#x129;" horiz-adv-x="230" 
d="M160 0h-90v560h90v-560zM37 674l-10 -25l-56 22l10 25q17 42 39.5 52t64.5 -6l84 -33q12 -4 17 -1t11 18l10 25l56 -22l-10 -25q-17 -42 -39.5 -52t-64.5 6l-84 33q-18 8 -28 -17z" />
    <glyph glyph-name="dotlessi" unicode="&#x131;" horiz-adv-x="230" 
d="M160 0h-90v560h90v-560z" />
    <glyph glyph-name="Lslash" unicode="&#x141;" horiz-adv-x="700" 
d="M230 312v-228h450v-84h-540v267l-120 -60v61l120 60v392h90v-347l240 120v-61z" />
    <glyph glyph-name="lslash" unicode="&#x142;" horiz-adv-x="410" 
d="M280 84h80v-84h-80q-75 0 -107.5 32.5t-32.5 107.5v187l-120 -60v61l120 60v372h90v-327l120 60v-61l-120 -60v-232q0 -31 10.5 -43.5t39.5 -12.5z" />
    <glyph glyph-name="OE" unicode="&#x152;" horiz-adv-x="1150" 
d="M1095 720v-84h-450v-234h440v-84h-440v-234h450v-84h-870q-83 0 -121.5 39t-38.5 121v400q0 82 38.5 121t121.5 39h870zM225 84h330v552h-330q-39 0 -54.5 -17t-15.5 -59v-400q0 -42 15.5 -59t54.5 -17z" />
    <glyph glyph-name="oe" unicode="&#x153;" horiz-adv-x="1040" 
d="M975 400v-162h-410v-78q0 -42 15.5 -59t54.5 -17h180q39 0 54.5 17t15.5 59v30h90v-30q0 -82 -38.5 -121t-121.5 -39h-180q-54 0 -80 21t-29 42l-1 7h-10q0 -3 -1 -7.5t-7.5 -16.5t-17 -21.5t-33 -17t-51.5 -7.5h-180q-83 0 -121.5 39t-38.5 121v240q0 82 38.5 121
t121.5 39h180q54 0 80 -21t29 -42l1 -7h10q0 3 1 7.5t7.5 16.5t17 21.5t33 17t51.5 7.5h180q83 0 121.5 -39t38.5 -121zM565 400v-78h320v78q0 42 -15.5 59t-54.5 17h-180q-39 0 -54.5 -17t-15.5 -59zM475 160v240q0 42 -15.5 59t-54.5 17h-180q-39 0 -54.5 -17t-15.5 -59
v-240q0 -42 15.5 -59t54.5 -17h180q39 0 54.5 17t15.5 59z" />
    <glyph glyph-name="Scaron" unicode="&#x160;" horiz-adv-x="700" 
d="M640 560v-70h-90v70q0 42 -15.5 59t-54.5 17h-260q-39 0 -54.5 -17t-15.5 -59q0 -54 13 -76q13 -21 57 -36l260 -87q95 -32 127 -70q33 -38 33 -131q0 -82 -39 -121t-121 -39h-260q-82 0 -121 39t-39 121v70h90v-70q0 -42 15.5 -59t54.5 -17h260q39 0 54.5 17t15.5 59
q0 55 -13 75q-13 22 -57 37l-260 87q-95 32 -128 69q-32 38 -32 132q0 82 39 121t121 39h260q82 0 121 -39t39 -121zM503 950l-114 -150h-78l-114 150h75l73 -96h10l72 96h76z" />
    <glyph glyph-name="scaron" unicode="&#x161;" horiz-adv-x="620" 
d="M560 400v-30h-90v30q0 42 -15.5 59t-54.5 17h-180q-39 0 -54.5 -17t-15.5 -59q0 -23 13 -33t57 -21l180 -45q53 -14 69 -19q24 -8 47 -23q44 -27 44 -99q0 -82 -39 -121t-121 -39h-180q-82 0 -121 39t-39 121v30h90v-30q0 -42 15.5 -59t54.5 -17h180q39 0 54.5 17
t15.5 59q0 23 -13 33t-57 21l-180 45q-53 14 -69 19q-22 7 -47 22q-44 28 -44 100q0 82 39 121t121 39h180q82 0 121 -39t39 -121zM463 790l-114 -150h-78l-114 150h75l73 -96h10l72 96h76z" />
    <glyph glyph-name="Utilde" unicode="&#x168;" horiz-adv-x="720" 
d="M282 825l-10 -25l-56 22l10 25q17 42 39.5 52t64.5 -6l84 -33q12 -4 17 -1t11 18l10 25l56 -22l-10 -25q-17 -42 -39.5 -52t-64.5 6l-84 33q-18 8 -28 -17zM560 160v560h90v-560q0 -82 -39 -121t-121 -39h-260q-82 0 -121 39t-39 121v560h90v-560q0 -42 15.5 -59
t54.5 -17h260q39 0 54.5 17t15.5 59z" />
    <glyph glyph-name="utilde" unicode="&#x169;" horiz-adv-x="640" 
d="M243 674l-10 -25l-56 22l10 25q17 42 39.5 52t64.5 -6l84 -33q12 -4 17 -1t11 18l10 25l56 -22l-10 -25q-17 -42 -39.5 -52t-64.5 6l-84 33q-18 8 -28 -17zM480 160v400h90v-400q0 -82 -39 -121t-121 -39h-180q-82 0 -121 39t-39 121v400h90v-400q0 -42 15.5 -59
t54.5 -17h180q39 0 54.5 17t15.5 59z" />
    <glyph glyph-name="Ydieresis" unicode="&#x178;" horiz-adv-x="661" 
d="M335 354l203 366h103l-266 -480v-240h-90v240l-265 480h103l202 -366h10zM410 790q-22 0 -38.5 16t-16.5 39t16.5 39t38.5 16q23 0 39 -16t16 -39t-16 -39t-39 -16zM250 790q-22 0 -38.5 16t-16.5 39t16.5 39t38.5 16q23 0 39 -16t16 -39t-16 -39t-39 -16z" />
    <glyph glyph-name="Zcaron" unicode="&#x17d;" horiz-adv-x="690" 
d="M635 720v-128l-490 -498v-10h490v-84h-580v127l490 499v10h-490v84h580zM498 950l-114 -150h-78l-114 150h75l73 -96h10l72 96h76z" />
    <glyph glyph-name="zcaron" unicode="&#x17e;" horiz-adv-x="610" 
d="M555 560v-133l-410 -333v-10h410v-84h-500v132l410 334v10h-410v84h500zM458 790l-114 -150h-78l-114 150h75l73 -96h10l72 96h76z" />
    <glyph glyph-name="florin" unicode="&#x192;" horiz-adv-x="415" 
d="M370 676h-160q-29 0 -39.5 -12.5t-10.5 -43.5v-60h190v-84h-190v-536q0 -75 -32.5 -107.5t-107.5 -32.5h-80v84h80q29 0 39.5 12.5t10.5 43.5v680q0 75 32.5 107.5t107.5 32.5h160v-84z" />
    <glyph glyph-name="Ohorn" unicode="&#x1a0;" horiz-adv-x="731" 
d="M225 720h260h12h96q47 -3 47 32v54h80v-17q4 -97 -30 -124q-23 -20 -59 -23q14 -36 14 -82v-400q0 -82 -38.5 -121t-121.5 -39h-260q-83 0 -121.5 39t-38.5 121v400q0 82 38.5 121t121.5 39zM555 160v400q0 42 -15.5 59t-54.5 17h-260q-39 0 -54.5 -17t-15.5 -59v-400
q0 -42 15.5 -59t54.5 -17h260q39 0 54.5 17t15.5 59z" />
    <glyph glyph-name="ohorn" unicode="&#x1a1;" 
d="M225 560h180h12h85q47 -3 47 32v54h80v-17q4 -97 -30 -124q-20 -16 -48 -22q14 -36 14 -83v-240q0 -82 -38.5 -121t-121.5 -39h-180q-83 0 -121.5 39t-38.5 121v240q0 82 38.5 121t121.5 39zM475 160v240q0 42 -15.5 59t-54.5 17h-180q-39 0 -54.5 -17t-15.5 -59v-240
q0 -42 15.5 -59t54.5 -17h180q39 0 54.5 17t15.5 59z" />
    <glyph glyph-name="Uhorn" unicode="&#x1af;" horiz-adv-x="758" 
d="M560 160v560h90q37 1 37 32v54h80v-17q4 -97 -30 -124q-29 -25 -87 -25v-480q0 -82 -39 -121t-121 -39h-260q-82 0 -121 39t-39 121v560h90v-560q0 -42 15.5 -59t54.5 -17h260q39 0 54.5 17t15.5 59z" />
    <glyph glyph-name="uhorn" unicode="&#x1b0;" horiz-adv-x="640" 
d="M480 160v400h90v-1q30 3 30 32v54h80v-17q4 -97 -30 -124q-29 -23 -80 -25v-319q0 -82 -39 -121t-121 -39h-180q-82 0 -121 39t-39 121v400h90v-400q0 -42 15.5 -59t54.5 -17h180q39 0 54.5 17t15.5 59z" />
    <glyph glyph-name="circumflex" unicode="&#x2c6;" horiz-adv-x="425" 
d="M135 640h-75l113 150h79l113 -150h-75l-72 96h-10z" />
    <glyph glyph-name="caron" unicode="&#x2c7;" horiz-adv-x="425" 
d="M173 640l-113 150h75l73 -96h10l72 96h75l-113 -150h-79z" />
    <glyph glyph-name="uni02C9" unicode="&#x2c9;" horiz-adv-x="370" 
d="M310 640h-250v54h250v-54z" />
    <glyph glyph-name="breve" unicode="&#x2d8;" horiz-adv-x="370" 
d="M250 720v70h60v-70q0 -45 -17.5 -62.5t-62.5 -17.5h-90q-45 0 -62.5 17.5t-17.5 62.5v70h60v-70q0 -15 4 -20.5t16 -5.5h90q12 0 16 5.5t4 20.5z" />
    <glyph glyph-name="dotaccent" unicode="&#x2d9;" horiz-adv-x="250" 
d="M79 741q19 19 46 19t46 -19t19 -46t-19 -46t-46 -19t-46 19t-19 46t19 46z" />
    <glyph glyph-name="ring" unicode="&#x2da;" horiz-adv-x="310" 
d="M155 820q39 0 67 -28t28 -67q0 -40 -28 -67.5t-67 -27.5q-40 0 -67.5 27.5t-27.5 67.5q0 39 27.5 67t67.5 28zM126 696q12 -11 29 -11t28 11q12 12 12 29t-12 28q-11 12 -28 12t-29 -12q-11 -11 -11 -28t11 -29z" />
    <glyph glyph-name="ogonek" unicode="&#x2db;" horiz-adv-x="330" 
d="M60 0h60v-110q0 -42 10.5 -54t49.5 -12h90v-54h-90q-68 0 -94 26t-26 94v110z" />
    <glyph glyph-name="tilde" unicode="&#x2dc;" horiz-adv-x="370" 
d="M250 773v27h60v-27q0 -45 -17.5 -62.5t-62.5 -17.5h-90q-12 0 -16 -5.5t-4 -20.5v-27h-60v27q0 45 17.5 62.5t62.5 17.5h90q12 0 16 5.5t4 20.5z" />
    <glyph glyph-name="hungarumlaut" unicode="&#x2dd;" horiz-adv-x="480" 
d="M60 640l100 150h95l-130 -150h-65zM225 640l100 150h95l-130 -150h-65z" />
    <glyph glyph-name="uni03A9" unicode="&#x3a9;" horiz-adv-x="680" 
d="M540 94v-10h110v-84h-200v131q41 0 55.5 15.5t14.5 57.5v316q0 42 -15.5 59t-54.5 17h-220q-39 0 -54.5 -17t-15.5 -59v-316q0 -42 14.5 -57.5t55.5 -15.5v-131h-200v84h110v10q-3 0 -7.5 1t-16.5 7.5t-21.5 17t-17 33t-7.5 51.5v316q0 82 39 121t121 39h220
q82 0 121 -39t39 -121v-316q0 -54 -21 -80t-42 -29z" />
    <glyph glyph-name="uni03BC" unicode="&#x3bc;" horiz-adv-x="640" 
d="M480 160v400h90v-400q0 -82 -39 -121t-121 -39h-250v-160h-90v720h90v-476h250q39 0 54.5 17t15.5 59z" />
    <glyph glyph-name="pi" unicode="&#x3c0;" horiz-adv-x="640" 
d="M30 560h580v-84h-80v-476h-90v476h-240v-476h-90v476h-80v84z" />
    <glyph glyph-name="uni1EA0" unicode="&#x1ea0;" horiz-adv-x="680" 
d="M305 -71q15 14 35.5 14t34.5 -14q15 -15 15 -35.5t-15 -34.5q-14 -15 -34.5 -15t-35.5 15q-14 14 -14 34.5t14 35.5zM267 720h143l250 -720h-95l-69 198h-313l-68 -198h-95zM334 636l-122 -354h255l-123 354h-10z" />
    <glyph glyph-name="uni1EA1" unicode="&#x1ea1;" horiz-adv-x="625" 
d="M276 -71q15 14 35.5 14t34.5 -14q15 -15 15 -35.5t-15 -34.5q-14 -15 -34.5 -15t-35.5 15q-14 14 -14 34.5t14 35.5zM220 560h180q82 0 121 -39t39 -121v-240q0 -82 -39 -121t-121 -39h-180q-82 0 -121 39t-39 121q0 72 44 99q23 15 47 23q16 5 69 19l250 62v37
q0 42 -15.5 59t-54.5 17h-180q-39 0 -54.5 -17t-15.5 -59v-30h-90v30q0 82 39 121t121 39zM470 160v117l-250 -63q-44 -11 -57 -21t-13 -33q0 -42 15.5 -59t54.5 -17h180q39 0 54.5 17t15.5 59z" />
    <glyph glyph-name="uni1EA2" unicode="&#x1ea2;" horiz-adv-x="680" 
d="M292 972h81q64 0 64 -66v-34q0 -34 -14.5 -49t-56.5 -16v-6q0 -1 -0.5 -3.5t-0.5 -4.5v-17h-55v83h48q16 0 20.5 2.5t4.5 8.5v38q0 9 -8 9h-85q-10 0 -10 -9v-39h-54v37q0 66 66 66zM267 720h143l250 -720h-95l-69 198h-313l-68 -198h-95zM334 636l-122 -354h255
l-123 354h-10z" />
    <glyph glyph-name="uni1EA3" unicode="&#x1ea3;" horiz-adv-x="625" 
d="M296 816h81q64 0 64 -66v-34q0 -34 -14.5 -49t-56.5 -16v-6q0 -1 -0.5 -4t-0.5 -4v-17h-55v83h48q16 0 20.5 2.5t4.5 8.5v38q0 9 -8 9h-85q-10 0 -10 -9v-39h-54v37q0 66 66 66zM220 560h180q82 0 121 -39t39 -121v-240q0 -82 -39 -121t-121 -39h-180q-82 0 -121 39
t-39 121q0 72 44 99q23 15 47 23q16 5 69 19l250 62v37q0 42 -15.5 59t-54.5 17h-180q-39 0 -54.5 -17t-15.5 -59v-30h-90v30q0 82 39 121t121 39zM470 160v117l-250 -63q-44 -11 -57 -21t-13 -33q0 -42 15.5 -59t54.5 -17h180q39 0 54.5 17t15.5 59z" />
    <glyph glyph-name="uni1EA4" unicode="&#x1ea4;" horiz-adv-x="680" 
d="M267 720h143l250 -720h-95l-69 198h-313l-68 -198h-95zM334 636l-122 -354h255l-123 354h-10zM345 872h-10l-72 -96h-76l114 150h79l113 -150h-75zM516 891h-65l100 150h95z" />
    <glyph glyph-name="uni1EA5" unicode="&#x1ea5;" horiz-adv-x="625" 
d="M220 560h180q82 0 121 -39t39 -121v-240q0 -82 -39 -121t-121 -39h-180q-82 0 -121 39t-39 121q0 72 44 99q23 15 47 23q16 5 69 19l250 62v37q0 42 -15.5 59t-54.5 17h-180q-39 0 -54.5 -17t-15.5 -59v-30h-90v30q0 82 39 121t121 39zM470 160v117l-250 -63
q-44 -11 -57 -21t-13 -33q0 -42 15.5 -59t54.5 -17h180q39 0 54.5 17t15.5 59zM329 716h-10l-73 -96h-75l114 150h78l114 -150h-76zM499 735h-65l100 150h95z" />
    <glyph glyph-name="uni1EA6" unicode="&#x1ea6;" horiz-adv-x="680" 
d="M267 720h143l250 -720h-95l-69 198h-313l-68 -198h-95zM334 636l-122 -354h255l-123 354h-10zM345 872h-10l-72 -96h-76l114 150h79l113 -150h-75zM456 1041l100 -150h-65l-130 150h95z" />
    <glyph glyph-name="uni1EA7" unicode="&#x1ea7;" horiz-adv-x="625" 
d="M220 560h180q82 0 121 -39t39 -121v-240q0 -82 -39 -121t-121 -39h-180q-82 0 -121 39t-39 121q0 72 44 99q23 15 47 23q16 5 69 19l250 62v37q0 42 -15.5 59t-54.5 17h-180q-39 0 -54.5 -17t-15.5 -59v-30h-90v30q0 82 39 121t121 39zM470 160v117l-250 -63
q-44 -11 -57 -21t-13 -33q0 -42 15.5 -59t54.5 -17h180q39 0 54.5 17t15.5 59zM329 716h-10l-73 -96h-75l114 150h78l114 -150h-76zM439 885l100 -150h-65l-130 150h95z" />
    <glyph glyph-name="uni1EA8" unicode="&#x1ea8;" horiz-adv-x="680" 
d="M267 720h143l250 -720h-95l-69 198h-313l-68 -198h-95zM334 636l-122 -354h255l-123 354h-10zM345 872h-10l-72 -96h-76l114 150h79l113 -150h-75zM445 1080h81q64 0 64 -66v-34q0 -34 -14.5 -49t-56.5 -16v-6q0 -1 -0.5 -4t-0.5 -4v-17h-55v83h48q16 0 20.5 2.5t4.5 8.5
v38q0 9 -8 9h-85q-10 0 -10 -9v-39h-54v37q0 66 66 66z" />
    <glyph glyph-name="uni1EA9" unicode="&#x1ea9;" horiz-adv-x="625" 
d="M220 560h180q82 0 121 -39t39 -121v-240q0 -82 -39 -121t-121 -39h-180q-82 0 -121 39t-39 121q0 72 44 99q23 15 47 23q16 5 69 19l250 62v37q0 42 -15.5 59t-54.5 17h-180q-39 0 -54.5 -17t-15.5 -59v-30h-90v30q0 82 39 121t121 39zM470 160v117l-250 -63
q-44 -11 -57 -21t-13 -33q0 -42 15.5 -59t54.5 -17h180q39 0 54.5 17t15.5 59zM329 716h-10l-73 -96h-75l114 150h78l114 -150h-76zM428 924h81q64 0 64 -66v-34q0 -34 -14.5 -49t-56.5 -16v-6q0 -1 -0.5 -4t-0.5 -4v-17h-55v83h48q16 0 20.5 2.5t4.5 8.5v38q0 9 -8 9h-85
q-10 0 -10 -9v-39h-54v37q0 66 66 66z" />
    <glyph glyph-name="uni1EAA" unicode="&#x1eaa;" horiz-adv-x="680" 
d="M267 720h143l250 -720h-95l-69 198h-313l-68 -198h-95zM334 636l-122 -354h255l-123 354h-10zM345 872h-10l-72 -96h-76l114 150h79l113 -150h-75zM261 988l-10 -25l-56 22l10 25q17 42 39.5 52t64.5 -6l84 -33q12 -4 17 -1t11 18l10 25l56 -22l-10 -25
q-17 -42 -39.5 -52t-64.5 6l-84 33q-18 8 -28 -17z" />
    <glyph glyph-name="uni1EAB" unicode="&#x1eab;" horiz-adv-x="625" 
d="M220 560h180q82 0 121 -39t39 -121v-240q0 -82 -39 -121t-121 -39h-180q-82 0 -121 39t-39 121q0 72 44 99q23 15 47 23q16 5 69 19l250 62v37q0 42 -15.5 59t-54.5 17h-180q-39 0 -54.5 -17t-15.5 -59v-30h-90v30q0 82 39 121t121 39zM470 160v117l-250 -63
q-44 -11 -57 -21t-13 -33q0 -42 15.5 -59t54.5 -17h180q39 0 54.5 17t15.5 59zM329 716h-10l-73 -96h-75l114 150h78l114 -150h-76zM244 832l-10 -25l-56 22l10 25q17 42 39.5 52t64.5 -6l84 -33q12 -4 17 -1t11 18l10 25l56 -22l-10 -25q-17 -42 -39.5 -52t-64.5 6l-84 33
q-18 8 -28 -17z" />
    <glyph glyph-name="uni1EAC" unicode="&#x1eac;" horiz-adv-x="680" 
d="M267 720h143l250 -720h-95l-69 198h-313l-68 -198h-95zM334 636l-122 -354h255l-123 354h-10zM345 872h-10l-72 -96h-76l114 150h79l113 -150h-75zM305 -71q15 14 35.5 14t34.5 -14q15 -15 15 -35.5t-15 -34.5q-14 -15 -34.5 -15t-35.5 15q-14 14 -14 34.5t14 35.5z" />
    <glyph glyph-name="uni1EAD" unicode="&#x1ead;" horiz-adv-x="625" 
d="M220 560h180q82 0 121 -39t39 -121v-240q0 -82 -39 -121t-121 -39h-180q-82 0 -121 39t-39 121q0 72 44 99q23 15 47 23q16 5 69 19l250 62v37q0 42 -15.5 59t-54.5 17h-180q-39 0 -54.5 -17t-15.5 -59v-30h-90v30q0 82 39 121t121 39zM470 160v117l-250 -63
q-44 -11 -57 -21t-13 -33q0 -42 15.5 -59t54.5 -17h180q39 0 54.5 17t15.5 59zM329 716h-10l-73 -96h-75l114 150h78l114 -150h-76zM276 -71q15 14 35.5 14t34.5 -14q15 -15 15 -35.5t-15 -34.5q-14 -15 -34.5 -15t-35.5 15q-14 14 -14 34.5t14 35.5z" />
    <glyph glyph-name="uni1EAE" unicode="&#x1eae;" horiz-adv-x="680" 
d="M416 856v32h60v-32q0 -45 -17.5 -62.5t-62.5 -17.5h-113q-45 0 -62.5 17.5t-17.5 62.5v32h60v-32q0 -15 4 -20.5t16 -5.5h113q12 0 16 5.5t4 20.5zM267 720h143l250 -720h-95l-69 198h-313l-68 -198h-95zM334 636l-122 -354h255l-123 354h-10zM358 888h-65l100 150h95z
" />
    <glyph glyph-name="uni1EAF" unicode="&#x1eaf;" horiz-adv-x="625" 
d="M403 702v32h60v-32q0 -45 -17.5 -62.5t-62.5 -17.5h-113q-45 0 -62.5 17.5t-17.5 62.5v32h60v-32q0 -15 4 -20.5t16 -5.5h113q12 0 16 5.5t4 20.5zM220 560h180q82 0 121 -39t39 -121v-240q0 -82 -39 -121t-121 -39h-180q-82 0 -121 39t-39 121q0 72 44 99q23 15 47 23
q16 5 69 19l250 62v37q0 42 -15.5 59t-54.5 17h-180q-39 0 -54.5 -17t-15.5 -59v-30h-90v30q0 82 39 121t121 39zM470 160v117l-250 -63q-44 -11 -57 -21t-13 -33q0 -42 15.5 -59t54.5 -17h180q39 0 54.5 17t15.5 59zM345 734h-65l100 150h95z" />
    <glyph glyph-name="uni1EB0" unicode="&#x1eb0;" horiz-adv-x="680" 
d="M416 856v32h60v-32q0 -45 -17.5 -62.5t-62.5 -17.5h-113q-45 0 -62.5 17.5t-17.5 62.5v32h60v-32q0 -15 4 -20.5t16 -5.5h113q12 0 16 5.5t4 20.5zM267 720h143l250 -720h-95l-69 198h-313l-68 -198h-95zM334 636l-122 -354h255l-123 354h-10zM284 1039l100 -150h-65
l-130 150h95z" />
    <glyph glyph-name="uni1EB1" unicode="&#x1eb1;" horiz-adv-x="625" 
d="M403 702v32h60v-32q0 -45 -17.5 -62.5t-62.5 -17.5h-113q-45 0 -62.5 17.5t-17.5 62.5v32h60v-32q0 -15 4 -20.5t16 -5.5h113q12 0 16 5.5t4 20.5zM220 560h180q82 0 121 -39t39 -121v-240q0 -82 -39 -121t-121 -39h-180q-82 0 -121 39t-39 121q0 72 44 99q23 15 47 23
q16 5 69 19l250 62v37q0 42 -15.5 59t-54.5 17h-180q-39 0 -54.5 -17t-15.5 -59v-30h-90v30q0 82 39 121t121 39zM470 160v117l-250 -63q-44 -11 -57 -21t-13 -33q0 -42 15.5 -59t54.5 -17h180q39 0 54.5 17t15.5 59zM271 885l100 -150h-65l-130 150h95z" />
    <glyph glyph-name="uni1EB2" unicode="&#x1eb2;" horiz-adv-x="680" 
d="M416 856v32h60v-32q0 -45 -17.5 -62.5t-62.5 -17.5h-113q-45 0 -62.5 17.5t-17.5 62.5v32h60v-32q0 -15 4 -20.5t16 -5.5h113q12 0 16 5.5t4 20.5zM267 720h143l250 -720h-95l-69 198h-313l-68 -198h-95zM334 636l-122 -354h255l-123 354h-10zM295 1084h81q64 0 64 -66
v-34q0 -34 -14.5 -49t-56.5 -16v-6q0 -1 -0.5 -4t-0.5 -4v-17h-55v83h48q16 0 20.5 2.5t4.5 8.5v38q0 9 -8 9h-85q-10 0 -10 -9v-39h-54v37q0 66 66 66z" />
    <glyph glyph-name="uni1EB3" unicode="&#x1eb3;" horiz-adv-x="625" 
d="M403 702v32h60v-32q0 -45 -17.5 -62.5t-62.5 -17.5h-113q-45 0 -62.5 17.5t-17.5 62.5v32h60v-32q0 -15 4 -20.5t16 -5.5h113q12 0 16 5.5t4 20.5zM220 560h180q82 0 121 -39t39 -121v-240q0 -82 -39 -121t-121 -39h-180q-82 0 -121 39t-39 121q0 72 44 99q23 15 47 23
q16 5 69 19l250 62v37q0 42 -15.5 59t-54.5 17h-180q-39 0 -54.5 -17t-15.5 -59v-30h-90v30q0 82 39 121t121 39zM470 160v117l-250 -63q-44 -11 -57 -21t-13 -33q0 -42 15.5 -59t54.5 -17h180q39 0 54.5 17t15.5 59zM282 930h81q64 0 64 -66v-34q0 -34 -14.5 -49t-56.5 -16
v-6q0 -1 -0.5 -4t-0.5 -4v-17h-55v83h48q16 0 20.5 2.5t4.5 8.5v38q0 9 -8 9h-85q-10 0 -10 -9v-39h-54v37q0 66 66 66z" />
    <glyph glyph-name="uni1EB4" unicode="&#x1eb4;" horiz-adv-x="680" 
d="M416 856v32h60v-32q0 -45 -17.5 -62.5t-62.5 -17.5h-113q-45 0 -62.5 17.5t-17.5 62.5v32h60v-32q0 -15 4 -20.5t16 -5.5h113q12 0 16 5.5t4 20.5zM267 720h143l250 -720h-95l-69 198h-313l-68 -198h-95zM334 636l-122 -354h255l-123 354h-10zM261 951l-10 -25l-56 22
l10 25q17 42 39.5 52t64.5 -6l84 -33q12 -4 17 -1t11 18l10 25l56 -22l-10 -25q-17 -42 -39.5 -52t-64.5 6l-84 33q-18 8 -28 -17z" />
    <glyph glyph-name="uni1EB5" unicode="&#x1eb5;" horiz-adv-x="625" 
d="M403 702v32h60v-32q0 -45 -17.5 -62.5t-62.5 -17.5h-113q-45 0 -62.5 17.5t-17.5 62.5v32h60v-32q0 -15 4 -20.5t16 -5.5h113q12 0 16 5.5t4 20.5zM220 560h180q82 0 121 -39t39 -121v-240q0 -82 -39 -121t-121 -39h-180q-82 0 -121 39t-39 121q0 72 44 99q23 15 47 23
q16 5 69 19l250 62v37q0 42 -15.5 59t-54.5 17h-180q-39 0 -54.5 -17t-15.5 -59v-30h-90v30q0 82 39 121t121 39zM470 160v117l-250 -63q-44 -11 -57 -21t-13 -33q0 -42 15.5 -59t54.5 -17h180q39 0 54.5 17t15.5 59zM248 797l-10 -25l-56 22l10 25q17 42 39.5 52t64.5 -6
l84 -33q12 -4 17 -1t11 18l10 25l56 -22l-10 -25q-17 -42 -39.5 -52t-64.5 6l-84 33q-18 8 -28 -17z" />
    <glyph glyph-name="uni1EB6" unicode="&#x1eb6;" horiz-adv-x="680" 
d="M416 856v32h60v-32q0 -45 -17.5 -62.5t-62.5 -17.5h-113q-45 0 -62.5 17.5t-17.5 62.5v32h60v-32q0 -15 4 -20.5t16 -5.5h113q12 0 16 5.5t4 20.5zM267 720h143l250 -720h-95l-69 198h-313l-68 -198h-95zM334 636l-122 -354h255l-123 354h-10zM305 -71q15 14 35.5 14
t34.5 -14q15 -15 15 -35.5t-15 -34.5q-14 -15 -34.5 -15t-35.5 15q-14 14 -14 34.5t14 35.5z" />
    <glyph glyph-name="uni1EB7" unicode="&#x1eb7;" horiz-adv-x="625" 
d="M403 702v32h60v-32q0 -45 -17.5 -62.5t-62.5 -17.5h-113q-45 0 -62.5 17.5t-17.5 62.5v32h60v-32q0 -15 4 -20.5t16 -5.5h113q12 0 16 5.5t4 20.5zM220 560h180q82 0 121 -39t39 -121v-240q0 -82 -39 -121t-121 -39h-180q-82 0 -121 39t-39 121q0 72 44 99q23 15 47 23
q16 5 69 19l250 62v37q0 42 -15.5 59t-54.5 17h-180q-39 0 -54.5 -17t-15.5 -59v-30h-90v30q0 82 39 121t121 39zM470 160v117l-250 -63q-44 -11 -57 -21t-13 -33q0 -42 15.5 -59t54.5 -17h180q39 0 54.5 17t15.5 59zM276 -71q15 14 35.5 14t34.5 -14q15 -15 15 -35.5
t-15 -34.5q-14 -15 -34.5 -15t-35.5 15q-14 14 -14 34.5t14 35.5z" />
    <glyph glyph-name="uni1EB8" unicode="&#x1eb8;" horiz-adv-x="665" 
d="M304 -71q15 14 35.5 14t34.5 -14q15 -15 15 -35.5t-15 -34.5q-14 -15 -34.5 -15t-35.5 15q-14 14 -14 34.5t14 35.5zM610 720v-84h-450v-234h440v-84h-440v-234h450v-84h-540v720h540z" />
    <glyph glyph-name="uni1EB9" unicode="&#x1eb9;" 
d="M275 -71q15 14 35.5 14t34.5 -14q15 -15 15 -35.5t-15 -34.5q-14 -15 -34.5 -15t-35.5 15q-14 14 -14 34.5t14 35.5zM225 560h180q83 0 121.5 -39t38.5 -121v-162h-410v-78q0 -42 15.5 -59t54.5 -17h180q39 0 54.5 17t15.5 59v30h90v-30q0 -82 -38.5 -121t-121.5 -39
h-180q-83 0 -121.5 39t-38.5 121v240q0 82 38.5 121t121.5 39zM155 322h320v78q0 42 -15.5 59t-54.5 17h-180q-39 0 -54.5 -17t-15.5 -59v-78z" />
    <glyph glyph-name="uni1EBA" unicode="&#x1eba;" horiz-adv-x="665" 
d="M310 972h81q64 0 64 -66v-34q0 -34 -14.5 -49t-56.5 -16v-6q0 -1 -0.5 -3.5t-0.5 -4.5v-17h-55v83h48q16 0 20.5 2.5t4.5 8.5v38q0 9 -8 9h-85q-10 0 -10 -9v-39h-54v37q0 66 66 66zM610 720v-84h-450v-234h440v-84h-440v-234h450v-84h-540v720h540z" />
    <glyph glyph-name="uni1EBB" unicode="&#x1ebb;" 
d="M283 816h81q64 0 64 -66v-34q0 -34 -14.5 -49t-56.5 -16v-6q0 -1 -0.5 -4t-0.5 -4v-17h-55v83h48q16 0 20.5 2.5t4.5 8.5v38q0 9 -8 9h-85q-10 0 -10 -9v-39h-54v37q0 66 66 66zM225 560h180q83 0 121.5 -39t38.5 -121v-162h-410v-78q0 -42 15.5 -59t54.5 -17h180
q39 0 54.5 17t15.5 59v30h90v-30q0 -82 -38.5 -121t-121.5 -39h-180q-83 0 -121.5 39t-38.5 121v240q0 82 38.5 121t121.5 39zM155 322h320v78q0 42 -15.5 59t-54.5 17h-180q-39 0 -54.5 -17t-15.5 -59v-78z" />
    <glyph glyph-name="uni1EBC" unicode="&#x1ebc;" horiz-adv-x="665" 
d="M274 825l-10 -25l-56 22l10 25q17 42 39.5 52t64.5 -6l84 -33q12 -4 17 -1t11 18l10 25l56 -22l-10 -25q-17 -42 -39.5 -52t-64.5 6l-84 33q-18 8 -28 -17zM610 720v-84h-450v-234h440v-84h-440v-234h450v-84h-540v720h540z" />
    <glyph glyph-name="uni1EBD" unicode="&#x1ebd;" 
d="M240 674l-10 -25l-56 22l10 25q17 42 39.5 52t64.5 -6l84 -33q12 -4 17 -1t11 18l10 25l56 -22l-10 -25q-17 -42 -39.5 -52t-64.5 6l-84 33q-18 8 -28 -17zM225 560h180q83 0 121.5 -39t38.5 -121v-162h-410v-78q0 -42 15.5 -59t54.5 -17h180q39 0 54.5 17t15.5 59v30h90
v-30q0 -82 -38.5 -121t-121.5 -39h-180q-83 0 -121.5 39t-38.5 121v240q0 82 38.5 121t121.5 39zM155 322h320v78q0 42 -15.5 59t-54.5 17h-180q-39 0 -54.5 -17t-15.5 -59v-78z" />
    <glyph glyph-name="uni1EBE" unicode="&#x1ebe;" horiz-adv-x="665" 
d="M610 720v-84h-450v-234h440v-84h-440v-234h450v-84h-540v720h540zM345 872h-10l-72 -96h-76l114 150h79l113 -150h-75zM516 891h-65l100 150h95z" />
    <glyph glyph-name="uni1EBF" unicode="&#x1ebf;" 
d="M565 400v-162h-410v-78q0 -42 15.5 -59t54.5 -17h180q39 0 54.5 17t15.5 59v30h90v-30q0 -82 -38.5 -121t-121.5 -39h-180q-83 0 -121.5 39t-38.5 121v240q0 82 38.5 121t121.5 39h180q83 0 121.5 -39t38.5 -121zM155 400v-78h320v78q0 42 -15.5 59t-54.5 17h-180
q-39 0 -54.5 -17t-15.5 -59zM320 716h-10l-73 -96h-75l114 150h78l114 -150h-76zM490 735h-65l100 150h95z" />
    <glyph glyph-name="uni1EC0" unicode="&#x1ec0;" horiz-adv-x="665" 
d="M610 720v-84h-450v-234h440v-84h-440v-234h450v-84h-540v720h540zM345 872h-10l-72 -96h-76l114 150h79l113 -150h-75zM456 1041l100 -150h-65l-130 150h95z" />
    <glyph glyph-name="uni1EC1" unicode="&#x1ec1;" 
d="M565 400v-162h-410v-78q0 -42 15.5 -59t54.5 -17h180q39 0 54.5 17t15.5 59v30h90v-30q0 -82 -38.5 -121t-121.5 -39h-180q-83 0 -121.5 39t-38.5 121v240q0 82 38.5 121t121.5 39h180q83 0 121.5 -39t38.5 -121zM155 400v-78h320v78q0 42 -15.5 59t-54.5 17h-180
q-39 0 -54.5 -17t-15.5 -59zM320 716h-10l-73 -96h-75l114 150h78l114 -150h-76zM430 885l100 -150h-65l-130 150h95z" />
    <glyph glyph-name="uni1EC2" unicode="&#x1ec2;" horiz-adv-x="665" 
d="M610 720v-84h-450v-234h440v-84h-440v-234h450v-84h-540v720h540zM345 872h-10l-72 -96h-76l114 150h79l113 -150h-75zM445 1080h81q64 0 64 -66v-34q0 -34 -14.5 -49t-56.5 -16v-6q0 -1 -0.5 -4t-0.5 -4v-17h-55v83h48q16 0 20.5 2.5t4.5 8.5v38q0 9 -8 9h-85
q-10 0 -10 -9v-39h-54v37q0 66 66 66z" />
    <glyph glyph-name="uni1EC3" unicode="&#x1ec3;" 
d="M565 400v-162h-410v-78q0 -42 15.5 -59t54.5 -17h180q39 0 54.5 17t15.5 59v30h90v-30q0 -82 -38.5 -121t-121.5 -39h-180q-83 0 -121.5 39t-38.5 121v240q0 82 38.5 121t121.5 39h180q83 0 121.5 -39t38.5 -121zM155 400v-78h320v78q0 42 -15.5 59t-54.5 17h-180
q-39 0 -54.5 -17t-15.5 -59zM320 716h-10l-73 -96h-75l114 150h78l114 -150h-76zM419 924h81q64 0 64 -66v-34q0 -34 -14.5 -49t-56.5 -16v-6q0 -1 -0.5 -4t-0.5 -4v-17h-55v83h48q16 0 20.5 2.5t4.5 8.5v38q0 9 -8 9h-85q-10 0 -10 -9v-39h-54v37q0 66 66 66z" />
    <glyph glyph-name="uni1EC4" unicode="&#x1ec4;" horiz-adv-x="665" 
d="M610 720v-84h-450v-234h440v-84h-440v-234h450v-84h-540v720h540zM345 872h-10l-72 -96h-76l114 150h79l113 -150h-75zM261 988l-10 -25l-56 22l10 25q17 42 39.5 52t64.5 -6l84 -33q12 -4 17 -1t11 18l10 25l56 -22l-10 -25q-17 -42 -39.5 -52t-64.5 6l-84 33
q-18 8 -28 -17z" />
    <glyph glyph-name="uni1EC5" unicode="&#x1ec5;" 
d="M565 400v-162h-410v-78q0 -42 15.5 -59t54.5 -17h180q39 0 54.5 17t15.5 59v30h90v-30q0 -82 -38.5 -121t-121.5 -39h-180q-83 0 -121.5 39t-38.5 121v240q0 82 38.5 121t121.5 39h180q83 0 121.5 -39t38.5 -121zM155 400v-78h320v78q0 42 -15.5 59t-54.5 17h-180
q-39 0 -54.5 -17t-15.5 -59zM320 716h-10l-73 -96h-75l114 150h78l114 -150h-76zM235 832l-10 -25l-56 22l10 25q17 42 39.5 52t64.5 -6l84 -33q12 -4 17 -1t11 18l10 25l56 -22l-10 -25q-17 -42 -39.5 -52t-64.5 6l-84 33q-18 8 -28 -17z" />
    <glyph glyph-name="uni1EC6" unicode="&#x1ec6;" horiz-adv-x="665" 
d="M610 720v-84h-450v-234h440v-84h-440v-234h450v-84h-540v720h540zM345 872h-10l-72 -96h-76l114 150h79l113 -150h-75zM304 -71q15 14 35.5 14t34.5 -14q15 -15 15 -35.5t-15 -34.5q-14 -15 -34.5 -15t-35.5 15q-14 14 -14 34.5t14 35.5z" />
    <glyph glyph-name="uni1EC7" unicode="&#x1ec7;" 
d="M565 400v-162h-410v-78q0 -42 15.5 -59t54.5 -17h180q39 0 54.5 17t15.5 59v30h90v-30q0 -82 -38.5 -121t-121.5 -39h-180q-83 0 -121.5 39t-38.5 121v240q0 82 38.5 121t121.5 39h180q83 0 121.5 -39t38.5 -121zM155 400v-78h320v78q0 42 -15.5 59t-54.5 17h-180
q-39 0 -54.5 -17t-15.5 -59zM320 716h-10l-73 -96h-75l114 150h78l114 -150h-76zM275 -71q15 14 35.5 14t34.5 -14q15 -15 15 -35.5t-15 -34.5q-14 -15 -34.5 -15t-35.5 15q-14 14 -14 34.5t14 35.5z" />
    <glyph glyph-name="uni1EC8" unicode="&#x1ec8;" horiz-adv-x="230" 
d="M67 972h81q64 0 64 -66v-34q0 -34 -14.5 -49t-56.5 -16v-6q0 -1 -0.5 -3.5t-0.5 -4.5v-17h-55v83h48q16 0 20.5 2.5t4.5 8.5v38q0 9 -8 9h-85q-10 0 -10 -9v-39h-54v37q0 66 66 66zM160 0h-90v720h90v-720z" />
    <glyph glyph-name="uni1EC9" unicode="&#x1ec9;" horiz-adv-x="230" 
d="M160 0h-90v560h90v-560zM67 816h81q64 0 64 -66v-34q0 -34 -14.5 -49t-56.5 -16v-6q0 -1 -0.5 -4t-0.5 -4v-17h-55v83h48q16 0 20.5 2.5t4.5 8.5v38q0 9 -8 9h-85q-10 0 -10 -9v-39h-54v37q0 66 66 66z" />
    <glyph glyph-name="uni1ECA" unicode="&#x1eca;" horiz-adv-x="230" 
d="M82 -71q15 14 35.5 14t34.5 -14q15 -15 15 -35.5t-15 -34.5q-14 -15 -34.5 -15t-35.5 15q-14 14 -14 34.5t14 35.5zM160 0h-90v720h90v-720z" />
    <glyph glyph-name="uni1ECB" unicode="&#x1ecb;" horiz-adv-x="230" 
d="M82 -71q15 14 35.5 14t34.5 -14q15 -15 15 -35.5t-15 -34.5q-14 -15 -34.5 -15t-35.5 15q-14 14 -14 34.5t14 35.5zM160 0h-90v560h90v-560zM69 741q19 19 46 19t46 -19t19 -46t-19 -46t-46 -19t-46 19t-19 46t19 46z" />
    <glyph glyph-name="uni1ECC" unicode="&#x1ecc;" horiz-adv-x="710" 
d="M314 -71q15 14 35.5 14t34.5 -14q15 -15 15 -35.5t-15 -34.5q-14 -15 -34.5 -15t-35.5 15q-14 14 -14 34.5t14 35.5zM225 720h260q83 0 121.5 -39t38.5 -121v-400q0 -82 -38.5 -121t-121.5 -39h-260q-83 0 -121.5 39t-38.5 121v400q0 82 38.5 121t121.5 39zM555 160v400
q0 42 -15.5 59t-54.5 17h-260q-39 0 -54.5 -17t-15.5 -59v-400q0 -42 15.5 -59t54.5 -17h260q39 0 54.5 17t15.5 59z" />
    <glyph glyph-name="uni1ECD" unicode="&#x1ecd;" 
d="M275 -71q15 14 35.5 14t34.5 -14q15 -15 15 -35.5t-15 -34.5q-14 -15 -34.5 -15t-35.5 15q-14 14 -14 34.5t14 35.5zM225 560h180q83 0 121.5 -39t38.5 -121v-240q0 -82 -38.5 -121t-121.5 -39h-180q-83 0 -121.5 39t-38.5 121v240q0 82 38.5 121t121.5 39zM475 160v240
q0 42 -15.5 59t-54.5 17h-180q-39 0 -54.5 -17t-15.5 -59v-240q0 -42 15.5 -59t54.5 -17h180q39 0 54.5 17t15.5 59z" />
    <glyph glyph-name="uni1ECE" unicode="&#x1ece;" horiz-adv-x="710" 
d="M320 972h81q64 0 64 -66v-34q0 -34 -14.5 -49t-56.5 -16v-6q0 -1 -0.5 -3.5t-0.5 -4.5v-17h-55v83h48q16 0 20.5 2.5t4.5 8.5v38q0 9 -8 9h-85q-10 0 -10 -9v-39h-54v37q0 66 66 66zM225 720h260q83 0 121.5 -39t38.5 -121v-400q0 -82 -38.5 -121t-121.5 -39h-260
q-83 0 -121.5 39t-38.5 121v400q0 82 38.5 121t121.5 39zM555 160v400q0 42 -15.5 59t-54.5 17h-260q-39 0 -54.5 -17t-15.5 -59v-400q0 -42 15.5 -59t54.5 -17h260q39 0 54.5 17t15.5 59z" />
    <glyph glyph-name="uni1ECF" unicode="&#x1ecf;" 
d="M278 816h81q64 0 64 -66v-34q0 -34 -14.5 -49t-56.5 -16v-6q0 -1 -0.5 -4t-0.5 -4v-17h-55v83h48q16 0 20.5 2.5t4.5 8.5v38q0 9 -8 9h-85q-10 0 -10 -9v-39h-54v37q0 66 66 66zM225 560h180q83 0 121.5 -39t38.5 -121v-240q0 -82 -38.5 -121t-121.5 -39h-180
q-83 0 -121.5 39t-38.5 121v240q0 82 38.5 121t121.5 39zM475 160v240q0 42 -15.5 59t-54.5 17h-180q-39 0 -54.5 -17t-15.5 -59v-240q0 -42 15.5 -59t54.5 -17h180q39 0 54.5 17t15.5 59z" />
    <glyph glyph-name="uni1ED0" unicode="&#x1ed0;" horiz-adv-x="710" 
d="M225 720h260q83 0 121.5 -39t38.5 -121v-400q0 -82 -38.5 -121t-121.5 -39h-260q-83 0 -121.5 39t-38.5 121v400q0 82 38.5 121t121.5 39zM555 160v400q0 42 -15.5 59t-54.5 17h-260q-39 0 -54.5 -17t-15.5 -59v-400q0 -42 15.5 -59t54.5 -17h260q39 0 54.5 17t15.5 59z
M359 872h-10l-72 -96h-76l114 150h79l113 -150h-75zM530 891h-65l100 150h95z" />
    <glyph glyph-name="uni1ED1" unicode="&#x1ed1;" 
d="M225 560h180q83 0 121.5 -39t38.5 -121v-240q0 -82 -38.5 -121t-121.5 -39h-180q-83 0 -121.5 39t-38.5 121v240q0 82 38.5 121t121.5 39zM475 160v240q0 42 -15.5 59t-54.5 17h-180q-39 0 -54.5 -17t-15.5 -59v-240q0 -42 15.5 -59t54.5 -17h180q39 0 54.5 17t15.5 59z
M320 716h-10l-73 -96h-75l114 150h78l114 -150h-76zM490 735h-65l100 150h95z" />
    <glyph glyph-name="uni1ED2" unicode="&#x1ed2;" horiz-adv-x="710" 
d="M225 720h260q83 0 121.5 -39t38.5 -121v-400q0 -82 -38.5 -121t-121.5 -39h-260q-83 0 -121.5 39t-38.5 121v400q0 82 38.5 121t121.5 39zM555 160v400q0 42 -15.5 59t-54.5 17h-260q-39 0 -54.5 -17t-15.5 -59v-400q0 -42 15.5 -59t54.5 -17h260q39 0 54.5 17t15.5 59z
M359 872h-10l-72 -96h-76l114 150h79l113 -150h-75zM470 1041l100 -150h-65l-130 150h95z" />
    <glyph glyph-name="uni1ED3" unicode="&#x1ed3;" 
d="M225 560h180q83 0 121.5 -39t38.5 -121v-240q0 -82 -38.5 -121t-121.5 -39h-180q-83 0 -121.5 39t-38.5 121v240q0 82 38.5 121t121.5 39zM475 160v240q0 42 -15.5 59t-54.5 17h-180q-39 0 -54.5 -17t-15.5 -59v-240q0 -42 15.5 -59t54.5 -17h180q39 0 54.5 17t15.5 59z
M320 716h-10l-73 -96h-75l114 150h78l114 -150h-76zM430 885l100 -150h-65l-130 150h95z" />
    <glyph glyph-name="uni1ED4" unicode="&#x1ed4;" horiz-adv-x="710" 
d="M225 720h260q83 0 121.5 -39t38.5 -121v-400q0 -82 -38.5 -121t-121.5 -39h-260q-83 0 -121.5 39t-38.5 121v400q0 82 38.5 121t121.5 39zM555 160v400q0 42 -15.5 59t-54.5 17h-260q-39 0 -54.5 -17t-15.5 -59v-400q0 -42 15.5 -59t54.5 -17h260q39 0 54.5 17t15.5 59z
M359 872h-10l-72 -96h-76l114 150h79l113 -150h-75zM459 1080h81q64 0 64 -66v-34q0 -34 -14.5 -49t-56.5 -16v-6q0 -1 -0.5 -4t-0.5 -4v-17h-55v83h48q16 0 20.5 2.5t4.5 8.5v38q0 9 -8 9h-85q-10 0 -10 -9v-39h-54v37q0 66 66 66z" />
    <glyph glyph-name="uni1ED5" unicode="&#x1ed5;" 
d="M225 560h180q83 0 121.5 -39t38.5 -121v-240q0 -82 -38.5 -121t-121.5 -39h-180q-83 0 -121.5 39t-38.5 121v240q0 82 38.5 121t121.5 39zM475 160v240q0 42 -15.5 59t-54.5 17h-180q-39 0 -54.5 -17t-15.5 -59v-240q0 -42 15.5 -59t54.5 -17h180q39 0 54.5 17t15.5 59z
M320 716h-10l-73 -96h-75l114 150h78l114 -150h-76zM419 924h81q64 0 64 -66v-34q0 -34 -14.5 -49t-56.5 -16v-6q0 -1 -0.5 -4t-0.5 -4v-17h-55v83h48q16 0 20.5 2.5t4.5 8.5v38q0 9 -8 9h-85q-10 0 -10 -9v-39h-54v37q0 66 66 66z" />
    <glyph glyph-name="uni1ED6" unicode="&#x1ed6;" horiz-adv-x="710" 
d="M225 720h260q83 0 121.5 -39t38.5 -121v-400q0 -82 -38.5 -121t-121.5 -39h-260q-83 0 -121.5 39t-38.5 121v400q0 82 38.5 121t121.5 39zM555 160v400q0 42 -15.5 59t-54.5 17h-260q-39 0 -54.5 -17t-15.5 -59v-400q0 -42 15.5 -59t54.5 -17h260q39 0 54.5 17t15.5 59z
M359 872h-10l-72 -96h-76l114 150h79l113 -150h-75zM275 988l-10 -25l-56 22l10 25q17 42 39.5 52t64.5 -6l84 -33q12 -4 17 -1t11 18l10 25l56 -22l-10 -25q-17 -42 -39.5 -52t-64.5 6l-84 33q-18 8 -28 -17z" />
    <glyph glyph-name="uni1ED7" unicode="&#x1ed7;" 
d="M225 560h180q83 0 121.5 -39t38.5 -121v-240q0 -82 -38.5 -121t-121.5 -39h-180q-83 0 -121.5 39t-38.5 121v240q0 82 38.5 121t121.5 39zM475 160v240q0 42 -15.5 59t-54.5 17h-180q-39 0 -54.5 -17t-15.5 -59v-240q0 -42 15.5 -59t54.5 -17h180q39 0 54.5 17t15.5 59z
M320 716h-10l-73 -96h-75l114 150h78l114 -150h-76zM235 832l-10 -25l-56 22l10 25q17 42 39.5 52t64.5 -6l84 -33q12 -4 17 -1t11 18l10 25l56 -22l-10 -25q-17 -42 -39.5 -52t-64.5 6l-84 33q-18 8 -28 -17z" />
    <glyph glyph-name="uni1ED8" unicode="&#x1ed8;" horiz-adv-x="710" 
d="M225 720h260q83 0 121.5 -39t38.5 -121v-400q0 -82 -38.5 -121t-121.5 -39h-260q-83 0 -121.5 39t-38.5 121v400q0 82 38.5 121t121.5 39zM555 160v400q0 42 -15.5 59t-54.5 17h-260q-39 0 -54.5 -17t-15.5 -59v-400q0 -42 15.5 -59t54.5 -17h260q39 0 54.5 17t15.5 59z
M359 872h-10l-72 -96h-76l114 150h79l113 -150h-75zM314 -71q15 14 35.5 14t34.5 -14q15 -15 15 -35.5t-15 -34.5q-14 -15 -34.5 -15t-35.5 15q-14 14 -14 34.5t14 35.5z" />
    <glyph glyph-name="uni1ED9" unicode="&#x1ed9;" 
d="M225 560h180q83 0 121.5 -39t38.5 -121v-240q0 -82 -38.5 -121t-121.5 -39h-180q-83 0 -121.5 39t-38.5 121v240q0 82 38.5 121t121.5 39zM475 160v240q0 42 -15.5 59t-54.5 17h-180q-39 0 -54.5 -17t-15.5 -59v-240q0 -42 15.5 -59t54.5 -17h180q39 0 54.5 17t15.5 59z
M320 716h-10l-73 -96h-75l114 150h78l114 -150h-76zM275 -71q15 14 35.5 14t34.5 -14q15 -15 15 -35.5t-15 -34.5q-14 -15 -34.5 -15t-35.5 15q-14 14 -14 34.5t14 35.5z" />
    <glyph glyph-name="uni1EDA" unicode="&#x1eda;" horiz-adv-x="731" 
d="M225 720h260h12h96q47 -3 47 32v54h80v-17q4 -97 -30 -124q-23 -20 -59 -23q14 -36 14 -82v-400q0 -82 -38.5 -121t-121.5 -39h-260q-83 0 -121.5 39t-38.5 121v400q0 82 38.5 121t121.5 39zM555 160v400q0 42 -15.5 59t-54.5 17h-260q-39 0 -54.5 -17t-15.5 -59v-400
q0 -42 15.5 -59t54.5 -17h260q39 0 54.5 17t15.5 59zM363 776h-65l100 150h95z" />
    <glyph glyph-name="uni1EDB" unicode="&#x1edb;" 
d="M225 560h180h12h85q47 -3 47 32v54h80v-17q4 -97 -30 -124q-20 -16 -48 -22q14 -36 14 -83v-240q0 -82 -38.5 -121t-121.5 -39h-180q-83 0 -121.5 39t-38.5 121v240q0 82 38.5 121t121.5 39zM475 160v240q0 42 -15.5 59t-54.5 17h-180q-39 0 -54.5 -17t-15.5 -59v-240
q0 -42 15.5 -59t54.5 -17h180q39 0 54.5 17t15.5 59zM363 772h95l-130 -150h-65z" />
    <glyph glyph-name="uni1EDC" unicode="&#x1edc;" horiz-adv-x="731" 
d="M225 720h260h12h96q47 -3 47 32v54h80v-17q4 -97 -30 -124q-23 -20 -59 -23q14 -36 14 -82v-400q0 -82 -38.5 -121t-121.5 -39h-260q-83 0 -121.5 39t-38.5 121v400q0 82 38.5 121t121.5 39zM555 160v400q0 42 -15.5 59t-54.5 17h-260q-39 0 -54.5 -17t-15.5 -59v-400
q0 -42 15.5 -59t54.5 -17h260q39 0 54.5 17t15.5 59zM324 926l100 -150h-65l-130 150h95z" />
    <glyph glyph-name="uni1EDD" unicode="&#x1edd;" 
d="M225 560h180h12h85q47 -3 47 32v54h80v-17q4 -97 -30 -124q-20 -16 -48 -22q14 -36 14 -83v-240q0 -82 -38.5 -121t-121.5 -39h-180q-83 0 -121.5 39t-38.5 121v240q0 82 38.5 121t121.5 39zM475 160v240q0 42 -15.5 59t-54.5 17h-180q-39 0 -54.5 -17t-15.5 -59v-240
q0 -42 15.5 -59t54.5 -17h180q39 0 54.5 17t15.5 59zM275 770l100 -150h-65l-130 150h95z" />
    <glyph glyph-name="uni1EDE" unicode="&#x1ede;" horiz-adv-x="731" 
d="M225 720h260h12h96q47 -3 47 32v54h80v-17q4 -97 -30 -124q-23 -20 -59 -23q14 -36 14 -82v-400q0 -82 -38.5 -121t-121.5 -39h-260q-83 0 -121.5 39t-38.5 121v400q0 82 38.5 121t121.5 39zM555 160v400q0 42 -15.5 59t-54.5 17h-260q-39 0 -54.5 -17t-15.5 -59v-400
q0 -42 15.5 -59t54.5 -17h260q39 0 54.5 17t15.5 59zM320 972h81q64 0 64 -66v-34q0 -34 -14.5 -49t-56.5 -16v-6q0 -1 -0.5 -3.5t-0.5 -4.5v-17h-55v83h48q16 0 20.5 2.5t4.5 8.5v38q0 9 -8 9h-85q-10 0 -10 -9v-39h-54v37q0 66 66 66z" />
    <glyph glyph-name="uni1EDF" unicode="&#x1edf;" 
d="M225 560h180h12h85q47 -3 47 32v54h80v-17q4 -97 -30 -124q-20 -16 -48 -22q14 -36 14 -83v-240q0 -82 -38.5 -121t-121.5 -39h-180q-83 0 -121.5 39t-38.5 121v240q0 82 38.5 121t121.5 39zM475 160v240q0 42 -15.5 59t-54.5 17h-180q-39 0 -54.5 -17t-15.5 -59v-240
q0 -42 15.5 -59t54.5 -17h180q39 0 54.5 17t15.5 59zM278 816h81q64 0 64 -66v-34q0 -34 -14.5 -49t-56.5 -16v-6q0 -1 -0.5 -4t-0.5 -4v-17h-55v83h48q16 0 20.5 2.5t4.5 8.5v38q0 9 -8 9h-85q-10 0 -10 -9v-39h-54v37q0 66 66 66z" />
    <glyph glyph-name="uni1EE0" unicode="&#x1ee0;" horiz-adv-x="731" 
d="M225 720h260h12h96q47 -3 47 32v54h80v-17q4 -97 -30 -124q-23 -20 -59 -23q14 -36 14 -82v-400q0 -82 -38.5 -121t-121.5 -39h-260q-83 0 -121.5 39t-38.5 121v400q0 82 38.5 121t121.5 39zM555 160v400q0 42 -15.5 59t-54.5 17h-260q-39 0 -54.5 -17t-15.5 -59v-400
q0 -42 15.5 -59t54.5 -17h260q39 0 54.5 17t15.5 59zM278 825l-10 -25l-56 22l10 25q17 42 39.5 52t64.5 -6l84 -33q12 -4 17 -1t11 18l10 25l56 -22l-10 -25q-17 -42 -39.5 -52t-64.5 6l-84 33q-18 8 -28 -17z" />
    <glyph glyph-name="uni1EE1" unicode="&#x1ee1;" 
d="M225 560h180h12h85q47 -3 47 32v54h80v-17q4 -97 -30 -124q-20 -16 -48 -22q14 -36 14 -83v-240q0 -82 -38.5 -121t-121.5 -39h-180q-83 0 -121.5 39t-38.5 121v240q0 82 38.5 121t121.5 39zM475 160v240q0 42 -15.5 59t-54.5 17h-180q-39 0 -54.5 -17t-15.5 -59v-240
q0 -42 15.5 -59t54.5 -17h180q39 0 54.5 17t15.5 59zM245 674l-10 -25l-56 22l10 25q17 42 39.5 52t64.5 -6l84 -33q12 -4 17 -1t11 18l10 25l56 -22l-10 -25q-17 -42 -39.5 -52t-64.5 6l-84 33q-18 8 -28 -17z" />
    <glyph glyph-name="uni1EE2" unicode="&#x1ee2;" horiz-adv-x="731" 
d="M225 720h260h12h96q47 -3 47 32v54h80v-17q4 -97 -30 -124q-23 -20 -59 -23q14 -36 14 -82v-400q0 -82 -38.5 -121t-121.5 -39h-260q-83 0 -121.5 39t-38.5 121v400q0 82 38.5 121t121.5 39zM555 160v400q0 42 -15.5 59t-54.5 17h-260q-39 0 -54.5 -17t-15.5 -59v-400
q0 -42 15.5 -59t54.5 -17h260q39 0 54.5 17t15.5 59zM314 -71q15 14 35.5 14t34.5 -14q15 -15 15 -35.5t-15 -34.5q-14 -15 -34.5 -15t-35.5 15q-14 14 -14 34.5t14 35.5z" />
    <glyph glyph-name="uni1EE3" unicode="&#x1ee3;" 
d="M225 560h180h12h85q47 -3 47 32v54h80v-17q4 -97 -30 -124q-20 -16 -48 -22q14 -36 14 -83v-240q0 -82 -38.5 -121t-121.5 -39h-180q-83 0 -121.5 39t-38.5 121v240q0 82 38.5 121t121.5 39zM475 160v240q0 42 -15.5 59t-54.5 17h-180q-39 0 -54.5 -17t-15.5 -59v-240
q0 -42 15.5 -59t54.5 -17h180q39 0 54.5 17t15.5 59zM275 -71q15 14 35.5 14t34.5 -14q15 -15 15 -35.5t-15 -34.5q-14 -15 -34.5 -15t-35.5 15q-14 14 -14 34.5t14 35.5z" />
    <glyph glyph-name="uni1EE4" unicode="&#x1ee4;" horiz-adv-x="720" 
d="M316 -71q15 14 35.5 14t34.5 -14q15 -15 15 -35.5t-15 -34.5q-14 -15 -34.5 -15t-35.5 15q-14 14 -14 34.5t14 35.5zM560 160v560h90v-560q0 -82 -39 -121t-121 -39h-260q-82 0 -121 39t-39 121v560h90v-560q0 -42 15.5 -59t54.5 -17h260q39 0 54.5 17t15.5 59z" />
    <glyph glyph-name="uni1EE5" unicode="&#x1ee5;" horiz-adv-x="640" 
d="M279 -71q15 14 35.5 14t34.5 -14q15 -15 15 -35.5t-15 -34.5q-14 -15 -34.5 -15t-35.5 15q-14 14 -14 34.5t14 35.5zM480 160v400h90v-400q0 -82 -39 -121t-121 -39h-180q-82 0 -121 39t-39 121v400h90v-400q0 -42 15.5 -59t54.5 -17h180q39 0 54.5 17t15.5 59z" />
    <glyph glyph-name="uni1EE6" unicode="&#x1ee6;" horiz-adv-x="720" 
d="M320 972h81q64 0 64 -66v-34q0 -34 -14.5 -49t-56.5 -16v-6q0 -1 -0.5 -3.5t-0.5 -4.5v-17h-55v83h48q16 0 20.5 2.5t4.5 8.5v38q0 9 -8 9h-85q-10 0 -10 -9v-39h-54v37q0 66 66 66zM560 160v560h90v-560q0 -82 -39 -121t-121 -39h-260q-82 0 -121 39t-39 121v560h90
v-560q0 -42 15.5 -59t54.5 -17h260q39 0 54.5 17t15.5 59z" />
    <glyph glyph-name="uni1EE7" unicode="&#x1ee7;" horiz-adv-x="640" 
d="M282 816h81q64 0 64 -66v-34q0 -34 -14.5 -49t-56.5 -16v-6q0 -1 -0.5 -4t-0.5 -4v-17h-55v83h48q16 0 20.5 2.5t4.5 8.5v38q0 9 -8 9h-85q-10 0 -10 -9v-39h-54v37q0 66 66 66zM480 160v400h90v-400q0 -82 -39 -121t-121 -39h-180q-82 0 -121 39t-39 121v400h90v-400
q0 -42 15.5 -59t54.5 -17h180q39 0 54.5 17t15.5 59z" />
    <glyph glyph-name="uni1EE8" unicode="&#x1ee8;" horiz-adv-x="758" 
d="M560 160v560h90q37 1 37 32v54h80v-17q4 -97 -30 -124q-29 -25 -87 -25v-480q0 -82 -39 -121t-121 -39h-260q-82 0 -121 39t-39 121v560h90v-560q0 -42 15.5 -59t54.5 -17h260q39 0 54.5 17t15.5 59zM369 776h-65l100 150h95z" />
    <glyph glyph-name="uni1EE9" unicode="&#x1ee9;" horiz-adv-x="640" 
d="M480 160v400h90v-1q30 3 30 32v54h80v-17q4 -97 -30 -124q-29 -23 -80 -25v-319q0 -82 -39 -121t-121 -39h-180q-82 0 -121 39t-39 121v400h90v-400q0 -42 15.5 -59t54.5 -17h180q39 0 54.5 17t15.5 59zM363 772h95l-130 -150h-65z" />
    <glyph glyph-name="uni1EEA" unicode="&#x1eea;" horiz-adv-x="758" 
d="M560 160v560h90q37 1 37 32v54h80v-17q4 -97 -30 -124q-29 -25 -87 -25v-480q0 -82 -39 -121t-121 -39h-260q-82 0 -121 39t-39 121v560h90v-560q0 -42 15.5 -59t54.5 -17h260q39 0 54.5 17t15.5 59zM324 926l100 -150h-65l-130 150h95z" />
    <glyph glyph-name="uni1EEB" unicode="&#x1eeb;" horiz-adv-x="640" 
d="M480 160v400h90v-1q30 3 30 32v54h80v-17q4 -97 -30 -124q-29 -23 -80 -25v-319q0 -82 -39 -121t-121 -39h-180q-82 0 -121 39t-39 121v400h90v-400q0 -42 15.5 -59t54.5 -17h180q39 0 54.5 17t15.5 59zM279 770l100 -150h-65l-130 150h95z" />
    <glyph glyph-name="uni1EEC" unicode="&#x1eec;" horiz-adv-x="758" 
d="M560 160v560h90q37 1 37 32v54h80v-17q4 -97 -30 -124q-29 -25 -87 -25v-480q0 -82 -39 -121t-121 -39h-260q-82 0 -121 39t-39 121v560h90v-560q0 -42 15.5 -59t54.5 -17h260q39 0 54.5 17t15.5 59zM320 972h81q64 0 64 -66v-34q0 -34 -14.5 -49t-56.5 -16v-6
q0 -1 -0.5 -3.5t-0.5 -4.5v-17h-55v83h48q16 0 20.5 2.5t4.5 8.5v38q0 9 -8 9h-85q-10 0 -10 -9v-39h-54v37q0 66 66 66z" />
    <glyph glyph-name="uni1EED" unicode="&#x1eed;" horiz-adv-x="640" 
d="M480 160v400h90v-1q30 3 30 32v54h80v-17q4 -97 -30 -124q-29 -23 -80 -25v-319q0 -82 -39 -121t-121 -39h-180q-82 0 -121 39t-39 121v400h90v-400q0 -42 15.5 -59t54.5 -17h180q39 0 54.5 17t15.5 59zM282 816h81q64 0 64 -66v-34q0 -34 -14.5 -49t-56.5 -16v-6
q0 -1 -0.5 -4t-0.5 -4v-17h-55v83h48q16 0 20.5 2.5t4.5 8.5v38q0 9 -8 9h-85q-10 0 -10 -9v-39h-54v37q0 66 66 66z" />
    <glyph glyph-name="uni1EEE" unicode="&#x1eee;" horiz-adv-x="758" 
d="M560 160v560h90q37 1 37 32v54h80v-17q4 -97 -30 -124q-29 -25 -87 -25v-480q0 -82 -39 -121t-121 -39h-260q-82 0 -121 39t-39 121v560h90v-560q0 -42 15.5 -59t54.5 -17h260q39 0 54.5 17t15.5 59zM282 825l-10 -25l-56 22l10 25q17 42 39.5 52t64.5 -6l84 -33
q12 -4 17 -1t11 18l10 25l56 -22l-10 -25q-17 -42 -39.5 -52t-64.5 6l-84 33q-18 8 -28 -17z" />
    <glyph glyph-name="uni1EEF" unicode="&#x1eef;" horiz-adv-x="640" 
d="M480 160v400h90v-1q30 3 30 32v54h80v-17q4 -97 -30 -124q-29 -23 -80 -25v-319q0 -82 -39 -121t-121 -39h-180q-82 0 -121 39t-39 121v400h90v-400q0 -42 15.5 -59t54.5 -17h180q39 0 54.5 17t15.5 59zM243 674l-10 -25l-56 22l10 25q17 42 39.5 52t64.5 -6l84 -33
q12 -4 17 -1t11 18l10 25l56 -22l-10 -25q-17 -42 -39.5 -52t-64.5 6l-84 33q-18 8 -28 -17z" />
    <glyph glyph-name="uni1EF0" unicode="&#x1ef0;" horiz-adv-x="758" 
d="M560 160v560h90q37 1 37 32v54h80v-17q4 -97 -30 -124q-29 -25 -87 -25v-480q0 -82 -39 -121t-121 -39h-260q-82 0 -121 39t-39 121v560h90v-560q0 -42 15.5 -59t54.5 -17h260q39 0 54.5 17t15.5 59zM316 -71q15 14 35.5 14t34.5 -14q15 -15 15 -35.5t-15 -34.5
q-14 -15 -34.5 -15t-35.5 15q-14 14 -14 34.5t14 35.5z" />
    <glyph glyph-name="uni1EF1" unicode="&#x1ef1;" horiz-adv-x="640" 
d="M480 160v400h90v-1q30 3 30 32v54h80v-17q4 -97 -30 -124q-29 -23 -80 -25v-319q0 -82 -39 -121t-121 -39h-180q-82 0 -121 39t-39 121v400h90v-400q0 -42 15.5 -59t54.5 -17h180q39 0 54.5 17t15.5 59zM279 -71q15 14 35.5 14t34.5 -14q15 -15 15 -35.5t-15 -34.5
q-14 -15 -34.5 -15t-35.5 15q-14 14 -14 34.5t14 35.5z" />
    <glyph glyph-name="Ygrave" unicode="&#x1ef2;" horiz-adv-x="661" 
d="M538 720h103l-266 -480v-240h-90v240l-265 480h103l202 -366h10zM363 800l-130 150h95l100 -150h-65z" />
    <glyph glyph-name="ygrave" unicode="&#x1ef3;" horiz-adv-x="602" 
d="M306 84l180 476h96l-287 -760h-96l75 200h-42l-212 560h96l180 -476h10zM333 640l-130 150h95l100 -150h-65z" />
    <glyph glyph-name="uni1EF4" unicode="&#x1ef4;" horiz-adv-x="661" 
d="M297 -71q15 14 35.5 14t34.5 -14q15 -15 15 -35.5t-15 -34.5q-14 -15 -34.5 -15t-35.5 15q-14 14 -14 34.5t14 35.5zM538 720h103l-266 -480v-240h-90v240l-265 480h103l202 -366h10z" />
    <glyph glyph-name="uni1EF5" unicode="&#x1ef5;" horiz-adv-x="602" 
d="M420 -71q15 14 35.5 14t34.5 -14q15 -15 15 -35.5t-15 -34.5q-14 -15 -34.5 -15t-35.5 15q-14 14 -14 34.5t14 35.5zM306 84l180 476h96l-287 -760h-96l75 200h-42l-212 560h96l180 -476h10z" />
    <glyph glyph-name="uni1EF6" unicode="&#x1ef6;" horiz-adv-x="661" 
d="M292 972h81q64 0 64 -66v-34q0 -34 -14.5 -49t-56.5 -16v-6q0 -1 -0.5 -3.5t-0.5 -4.5v-17h-55v83h48q16 0 20.5 2.5t4.5 8.5v38q0 9 -8 9h-85q-10 0 -10 -9v-39h-54v37q0 66 66 66zM538 720h103l-266 -480v-240h-90v240l-265 480h103l202 -366h10z" />
    <glyph glyph-name="uni1EF7" unicode="&#x1ef7;" horiz-adv-x="602" 
d="M265 816h81q64 0 64 -66v-34q0 -34 -14.5 -49t-56.5 -16v-6q0 -1 -0.5 -4t-0.5 -4v-17h-55v83h48q16 0 20.5 2.5t4.5 8.5v38q0 9 -8 9h-85q-10 0 -10 -9v-39h-54v37q0 66 66 66zM306 84l180 476h96l-287 -760h-96l75 200h-42l-212 560h96l180 -476h10z" />
    <glyph glyph-name="uni1EF8" unicode="&#x1ef8;" horiz-adv-x="661" 
d="M253 825l-10 -25l-56 22l10 25q17 42 39.5 52t64.5 -6l84 -33q12 -4 17 -1t11 18l10 25l56 -22l-10 -25q-17 -42 -39.5 -52t-64.5 6l-84 33q-18 8 -28 -17zM538 720h103l-266 -480v-240h-90v240l-265 480h103l202 -366h10z" />
    <glyph glyph-name="uni1EF9" unicode="&#x1ef9;" horiz-adv-x="602" 
d="M220 674l-10 -25l-56 22l10 25q17 42 39.5 52t64.5 -6l84 -33q12 -4 17 -1t11 18l10 25l56 -22l-10 -25q-17 -42 -39.5 -52t-64.5 6l-84 33q-18 8 -28 -17zM306 84l180 476h96l-287 -760h-96l75 200h-42l-212 560h96l180 -476h10z" />
    <glyph glyph-name="uni1EFA" unicode="&#x1efa;" horiz-adv-x="0" 
d="M616 751v54h80v-17q4 -97 -30 -124q-33 -27 -97 -24h-122v79h122q47 -3 47 32z" />
    <glyph glyph-name="uni1EFB" unicode="&#x1efb;" horiz-adv-x="0" 
d="M298 945h81q64 0 64 -66v-34q0 -34 -14.5 -49t-56.5 -16v-6q0 -2 -0.5 -4t-0.5 -4v-17h-55v85h48q15 0 19 2t4 9v34q0 9 -8 9h-81q-10 0 -10 -9v-37h-56v37q0 66 66 66z" />
    <glyph glyph-name="endash" unicode="&#x2013;" horiz-adv-x="580" 
d="M60 322h460v-84h-460v84z" />
    <glyph glyph-name="emdash" unicode="&#x2014;" horiz-adv-x="720" 
d="M60 322h600v-84h-600v84z" />
    <glyph glyph-name="quoteleft" unicode="&#x2018;" horiz-adv-x="270" 
d="M60 550l85 170h65l-43 -170h-107z" />
    <glyph glyph-name="quoteright" unicode="&#x2019;" horiz-adv-x="270" 
d="M210 720l-85 -170h-65l42 170h108z" />
    <glyph glyph-name="quotesinglbase" unicode="&#x201a;" horiz-adv-x="270" 
d="M210 170l-85 -170h-65l42 170h108z" />
    <glyph glyph-name="quotedblleft" unicode="&#x201c;" horiz-adv-x="430" 
d="M167 550h-107l85 170h65zM220 550l85 170h65l-43 -170h-107z" />
    <glyph glyph-name="quotedblright" unicode="&#x201d;" horiz-adv-x="430" 
d="M262 720h108l-85 -170h-65zM210 720l-85 -170h-65l42 170h108z" />
    <glyph glyph-name="quotedblbase" unicode="&#x201e;" horiz-adv-x="430" 
d="M262 170h108l-85 -170h-65zM210 170l-85 -170h-65l42 170h108z" />
    <glyph glyph-name="dagger" unicode="&#x2020;" horiz-adv-x="680" 
d="M620 560v-84h-235v-596h-90v596h-235v84h235v160h90v-160h235z" />
    <glyph glyph-name="daggerdbl" unicode="&#x2021;" horiz-adv-x="680" 
d="M620 560v-84h-235v-352h235v-84h-235v-160h-90v160h-235v84h235v352h-235v84h235v160h90v-160h235z" />
    <glyph glyph-name="bullet" unicode="&#x2022;" horiz-adv-x="330" 
d="M91 354q31 31 74 31t74 -31q31 -30 31 -74t-31 -75q-31 -30 -74 -30t-74 30q-31 31 -31 75t31 74z" />
    <glyph glyph-name="ellipsis" unicode="&#x2026;" horiz-adv-x="610" 
d="M79 101q19 19 46 19t46 -19t19 -46t-19 -46t-46 -19t-46 19t-19 46t19 46zM439 101q19 19 46 19t46 -19t19 -46t-19 -46t-46 -19t-46 19t-19 46t19 46zM259 101q19 19 46 19t46 -19t19 -46t-19 -46t-46 -19t-46 19t-19 46t19 46z" />
    <glyph glyph-name="perthousand" unicode="&#x2030;" horiz-adv-x="1270" 
d="M375 600v-120q0 -68 -26.5 -94t-93.5 -26h-70q-67 0 -93.5 26t-26.5 94v120q0 68 26.5 94t93.5 26h70q67 0 93.5 -26t26.5 -94zM125 600v-120q0 -42 10.5 -54t49.5 -12h70q38 0 49 12.5t11 53.5v120q0 40 -11 53t-49 13h-70q-38 0 -49 -12.5t-11 -53.5zM635 360h70
q67 0 93.5 -26t26.5 -94v-120q0 -68 -26.5 -94t-93.5 -26h-70q-67 0 -93.5 26t-26.5 94v120q0 68 26.5 94t93.5 26zM765 120v120q0 40 -11 53t-49 13h-70q-38 0 -49 -12.5t-11 -53.5v-120q0 -42 10.5 -54t49.5 -12h70q38 0 49 12.5t11 53.5zM1015 360h70q67 0 93.5 -26
t26.5 -94v-120q0 -68 -26.5 -94t-93.5 -26h-70q-67 0 -93.5 26t-26.5 94v120q0 68 26.5 94t93.5 26zM1145 120v120q0 40 -11 53t-49 13h-70q-38 0 -49 -12.5t-11 -53.5v-120q0 -42 10.5 -54t49.5 -12h70q38 0 49 12.5t11 53.5zM231 0l360 720h67l-360 -720h-67z" />
    <glyph glyph-name="guilsinglleft" unicode="&#x2039;" horiz-adv-x="382" 
d="M210 480h112l-150 -200l150 -200h-112l-150 200z" />
    <glyph glyph-name="guilsinglright" unicode="&#x203a;" horiz-adv-x="382" 
d="M210 280l-150 200h112l150 -200l-150 -200h-112z" />
    <glyph glyph-name="fraction" unicode="&#x2044;" horiz-adv-x="467" 
d="M20 0l360 720h67l-360 -720h-67z" />
    <glyph glyph-name="Euro" unicode="&#x20ac;" horiz-adv-x="750" 
d="M600 160v70h90v-70q0 -82 -39 -121t-121 -39h-260q-82 0 -121 39t-39 121v100h-80v54h370v-54h-200v-100q0 -42 15.5 -59t54.5 -17h260q39 0 54.5 17t15.5 59zM270 720h260q82 0 121 -39t39 -121v-70h-90v70q0 42 -15.5 59t-54.5 17h-260q-39 0 -54.5 -17t-15.5 -59v-100
h200v-54h-370v54h80v100q0 82 39 121t121 39z" />
    <glyph glyph-name="afii61289" unicode="&#x2113;" horiz-adv-x="425" 
d="M185 720h70q67 0 93.5 -26t26.5 -94v-210q0 -68 -26.5 -94t-93.5 -26h-130v-150q0 -42 10.5 -54t49.5 -12h100v-54h-100q-67 0 -93.5 26t-26.5 94v480q0 68 26.5 94t93.5 26zM315 390v210q0 40 -11 53t-49 13h-70q-38 0 -49 -12.5t-11 -53.5v-276h130q38 0 49 12.5
t11 53.5z" />
    <glyph glyph-name="trademark" unicode="&#x2122;" horiz-adv-x="850" 
d="M595 514l77 206h108v-360h-60v306h-10l-78 -206h-85l-77 206h-10v-306h-60v360h107l78 -206h10zM150 666h-130v54h320v-54h-130v-306h-60v306z" />
    <glyph glyph-name="Omega" unicode="&#x2126;" horiz-adv-x="680" 
d="M540 94v-10h110v-84h-200v131q41 0 55.5 15.5t14.5 57.5v316q0 42 -15.5 59t-54.5 17h-220q-39 0 -54.5 -17t-15.5 -59v-316q0 -42 14.5 -57.5t55.5 -15.5v-131h-200v84h110v10q-3 0 -7.5 1t-16.5 7.5t-21.5 17t-17 33t-7.5 51.5v316q0 82 39 121t121 39h220
q82 0 121 -39t39 -121v-316q0 -54 -21 -80t-42 -29z" />
    <glyph glyph-name="estimated" unicode="&#x212e;" horiz-adv-x="860" 
d="M718 180h35q-48 -86 -135 -138q-85 -52 -188 -52q-153 0 -262 108q-108 110 -108 262q0 153 108 261q109 109 262 109t261 -109q109 -108 109 -261v-14h-580v-253q91 -73 210 -73q89 0 165.5 43t122.5 117zM220 627v-253h420v253q-91 73 -210 73t-210 -73z" />
    <glyph glyph-name="partialdiff" unicode="&#x2202;" 
d="M145 760h260q83 0 121.5 -39t38.5 -121v-440q0 -82 -38.5 -121t-121.5 -39h-180q-83 0 -121.5 39t-38.5 121v160q0 82 38.5 121t121.5 39h250v120q0 42 -15.5 59t-54.5 17h-260v84zM475 160v236h-250q-39 0 -54.5 -17t-15.5 -59v-160q0 -42 15.5 -59t54.5 -17h180
q39 0 54.5 17t15.5 59z" />
    <glyph glyph-name="increment" unicode="&#x2206;" horiz-adv-x="680" 
d="M267 720h143l250 -720h-640zM334 636l-190 -552h392l-192 552h-10z" />
    <glyph glyph-name="product" unicode="&#x220f;" horiz-adv-x="720" 
d="M70 0v720h580v-720h-90v636h-400v-636h-90z" />
    <glyph glyph-name="summation" unicode="&#x2211;" horiz-adv-x="640" 
d="M610 720v-84h-490v-10l290 -308v-77l-290 -307v-10h490v-84h-580v127l290 308v10l-290 307v128h580z" />
    <glyph glyph-name="minus" unicode="&#x2212;" horiz-adv-x="600" 
d="M60 322h480v-84h-480v84z" />
    <glyph glyph-name="uni2215" unicode="&#x2215;" horiz-adv-x="467" 
d="M20 0l360 720h67l-360 -720h-67z" />
    <glyph glyph-name="uni2219" unicode="&#x2219;" horiz-adv-x="250" 
d="M79 326q19 19 46 19t46 -19t19 -46t-19 -46t-46 -19t-46 19t-19 46t19 46z" />
    <glyph glyph-name="radical" unicode="&#x221a;" horiz-adv-x="680" 
d="M333 -126l265 1066h62l-278 -1120h-107l-136 546h-99v54h147l136 -546h10z" />
    <glyph glyph-name="infinity" unicode="&#x221e;" horiz-adv-x="910" 
d="M570 470h120q82 0 121 -39t39 -121v-60q0 -82 -39 -121t-121 -39h-120q-54 0 -80 21t-29 42l-1 7h-10q0 -3 -1 -7.5t-7.5 -16.5t-17 -21.5t-33 -17t-51.5 -7.5h-120q-82 0 -121 39t-39 121v60q0 82 39 121t121 39h120q54 0 80 -21t29 -42l1 -7h10q0 3 1 7.5t7.5 16.5
t17 21.5t33 17t51.5 7.5zM410 250v60q0 42 -15.5 59t-54.5 17h-120q-39 0 -54.5 -17t-15.5 -59v-60q0 -42 15.5 -59t54.5 -17h120q39 0 54.5 17t15.5 59zM760 250v60q0 42 -15.5 59t-54.5 17h-120q-39 0 -54.5 -17t-15.5 -59v-60q0 -42 15.5 -59t54.5 -17h120q39 0 54.5 17
t15.5 59z" />
    <glyph glyph-name="integral" unicode="&#x222b;" horiz-adv-x="440" 
d="M310 800h100v-54h-100q-38 0 -49 -12.5t-11 -53.5v-680q0 -68 -26 -94t-94 -26h-100v54h100q38 0 49 12.5t11 53.5v680q0 68 26 94t94 26z" />
    <glyph glyph-name="approxequal" unicode="&#x2248;" horiz-adv-x="600" 
d="M450 498v42h90v-42q0 -75 -32.5 -107.5t-107.5 -32.5h-200q-29 0 -39.5 -12.5t-10.5 -43.5v-42h-90v42q0 75 32.5 107.5t107.5 32.5h200q29 0 39.5 12.5t10.5 43.5zM450 258v42h90v-42q0 -75 -32.5 -107.5t-107.5 -32.5h-200q-29 0 -39.5 -12.5t-10.5 -43.5v-42h-90v42
q0 75 32.5 107.5t107.5 32.5h200q29 0 39.5 12.5t10.5 43.5z" />
    <glyph glyph-name="notequal" unicode="&#x2260;" horiz-adv-x="600" 
d="M540 410v-84h-184l-46 -92h230v-84h-272l-45 -90h-67l45 90h-141v84h183l46 92h-229v84h271l45 90h67l-45 -90h142z" />
    <glyph glyph-name="lessequal" unicode="&#x2264;" horiz-adv-x="600" 
d="M540 40h-480v84h480v-84zM540 159l-480 111v140l480 111v-86l-390 -90v-10l390 -90v-86z" />
    <glyph glyph-name="greaterequal" unicode="&#x2265;" horiz-adv-x="600" 
d="M540 124v-84h-480v84h480zM540 410v-140l-480 -111v86l390 90v10l-390 90v86z" />
    <glyph glyph-name="lozenge" unicode="&#x25ca;" horiz-adv-x="662" 
d="M289 0l-229 360l229 360h84l229 -360l-229 -360h-84zM336 54l195 306l-195 306h-10l-195 -306l195 -306h10z" />
    <glyph glyph-name="f_f_j" unicode="&#xe095;" horiz-adv-x="890" 
d="M490 620v-60h330v-620q0 -75 -32.5 -107.5t-107.5 -32.5h-80v84h80q29 0 39.5 12.5t10.5 43.5v536h-240v-476h-90v476h-240v-476h-90v620q0 75 32.5 107.5t107.5 32.5h150v-84h-150q-29 0 -39.5 -12.5t-10.5 -43.5v-60h240v60q0 75 32.5 107.5t107.5 32.5h160v-84h-160
q-29 0 -39.5 -12.5t-10.5 -43.5z" />
    <glyph glyph-name="f_j" unicode="&#xe09a;" horiz-adv-x="560" 
d="M160 620v-60h330v-620q0 -75 -32.5 -107.5t-107.5 -32.5h-80v84h80q29 0 39.5 12.5t10.5 43.5v536h-240v-476h-90v620q0 75 32.5 107.5t107.5 32.5h160v-84h-160q-29 0 -39.5 -12.5t-10.5 -43.5z" />
    <glyph glyph-name="lslash.sc" unicode="&#xf6f9;" horiz-adv-x="620" 
d="M230 232v-148h370v-84h-460v187l-120 -60v61l120 60v312h90v-267l170 85v-61z" />
    <glyph glyph-name="oe.sc" unicode="&#xf6fa;" horiz-adv-x="990" 
d="M935 560v-84h-370v-154h360v-84h-360v-154h370v-84h-710q-83 0 -121.5 39t-38.5 121v240q0 82 38.5 121t121.5 39h710zM225 84h250v392h-250q-39 0 -54.5 -17t-15.5 -59v-240q0 -42 15.5 -59t54.5 -17z" />
    <glyph glyph-name="scaron.sc" unicode="&#xf6fd;" horiz-adv-x="620" 
d="M560 400v-30h-90v30q0 42 -15.5 59t-54.5 17h-180q-39 0 -54.5 -17t-15.5 -59q0 -23 13 -33t57 -21l180 -45q53 -14 69 -19q24 -8 47 -23q44 -27 44 -99q0 -82 -39 -121t-121 -39h-180q-82 0 -121 39t-39 121v30h90v-30q0 -42 15.5 -59t54.5 -17h180q39 0 54.5 17
t15.5 59q0 23 -13 33t-57 21l-180 45q-53 14 -69 19q-22 7 -47 22q-44 28 -44 100q0 82 39 121t121 39h180q82 0 121 -39t39 -121zM463 790l-114 -150h-78l-114 150h75l73 -96h10l72 96h76z" />
    <glyph glyph-name="zcaron.sc" unicode="&#xf6ff;" horiz-adv-x="610" 
d="M555 560v-133l-410 -333v-10h410v-84h-500v132l410 334v10h-410v84h500zM458 790l-114 -150h-78l-114 150h75l73 -96h10l72 96h76z" />
    <glyph glyph-name="a.sc" unicode="&#xf761;" horiz-adv-x="602" 
d="M232 560h139l211 -560h-96l-52 138h-266l-52 -138h-96zM296 476l-96 -254h202l-96 254h-10z" />
    <glyph glyph-name="b.sc" unicode="&#xf762;" horiz-adv-x="635" 
d="M507 286l-7 -1v-10q3 0 7.5 -1t16.5 -7.5t21.5 -17t17 -33t7.5 -51.5v-5q0 -82 -39 -121t-121 -39h-340v560h340q82 0 121 -39t39 -121v-5q0 -54 -21 -80t-42 -29zM480 160v5q0 42 -14.5 57.5t-55.5 15.5h-250v-154h250q39 0 54.5 17t15.5 59zM410 476h-250v-154h250
q41 0 55.5 15.5t14.5 57.5v5q0 42 -15.5 59t-54.5 17z" />
    <glyph glyph-name="c.sc" unicode="&#xf763;" horiz-adv-x="625" 
d="M475 160v30h90v-30q0 -82 -38.5 -121t-121.5 -39h-180q-83 0 -121.5 39t-38.5 121v240q0 82 38.5 121t121.5 39h180q83 0 121.5 -39t38.5 -121v-30h-90v30q0 42 -15.5 59t-54.5 17h-180q-39 0 -54.5 -17t-15.5 -59v-240q0 -42 15.5 -59t54.5 -17h180q39 0 54.5 17
t15.5 59z" />
    <glyph glyph-name="d.sc" unicode="&#xf764;" horiz-adv-x="635" 
d="M70 560h340q82 0 121 -39t39 -121v-240q0 -82 -39 -121t-121 -39h-340v560zM480 160v240q0 42 -15.5 59t-54.5 17h-250v-392h250q39 0 54.5 17t15.5 59z" />
    <glyph glyph-name="e.sc" unicode="&#xf765;" horiz-adv-x="585" 
d="M530 560v-84h-370v-154h360v-84h-360v-154h370v-84h-460v560h460z" />
    <glyph glyph-name="f.sc" unicode="&#xf766;" horiz-adv-x="575" 
d="M160 238v-238h-90v560h460v-84h-370v-154h360v-84h-360z" />
    <glyph glyph-name="g.sc" unicode="&#xf767;" 
d="M565 400v-30h-90v30q0 42 -15.5 59t-54.5 17h-180q-39 0 -54.5 -17t-15.5 -59v-240q0 -42 15.5 -59t54.5 -17h180q39 0 54.5 17t15.5 59v78h-160v84h250v-162q0 -82 -38.5 -121t-121.5 -39h-180q-83 0 -121.5 39t-38.5 121v240q0 82 38.5 121t121.5 39h180
q83 0 121.5 -39t38.5 -121z" />
    <glyph glyph-name="h.sc" unicode="&#xf768;" horiz-adv-x="640" 
d="M480 322v238h90v-560h-90v238h-320v-238h-90v560h90v-238h320z" />
    <glyph glyph-name="i.sc" unicode="&#xf769;" horiz-adv-x="230" 
d="M160 0h-90v560h90v-560z" />
    <glyph glyph-name="j.sc" unicode="&#xf76a;" horiz-adv-x="620" 
d="M460 160v400h90v-400q0 -82 -39 -121t-121 -39h-180q-82 0 -121 39t-39 121v120h90v-120q0 -42 15.5 -59t54.5 -17h180q39 0 54.5 17t15.5 59z" />
    <glyph glyph-name="k.sc" unicode="&#xf76b;" horiz-adv-x="610" 
d="M590 560l-185 -280l185 -280h-108l-157 238h-165v-238h-90v560h90v-238h165l157 238h108z" />
    <glyph glyph-name="l.sc" unicode="&#xf76c;" horiz-adv-x="550" 
d="M70 560h90v-476h370v-84h-460v560z" />
    <glyph glyph-name="m.sc" unicode="&#xf76d;" horiz-adv-x="750" 
d="M380 204l142 356h158v-560h-90v476h-10l-143 -356h-125l-142 356h-10v-476h-90v560h157l143 -356h10z" />
    <glyph glyph-name="n.sc" unicode="&#xf76e;" horiz-adv-x="640" 
d="M480 84v476h90v-560h-155l-245 476h-10v-476h-90v560h155l245 -476h10z" />
    <glyph glyph-name="o.sc" unicode="&#xf76f;" 
d="M225 560h180q83 0 121.5 -39t38.5 -121v-240q0 -82 -38.5 -121t-121.5 -39h-180q-83 0 -121.5 39t-38.5 121v240q0 82 38.5 121t121.5 39zM475 160v240q0 42 -15.5 59t-54.5 17h-180q-39 0 -54.5 -17t-15.5 -59v-240q0 -42 15.5 -59t54.5 -17h180q39 0 54.5 17t15.5 59z
" />
    <glyph glyph-name="p.sc" unicode="&#xf770;" horiz-adv-x="620" 
d="M70 560h340q82 0 121 -39t39 -121v-60q0 -82 -39 -121t-121 -39h-250v-180h-90v560zM480 340v60q0 42 -15.5 59t-54.5 17h-250v-212h250q39 0 54.5 17t15.5 59z" />
    <glyph glyph-name="q.sc" unicode="&#xf771;" 
d="M225 560h180q83 0 121.5 -39t38.5 -121v-240q0 -82 -38.5 -121t-121.5 -39h-45v-160h-90v160h-45q-83 0 -121.5 39t-38.5 121v240q0 82 38.5 121t121.5 39zM475 160v240q0 42 -15.5 59t-54.5 17h-180q-39 0 -54.5 -17t-15.5 -59v-240q0 -42 15.5 -59t54.5 -17h180
q39 0 54.5 17t15.5 59z" />
    <glyph glyph-name="r.sc" unicode="&#xf772;" 
d="M570 400v-60q0 -78 -33.5 -116.5t-104.5 -42.5l120 -181h-108l-119 180h-165v-180h-90v560h340q82 0 121 -39t39 -121zM480 340v60q0 42 -15.5 59t-54.5 17h-250v-212h250q39 0 54.5 17t15.5 59z" />
    <glyph glyph-name="s.sc" unicode="&#xf773;" horiz-adv-x="620" 
d="M560 400v-30h-90v30q0 42 -15.5 59t-54.5 17h-180q-39 0 -54.5 -17t-15.5 -59q0 -23 13 -33t57 -21l180 -45q53 -14 69 -19q24 -8 47 -23q44 -27 44 -99q0 -82 -39 -121t-121 -39h-180q-82 0 -121 39t-39 121v30h90v-30q0 -42 15.5 -59t54.5 -17h180q39 0 54.5 17
t15.5 59q0 23 -13 33t-57 21l-180 45q-53 14 -69 19q-22 7 -47 22q-44 28 -44 100q0 82 39 121t121 39h180q82 0 121 -39t39 -121z" />
    <glyph glyph-name="t.sc" unicode="&#xf774;" horiz-adv-x="540" 
d="M20 560h500v-84h-205v-476h-90v476h-205v84z" />
    <glyph glyph-name="u.sc" unicode="&#xf775;" horiz-adv-x="640" 
d="M480 160v400h90v-400q0 -82 -39 -121t-121 -39h-180q-82 0 -121 39t-39 121v400h90v-400q0 -42 15.5 -59t54.5 -17h180q39 0 54.5 17t15.5 59z" />
    <glyph glyph-name="v.sc" unicode="&#xf776;" horiz-adv-x="602" 
d="M116 560l180 -476h10l180 476h96l-211 -560h-139l-212 560h96z" />
    <glyph glyph-name="w.sc" unicode="&#xf777;" horiz-adv-x="896" 
d="M651 84l122 476h93l-144 -560h-146l-123 476h-10l-122 -476h-147l-144 560h93l122 -476h10l123 476h140l123 -476h10z" />
    <glyph glyph-name="x.sc" unicode="&#xf778;" horiz-adv-x="581" 
d="M561 560l-186 -280l186 -280h-108l-158 238h-10l-157 -238h-108l185 280l-185 280h108l157 -238h10l158 238h108z" />
    <glyph glyph-name="y.sc" unicode="&#xf779;" horiz-adv-x="584" 
d="M297 284l162 276h105l-227 -385v-175h-90v174l-227 386h104l163 -276h10z" />
    <glyph glyph-name="z.sc" unicode="&#xf77a;" horiz-adv-x="610" 
d="M555 560v-133l-410 -333v-10h410v-84h-500v132l410 334v10h-410v84h500z" />
    <glyph glyph-name="agrave.sc" unicode="&#xf7e0;" horiz-adv-x="602" 
d="M232 560h139l211 -560h-96l-52 138h-266l-52 -138h-96zM296 476l-96 -254h202l-96 254h-10zM256 790l100 -150h-65l-130 150h95z" />
    <glyph glyph-name="aacute.sc" unicode="&#xf7e1;" horiz-adv-x="602" 
d="M20 0l212 560h139l211 -560h-96l-52 138h-266l-52 -138h-96zM200 222h202l-96 254h-10zM311 640h-65l100 150h95z" />
    <glyph glyph-name="acircumflex.sc" unicode="&#xf7e2;" horiz-adv-x="602" 
d="M232 560h139l211 -560h-96l-52 138h-266l-52 -138h-96zM296 476l-96 -254h202l-96 254h-10zM306 736h-10l-72 -96h-76l114 150h79l113 -150h-75z" />
    <glyph glyph-name="atilde.sc" unicode="&#xf7e3;" horiz-adv-x="602" 
d="M232 560h139l211 -560h-96l-52 138h-266l-52 -138h-96zM296 476l-96 -254h202l-96 254h-10zM236 667v-27h-60v27q0 45 17.5 62.5t62.5 17.5h90q12 0 16 5.5t4 20.5v27h60v-27q0 -45 -17.5 -62.5t-62.5 -17.5h-90q-12 0 -16 -5.5t-4 -20.5z" />
    <glyph glyph-name="adieresis.sc" unicode="&#xf7e4;" horiz-adv-x="602" 
d="M232 560h139l211 -560h-96l-52 138h-266l-52 -138h-96zM296 476l-96 -254h202l-96 254h-10zM420 646q-16 -16 -39 -16t-39 16t-16 39t16 39t39 16t39 -16t16 -39t-16 -39zM260 646q-16 -16 -39 -16t-39 16t-16 39t16 39t39 16t39 -16t16 -39t-16 -39z" />
    <glyph glyph-name="aring.sc" unicode="&#xf7e5;" horiz-adv-x="602" 
d="M301 630q-39 0 -67 27.5t-28 67.5q0 39 28 67t67 28q40 0 67.5 -28t27.5 -67q0 -40 -27.5 -67.5t-67.5 -27.5zM329 753q-11 12 -28 12t-29 -12q-11 -11 -11 -28t11 -29q12 -11 29 -11t28 11q12 12 12 29t-12 28zM232 560h139l211 -560h-96l-52 138h-266l-52 -138h-96z
M296 476l-96 -254h202l-96 254h-10z" />
    <glyph glyph-name="ae.sc" unicode="&#xf7e6;" horiz-adv-x="921" 
d="M866 560v-84h-370v-154h360v-84h-360v-154h370v-84h-460v138h-203l-79 -138h-104l321 560h525zM396 476l-145 -254h155v254h-10z" />
    <glyph glyph-name="ccedilla.sc" unicode="&#xf7e7;" horiz-adv-x="625" 
d="M565 400v-30h-90v30q0 42 -15.5 59t-54.5 17h-180q-39 0 -54.5 -17t-15.5 -59v-240q0 -42 15.5 -59t54.5 -17h180q39 0 54.5 17t15.5 59v30h90v-30q0 -82 -38.5 -121t-121.5 -39h-95v-45h50q45 0 62.5 -17.5t17.5 -62.5v-25q0 -45 -17.5 -62.5t-62.5 -17.5h-170v54h170
q12 0 16 5.5t4 20.5v25q0 15 -4 20.5t-16 5.5h-110v99h-25q-83 0 -121.5 39t-38.5 121v240q0 82 38.5 121t121.5 39h180q83 0 121.5 -39t38.5 -121z" />
    <glyph glyph-name="egrave.sc" unicode="&#xf7e8;" horiz-adv-x="585" 
d="M255 790l100 -150h-65l-130 150h95zM530 560v-84h-370v-154h360v-84h-360v-154h370v-84h-460v560h460z" />
    <glyph glyph-name="eacute.sc" unicode="&#xf7e9;" horiz-adv-x="585" 
d="M345 790h95l-130 -150h-65zM530 560v-84h-370v-154h360v-84h-360v-154h370v-84h-460v560h460z" />
    <glyph glyph-name="ecircumflex.sc" unicode="&#xf7ea;" horiz-adv-x="585" 
d="M530 560v-84h-370v-154h360v-84h-360v-154h370v-84h-460v560h460zM305 736h-10l-73 -96h-75l114 150h78l114 -150h-76z" />
    <glyph glyph-name="edieresis.sc" unicode="&#xf7eb;" horiz-adv-x="585" 
d="M530 560v-84h-370v-154h360v-84h-360v-154h370v-84h-460v560h460zM418 646q-16 -16 -38 -16t-39 16q-16 16 -16 39t16 39q17 16 39 16t38 -16q17 -16 17 -39t-17 -39zM258 646q-16 -16 -38 -16t-39 16q-16 16 -16 39t16 39q17 16 39 16t38 -16q17 -16 17 -39t-17 -39z
" />
    <glyph glyph-name="igrave.sc" unicode="&#xf7ec;" horiz-adv-x="230" 
d="M160 560v-560h-90v560h90zM105 640l-130 150h95l100 -150h-65z" />
    <glyph glyph-name="iacute.sc" unicode="&#xf7ed;" horiz-adv-x="230" 
d="M160 0h-90v560h90v-560zM160 790h95l-130 -150h-65z" />
    <glyph glyph-name="icircumflex.sc" unicode="&#xf7ee;" horiz-adv-x="230" 
d="M160 0h-90v560h90v-560zM75 790h79l113 -150h-75l-72 96h-10l-73 -96h-75z" />
    <glyph glyph-name="idieresis.sc" unicode="&#xf7ef;" horiz-adv-x="230" 
d="M160 0h-90v560h90v-560zM156 724q16 16 39 16t39 -16t16 -39t-16 -39t-39 -16t-39 16t-16 39t16 39zM74 724q16 -16 16 -39t-16 -39t-39 -16t-39 16t-16 39t16 39t39 16t39 -16z" />
    <glyph glyph-name="eth.sc" unicode="&#xf7f0;" horiz-adv-x="675" 
d="M110 560h340q82 0 121 -39t39 -121v-240q0 -82 -39 -121t-121 -39h-340v238h-80v84h80v238zM520 160v240q0 42 -15.5 59t-54.5 17h-250v-154h160v-84h-160v-154h250q39 0 54.5 17t15.5 59z" />
    <glyph glyph-name="ntilde.sc" unicode="&#xf7f1;" horiz-adv-x="640" 
d="M255 667v-27h-60v27q0 45 17.5 62.5t62.5 17.5h90q12 0 16 5.5t4 20.5v27h60v-27q0 -45 -17.5 -62.5t-62.5 -17.5h-90q-12 0 -16 -5.5t-4 -20.5zM480 84v476h90v-560h-155l-245 476h-10v-476h-90v560h155l245 -476h10z" />
    <glyph glyph-name="ograve.sc" unicode="&#xf7f2;" 
d="M225 560h180q83 0 121.5 -39t38.5 -121v-240q0 -82 -38.5 -121t-121.5 -39h-180q-83 0 -121.5 39t-38.5 121v240q0 82 38.5 121t121.5 39zM475 160v240q0 42 -15.5 59t-54.5 17h-180q-39 0 -54.5 -17t-15.5 -59v-240q0 -42 15.5 -59t54.5 -17h180q39 0 54.5 17t15.5 59z
M270 790l100 -150h-65l-130 150h95z" />
    <glyph glyph-name="oacute.sc" unicode="&#xf7f3;" 
d="M225 560h180q83 0 121.5 -39t38.5 -121v-240q0 -82 -38.5 -121t-121.5 -39h-180q-83 0 -121.5 39t-38.5 121v240q0 82 38.5 121t121.5 39zM155 400v-240q0 -42 15.5 -59t54.5 -17h180q39 0 54.5 17t15.5 59v240q0 42 -15.5 59t-54.5 17h-180q-39 0 -54.5 -17t-15.5 -59z
M325 640h-65l100 150h95z" />
    <glyph glyph-name="ocircumflex.sc" unicode="&#xf7f4;" 
d="M225 560h180q83 0 121.5 -39t38.5 -121v-240q0 -82 -38.5 -121t-121.5 -39h-180q-83 0 -121.5 39t-38.5 121v240q0 82 38.5 121t121.5 39zM475 160v240q0 42 -15.5 59t-54.5 17h-180q-39 0 -54.5 -17t-15.5 -59v-240q0 -42 15.5 -59t54.5 -17h180q39 0 54.5 17t15.5 59z
M320 736h-10l-73 -96h-75l114 150h78l114 -150h-76z" />
    <glyph glyph-name="otilde.sc" unicode="&#xf7f5;" 
d="M250 667v-27h-60v27q0 45 17.5 62.5t62.5 17.5h90q12 0 16 5.5t4 20.5v27h60v-27q0 -45 -17.5 -62.5t-62.5 -17.5h-90q-12 0 -16 -5.5t-4 -20.5zM225 560h180q83 0 121.5 -39t38.5 -121v-240q0 -82 -38.5 -121t-121.5 -39h-180q-83 0 -121.5 39t-38.5 121v240
q0 82 38.5 121t121.5 39zM475 160v240q0 42 -15.5 59t-54.5 17h-180q-39 0 -54.5 -17t-15.5 -59v-240q0 -42 15.5 -59t54.5 -17h180q39 0 54.5 17t15.5 59z" />
    <glyph glyph-name="odieresis.sc" unicode="&#xf7f6;" 
d="M225 560h180q83 0 121.5 -39t38.5 -121v-240q0 -82 -38.5 -121t-121.5 -39h-180q-83 0 -121.5 39t-38.5 121v240q0 82 38.5 121t121.5 39zM475 160v240q0 42 -15.5 59t-54.5 17h-180q-39 0 -54.5 -17t-15.5 -59v-240q0 -42 15.5 -59t54.5 -17h180q39 0 54.5 17t15.5 59z
M434 646q-16 -16 -39 -16t-39 16t-16 39t16 39t39 16t39 -16t16 -39t-16 -39zM274 646q-16 -16 -39 -16t-39 16t-16 39t16 39t39 16t39 -16t16 -39t-16 -39z" />
    <glyph glyph-name="oslash.sc" unicode="&#xf7f8;" 
d="M225 560h180q83 0 121.5 -39t38.5 -121v-240q0 -82 -38.5 -121t-121.5 -39h-180q-83 0 -121.5 39t-38.5 121v240q0 82 38.5 121t121.5 39zM405 476h-180q-39 0 -54.5 -17t-15.5 -59v-170l320 160v10q0 42 -15.5 59t-54.5 17zM225 84h180q39 0 54.5 17t15.5 59v170
l-320 -160v-10q0 -42 15.5 -59t54.5 -17z" />
    <glyph glyph-name="ugrave.sc" unicode="&#xf7f9;" horiz-adv-x="640" 
d="M480 160v400h90v-400q0 -82 -39 -121t-121 -39h-180q-82 0 -121 39t-39 121v400h90v-400q0 -42 15.5 -59t54.5 -17h180q39 0 54.5 17t15.5 59zM275 790l100 -150h-65l-130 150h95z" />
    <glyph glyph-name="uacute.sc" unicode="&#xf7fa;" horiz-adv-x="640" 
d="M70 560h90v-400q0 -42 15.5 -59t54.5 -17h180q39 0 54.5 17t15.5 59v400h90v-400q0 -82 -39 -121t-121 -39h-180q-82 0 -121 39t-39 121v400zM330 640h-65l100 150h95z" />
    <glyph glyph-name="ucircumflex.sc" unicode="&#xf7fb;" horiz-adv-x="640" 
d="M480 160v400h90v-400q0 -82 -39 -121t-121 -39h-180q-82 0 -121 39t-39 121v400h90v-400q0 -42 15.5 -59t54.5 -17h180q39 0 54.5 17t15.5 59zM325 736h-10l-73 -96h-75l114 150h78l114 -150h-76z" />
    <glyph glyph-name="udieresis.sc" unicode="&#xf7fc;" horiz-adv-x="640" 
d="M480 160v400h90v-400q0 -82 -39 -121t-121 -39h-180q-82 0 -121 39t-39 121v400h90v-400q0 -42 15.5 -59t54.5 -17h180q39 0 54.5 17t15.5 59zM438 646q-16 -16 -38 -16t-39 16q-16 16 -16 39t16 39q17 16 39 16t38 -16q17 -16 17 -39t-17 -39zM278 646q-16 -16 -38 -16
t-39 16q-16 16 -16 39t16 39q17 16 39 16t38 -16q17 -16 17 -39t-17 -39z" />
    <glyph glyph-name="yacute.sc" unicode="&#xf7fd;" horiz-adv-x="584" 
d="M337 790h95l-130 -150h-65zM297 284l162 276h105l-227 -385v-175h-90v174l-227 386h104l163 -276h10z" />
    <glyph glyph-name="thorn.sc" unicode="&#xf7fe;" horiz-adv-x="620" 
d="M160 470h250q82 0 121 -39t39 -121v-60q0 -82 -39 -121t-121 -39h-250v-90h-90v560h90v-90zM480 250v60q0 42 -15.5 59t-54.5 17h-250v-212h250q39 0 54.5 17t15.5 59z" />
    <glyph glyph-name="ydieresis.sc" unicode="&#xf7ff;" horiz-adv-x="584" 
d="M297 284l162 276h105l-227 -385v-175h-90v174l-227 386h104l163 -276h10zM410 646q-16 -16 -38 -16t-39 16q-16 16 -16 39t16 39q17 16 39 16t38 -16q17 -16 17 -39t-17 -39zM250 646q-16 -16 -38 -16t-39 16q-16 16 -16 39t16 39q17 16 39 16t38 -16q17 -16 17 -39
t-17 -39z" />
    <glyph glyph-name="Lslash.salt" unicode="&#xf800;" horiz-adv-x="700" 
d="M300 84h380v-84h-380q-82 0 -121 39t-39 121v107l-120 -60v61l120 60v392h90v-347l240 120v-61l-240 -120v-152q0 -42 15.5 -59t54.5 -17z" />
    <glyph glyph-name="four.salt" unicode="&#xf801;" horiz-adv-x="665" 
d="M505 304v416h90v-720h-90v220h-290q-83 0 -121.5 39t-38.5 121v340h90v-340q0 -42 15.5 -59t54.5 -17h290z" />
    <glyph glyph-name="seven.salt" unicode="&#xf802;" horiz-adv-x="590" 
d="M360 636h-340v84h340q82 0 121 -39t39 -121v-560h-90v560q0 42 -15.5 59t-54.5 17z" />
    <glyph glyph-name="A.salt" unicode="&#xf803;" horiz-adv-x="720" 
d="M230 720h260q82 0 121 -39t39 -121v-560h-90v258h-400v-258h-90v560q0 82 39 121t121 39zM160 560v-218h400v218q0 42 -15.5 59t-54.5 17h-260q-39 0 -54.5 -17t-15.5 -59z" />
    <glyph glyph-name="E.salt" unicode="&#xf804;" horiz-adv-x="660" 
d="M605 636h-380q-39 0 -54.5 -17t-15.5 -59v-158h440v-84h-440v-158q0 -42 15.5 -59t54.5 -17h380v-84h-380q-83 0 -121.5 39t-38.5 121v400q0 82 38.5 121t121.5 39h380v-84z" />
    <glyph glyph-name="F.salt" unicode="&#xf805;" horiz-adv-x="655" 
d="M160 318v-318h-90v560q0 82 39 121t121 39h380v-84h-380q-39 0 -54.5 -17t-15.5 -59v-158h440v-84h-440z" />
    <glyph glyph-name="J.salt" unicode="&#xf806;" 
d="M20 84h380q39 0 54.5 17t15.5 59v560h90v-560q0 -82 -39 -121t-121 -39h-380v84z" />
    <glyph glyph-name="K.salt" unicode="&#xf807;" horiz-adv-x="720" 
d="M650 720v-245q0 -54 -21 -80t-42 -29l-7 -1v-10q3 0 7.5 -1t16.5 -7.5t21.5 -17t17 -33t7.5 -51.5v-245h-90v245q0 42 -14.5 57.5t-55.5 15.5h-330v-318h-90v720h90v-318h330q41 0 55.5 15.5t14.5 57.5v245h90z" />
    <glyph glyph-name="L.salt" unicode="&#xf808;" 
d="M230 84h380v-84h-380q-82 0 -121 39t-39 121v560h90v-560q0 -42 15.5 -59t54.5 -17z" />
    <glyph glyph-name="M.salt" unicode="&#xf809;" horiz-adv-x="1050" 
d="M640 720h180q82 0 121 -39t39 -121v-560h-90v560q0 42 -15.5 59t-54.5 17h-180q-39 0 -54.5 -17t-15.5 -59v-560h-90v560q0 42 -15.5 59t-54.5 17h-180q-39 0 -54.5 -17t-15.5 -59v-560h-90v560q0 82 39 121t121 39h180q54 0 80 -21t29 -42l1 -7h10q0 3 1 7.5t7.5 16.5
t17 21.5t33 17t51.5 7.5z" />
    <glyph glyph-name="N.salt" unicode="&#xf810;" horiz-adv-x="720" 
d="M650 0h-90v560q0 42 -15.5 59t-54.5 17h-260q-39 0 -54.5 -17t-15.5 -59v-560h-90v560q0 82 39 121t121 39h260q82 0 121 -39t39 -121v-560z" />
    <glyph glyph-name="R.salt" unicode="&#xf811;" horiz-adv-x="720" 
d="M70 720h420q82 0 121 -39t39 -121v-143q0 -54 -21 -80t-42 -29l-7 -1v-10q3 0 7.5 -1t16.5 -7.5t21.5 -17t17 -33t7.5 -51.5v-187h-90v187q0 42 -14.5 57.5t-55.5 15.5h-330v-260h-90v720zM560 417v143q0 42 -15.5 59t-54.5 17h-330v-292h330q41 0 55.5 15.5t14.5 57.5z
" />
    <glyph glyph-name="W.salt" unicode="&#xf812;" horiz-adv-x="1050" 
d="M820 0h-180q-54 0 -80 21t-29 42l-1 7h-10q0 -3 -1 -7.5t-7.5 -16.5t-17 -21.5t-33 -17t-51.5 -7.5h-180q-82 0 -121 39t-39 121v560h90v-560q0 -42 15.5 -59t54.5 -17h180q39 0 54.5 17t15.5 59v560h90v-560q0 -42 15.5 -59t54.5 -17h180q39 0 54.5 17t15.5 59v560h90
v-560q0 -82 -39 -121t-121 -39z" />
    <glyph glyph-name="X.salt" unicode="&#xf813;" horiz-adv-x="720" 
d="M650 720v-245q0 -54 -21 -80t-42 -29l-7 -1v-10q3 0 7.5 -1t16.5 -7.5t21.5 -17t17 -33t7.5 -51.5v-245h-90v245q0 42 -14.5 57.5t-55.5 15.5h-260q-41 0 -55.5 -15.5t-14.5 -57.5v-245h-90v245q0 54 21 80t42 29l7 1v10q-3 0 -7.5 1t-16.5 7.5t-21.5 17t-17 33
t-7.5 51.5v245h90v-245q0 -42 14.5 -57.5t55.5 -15.5h260q41 0 55.5 15.5t14.5 57.5v245h90z" />
    <glyph glyph-name="Y.salt" unicode="&#xf814;" horiz-adv-x="690" 
d="M545 420v300h90v-300q0 -82 -38.5 -121t-121.5 -39h-85v-260h-90v260h-85q-83 0 -121.5 39t-38.5 121v300h90v-300q0 -42 15.5 -59t54.5 -17h260q39 0 54.5 17t15.5 59z" />
    <glyph glyph-name="g.salt" unicode="&#xf815;" horiz-adv-x="635" 
d="M225 560h180q83 0 121.5 -39t38.5 -121v-460q0 -75 -32.5 -107.5t-107.5 -32.5h-200v84h200q29 0 39.5 12.5t10.5 43.5v60h-250q-83 0 -121.5 39t-38.5 121v240q0 82 38.5 121t121.5 39zM225 84h250v316q0 42 -15.5 59t-54.5 17h-180q-39 0 -54.5 -17t-15.5 -59v-240
q0 -42 15.5 -59t54.5 -17z" />
    <glyph glyph-name="k.salt" unicode="&#xf816;" horiz-adv-x="640" 
d="M570 560v-165q0 -54 -21 -80t-42 -29l-7 -1v-10q3 0 7.5 -1t16.5 -7.5t21.5 -17t17 -33t7.5 -51.5v-165h-90v165q0 42 -14.5 57.5t-55.5 15.5h-250v-238h-90v760h90v-438h250q41 0 55.5 15.5t14.5 57.5v165h90z" />
    <glyph glyph-name="w.salt" unicode="&#xf817;" horiz-adv-x="930" 
d="M700 0h-120q-54 0 -80 21t-29 42l-1 7h-10q0 -3 -1 -7.5t-7.5 -16.5t-17 -21.5t-33 -17t-51.5 -7.5h-120q-82 0 -121 39t-39 121v400h90v-400q0 -42 15.5 -59t54.5 -17h120q39 0 54.5 17t15.5 59v400h90v-400q0 -42 15.5 -59t54.5 -17h120q39 0 54.5 17t15.5 59v400h90
v-400q0 -82 -39 -121t-121 -39z" />
    <glyph glyph-name="x.salt" unicode="&#xf818;" horiz-adv-x="640" 
d="M570 560v-165q0 -54 -21 -80t-42 -29l-7 -1v-10q3 0 7.5 -1t16.5 -7.5t21.5 -17t17 -33t7.5 -51.5v-165h-90v165q0 42 -14.5 57.5t-55.5 15.5h-180q-41 0 -55.5 -15.5t-14.5 -57.5v-165h-90v165q0 54 21 80t42 29l7 1v10q-3 0 -7.5 1t-16.5 7.5t-21.5 17t-17 33
t-7.5 51.5v165h90v-165q0 -42 14.5 -57.5t55.5 -15.5h180q41 0 55.5 15.5t14.5 57.5v165h90z" />
    <glyph glyph-name="y.salt" unicode="&#xf819;" horiz-adv-x="640" 
d="M480 84v476h90v-620q0 -75 -32.5 -107.5t-107.5 -32.5h-200v84h200q29 0 39.5 12.5t10.5 43.5v60h-250q-82 0 -121 39t-39 121v400h90v-400q0 -42 15.5 -59t54.5 -17h250z" />
    <glyph glyph-name="OE.salt" unicode="&#xf820;" horiz-adv-x="1150" 
d="M1095 636h-380q-39 0 -54.5 -17t-15.5 -59v-158h440v-84h-440v-158q0 -42 15.5 -59t54.5 -17h380v-84h-380q-54 0 -80 21t-29 42l-1 7h-10q0 -3 -1 -7.5t-7.5 -16.5t-17 -21.5t-33 -17t-51.5 -7.5h-260q-83 0 -121.5 39t-38.5 121v400q0 82 38.5 121t121.5 39h260
q54 0 80 -21t29 -42l1 -7h10q0 3 1 7.5t7.5 16.5t17 21.5t33 17t51.5 7.5h380v-84zM555 160v400q0 42 -15.5 59t-54.5 17h-260q-39 0 -54.5 -17t-15.5 -59v-400q0 -42 15.5 -59t54.5 -17h260q39 0 54.5 17t15.5 59z" />
    <glyph glyph-name="trademark.salt" unicode="&#xf821;" horiz-adv-x="1000" 
d="M755 720h55q68 0 94 -26t26 -94v-240h-60v240q0 40 -11 53t-49 13h-55q-37 0 -48.5 -13t-11.5 -53v-240h-60v240q0 40 -11.5 53t-48.5 13h-55q-38 0 -49 -12.5t-11 -53.5v-240h-60v240q0 68 26 94t94 26h55q33 0 55.5 -12t25.5 -26l4 -12h10q0 2 1 5.5t6.5 12t13.5 15
t25 12t39 5.5zM150 666h-130v54h320v-54h-130v-306h-60v306z" />
    <glyph glyph-name="Ydieresis.salt" unicode="&#xf822;" horiz-adv-x="690" 
d="M545 420v300h90v-300q0 -82 -38.5 -121t-121.5 -39h-85v-260h-90v260h-85q-83 0 -121.5 39t-38.5 121v300h90v-300q0 -42 15.5 -59t54.5 -17h260q39 0 54.5 17t15.5 59zM464 806q-16 -16 -39 -16t-39 16t-16 39t16 39t39 16t39 -16t16 -39t-16 -39zM304 806
q-16 -16 -39 -16t-39 16t-16 39t16 39t39 16t39 -16t16 -39t-16 -39z" />
    <glyph glyph-name="yen.salt" unicode="&#xf823;" horiz-adv-x="690" 
d="M545 420v300h90v-300q0 -82 -38.5 -121t-121.5 -39h-85v-86h125v-54h-125v-120h-90v120h-125v54h125v86h-85q-83 0 -121.5 39t-38.5 121v300h90v-300q0 -42 15.5 -59t54.5 -17h260q39 0 54.5 17t15.5 59z" />
    <glyph glyph-name="registered.salt" unicode="&#xf824;" horiz-adv-x="800" 
d="M159 600q100 100 241 100t240 -100q100 -99 100 -240t-100 -241q-99 -99 -240 -99q-140 0 -241 99q-99 101 -99 241q0 141 99 240zM202 162q82 -82 198 -82t198 82t82 198t-82 198t-198 82t-198 -82t-82 -198t82 -198zM250 540h190q66 0 93 -25t27 -85v-33q0 -25 -12 -42
t-26 -20l-12 -3v-10q2 0 5.5 -1t12 -5t15 -10t12 -19t5.5 -30v-77h-60v77q0 22 -13 32.5t-47 10.5h-130v-120h-60v360zM500 397v33q0 34 -11.5 45t-48.5 11h-130v-132h130q34 0 47 10.5t13 32.5z" />
    <glyph glyph-name="onequarter.salt" unicode="&#xf825;" horiz-adv-x="750" 
d="M620 164v196h60v-360h-60v110h-130q-68 0 -94 26t-26 94v130h60v-130q0 -42 10.5 -54t49.5 -12h130zM170 360h-60v306h-80v54h140v-360zM66 0l360 720h67l-360 -720h-67z" />
    <glyph glyph-name="threequarters.salt" unicode="&#xf826;" horiz-adv-x="910" 
d="M370 470q0 -60 -27 -85t-93 -25h-70q-68 0 -94 26t-26 94v10h60v-10q0 -42 10.5 -54t49.5 -12h70q37 0 48.5 11t11.5 45q0 22 -13 32.5t-47 10.5h-90v54h90q34 0 47 10.5t13 32.5q0 34 -11.5 45t-48.5 11h-70q-38 0 -49 -12.5t-11 -53.5v-10h-60v10q0 68 26 94t94 26h70
q66 0 93 -25t27 -85q0 -25 -12 -42t-26 -20l-12 -3v-10q2 0 5.5 -1t12 -5t15 -10t12 -19t5.5 -30zM780 164v196h60v-360h-60v110h-130q-68 0 -94 26t-26 94v130h60v-130q0 -42 10.5 -54t49.5 -12h130zM226 0l360 720h67l-360 -720h-67z" />
    <glyph glyph-name="Agrave.salt" unicode="&#xf827;" horiz-adv-x="720" 
d="M230 720h260q82 0 121 -39t39 -121v-560h-90v258h-400v-258h-90v560q0 82 39 121t121 39zM160 342h400v218q0 42 -15.5 59t-54.5 17h-260q-39 0 -54.5 -17t-15.5 -59v-218zM315 950l100 -150h-65l-130 150h95z" />
    <glyph glyph-name="Aacute.salt" unicode="&#xf828;" horiz-adv-x="720" 
d="M230 720h260q82 0 121 -39t39 -121v-560h-90v258h-400v-258h-90v560q0 82 39 121t121 39zM160 560v-218h400v218q0 42 -15.5 59t-54.5 17h-260q-39 0 -54.5 -17t-15.5 -59zM370 800h-65l100 150h95z" />
    <glyph glyph-name="Acircumflex.salt" unicode="&#xf829;" horiz-adv-x="720" 
d="M230 720h260q82 0 121 -39t39 -121v-560h-90v258h-400v-258h-90v560q0 82 39 121t121 39zM160 342h400v218q0 42 -15.5 59t-54.5 17h-260q-39 0 -54.5 -17t-15.5 -59v-218zM365 896h-10l-73 -96h-75l114 150h78l114 -150h-76z" />
    <glyph glyph-name="Atilde.salt" unicode="&#xf830;" horiz-adv-x="720" 
d="M230 720h260q82 0 121 -39t39 -121v-560h-90v258h-400v-258h-90v560q0 82 39 121t121 39zM160 342h400v218q0 42 -15.5 59t-54.5 17h-260q-39 0 -54.5 -17t-15.5 -59v-218zM295 827v-27h-60v27q0 45 17.5 62.5t62.5 17.5h90q12 0 16 5.5t4 20.5v27h60v-27
q0 -45 -17.5 -62.5t-62.5 -17.5h-90q-12 0 -16 -5.5t-4 -20.5z" />
    <glyph glyph-name="Adieresis.salt" unicode="&#xf831;" horiz-adv-x="720" 
d="M230 720h260q82 0 121 -39t39 -121v-560h-90v258h-400v-258h-90v560q0 82 39 121t121 39zM160 342h400v218q0 42 -15.5 59t-54.5 17h-260q-39 0 -54.5 -17t-15.5 -59v-218zM478 806q-16 -16 -38 -16t-39 16q-16 16 -16 39t16 39q17 16 39 16t38 -16q17 -16 17 -39
t-17 -39zM318 806q-16 -16 -38 -16t-39 16q-16 16 -16 39t16 39q17 16 39 16t38 -16q17 -16 17 -39t-17 -39z" />
    <glyph glyph-name="Aring.salt" unicode="&#xf832;" horiz-adv-x="720" 
d="M230 720h260q82 0 121 -39t39 -121v-560h-90v258h-400v-258h-90v560q0 82 39 121t121 39zM160 342h400v218q0 42 -15.5 59t-54.5 17h-260q-39 0 -54.5 -17t-15.5 -59v-218zM360 790q-40 0 -67.5 27.5t-27.5 67.5q0 39 27.5 67t67.5 28q39 0 67 -28t28 -67
q0 -40 -28 -67.5t-67 -27.5zM388 913q-12 12 -28 12t-28 -12q-12 -11 -12 -28t12 -29q12 -11 28 -11t28 11q12 12 12 29t-12 28z" />
    <glyph glyph-name="AE.salt" unicode="&#xf833;" horiz-adv-x="1155" 
d="M1100 636h-380q-39 0 -54.5 -17t-15.5 -59v-158h440v-84h-440v-158q0 -42 15.5 -59t54.5 -17h380v-84h-380q-82 0 -121 39t-39 121v98h-400v-258h-90v560q0 82 39 121t121 39h260q54 0 80 -21t29 -42l1 -7h10q0 3 1 7.5t7.5 16.5t17 21.5t33 17t51.5 7.5h380v-84z
M160 560v-218h400v218q0 42 -15.5 59t-54.5 17h-260q-39 0 -54.5 -17t-15.5 -59z" />
    <glyph glyph-name="Egrave.salt" unicode="&#xf834;" horiz-adv-x="660" 
d="M605 636h-380q-39 0 -54.5 -17t-15.5 -59v-158h440v-84h-440v-158q0 -42 15.5 -59t54.5 -17h380v-84h-380q-83 0 -121.5 39t-38.5 121v400q0 82 38.5 121t121.5 39h380v-84zM290 950l100 -150h-65l-130 150h95z" />
    <glyph glyph-name="Eacute.salt" unicode="&#xf835;" horiz-adv-x="660" 
d="M605 636h-380q-39 0 -54.5 -17t-15.5 -59v-158h440v-84h-440v-158q0 -42 15.5 -59t54.5 -17h380v-84h-380q-83 0 -121.5 39t-38.5 121v400q0 82 38.5 121t121.5 39h380v-84zM380 950h95l-130 -150h-65z" />
    <glyph glyph-name="Ecircumflex.salt" unicode="&#xf836;" horiz-adv-x="660" 
d="M605 636h-380q-39 0 -54.5 -17t-15.5 -59v-158h440v-84h-440v-158q0 -42 15.5 -59t54.5 -17h380v-84h-380q-83 0 -121.5 39t-38.5 121v400q0 82 38.5 121t121.5 39h380v-84zM340 896h-10l-73 -96h-75l114 150h78l114 -150h-76z" />
    <glyph glyph-name="Edieresis.salt" unicode="&#xf837;" horiz-adv-x="660" 
d="M605 636h-380q-39 0 -54.5 -17t-15.5 -59v-158h440v-84h-440v-158q0 -42 15.5 -59t54.5 -17h380v-84h-380q-83 0 -121.5 39t-38.5 121v400q0 82 38.5 121t121.5 39h380v-84zM454 806q-16 -16 -39 -16t-39 16t-16 39t16 39t39 16t39 -16t16 -39t-16 -39zM294 806
q-16 -16 -39 -16t-39 16t-16 39t16 39t39 16t39 -16t16 -39t-16 -39z" />
    <glyph glyph-name="Ntilde.salt" unicode="&#xf838;" horiz-adv-x="720" 
d="M230 720h260q82 0 121 -39t39 -121v-560h-90v560q0 42 -15.5 59t-54.5 17h-260q-39 0 -54.5 -17t-15.5 -59v-560h-90v560q0 82 39 121t121 39zM295 827v-27h-60v27q0 45 17.5 62.5t62.5 17.5h90q12 0 16 5.5t4 20.5v27h60v-27q0 -45 -17.5 -62.5t-62.5 -17.5h-90
q-12 0 -16 -5.5t-4 -20.5z" />
    <glyph glyph-name="Yacute.salt" unicode="&#xf839;" horiz-adv-x="690" 
d="M390 950h95l-130 -150h-65zM545 420v300h90v-300q0 -82 -38.5 -121t-121.5 -39h-85v-260h-90v260h-85q-83 0 -121.5 39t-38.5 121v300h90v-300q0 -42 15.5 -59t54.5 -17h260q39 0 54.5 17t15.5 59z" />
    <glyph glyph-name="yacute.salt" unicode="&#xf840;" horiz-adv-x="640" 
d="M480 84v476h90v-620q0 -75 -32.5 -107.5t-107.5 -32.5h-200v84h200q29 0 39.5 12.5t10.5 43.5v60h-250q-82 0 -121 39t-39 121v400h90v-400q0 -42 15.5 -59t54.5 -17h250zM365 790h95l-130 -150h-65z" />
    <glyph glyph-name="ydieresis.salt" unicode="&#xf841;" horiz-adv-x="640" 
d="M480 84v476h90v-620q0 -75 -32.5 -107.5t-107.5 -32.5h-200v84h200q29 0 39.5 12.5t10.5 43.5v60h-250q-82 0 -121 39t-39 121v400h90v-400q0 -42 15.5 -59t54.5 -17h250zM278 646q-16 -16 -38 -16t-39 16q-16 16 -16 39t16 39q17 16 39 16t38 -16q17 -16 17 -39t-17 -39
zM438 646q-16 -16 -38 -16t-39 16q-16 16 -16 39t16 39q17 16 39 16t38 -16q17 -16 17 -39t-17 -39z" />
    <glyph glyph-name="lslashsc.salt" unicode="&#xf842;" horiz-adv-x="620" 
d="M230 232v-72q0 -42 15.5 -59t54.5 -17h300v-84h-300q-82 0 -121 39t-39 121v27l-120 -60v61l120 60v312h90v-267l170 85v-61z" />
    <glyph glyph-name="oesc.salt" unicode="&#xf843;" horiz-adv-x="990" 
d="M935 476h-300q-39 0 -54.5 -17t-15.5 -59v-78h360v-84h-360v-78q0 -42 15.5 -59t54.5 -17h300v-84h-300q-54 0 -80 21t-29 42l-1 7h-10q0 -3 -1 -7.5t-7.5 -16.5t-17 -21.5t-33 -17t-51.5 -7.5h-180q-83 0 -121.5 39t-38.5 121v240q0 82 38.5 121t121.5 39h180
q54 0 80 -21t29 -42l1 -7h10q0 3 1 7.5t7.5 16.5t17 21.5t33 17t51.5 7.5h300v-84zM475 160v240q0 42 -15.5 59t-54.5 17h-180q-39 0 -54.5 -17t-15.5 -59v-240q0 -42 15.5 -59t54.5 -17h180q39 0 54.5 17t15.5 59z" />
    <glyph glyph-name="asc.salt" unicode="&#xf844;" horiz-adv-x="640" 
d="M230 560h180q82 0 121 -39t39 -121v-400h-90v178h-320v-178h-90v400q0 82 39 121t121 39zM160 400v-138h320v138q0 42 -15.5 59t-54.5 17h-180q-39 0 -54.5 -17t-15.5 -59z" />
    <glyph glyph-name="esc.salt" unicode="&#xf845;" horiz-adv-x="580" 
d="M525 476h-300q-39 0 -54.5 -17t-15.5 -59v-78h360v-84h-360v-78q0 -42 15.5 -59t54.5 -17h300v-84h-300q-83 0 -121.5 39t-38.5 121v240q0 82 38.5 121t121.5 39h300v-84z" />
    <glyph glyph-name="fsc.salt" unicode="&#xf846;" horiz-adv-x="575" 
d="M160 238v-238h-90v400q0 82 39 121t121 39h300v-84h-300q-39 0 -54.5 -17t-15.5 -59v-78h360v-84h-360z" />
    <glyph glyph-name="jsc.salt" unicode="&#xf847;" horiz-adv-x="550" 
d="M390 160v400h90v-400q0 -82 -39 -121t-121 -39h-300v84h300q39 0 54.5 17t15.5 59z" />
    <glyph glyph-name="ksc.salt" unicode="&#xf848;" horiz-adv-x="640" 
d="M570 560v-165q0 -54 -21 -80t-42 -29l-7 -1v-10q3 0 7.5 -1t16.5 -7.5t21.5 -17t17 -33t7.5 -51.5v-165h-90v165q0 42 -14.5 57.5t-55.5 15.5h-250v-238h-90v560h90v-238h250q41 0 55.5 15.5t14.5 57.5v165h90z" />
    <glyph glyph-name="lsc.salt" unicode="&#xf849;" horiz-adv-x="550" 
d="M160 560v-400q0 -42 15.5 -59t54.5 -17h300v-84h-300q-82 0 -121 39t-39 121v400h90z" />
    <glyph glyph-name="msc.salt" unicode="&#xf850;" horiz-adv-x="930" 
d="M580 560h120q82 0 121 -39t39 -121v-400h-90v400q0 42 -15.5 59t-54.5 17h-120q-39 0 -54.5 -17t-15.5 -59v-400h-90v400q0 42 -15.5 59t-54.5 17h-120q-39 0 -54.5 -17t-15.5 -59v-400h-90v400q0 82 39 121t121 39h120q54 0 80 -21t29 -42l1 -7h10q0 3 1 7.5t7.5 16.5
t17 21.5t33 17t51.5 7.5z" />
    <glyph glyph-name="nsc.salt" unicode="&#xf851;" horiz-adv-x="640" 
d="M570 0h-90v400q0 42 -15.5 59t-54.5 17h-180q-39 0 -54.5 -17t-15.5 -59v-400h-90v400q0 82 39 121t121 39h180q82 0 121 -39t39 -121v-400z" />
    <glyph glyph-name="rsc.salt" unicode="&#xf852;" horiz-adv-x="640" 
d="M70 560h340q82 0 121 -39t39 -121v-63q0 -54 -21 -80t-42 -29l-7 -1v-10q3 0 7.5 -1t16.5 -7.5t21.5 -17t17 -33t7.5 -51.5v-107h-90v107q0 42 -14.5 57.5t-55.5 15.5h-250v-180h-90v560zM480 337v63q0 42 -15.5 59t-54.5 17h-250v-212h250q41 0 55.5 15.5t14.5 57.5z
" />
    <glyph glyph-name="wsc.salt" unicode="&#xf853;" horiz-adv-x="930" 
d="M700 0h-120q-54 0 -80 21t-29 42l-1 7h-10q0 -3 -1 -7.5t-7.5 -16.5t-17 -21.5t-33 -17t-51.5 -7.5h-120q-82 0 -121 39t-39 121v400h90v-400q0 -42 15.5 -59t54.5 -17h120q39 0 54.5 17t15.5 59v400h90v-400q0 -42 15.5 -59t54.5 -17h120q39 0 54.5 17t15.5 59v400h90
v-400q0 -82 -39 -121t-121 -39z" />
    <glyph glyph-name="xsc.salt" unicode="&#xf854;" horiz-adv-x="640" 
d="M570 560v-165q0 -54 -21 -80t-42 -29l-7 -1v-10q3 0 7.5 -1t16.5 -7.5t21.5 -17t17 -33t7.5 -51.5v-165h-90v165q0 42 -14.5 57.5t-55.5 15.5h-180q-41 0 -55.5 -15.5t-14.5 -57.5v-165h-90v165q0 54 21 80t42 29l7 1v10q-3 0 -7.5 1t-16.5 7.5t-21.5 17t-17 33
t-7.5 51.5v165h90v-165q0 -42 14.5 -57.5t55.5 -15.5h180q41 0 55.5 15.5t14.5 57.5v165h90z" />
    <glyph glyph-name="ysc.salt" unicode="&#xf855;" horiz-adv-x="610" 
d="M465 350v210h90v-210q0 -82 -38.5 -121t-121.5 -39h-45v-190h-90v190h-45q-83 0 -121.5 39t-38.5 121v210h90v-210q0 -42 15.5 -59t54.5 -17h180q39 0 54.5 17t15.5 59z" />
    <glyph glyph-name="agravesc.salt" unicode="&#xf856;" horiz-adv-x="640" 
d="M230 560h180q82 0 121 -39t39 -121v-400h-90v178h-320v-178h-90v400q0 82 39 121t121 39zM160 262h320v138q0 42 -15.5 59t-54.5 17h-180q-39 0 -54.5 -17t-15.5 -59v-138zM275 790l100 -150h-65l-130 150h95z" />
    <glyph glyph-name="aacutesc.salt" unicode="&#xf857;" horiz-adv-x="640" 
d="M230 560h180q82 0 121 -39t39 -121v-400h-90v178h-320v-178h-90v400q0 82 39 121t121 39zM160 262h320v138q0 42 -15.5 59t-54.5 17h-180q-39 0 -54.5 -17t-15.5 -59v-138zM365 790h95l-130 -150h-65z" />
    <glyph glyph-name="acircumflexsc.salt" unicode="&#xf858;" horiz-adv-x="640" 
d="M230 560h180q82 0 121 -39t39 -121v-400h-90v178h-320v-178h-90v400q0 82 39 121t121 39zM160 262h320v138q0 42 -15.5 59t-54.5 17h-180q-39 0 -54.5 -17t-15.5 -59v-138zM325 736h-10l-73 -96h-75l114 150h78l114 -150h-76z" />
    <glyph glyph-name="atildesc.salt" unicode="&#xf859;" horiz-adv-x="640" 
d="M230 560h180q82 0 121 -39t39 -121v-400h-90v178h-320v-178h-90v400q0 82 39 121t121 39zM160 262h320v138q0 42 -15.5 59t-54.5 17h-180q-39 0 -54.5 -17t-15.5 -59v-138zM255 667v-27h-60v27q0 45 17.5 62.5t62.5 17.5h90q12 0 16 5.5t4 20.5v27h60v-27
q0 -45 -17.5 -62.5t-62.5 -17.5h-90q-12 0 -16 -5.5t-4 -20.5z" />
    <glyph glyph-name="adieresissc.salt" unicode="&#xf860;" horiz-adv-x="640" 
d="M230 560h180q82 0 121 -39t39 -121v-400h-90v178h-320v-178h-90v400q0 82 39 121t121 39zM160 262h320v138q0 42 -15.5 59t-54.5 17h-180q-39 0 -54.5 -17t-15.5 -59v-138zM438 646q-16 -16 -38 -16t-39 16q-16 16 -16 39t16 39q17 16 39 16t38 -16q17 -16 17 -39
t-17 -39zM278 646q-16 -16 -38 -16t-39 16q-16 16 -16 39t16 39q17 16 39 16t38 -16q17 -16 17 -39t-17 -39z" />
    <glyph glyph-name="aringsc.salt" unicode="&#xf861;" horiz-adv-x="640" 
d="M230 560h180q82 0 121 -39t39 -121v-400h-90v178h-320v-178h-90v400q0 82 39 121t121 39zM160 262h320v138q0 42 -15.5 59t-54.5 17h-180q-39 0 -54.5 -17t-15.5 -59v-138zM320 630q-40 0 -67.5 27.5t-27.5 67.5q0 39 27.5 67t67.5 28q39 0 67 -28t28 -67
q0 -40 -28 -67.5t-67 -27.5zM348 753q-12 12 -28 12t-28 -12q-12 -11 -12 -28t12 -29q12 -11 28 -11t28 11q12 12 12 29t-12 28z" />
    <glyph glyph-name="aesc.salt" unicode="&#xf862;" horiz-adv-x="995" 
d="M940 476h-300q-39 0 -54.5 -17t-15.5 -59v-78h360v-84h-360v-78q0 -42 15.5 -59t54.5 -17h300v-84h-300q-82 0 -121 39t-39 121v18h-320v-178h-90v400q0 82 39 121t121 39h180q54 0 80 -21t29 -42l1 -7h10q0 3 1 7.5t7.5 16.5t17 21.5t33 17t51.5 7.5h300v-84zM160 262
h320v138q0 42 -15.5 59t-54.5 17h-180q-39 0 -54.5 -17t-15.5 -59v-138z" />
    <glyph glyph-name="egravesc.salt" unicode="&#xf863;" horiz-adv-x="580" 
d="M525 476h-300q-39 0 -54.5 -17t-15.5 -59v-78h360v-84h-360v-78q0 -42 15.5 -59t54.5 -17h300v-84h-300q-83 0 -121.5 39t-38.5 121v240q0 82 38.5 121t121.5 39h300v-84zM250 790l100 -150h-65l-130 150h95z" />
    <glyph glyph-name="eacutesc.salt" unicode="&#xf864;" horiz-adv-x="580" 
d="M340 790h95l-130 -150h-65zM525 476h-300q-39 0 -54.5 -17t-15.5 -59v-78h360v-84h-360v-78q0 -42 15.5 -59t54.5 -17h300v-84h-300q-83 0 -121.5 39t-38.5 121v240q0 82 38.5 121t121.5 39h300v-84z" />
    <glyph glyph-name="ecircumflexsc.salt" unicode="&#xf865;" horiz-adv-x="580" 
d="M525 476h-300q-39 0 -54.5 -17t-15.5 -59v-78h360v-84h-360v-78q0 -42 15.5 -59t54.5 -17h300v-84h-300q-83 0 -121.5 39t-38.5 121v240q0 82 38.5 121t121.5 39h300v-84zM300 736h-10l-73 -96h-75l114 150h78l114 -150h-76z" />
    <glyph glyph-name="edieresissc.salt" unicode="&#xf866;" horiz-adv-x="580" 
d="M525 476h-300q-39 0 -54.5 -17t-15.5 -59v-78h360v-84h-360v-78q0 -42 15.5 -59t54.5 -17h300v-84h-300q-83 0 -121.5 39t-38.5 121v240q0 82 38.5 121t121.5 39h300v-84zM414 646q-16 -16 -39 -16t-39 16t-16 39t16 39t39 16t39 -16t16 -39t-16 -39zM254 646
q-16 -16 -39 -16t-39 16t-16 39t16 39t39 16t39 -16t16 -39t-16 -39z" />
    <glyph glyph-name="ntildesc.salt" unicode="&#xf867;" horiz-adv-x="640" 
d="M230 560h180q82 0 121 -39t39 -121v-400h-90v400q0 42 -15.5 59t-54.5 17h-180q-39 0 -54.5 -17t-15.5 -59v-400h-90v400q0 82 39 121t121 39zM255 667v-27h-60v27q0 45 17.5 62.5t62.5 17.5h90q12 0 16 5.5t4 20.5v27h60v-27q0 -45 -17.5 -62.5t-62.5 -17.5h-90
q-12 0 -16 -5.5t-4 -20.5z" />
    <glyph glyph-name="yacutesc.salt" unicode="&#xf868;" horiz-adv-x="610" 
d="M350 790h95l-130 -150h-65zM465 350v210h90v-210q0 -82 -38.5 -121t-121.5 -39h-45v-190h-90v190h-45q-83 0 -121.5 39t-38.5 121v210h90v-210q0 -42 15.5 -59t54.5 -17h180q39 0 54.5 17t15.5 59z" />
    <glyph glyph-name="ydieresissc.salt" unicode="&#xf869;" horiz-adv-x="610" 
d="M424 646q-16 -16 -39 -16t-39 16t-16 39t16 39t39 16t39 -16t16 -39t-16 -39zM264 646q-16 -16 -39 -16t-39 16t-16 39t16 39t39 16t39 -16t16 -39t-16 -39zM465 350v210h90v-210q0 -82 -38.5 -121t-121.5 -39h-45v-190h-90v190h-45q-83 0 -121.5 39t-38.5 121v210h90
v-210q0 -42 15.5 -59t54.5 -17h180q39 0 54.5 17t15.5 59z" />
    <glyph glyph-name="f_f" unicode="&#xfb00;" horiz-adv-x="745" 
d="M700 676h-160q-29 0 -39.5 -12.5t-10.5 -43.5v-60h190v-84h-190v-476h-90v476h-240v-476h-90v620q0 75 32.5 107.5t107.5 32.5h150v-84h-150q-29 0 -39.5 -12.5t-10.5 -43.5v-60h240v60q0 75 32.5 107.5t107.5 32.5h160v-84z" />
    <glyph glyph-name="fi" unicode="&#xfb01;" horiz-adv-x="560" 
d="M160 620v-60h330v-560h-90v476h-240v-476h-90v620q0 75 32.5 107.5t107.5 32.5h160v-84h-160q-29 0 -39.5 -12.5t-10.5 -43.5z" />
    <glyph glyph-name="fl" unicode="&#xfb02;" horiz-adv-x="650" 
d="M540 84h80v-84h-80q-75 0 -107.5 32.5t-32.5 107.5v536h-190q-29 0 -39.5 -12.5t-10.5 -43.5v-60h190v-84h-190v-476h-90v620q0 75 32.5 107.5t107.5 32.5h280v-620q0 -31 10.5 -43.5t39.5 -12.5z" />
    <glyph glyph-name="f_f_i" unicode="&#xfb03;" horiz-adv-x="890" 
d="M490 620v-60h330v-560h-90v476h-240v-476h-90v476h-240v-476h-90v620q0 75 32.5 107.5t107.5 32.5h150v-84h-150q-29 0 -39.5 -12.5t-10.5 -43.5v-60h240v60q0 75 32.5 107.5t107.5 32.5h160v-84h-160q-29 0 -39.5 -12.5t-10.5 -43.5z" />
    <glyph glyph-name="f_f_l" unicode="&#xfb04;" horiz-adv-x="980" 
d="M870 84h80v-84h-80q-75 0 -107.5 32.5t-32.5 107.5v536h-190q-29 0 -39.5 -12.5t-10.5 -43.5v-60h190v-84h-190v-476h-90v476h-240v-476h-90v620q0 75 32.5 107.5t107.5 32.5h150v-84h-150q-29 0 -39.5 -12.5t-10.5 -43.5v-60h240v60q0 75 32.5 107.5t107.5 32.5h280
v-620q0 -31 10.5 -43.5t39.5 -12.5z" />
    <glyph glyph-name="arrow1" unicode="&#xfb05;" horiz-adv-x="380" 
d="M320 510v-300l-260 150z" />
    <glyph glyph-name="arrow2" unicode="&#xfb06;" horiz-adv-x="420" 
d="M360 273h-300l150 260z" />
    <glyph glyph-name="arrow3" unicode="&#xfb07;" horiz-adv-x="380" 
d="M320 360l-260 -150v300z" />
    <glyph glyph-name="arrow4" unicode="&#xfb08;" horiz-adv-x="420" 
d="M360 447l-150 -260l-150 260h300z" />
    <glyph glyph-name="arrow5" unicode="&#xfb09;" horiz-adv-x="660" 
d="M139 551q79 79 191 79t191 -79t79 -191t-79 -191t-191 -79t-191 79t-79 191t79 191zM157 360l260 -150v300z" />
    <glyph glyph-name="arrow6" unicode="&#xfb10;" horiz-adv-x="660" 
d="M139 551q79 79 191 79t191 -79t79 -191t-79 -191t-191 -79t-191 79t-79 191t79 191zM330 533l-150 -260h300z" />
    <glyph glyph-name="arrow7" unicode="&#xfb11;" horiz-adv-x="660" 
d="M139 551q79 79 191 79t191 -79t79 -191t-79 -191t-191 -79t-191 79t-79 191t79 191zM243 510v-300l260 150z" />
    <glyph glyph-name="arrow8" unicode="&#xfb12;" horiz-adv-x="660" 
d="M139 551q79 79 191 79t191 -79t79 -191t-79 -191t-191 -79t-191 79t-79 191t79 191zM180 447l150 -260l150 260h-300z" />
    <glyph glyph-name="NULL" horiz-adv-x="0" 
 />
    <glyph glyph-name="CR" horiz-adv-x="333" 
 />
    </font>
</defs>
</svg>
